<?xml version="1.0" encoding="UTF-8"?>
<svg width="927px" height="926px" viewBox="0 0 927 926" version="1.1" xmlns="http://www.w3.org/2000/svg" xmlns:xlink="http://www.w3.org/1999/xlink">
    <!-- Generator: Sketch 51.3 (57544) - http://www.bohemiancoding.com/sketch -->
    <title>icon</title>
    <desc>Created with Sketch.</desc>
    <defs></defs>
    <g id="Page-1" stroke="none" stroke-width="1" fill="none" fill-rule="evenodd">
        <g id="icon" fill="#000000" fill-rule="nonzero">
            <path d="M313.3,462.9 C313.284845,424.478524 328.04307,387.522095 354.52,359.68 C312.67,342.28 270.07,335.8 224.89,342.54 C121.89,357.92 54.12,448.83 69.44,551.72 C80.73,627.58 118.93,688.35 173.44,740.03 C182.39,748.52 193.32,755.52 204.44,761.03 C230.57,774.03 249.73,767.65 264.06,742.44 C267.49,736.44 270.32,730.01 273.29,723.72 C296.09,675.52 324.64,631.16 361.19,592.14 C364.46,588.65 367.39,584.84 370.43,581.24 C369.82,580.63 369.29,579.99 368.7,579.38 C333.630531,550.88051 313.278336,508.089469 313.3,462.9 Z" id="Shape"></path>
            <path d="M737.69,759.89 C797.69,712.18 831.27,648.72 848.79,575.69 C851.67,563.69 852.27,550.69 851.5,538.37 C849.71,509.23 834.59,495.84 805.6,496.04 C798.65,496.04 791.71,496.83 784.77,497.4 C731.62,501.75 678.93,499.21 626.87,487.06 C622.21,485.97 617.45,485.34 612.81,484.51 C612.58,485.34 612.29,486.12 612.06,486.94 C605.414458,528.191771 581.872527,564.805664 547.098854,587.971664 C512.325182,611.137663 469.468151,618.758336 428.84,609 C434.7,653.95 450.38,694.07 478.84,729.83 C543.64,811.4 656.25,824.6 737.69,759.89 Z" id="Shape"></path>
            <path d="M333,167.58 C363.34,211.43 387.49,258.33 403,309.49 C404.39,314.07 406.22,318.49 407.82,322.95 C408.65,322.72 409.47,322.59 410.3,322.38 C449.344927,307.504414 492.823817,309.580227 530.273971,328.107919 C567.724126,346.63561 595.754534,379.937547 607.62,420 C643.62,392.45 670.53,358.81 687.28,316.31 C725.48,219.39 680.61,115.31 583.85,77.1 C512.5,48.95 440.78,51.64 368.77,73 C356.95,76.51 345.42,82.47 335.1,89.31 C310.76,105.43 306.73,125.22 321.39,150.23 C324.89,156.21 329,161.85 333,167.58 Z" id="Shape"></path>
            <path d="M577,462.9 C576.983432,400.307954 526.232052,349.578957 463.640005,349.590002 C401.047958,349.601046 350.314483,400.34795 350.320004,462.939997 C350.325525,525.532045 401.067952,576.269998 463.66,576.27 C526.263094,576.258955 577.005523,525.503095 577,462.9 Z" id="Shape"></path>
            <path d="M463.67,0.07 C208.46,0.07 0.84,207.69 0.84,462.9 C0.84,718.11 208.46,925.74 463.67,925.74 C718.88,925.74 926.5,718.11 926.5,462.9 C926.5,207.69 718.87,0.07 463.67,0.07 Z M463.67,904.97 C219.92,904.97 21.62,706.66 21.62,462.9 C21.62,219.14 219.92,20.85 463.67,20.85 C707.42,20.85 905.72,219.15 905.72,462.9 C905.72,706.65 707.42,905 463.67,905 L463.67,904.97 Z" id="Shape"></path>
        </g>
    </g>
</svg>