<?xml version="1.0" encoding="UTF-8"?>
<svg width="2000px" height="2000px" viewBox="0 0 2000 2000" version="1.1" xmlns="http://www.w3.org/2000/svg" xmlns:xlink="http://www.w3.org/1999/xlink">
    <!-- Generator: Sketch 51.3 (57544) - http://www.bohemiancoding.com/sketch -->
    <title>circle</title>
    <desc>Created with Sketch.</desc>
    <defs></defs>
    <g id="Page-1" stroke="none" stroke-width="1" fill="none" fill-rule="evenodd">
        <g id="circle" transform="translate(326.000000, 327.000000)" fill="#000000" fill-rule="nonzero">
            <path d="M673.67,1346.89 C302.45,1346.89 0.44,1044.89 0.44,673.68 C0.44,302.47 302.44,0.43 673.67,0.43 C1044.9,0.43 1346.88,302.43 1346.88,673.68 C1346.88,1044.93 1044.89,1346.89 673.67,1346.89 Z M673.67,37.23 C322.74,37.23 37.24,322.73 37.24,673.68 C37.24,1024.63 322.74,1310.09 673.67,1310.09 C1024.6,1310.09 1310.08,1024.59 1310.08,673.68 C1310.08,322.77 1024.58,37.23 673.67,37.23 Z" id="Shape"></path>
            <path d="M673.67,1234.33 C364.52,1234.33 113.02,982.83 113.02,673.68 C113.02,364.53 364.52,113 673.67,113 C982.82,113 1234.32,364.5 1234.32,673.65 C1234.32,982.8 982.82,1234.33 673.67,1234.33 Z M673.67,131.43 C374.67,131.43 131.42,374.67 131.42,673.68 C131.42,972.69 374.67,1215.93 673.67,1215.93 C972.67,1215.93 1215.92,972.69 1215.92,673.68 C1215.92,374.67 972.67,131.43 673.67,131.43 Z" id="Shape"></path>
        </g>
    </g>
</svg>