<?xml version="1.0" encoding="UTF-8"?>
<svg width="2000px" height="2000px" viewBox="0 0 2000 2000" version="1.1" xmlns="http://www.w3.org/2000/svg" xmlns:xlink="http://www.w3.org/1999/xlink">
    <!-- Generator: Sketch 51.3 (57544) - http://www.bohemiancoding.com/sketch -->
    <title>abstract</title>
    <desc>Created with Sketch.</desc>
    <defs></defs>
    <g id="Page-1" stroke="none" stroke-width="1" fill="none" fill-rule="evenodd">
        <g id="heaters" transform="translate(-7500.000000, 0.000000)" fill="#000000" fill-rule="nonzero">
            <g id="abstract" transform="translate(8112.000000, 252.000000)">
                <path d="M237.671344,1500 C209.616346,1475.54148 183.029341,1449.69699 156.850113,1423.68943 C143.678944,1410.76718 130.91555,1397.51882 118.029824,1384.39275 L113.218066,1379.46028 C111.586961,1377.78895 109.955857,1375.83227 108.324752,1374.03864 L98.4973472,1362.95078 C95.1943605,1359.28201 92.2583723,1355.28712 89.118496,1351.41452 C85.9786197,1347.54192 82.8387434,1343.66932 79.9435328,1339.63367 C31.6328062,1273.05726 4.00525164,1193.73216 0.508740656,1111.55801 C-0.499389332,1090.69207 -0.00879874437,1069.78072 1.97673476,1048.98497 C3.11850796,1038.5901 4.21950354,1028.1137 6.05449617,1017.80036 C6.99238129,1012.62331 7.72637835,1007.4055 8.86815154,1002.26921 L12.3342487,986.860342 C13.4352443,981.683289 14.944016,976.669294 16.4120101,971.57377 C17.8800042,966.478246 19.2256655,961.382721 20.8567701,956.368726 C24.241312,946.381498 27.4627436,936.231215 31.6220602,926.488572 C39.4583876,906.69636 48.6975939,887.488405 59.2692825,869.011061 L67.4248053,855.314292 C68.8112442,853.031497 70.1569055,850.748702 71.5025667,848.465908 L76.0288819,841.862108 L85.1222898,828.65451 L94.8681396,815.895318 C101.18867,807.253309 108.52864,799.58964 115.460835,791.232981 C119.049265,787.156562 122.841583,783.44702 126.511568,779.574422 C130.181553,775.701824 133.892316,771.788461 137.847745,768.160448 C145.636269,760.782129 153.506349,753.444574 161.865759,746.759247 C165.943521,743.375819 170.021282,739.829334 174.343709,736.608963 L187.229435,726.988613 C189.390649,725.39881 191.307197,723.768242 193.713076,722.259967 L200.400605,717.857434 L213.857217,709.093133 L223.56229,702.693154 C226.661388,700.573416 229.923597,698.616735 232.859586,696.374704 C282.167739,661.707431 322.07707,615.325303 348.99423,561.404462 C376.565513,506.025267 390.278747,444.783656 388.956292,382.938827 L388.385406,371.198739 L388.14074,365.287931 L387.936852,359.54018 L386.876634,347.718564 L385.204752,335.937712 C384.348422,327.988695 382.513429,320.284262 381.12699,312.335245 C380.392993,308.258825 379.25122,304.549284 378.39489,300.635921 C377.53856,296.722559 376.68223,292.727668 375.458902,288.895834 C373.134578,281.191401 371.095697,273.283148 368.282042,265.660244 C366.936381,261.82841 365.75383,257.874283 364.20428,254.083213 L359.677965,242.669239 L357.394419,236.921488 L354.825429,231.29603 L349.68745,219.963584 C347.893235,216.213278 345.895132,212.585265 344.019362,208.834959 C342.143591,205.084654 340.390154,201.538169 338.025052,197.380221 C320.246013,165.258037 302.630083,132.972797 285.829706,100.116857 C269.029329,67.260918 252.514396,34.2011577 237.549011,0 C265.726343,24.4585156 292.517235,50.0176645 318.778018,75.9029269 C345.038802,101.788189 370.728699,128.121858 396.255485,154.659347 C399.395361,157.757426 402.779903,161.874609 406.042113,165.543387 C409.304322,169.212164 412.688864,173.043998 415.869517,176.916596 L425.126036,188.819741 L429.733906,194.812077 L434.056333,201.008234 L442.619632,213.522842 C445.433288,217.599261 447.920722,222.16485 450.775155,226.485855 C456.239355,235.087099 460.806448,244.177514 465.577429,253.267929 C484.101972,290.276288 497.190392,329.762024 504.438495,370.505748 C525.997533,497.702919 492.05151,628.041235 411.180092,728.578417 C384.18094,762.089747 352.61012,791.646774 317.39158,816.384488 C313.10993,819.604859 308.50206,822.33606 304.016522,825.311846 L290.845353,833.790798 L281.384946,839.905427 C278.204292,841.902873 275.064416,843.981846 272.046873,846.183113 L263.075798,852.786912 C260.017477,854.947414 257.163044,857.393266 254.227055,859.676061 C248.191968,864.160122 242.727768,869.255646 237.018902,874.106585 C214.613512,894.200599 194.743971,916.952018 177.850584,941.856673 C143.496811,993.244897 122.155355,1052.21187 115.664723,1113.67775 C112.267174,1145.37413 112.760165,1177.36693 117.132717,1208.94366 C121.703639,1241.55448 130.178174,1273.49802 142.37406,1304.08729 C143.801276,1308.16371 145.636269,1311.79172 147.267374,1315.70508 C148.898478,1319.61845 150.488805,1323.53181 152.446131,1327.32288 L158.154997,1338.73685 L161.050207,1344.52537 L164.271639,1350.64 C172.834938,1366.94567 181.520569,1383.25135 189.798425,1399.55703 C206.476469,1432.57603 222.787515,1465.75808 237.671344,1500 Z" id="Shape"></path>
                <path d="M613.880362,1251.41884 C597.304992,1236.82624 581.544137,1221.62222 566.068361,1206.21439 C558.249022,1198.55123 550.714763,1190.72504 543.099053,1182.9396 C539.31156,1179.27107 535.401891,1174.54274 531.532947,1170.26278 C527.664003,1165.98283 524.120865,1161.17298 520.577727,1156.44465 C492.022888,1116.98475 475.680341,1069.99769 473.580241,1021.32043 C470.239707,944.939301 499.916418,870.816093 555.03169,817.880005 C559.633697,813.518529 564.276429,809.157053 569.244968,805.203192 C574.213506,801.249331 579.141319,797.050901 584.27276,793.504654 C589.404201,789.958408 594.779997,786.412161 600.033615,782.865914 L605.775943,779.075099 C607.6086,777.811494 609.563435,776.710935 611.273915,775.325045 C640.440112,754.762807 664.059358,727.285545 680.018938,695.35107 C684.102856,687.333079 687.653708,679.054106 690.648352,670.568105 C691.992301,666.288153 693.539879,662.0082 694.720925,657.605963 C695.331811,655.404844 696.024148,653.244487 696.594308,651.043368 L698.182611,644.399251 C699.282206,639.956252 699.933818,635.431731 700.789058,630.947971 C701.644298,626.464211 702.133007,621.858166 702.458812,617.292883 C703.447224,608.088624 703.841724,598.83016 703.639858,589.575094 C703.142802,570.717033 700.408584,551.984895 695.494714,533.772662 C692.956664,524.457317 689.841915,515.309074 686.168523,506.380964 C684.498768,501.774919 682.09595,497.454205 680.304018,492.929684 C678.512086,488.405162 675.90564,484.329016 673.339919,479.600688 C662.832683,460.565088 652.406897,441.447966 642.46982,421.96399 C632.532744,402.480014 622.75857,382.914516 613.961813,362.656073 C630.65936,377.167151 646.542393,392.289651 662.018168,407.493673 C677.493943,422.697696 692.76609,438.431618 707.793882,454.16554 C711.581375,458.241685 715.53177,462.929252 719.359988,467.372251 C723.188206,471.81525 726.812796,476.665863 730.152305,481.63876 C733.491814,486.611658 736.912775,491.543794 739.926479,496.76126 C742.940183,501.978727 745.831709,507.236954 748.68251,512.617466 C751.53331,517.997978 753.936128,523.541536 756.29822,529.166617 C758.660312,534.791698 760.818776,540.498302 762.569982,546.367951 C766.482515,558.027016 769.518262,569.962656 771.651818,582.074986 C780.214137,631.626411 774.565661,682.592098 755.361529,729.060794 C735.847814,776.312915 703.250132,817.000307 661.407282,846.3315 C658.882287,848.247289 656.153664,849.877747 653.506492,851.630489 L645.687153,856.644148 C642.021837,859.130597 638.112168,861.331716 634.56903,863.98121 C631.025892,866.630705 627.279125,869.076392 623.89889,871.888933 C620.518655,874.701473 617.097694,877.554775 613.717459,880.448838 C600.468132,892.366485 588.695676,905.832524 578.65261,920.55811 C558.307926,951.022579 545.723942,986.008758 541.999458,1022.46175 C537.954464,1060.80224 543.39509,1099.54997 557.841765,1135.28946 C559.715148,1139.8955 561.669983,1144.50155 563.787721,1149.06683 C565.905458,1153.63211 568.104647,1157.91206 570.792545,1162.88496 C575.842535,1172.54543 581.014702,1182.12437 585.901789,1191.90712 C595.553786,1211.67642 605.205782,1231.1604 613.880362,1251.41884 Z" id="Shape"></path>
            </g>
        </g>
    </g>
</svg>