<?xml version="1.0" encoding="UTF-8"?>
<svg width="2000px" height="2000px" viewBox="0 0 2000 2000" version="1.1" xmlns="http://www.w3.org/2000/svg" xmlns:xlink="http://www.w3.org/1999/xlink">
    <!-- Generator: Sketch 51.3 (57544) - http://www.bohemiancoding.com/sketch -->
    <title>standard</title>
    <desc>Created with Sketch.</desc>
    <defs></defs>
    <g id="Page-1" stroke="none" stroke-width="1" fill="none" fill-rule="evenodd">
        <g id="heaters" fill="#000000" fill-rule="nonzero">
            <g id="heater" transform="translate(314.000000, 374.000000)">
                <path d="M1262.34,390.14 L110.91,390.14 C50.1838112,390.200635 0.970635281,439.413811 0.91,500.14 L0.91,1079.76 C0.978932913,1132.09173 37.8556658,1177.15215 89.14,1187.57 C93.69,1224.79 116.14,1252.33 144.19,1252.33 C171.68,1252.33 193.95,1225.89 199.09,1189.77 L1174.15,1189.77 C1179.28,1225.9 1201.55,1252.33 1229.05,1252.33 C1257.05,1252.33 1279.55,1224.78 1284.1,1187.57 C1335.38433,1177.15215 1372.26107,1132.09173 1372.33,1079.76 L1372.33,500.14 C1372.26937,439.417711 1323.06228,390.206146 1262.34,390.14 Z M144.2,1220.33 C135.29,1220.33 125.55,1208.01 121.79,1189.78 L166.61,1189.78 C162.85,1208 153.11,1220.33 144.2,1220.33 Z M1229.05,1220.33 C1220.14,1220.33 1210.4,1208.01 1206.64,1189.78 L1251.46,1189.78 C1247.71,1208 1238,1220.33 1229.05,1220.33 Z M1340.33,1079.77 C1340.28617,1122.76373 1305.49353,1157.63236 1262.5,1157.77 L1173,1157.77 L200.21,1157.77 L110.76,1157.77 C67.766472,1157.63236 32.9738307,1122.76373 32.93,1079.77 L32.93,500.14 C32.9795961,457.08235 67.8723496,422.189596 110.93,422.14 L1262.34,422.14 C1305.39765,422.189596 1340.2904,457.08235 1340.34,500.14 L1340.33,1079.77 Z" id="Shape"></path>
                <path d="M422.27,471.41 L144.2,471.41 C135.551221,471.41 128.54,478.421221 128.54,487.07 C128.54,495.718779 135.551221,502.73 144.2,502.73 L422.27,502.73 C430.918779,502.73 437.93,495.718779 437.93,487.07 C437.93,478.421221 430.918779,471.41 422.27,471.41 Z" id="Shape"></path>
                <path d="M825.66,471.41 L547.59,471.41 C538.941221,471.41 531.93,478.421221 531.93,487.07 C531.93,495.718779 538.941221,502.73 547.59,502.73 L825.66,502.73 C834.308779,502.73 841.32,495.718779 841.32,487.07 C841.32,478.421221 834.308779,471.41 825.66,471.41 Z" id="Shape"></path>
                <path d="M1229.05,471.41 L951,471.41 C942.351221,471.41 935.34,478.421221 935.34,487.07 C935.34,495.718779 942.351221,502.73 951,502.73 L1229.07,502.73 C1237.71878,502.73 1244.73,495.718779 1244.73,487.07 C1244.73,478.421221 1237.71878,471.41 1229.07,471.41 L1229.05,471.41 Z" id="Shape"></path>
                <path d="M422.27,523.64 L144.2,523.64 C135.551221,523.64 128.54,530.651221 128.54,539.3 C128.54,547.948779 135.551221,554.96 144.2,554.96 L422.27,554.96 C430.918779,554.96 437.93,547.948779 437.93,539.3 C437.93,530.651221 430.918779,523.64 422.27,523.64 Z" id="Shape"></path>
                <path d="M825.66,523.64 L547.59,523.64 C538.941221,523.64 531.93,530.651221 531.93,539.3 C531.93,547.948779 538.941221,554.96 547.59,554.96 L825.66,554.96 C834.308779,554.96 841.32,547.948779 841.32,539.3 C841.32,530.651221 834.308779,523.64 825.66,523.64 Z" id="Shape"></path>
                <path d="M1229.05,523.64 L951,523.64 C942.340175,523.64 935.32,530.660175 935.32,539.32 C935.32,547.979825 942.340175,555 951,555 L1229.07,555 C1237.71878,555 1244.73,547.988779 1244.73,539.34 C1244.73,530.691221 1237.71878,523.68 1229.07,523.68 L1229.05,523.64 Z" id="Shape"></path>
                <path d="M422.27,575.86 L144.2,575.86 C138.605221,575.86 133.435431,578.844779 130.638041,583.69 C127.840651,588.535221 127.840651,594.504779 130.638041,599.35 C133.435431,604.195221 138.605221,607.18 144.2,607.18 L422.27,607.18 C427.864779,607.18 433.034569,604.195221 435.831959,599.35 C438.629349,594.504779 438.629349,588.535221 435.831959,583.69 C433.034569,578.844779 427.864779,575.86 422.27,575.86 Z" id="Shape"></path>
                <path d="M825.66,575.86 L547.59,575.86 C541.995221,575.86 536.825431,578.844779 534.028041,583.69 C531.230651,588.535221 531.230651,594.504779 534.028041,599.35 C536.825431,604.195221 541.995221,607.18 547.59,607.18 L825.66,607.18 C834.308779,607.179999 841.319999,600.168779 841.319999,591.52 C841.319999,582.871221 834.308779,575.860001 825.66,575.86 Z" id="Shape"></path>
                <path d="M1229.05,575.86 L951,575.86 C942.351221,575.860001 935.340001,582.871221 935.340001,591.52 C935.340001,600.168779 942.351221,607.179999 951,607.18 L1229.07,607.18 C1234.66478,607.18 1239.83457,604.195221 1242.63196,599.35 C1245.42935,594.504779 1245.42935,588.535221 1242.63196,583.69 C1239.83457,578.844779 1234.66478,575.86 1229.07,575.86 L1229.05,575.86 Z" id="Shape"></path>
                <path d="M306.45,368.77 C299.57,362.77 293.05,356.43 286.63,350.05 C283.4,346.88 280.27,343.63 277.11,340.41 L275.93,339.2 C275.53,338.79 275.13,338.31 274.73,337.87 L272.32,335.15 C271.51,334.25 270.79,333.27 270.02,332.32 C269.25,331.37 268.48,330.42 267.77,329.43 C255.922635,313.097919 249.147458,293.638415 248.29,273.48 C248.042774,268.361308 248.163082,263.231474 248.65,258.13 C248.93,255.58 249.2,253.01 249.65,250.48 C249.88,249.21 250.06,247.93 250.34,246.67 L251.19,242.89 C251.46,241.62 251.83,240.39 252.19,239.14 C252.55,237.89 252.88,236.64 253.28,235.41 C254.11,232.96 254.9,230.47 255.92,228.08 C257.841723,223.224706 260.107477,218.512739 262.7,213.98 L264.7,210.62 C265.04,210.06 265.37,209.5 265.7,208.94 L266.81,207.32 L269.04,204.08 L271.43,200.95 C272.98,198.83 274.78,196.95 276.48,194.9 C277.36,193.9 278.29,192.99 279.19,192.04 C280.09,191.09 281,190.13 281.97,189.24 C283.88,187.43 285.81,185.63 287.86,183.99 C288.86,183.16 289.86,182.29 290.92,181.5 L294.08,179.14 C294.61,178.75 295.08,178.35 295.67,177.98 L297.31,176.9 L300.61,174.75 L302.99,173.18 C303.75,172.66 304.55,172.18 305.27,171.63 C317.361966,163.125656 327.149035,151.747501 333.75,138.52 C340.511377,124.934745 343.874309,109.911361 343.55,94.74 L343.41,91.86 L343.35,90.41 L343.3,89 L343.04,86.1 L342.63,83.21 C342.42,81.26 341.97,79.37 341.63,77.42 C341.45,76.42 341.17,75.51 340.96,74.55 C340.75,73.59 340.54,72.61 340.24,71.67 C339.67,69.78 339.17,67.84 338.48,65.97 C338.15,65.03 337.86,64.06 337.48,63.13 L336.37,60.33 L335.81,58.92 L335.18,57.54 L333.92,54.76 C333.48,53.84 332.99,52.95 332.53,52.03 C332.07,51.11 331.64,50.24 331.06,49.22 C326.7,41.34 322.38,33.42 318.26,25.36 C314.14,17.3 310.09,9.19 306.42,0.8 C313.33,6.8 319.9,13.07 326.34,19.42 C332.78,25.77 339.08,32.23 345.34,38.74 C346.11,39.5 346.94,40.51 347.74,41.41 C348.54,42.31 349.37,43.25 350.15,44.2 L352.42,47.12 L353.55,48.59 L354.61,50.11 L356.71,53.18 C357.4,54.18 358.01,55.3 358.71,56.36 C360.05,58.47 361.17,60.7 362.34,62.93 C366.882822,72.0086438 370.092529,81.6950214 371.87,91.69 C377.156979,122.893162 368.832307,154.866889 349,179.53 C342.378928,187.750776 334.636734,195.001509 326,201.07 C324.95,201.86 323.82,202.53 322.72,203.26 L319.49,205.34 L317.17,206.84 C316.39,207.33 315.62,207.84 314.88,208.38 L312.68,210 C311.93,210.53 311.23,211.13 310.51,211.69 C309.03,212.79 307.69,214.04 306.29,215.23 C300.795468,220.15933 295.922809,225.740556 291.78,231.85 C283.355335,244.456217 278.121714,258.921601 276.53,274 C275.69681,281.775546 275.817708,289.623807 276.89,297.37 C278.010939,305.369868 280.089171,313.206045 283.08,320.71 C283.43,321.71 283.88,322.6 284.28,323.56 C284.68,324.52 285.07,325.48 285.55,326.41 L286.95,329.21 L287.66,330.63 L288.45,332.13 C290.55,336.13 292.68,340.13 294.71,344.13 C298.8,352.23 302.8,360.37 306.45,368.77 Z" id="Shape"></path>
                <path d="M681.77,368.77 C674.89,362.77 668.37,356.43 661.95,350.05 C658.72,346.88 655.59,343.63 652.43,340.41 L651.25,339.2 C650.85,338.79 650.45,338.31 650.05,337.87 L647.64,335.15 C646.83,334.25 646.11,333.27 645.34,332.32 C644.57,331.37 643.8,330.42 643.09,329.43 C631.242635,313.097919 624.467458,293.638415 623.61,273.48 C623.362774,268.361308 623.483082,263.231474 623.97,258.13 C624.25,255.58 624.52,253.01 624.97,250.48 C625.2,249.21 625.38,247.93 625.66,246.67 L626.51,242.89 C626.78,241.62 627.15,240.39 627.51,239.14 C627.87,237.89 628.2,236.64 628.6,235.41 C629.43,232.96 630.22,230.47 631.24,228.08 C633.156123,223.232095 635.415174,218.526852 638,214 L640,210.64 C640.34,210.08 640.67,209.52 641,208.96 L642.11,207.34 L644.34,204.1 L646.73,200.97 C648.28,198.85 650.08,196.97 651.78,194.92 C652.66,193.92 653.59,193.01 654.49,192.06 C655.39,191.11 656.3,190.15 657.27,189.26 C659.18,187.45 661.11,185.65 663.16,184.01 C664.16,183.18 665.16,182.31 666.22,181.52 L669.38,179.16 C669.91,178.77 670.38,178.37 670.97,178 L672.61,176.92 L675.91,174.77 L678.29,173.2 C679.05,172.68 679.85,172.2 680.57,171.65 C692.661966,163.145656 702.449035,151.767501 709.05,138.54 C715.811377,124.954745 719.174309,109.931361 718.85,94.76 L718.71,91.88 L718.65,90.43 L718.52,88.99 L718.26,86.09 L717.85,83.2 C717.64,81.25 717.19,79.36 716.85,77.41 C716.67,76.41 716.39,75.5 716.18,74.54 C715.97,73.58 715.76,72.6 715.46,71.66 C714.89,69.77 714.39,67.83 713.7,65.96 C713.37,65.02 713.08,64.05 712.7,63.12 L711.59,60.32 L711.03,58.91 L710.4,57.53 L709.14,54.75 C708.7,53.83 708.21,52.94 707.75,52.02 C707.29,51.1 706.86,50.23 706.28,49.21 C701.92,41.33 697.6,33.41 693.48,25.35 C689.36,17.29 685.31,9.18 681.64,0.79 C688.55,6.79 695.12,13.06 701.56,19.41 C708,25.76 714.3,32.22 720.56,38.73 C721.33,39.49 722.16,40.5 722.96,41.4 C723.76,42.3 724.59,43.24 725.37,44.19 L727.64,47.11 L728.77,48.58 L729.83,50.1 L731.93,53.17 C732.62,54.17 733.23,55.29 733.93,56.35 C735.27,58.46 736.39,60.69 737.56,62.92 C742.102822,71.9986438 745.312529,81.6850214 747.09,91.68 C752.413895,122.883123 744.121712,154.872457 724.31,179.56 C717.688928,187.780776 709.946734,195.031509 701.31,201.1 C700.26,201.89 699.13,202.56 698.03,203.29 L694.8,205.37 L692.48,206.87 C691.7,207.36 690.93,207.87 690.19,208.41 L688,210 C687.25,210.53 686.55,211.13 685.83,211.69 C684.35,212.79 683.01,214.04 681.61,215.23 C676.115468,220.15933 671.242809,225.740556 667.1,231.85 C658.675335,244.456217 653.441714,258.921601 651.85,274 C651.01681,281.775546 651.137708,289.623807 652.21,297.37 C653.330939,305.369868 655.409171,313.206045 658.4,320.71 C658.75,321.71 659.2,322.6 659.6,323.56 C660,324.52 660.39,325.48 660.87,326.41 L662.27,329.21 L662.98,330.63 L663.77,332.13 C665.87,336.13 668,340.13 670.03,344.13 C674.13,352.23 678.12,360.37 681.77,368.77 Z" id="Shape"></path>
                <path d="M1086.13,368.77 C1079.25,362.77 1072.73,356.43 1066.31,350.05 C1063.08,346.88 1059.95,343.63 1056.79,340.41 L1055.61,339.2 C1055.21,338.79 1054.81,338.31 1054.41,337.87 L1052,335.15 C1051.19,334.25 1050.47,333.27 1049.7,332.32 C1048.93,331.37 1048.16,330.42 1047.45,329.43 C1035.61332,313.0945 1028.84868,293.635277 1028,273.48 C1027.75277,268.361308 1027.87308,263.231474 1028.36,258.13 C1028.64,255.58 1028.91,253.01 1029.36,250.48 C1029.59,249.21 1029.77,247.93 1030.05,246.67 L1030.9,242.89 C1031.17,241.62 1031.54,240.39 1031.9,239.14 C1032.26,237.89 1032.59,236.64 1032.99,235.41 C1033.82,232.96 1034.61,230.47 1035.63,228.08 C1037.55172,223.224706 1039.81748,218.512739 1042.41,213.98 L1044.41,210.62 C1044.75,210.06 1045.08,209.5 1045.41,208.94 L1046.52,207.32 L1048.75,204.08 L1051.14,200.95 C1052.69,198.83 1054.49,196.95 1056.19,194.9 C1057.07,193.9 1058,192.99 1058.9,192.04 C1059.8,191.09 1060.71,190.13 1061.68,189.24 C1063.59,187.43 1065.52,185.63 1067.57,183.99 C1068.57,183.16 1069.57,182.29 1070.63,181.5 L1073.79,179.14 C1074.32,178.75 1074.79,178.35 1075.38,177.98 L1077.02,176.9 L1080.32,174.75 L1082.7,173.18 C1083.46,172.66 1084.26,172.18 1084.98,171.63 C1097.07197,163.125656 1106.85903,151.747501 1113.46,138.52 C1120.22138,124.934745 1123.58431,109.911361 1123.26,94.74 L1123.12,91.86 L1123.06,90.41 L1123,89 L1122.74,86.1 L1122.33,83.21 C1122.12,81.26 1121.67,79.37 1121.33,77.42 C1121.15,76.42 1120.87,75.51 1120.66,74.55 C1120.45,73.59 1120.24,72.61 1119.94,71.67 C1119.37,69.78 1118.87,67.84 1118.18,65.97 C1117.85,65.03 1117.56,64.06 1117.18,63.13 L1116.07,60.33 L1115.51,58.92 L1114.88,57.54 L1113.62,54.76 C1113.18,53.84 1112.69,52.95 1112.23,52.03 C1111.77,51.11 1111.34,50.24 1110.76,49.22 C1106.4,41.34 1102.08,33.42 1097.96,25.36 C1093.84,17.3 1089.79,9.19 1086.12,0.8 C1093.03,6.8 1099.6,13.07 1106.04,19.42 C1112.48,25.77 1118.78,32.23 1125.04,38.74 C1125.81,39.5 1126.64,40.51 1127.44,41.41 C1128.24,42.31 1129.07,43.25 1129.85,44.2 L1132.12,47.12 L1133.25,48.59 L1134.31,50.11 L1136.41,53.18 C1137.1,54.18 1137.71,55.3 1138.41,56.36 C1139.75,58.47 1140.87,60.7 1142.04,62.93 C1146.58282,72.0086438 1149.79253,81.6950214 1151.57,91.69 C1156.8939,122.893123 1148.60171,154.882457 1128.79,179.57 C1122.16893,187.790776 1114.42673,195.041509 1105.79,201.11 C1104.74,201.9 1103.61,202.57 1102.51,203.3 L1099.28,205.38 L1096.96,206.88 C1096.18,207.37 1095.41,207.88 1094.67,208.42 L1092.42,210.01 C1091.67,210.54 1090.97,211.14 1090.25,211.7 C1088.77,212.8 1087.43,214.05 1086.03,215.24 C1080.53547,220.16933 1075.66281,225.750556 1071.52,231.86 C1063.08775,244.480852 1057.8538,258.964295 1056.27,274.06 C1055.43681,281.835546 1055.55771,289.683807 1056.63,297.43 C1057.75094,305.429868 1059.82917,313.266045 1062.82,320.77 C1063.17,321.77 1063.62,322.66 1064.02,323.62 C1064.42,324.58 1064.81,325.54 1065.29,326.47 L1066.69,329.27 L1067.4,330.69 L1068.19,332.19 C1070.29,336.19 1072.42,340.19 1074.45,344.19 C1078.49,352.23 1082.48,360.37 1086.13,368.77 Z" id="Shape"></path>
                <path d="M398,307.75 C393.93,304.17 390.06,300.44 386.26,296.66 C384.34,294.78 382.49,292.86 380.62,290.95 C379.69,290.05 378.73,288.89 377.78,287.84 C376.83,286.79 375.96,285.61 375.09,284.45 C368.078501,274.769311 364.065669,263.241983 363.55,251.3 C362.729748,232.561433 370.016718,214.3768 383.55,201.39 C384.68,200.32 385.82,199.25 387.04,198.28 C388.26,197.31 389.47,196.28 390.73,195.41 C391.99,194.54 393.31,193.67 394.6,192.8 L396.01,191.87 C396.46,191.56 396.94,191.29 397.36,190.95 C404.521615,185.90547 410.321204,179.164478 414.24,171.33 C415.242786,169.362948 416.11468,167.331869 416.85,165.25 C417.18,164.2 417.56,163.15 417.85,162.07 C418,161.53 418.17,161 418.31,160.46 L418.7,158.83 C418.97,157.74 419.13,156.63 419.34,155.53 C419.55,154.43 419.67,153.3 419.75,152.18 C419.9927,149.921921 420.089567,147.650543 420.04,145.38 C419.91795,140.753556 419.246577,136.158004 418.04,131.69 C417.416795,129.404668 416.651983,127.160331 415.75,124.97 C415.34,123.84 414.75,122.78 414.31,121.67 C413.87,120.56 413.23,119.56 412.6,118.4 C410.02,113.73 407.46,109.04 405.02,104.26 C402.58,99.48 400.18,94.68 398.02,89.71 C402.12,93.27 406.02,96.98 409.82,100.71 C413.62,104.44 417.37,108.3 421.06,112.16 C421.99,113.16 422.96,114.31 423.9,115.4 C424.84,116.49 425.73,117.68 426.55,118.9 C427.37,120.12 428.21,121.33 428.95,122.61 C429.69,123.89 430.4,125.18 431.1,126.5 C431.8,127.82 432.39,129.18 432.97,130.56 C433.55,131.94 434.08,133.34 434.51,134.78 C435.470703,137.640316 436.216116,140.568484 436.74,143.54 C438.842435,155.696442 437.45548,168.199844 432.74,179.6 C427.948504,191.192354 419.944305,201.174184 409.67,208.37 C409.05,208.84 408.38,209.24 407.73,209.67 L405.81,210.9 C404.91,211.51 403.95,212.05 403.08,212.7 C402.21,213.35 401.29,213.95 400.46,214.64 C399.63,215.33 398.79,216.03 397.96,216.74 C394.706693,219.663754 391.816025,222.967375 389.35,226.58 C384.354464,234.053842 381.264529,242.636995 380.35,251.58 C379.356772,260.986065 380.692691,270.492038 384.24,279.26 C384.7,280.39 385.18,281.52 385.7,282.64 C386.22,283.76 386.76,284.81 387.42,286.03 C388.66,288.4 389.93,290.75 391.13,293.15 C393.5,298 395.87,302.78 398,307.75 Z" id="Shape"></path>
                <path d="M773.36,307.75 C769.29,304.17 765.42,300.44 761.62,296.66 C759.7,294.78 757.85,292.86 755.98,290.95 C755.05,290.05 754.09,288.89 753.14,287.84 C752.19,286.79 751.32,285.61 750.45,284.45 C743.438501,274.769311 739.425669,263.241983 738.91,251.3 C738.089748,232.561433 745.376718,214.3768 758.91,201.39 C760.04,200.32 761.18,199.25 762.4,198.28 C763.62,197.31 764.83,196.28 766.09,195.41 C767.35,194.54 768.67,193.67 769.96,192.8 L771.37,191.87 C771.82,191.56 772.3,191.29 772.72,190.95 C779.881615,185.90547 785.681204,179.164478 789.6,171.33 C790.602786,169.362948 791.47468,167.331869 792.21,165.25 C792.54,164.2 792.92,163.15 793.21,162.07 C793.36,161.53 793.53,161 793.67,160.46 L794.06,158.83 C794.33,157.74 794.49,156.63 794.7,155.53 C794.91,154.43 795.03,153.3 795.11,152.18 C795.3527,149.921921 795.449567,147.650543 795.4,145.38 C795.27795,140.753556 794.606577,136.158004 793.4,131.69 C792.772344,129.414605 792.004204,127.180318 791.1,125 C790.69,123.87 790.1,122.81 789.66,121.7 C789.22,120.59 788.58,119.59 787.95,118.43 C785.37,113.76 782.81,109.07 780.37,104.29 C777.93,99.51 775.53,94.71 773.37,89.74 C777.47,93.3 781.37,97.01 785.17,100.74 C788.97,104.47 792.72,108.33 796.41,112.19 C797.34,113.19 798.31,114.34 799.25,115.43 C800.19,116.52 801.08,117.71 801.9,118.93 C802.72,120.15 803.56,121.36 804.3,122.64 C805.04,123.92 805.75,125.21 806.45,126.53 C807.15,127.85 807.74,129.21 808.32,130.59 C808.9,131.97 809.43,133.37 809.86,134.81 C810.820703,137.670316 811.566116,140.598484 812.09,143.57 C814.192435,155.726442 812.80548,168.229844 808.09,179.63 C803.291428,191.221235 795.280205,201.1997 785,208.39 C784.38,208.86 783.71,209.26 783.06,209.69 L781.14,210.92 C780.24,211.53 779.28,212.07 778.41,212.72 C777.54,213.37 776.62,213.97 775.79,214.66 C774.96,215.35 774.12,216.05 773.29,216.76 C770.036693,219.683754 767.146025,222.987375 764.68,226.6 C759.684464,234.073842 756.594529,242.656995 755.68,251.6 C754.686772,261.006065 756.022691,270.512038 759.57,279.28 C760.03,280.41 760.51,281.54 761.03,282.66 C761.55,283.78 762.09,284.83 762.75,286.05 C763.99,288.42 765.26,290.77 766.46,293.17 C768.83,298 771.2,302.78 773.36,307.75 Z" id="Shape"></path>
                <path d="M1177.72,307.75 C1173.65,304.17 1169.78,300.44 1165.98,296.66 C1164.06,294.78 1162.21,292.86 1160.34,290.95 C1159.41,290.05 1158.45,288.89 1157.5,287.84 C1156.55,286.79 1155.68,285.61 1154.81,284.45 C1147.7985,274.769311 1143.78567,263.241983 1143.27,251.3 C1142.44975,232.561433 1149.73672,214.3768 1163.27,201.39 C1164.4,200.32 1165.54,199.25 1166.76,198.28 C1167.98,197.31 1169.19,196.28 1170.45,195.41 C1171.71,194.54 1173.03,193.67 1174.32,192.8 L1175.73,191.87 C1176.18,191.56 1176.66,191.29 1177.08,190.95 C1184.25625,185.910439 1190.06994,179.169029 1194,171.33 C1195.00279,169.362948 1195.87468,167.331869 1196.61,165.25 C1196.94,164.2 1197.32,163.15 1197.61,162.07 C1197.76,161.53 1197.93,161 1198.07,160.46 L1198.46,158.83 C1198.73,157.74 1198.89,156.63 1199.1,155.53 C1199.31,154.43 1199.43,153.3 1199.51,152.18 C1199.7527,149.921921 1199.84957,147.650543 1199.8,145.38 C1199.67795,140.753556 1199.00658,136.158004 1197.8,131.69 C1197.17679,129.404668 1196.41198,127.160331 1195.51,124.97 C1195.1,123.84 1194.51,122.78 1194.07,121.67 C1193.63,120.56 1192.99,119.56 1192.36,118.4 C1189.78,113.73 1187.22,109.04 1184.78,104.26 C1182.34,99.48 1179.94,94.68 1177.78,89.71 C1181.88,93.27 1185.78,96.98 1189.58,100.71 C1193.38,104.44 1197.13,108.3 1200.82,112.16 C1201.75,113.16 1202.72,114.31 1203.66,115.4 C1204.6,116.49 1205.49,117.68 1206.31,118.9 C1207.13,120.12 1207.97,121.33 1208.71,122.61 C1209.45,123.89 1210.16,125.18 1210.86,126.5 C1211.56,127.82 1212.15,129.18 1212.73,130.56 C1213.31,131.94 1213.84,133.34 1214.27,134.78 C1215.2307,137.640316 1215.97612,140.568484 1216.5,143.54 C1218.60243,155.696442 1217.21548,168.199844 1212.5,179.6 C1207.7085,191.192354 1199.7043,201.174184 1189.43,208.37 C1188.81,208.84 1188.14,209.24 1187.49,209.67 L1185.57,210.9 C1184.67,211.51 1183.71,212.05 1182.84,212.7 C1181.97,213.35 1181.05,213.95 1180.22,214.64 C1179.39,215.33 1178.55,216.03 1177.72,216.74 C1174.46669,219.663754 1171.57603,222.967375 1169.11,226.58 C1164.11446,234.053842 1161.02453,242.636995 1160.11,251.58 C1159.11677,260.986065 1160.45269,270.492038 1164,279.26 C1164.46,280.39 1164.94,281.52 1165.46,282.64 C1165.98,283.76 1166.52,284.81 1167.18,286.03 C1168.42,288.4 1169.69,290.75 1170.89,293.15 C1173.19,298 1175.56,302.78 1177.72,307.75 Z" id="Shape"></path>
            </g>
        </g>
    </g>
</svg>