<?xml version="1.0" encoding="UTF-8"?>
<svg width="2000px" height="2000px" viewBox="0 0 2000 2000" version="1.1" xmlns="http://www.w3.org/2000/svg" xmlns:xlink="http://www.w3.org/1999/xlink">
    <!-- Generator: Sketch 51.3 (57544) - http://www.bohemiancoding.com/sketch -->
    <title>wall</title>
    <desc>Created with Sketch.</desc>
    <defs></defs>
    <g id="Page-1" stroke="none" stroke-width="1" fill="none" fill-rule="evenodd">
        <g id="heaters" transform="translate(-2500.000000, 0.000000)" fill="#000000" fill-rule="nonzero">
            <g id="wall" transform="translate(2814.000000, 570.000000)">
                <path d="M1262.34,0.14 L110.91,0.14 C50.1838112,0.200635281 0.970635281,49.4138112 0.91,110.14 L0.91,689.76 C0.978932913,742.091729 37.8556658,787.152146 89.14,797.57 C93.69,834.79 116.14,862.33 144.19,862.33 C171.68,862.33 193.95,835.89 199.09,799.77 L1174.15,799.77 C1179.28,835.9 1201.55,862.33 1229.05,862.33 C1257.05,862.33 1279.55,834.78 1284.1,797.57 C1335.38433,787.152146 1372.26107,742.091729 1372.33,689.76 L1372.33,110.14 C1372.26937,49.4177107 1323.06228,0.206146089 1262.34,0.14 Z M144.2,830.33 C135.29,830.33 125.55,818.01 121.79,799.78 L166.61,799.78 C162.85,818 153.11,830.33 144.2,830.33 Z M1229.05,830.33 C1220.14,830.33 1210.4,818.01 1206.64,799.78 L1251.46,799.78 C1247.71,818 1238,830.33 1229.05,830.33 Z M1340.33,689.77 C1340.28617,732.763726 1305.49353,767.632363 1262.5,767.77 L1173,767.77 L200.21,767.77 L110.76,767.77 C67.766472,767.632363 32.9738307,732.763726 32.93,689.77 L32.93,110.14 C32.9795961,67.0823496 67.8723496,32.1895961 110.93,32.14 L1262.34,32.14 C1305.39765,32.1895961 1340.2904,67.0823496 1340.34,110.14 L1340.33,689.77 Z" id="Shape"></path>
                <path d="M422.27,81.41 L144.2,81.41 C135.551221,81.41 128.54,88.4212208 128.54,97.07 C128.54,105.718779 135.551221,112.73 144.2,112.73 L422.27,112.73 C430.918779,112.73 437.93,105.718779 437.93,97.07 C437.93,88.4212208 430.918779,81.41 422.27,81.41 Z" id="Shape"></path>
                <path d="M825.66,81.41 L547.59,81.41 C538.941221,81.41 531.93,88.4212208 531.93,97.07 C531.93,105.718779 538.941221,112.73 547.59,112.73 L825.66,112.73 C834.308779,112.73 841.32,105.718779 841.32,97.07 C841.32,88.4212208 834.308779,81.41 825.66,81.41 Z" id="Shape"></path>
                <path d="M1229.05,81.41 L951,81.41 C942.351221,81.41 935.34,88.4212208 935.34,97.07 C935.34,105.718779 942.351221,112.73 951,112.73 L1229.07,112.73 C1237.71878,112.73 1244.73,105.718779 1244.73,97.07 C1244.73,88.4212208 1237.71878,81.41 1229.07,81.41 L1229.05,81.41 Z" id="Shape"></path>
                <path d="M422.27,133.64 L144.2,133.64 C135.551221,133.64 128.54,140.651221 128.54,149.3 C128.54,157.948779 135.551221,164.96 144.2,164.96 L422.27,164.96 C430.918779,164.96 437.93,157.948779 437.93,149.3 C437.93,140.651221 430.918779,133.64 422.27,133.64 Z" id="Shape"></path>
                <path d="M825.66,133.64 L547.59,133.64 C538.941221,133.64 531.93,140.651221 531.93,149.3 C531.93,157.948779 538.941221,164.96 547.59,164.96 L825.66,164.96 C834.308779,164.96 841.32,157.948779 841.32,149.3 C841.32,140.651221 834.308779,133.64 825.66,133.64 Z" id="Shape"></path>
                <path d="M1229.05,133.64 L951,133.64 C942.340175,133.64 935.32,140.660175 935.32,149.32 C935.32,157.979825 942.340175,165 951,165 L1229.07,165 C1237.71878,165 1244.73,157.988779 1244.73,149.34 C1244.73,140.691221 1237.71878,133.68 1229.07,133.68 L1229.05,133.64 Z" id="Shape"></path>
                <path d="M422.27,185.86 L144.2,185.86 C138.605221,185.86 133.435431,188.844779 130.638041,193.69 C127.840651,198.535221 127.840651,204.504779 130.638041,209.35 C133.435431,214.195221 138.605221,217.18 144.2,217.18 L422.27,217.18 C427.864779,217.18 433.034569,214.195221 435.831959,209.35 C438.629349,204.504779 438.629349,198.535221 435.831959,193.69 C433.034569,188.844779 427.864779,185.86 422.27,185.86 Z" id="Shape"></path>
                <path d="M825.66,185.86 L547.59,185.86 C541.995221,185.86 536.825431,188.844779 534.028041,193.69 C531.230651,198.535221 531.230651,204.504779 534.028041,209.35 C536.825431,214.195221 541.995221,217.18 547.59,217.18 L825.66,217.18 C834.308779,217.179999 841.319999,210.168779 841.319999,201.52 C841.319999,192.871221 834.308779,185.860001 825.66,185.86 Z" id="Shape"></path>
                <path d="M1229.05,185.86 L951,185.86 C942.351221,185.860001 935.340001,192.871221 935.340001,201.52 C935.340001,210.168779 942.351221,217.179999 951,217.18 L1229.07,217.18 C1234.66478,217.18 1239.83457,214.195221 1242.63196,209.35 C1245.42935,204.504779 1245.42935,198.535221 1242.63196,193.69 C1239.83457,188.844779 1234.66478,185.86 1229.07,185.86 L1229.05,185.86 Z" id="Shape"></path>
            </g>
        </g>
    </g>
</svg>