<?xml version="1.0" encoding="UTF-8"?>
<svg width="1210px" height="1417px" viewBox="0 0 1210 1417" version="1.1" xmlns="http://www.w3.org/2000/svg" xmlns:xlink="http://www.w3.org/1999/xlink">
    <!-- Generator: Sketch 51.3 (57544) - http://www.bohemiancoding.com/sketch -->
    <title>e</title>
    <desc>Created with Sketch.</desc>
    <defs></defs>
    <g id="Page-1" stroke="none" stroke-width="1" fill="none" fill-rule="evenodd">
        <g id="lights" transform="translate(-6406.000000, -324.000000)">
            <g id="e" transform="translate(6816.000000, 448.000000)">
                <path d="M288.211661,939.175287 C284.596804,939.866379 280.981948,940.557471 276.850683,941.248563 C272.20301,941.939655 267.555338,942.630747 262.391256,942.630747 C252.579503,944.012931 241.734933,944.704023 230.890363,944.704023 C218.496568,945.395115 206.102774,946.086207 194.741796,946.086207 C183.380818,946.086207 170.987024,945.395115 158.593229,944.704023 C147.748659,944.704023 137.420497,944.012931 127.608744,942.630747 C122.444663,942.630747 117.79699,941.939655 113.149317,941.248563 C109.018052,940.557471 105.403196,940.557471 101.788339,939.866379 L91.460177,937.793103 L98.1734822,946.777299 C98.6898903,947.468391 99.2062984,948.159483 99.7227065,948.850575 C100.239115,949.541667 100.755523,950.232759 100.755523,950.923851 C102.821155,952.997126 103.853971,956.452586 105.403196,959.216954 C106.436012,961.29023 106.95242,964.054598 107.468828,966.818966 C109.018052,972.347701 110.050868,978.567529 111.083685,986.860632 C112.116501,995.153736 113.149317,1004.82902 113.665725,1015.1954 C114.182133,1026.94397 114.698541,1038.69253 115.214949,1050.44109 C115.214949,1063.57184 115.214949,1076.70259 115.214949,1087.76006 L115.214949,1091.90661 L138.969722,1125.77012 L146.715843,1135.4454 L167.372167,1159.63362 L167.888575,1160.32471 C171.503432,1164.47126 175.634696,1168.61782 194.741796,1170 L195.258204,1170 C214.881712,1168.61782 218.496568,1164.47126 222.111425,1160.32471 L222.627833,1159.63362 L243.284157,1135.4454 L251.546687,1125.77012 L251.030278,1125.77012 L275.301459,1091.90661 C275.301459,1091.90661 275.301459,1091.90661 274.785051,1091.90661 L274.785051,1087.76006 C274.785051,1076.70259 274.785051,1063.57184 275.301459,1050.44109 C275.301459,1038.69253 275.817866,1026.94397 276.334275,1015.1954 C277.367091,1004.82902 277.883499,995.153736 278.916316,986.860632 C279.949131,978.567529 280.981948,972.347701 282.531172,966.818966 C283.04758,964.054598 284.080396,961.29023 284.596804,959.216954 C286.146029,956.452586 287.695253,952.997126 289.244478,950.923851 C289.244478,950.232759 289.760885,949.541667 290.277293,948.850575 C291.31011,947.468391 291.31011,946.777299 291.826517,946.777299 L298.539823,937.793103 L288.211661,939.175287 Z M271.705752,955.096552 C270.584071,958.144828 269.721239,961.193103 269.20354,964.331034 C267.823009,969.8 266.701327,976.703448 265.752212,984.682759 C264.716814,993.37931 263.940265,1003.24138 263.336283,1013.73103 C262.646018,1024.84828 262.300885,1036.77241 262.042035,1048.78621 C261.783186,1060.26207 261.783186,1071.64828 261.869469,1082.13793 L258.935841,1082.4069 C256.519912,1082.67586 254.362832,1082.85517 252.205752,1083.03448 C249.272124,1083.30345 246.424779,1083.48276 243.75,1083.66207 C240.643805,1083.93103 237.710177,1084.11034 234.862832,1084.28966 C231.497788,1084.46897 228.30531,1084.55862 225.199115,1084.73793 C221.834071,1084.82759 218.469027,1085.0069 215.276549,1085.09655 C211.738938,1085.18621 208.287611,1085.27586 205.00885,1085.36552 C201.471239,1085.45517 198.106195,1085.45517 194.74115,1085.45517 C191.462389,1085.45517 188.011062,1085.36552 184.473451,1085.36552 C181.19469,1085.27586 177.743363,1085.27586 174.205752,1085.09655 C170.926991,1085.0069 167.64823,1084.82759 164.283186,1084.73793 C161.176991,1084.55862 157.89823,1084.46897 154.619469,1084.28966 C151.772124,1084.11034 148.752212,1083.93103 145.732301,1083.66207 C142.971239,1083.48276 140.210177,1083.21379 137.190265,1083.03448 C135.119469,1082.85517 132.876106,1082.58621 130.54646,1082.4069 L127.612832,1082.13793 C127.699115,1074.87586 127.699115,1067.16552 127.612832,1059.27586 C135.637168,1060.26207 144.35177,1060.97931 153.411504,1061.6069 C169.891593,1062.68276 187.061947,1063.13103 201.902655,1063.13103 L201.902655,1056.31724 C186.889381,1056.31724 169.80531,1055.86897 153.584071,1054.7931 C144.438053,1054.16552 135.637168,1053.44828 127.526549,1052.37241 C127.526549,1051.11724 127.440265,1049.95172 127.440265,1048.69655 C127.353982,1043.04828 127.181416,1037.48966 127.00885,1031.93103 C135.205752,1032.91724 144.179204,1033.72414 153.411504,1034.35172 C169.891593,1035.42759 187.061947,1035.87586 201.902655,1035.87586 L201.902655,1029.06207 C186.889381,1029.06207 169.80531,1028.61379 153.584071,1027.53793 C144.179204,1026.91034 135.033186,1026.10345 126.663717,1025.02759 C126.49115,1021.17241 126.318584,1017.31724 126.146018,1013.64138 C125.973451,1010.50345 125.800885,1007.45517 125.542035,1004.49655 C134.084071,1005.57241 143.575221,1006.46897 153.411504,1007.09655 C169.891593,1008.17241 187.061947,1008.62069 201.902655,1008.62069 L201.902655,1001.8069 C186.889381,1001.8069 169.80531,1001.35862 153.584071,1000.28276 C143.488938,999.655172 133.738938,998.758621 124.938053,997.593103 C124.506637,993.02069 124.075221,988.627586 123.643805,984.593103 C123.298673,981.903448 122.95354,979.303448 122.608407,976.882759 C131.840708,978.137931 142.45354,979.124138 153.411504,979.841379 C169.891593,980.917241 187.061947,981.365517 201.902655,981.365517 L201.902655,974.551724 C186.889381,974.551724 169.80531,974.103448 153.584071,973.027586 C142.108407,972.310345 131.064159,971.234483 121.400442,969.8 C120.969027,967.737931 120.623894,965.855172 120.106195,964.151724 C119.588496,961.013793 118.725664,957.965517 117.690265,954.917241 C117,953.034483 116.137168,951.151724 115.274336,949.268966 L118.035398,949.717241 C122.263274,950.344828 126.75,950.882759 131.409292,951.241379 C140.382743,952.137931 150.391593,952.765517 160.745575,953.213793 C172.221239,953.751724 183.869469,954.02069 194.654867,954.110345 C205.526549,954.02069 217.261062,953.751724 228.736726,953.213793 C239.004425,952.765517 249.013274,952.048276 258.073009,951.241379 C262.818584,950.793103 267.391593,950.255172 271.705752,949.627586 L274.639381,949.17931 C273.25885,951.331034 272.396018,953.213793 271.705752,955.096552 Z M215.794248,1153.14483 L215.276549,1153.77241 C212.688053,1156.91034 210.185841,1160.04828 194.568584,1160.94483 C179.037611,1160.13793 176.449115,1156.91034 173.860619,1153.77241 L173.34292,1153.14483 L160.745575,1137.54483 C162.730088,1137.63448 164.800885,1137.81379 167.044248,1137.90345 C171.013274,1138.08276 175.413717,1138.17241 180.159292,1138.26207 C184.732301,1138.35172 189.564159,1138.35172 194.568584,1138.35172 C199.486726,1138.35172 204.318584,1138.26207 208.977876,1138.26207 C213.637168,1138.17241 218.037611,1138.08276 222.09292,1137.90345 C224.336283,1137.81379 226.493363,1137.63448 228.391593,1137.54483 L215.794248,1153.14483 Z" id="Path" fill="#000000" fill-rule="nonzero"></path>
                <path d="M293.621681,921.386207 C292.154867,923.986207 290.34292,926.675862 288.617257,928.917241 L286.373894,929.365517 C286.028761,929.455172 249.44469,937.165517 195.345133,937.165517 C141.590708,937.165517 104.661504,929.455172 104.316372,929.365517 L100.002212,928.468966 C98.3628319,926.317241 96.7234513,923.806897 95.3429204,921.386207 C56.9469027,853.248276 29.6814159,778.296552 14.409292,698.682759 C8.45575221,667.482759 4.31415929,635.565517 1.98451327,603.110345 C29.0774336,599.434483 112.168142,589.034483 194.482301,589.034483 C290.34292,589.034483 362.561947,598.986207 386.980088,602.931034 C384.650442,635.475862 380.50885,667.482759 374.469027,698.772414 C359.283186,778.296552 332.017699,853.248276 293.621681,921.386207 Z" id="Shape" stroke="#000000" stroke-width="12"></path>
                <path d="M219.602727,16.3172414 C238.326179,37.7448276 265.246533,81.2275862 299.673524,145.42069 C346.611577,233.193103 379.485471,357.813793 387.509807,478.758621 C390.098302,518.027586 390.184586,556.937931 387.682373,595.041379 C362.487683,591.096552 290.35494,581.144828 194.75317,581.144828 C112.525294,581.144828 29.5208687,591.455172 1.82396605,595.310345 C-0.678246343,557.117241 -0.591963158,518.206897 1.99653242,478.758621 C10.0208687,357.813793 42.8084793,233.193103 89.8328157,145.42069 C124.173524,81.2275862 151.093878,37.7448276 169.903612,16.3172414 C184.140338,0 190.007594,0 194.75317,0 C199.498745,1.24956559e-13 205.366002,1.24956559e-13 219.602727,16.3172414 Z" id="Path" stroke="#000000" stroke-width="12" fill="#000000" fill-rule="nonzero"></path>
            </g>
        </g>
    </g>
</svg>