<?xml version="1.0" encoding="UTF-8"?>
<svg width="1210px" height="1417px" viewBox="0 0 1210 1417" version="1.1" xmlns="http://www.w3.org/2000/svg" xmlns:xlink="http://www.w3.org/1999/xlink">
    <!-- Generator: Sketch 51.3 (57544) - http://www.bohemiancoding.com/sketch -->
    <title>gu</title>
    <desc>Created with Sketch.</desc>
    <defs></defs>
    <g id="Page-1" stroke="none" stroke-width="1" fill="none" fill-rule="evenodd">
        <g id="lights" transform="translate(-10326.000000, -325.000000)">
            <g id="gu" transform="translate(10681.000000, 668.000000)">
                <path d="M249.989808,23.9991391 C213.137737,23.797487 178.181381,24.4840105 145.123006,26.0587097 C146.09238,96.0365288 154.492868,149.51286 170.324468,186.48997 C187.793587,227.289406 214.35172,247.80581 249.998868,248.03012 C285.646016,247.80581 312.206413,227.291671 329.673266,186.48997 C345.502602,149.515126 353.905354,96.0365288 354.874729,26.0587097 C321.816353,24.4840105 286.859998,23.7997528 250.007927,23.9991391 L249.989808,23.9991391 Z" id="alt_fill"></path>
                <g id="base" transform="translate(145.569620, 640.966628)">
                    <path d="M75.7274229,66.7975961 L75.7274229,93.2648423 L75.8635115,93.8905512 C67.8796554,95.6072963 59.8957992,96.4656692 51.9119428,96.4656692 C43.9280866,96.4656692 35.9442304,95.6072963 27.9603742,93.8905512 L28.0964627,93.2648423 L28.0964627,66.7975961 L28.0964627,66.1560754 L28.0964627,65.5145547 L34.9099581,65.5145547 L38.8701323,65.5145547 L38.8701323,37.4276946 L42.2814162,37.4276946 L42.2814162,65.5145547 L48.8023215,65.5145547 L48.8023215,37.4276946 L64.9537532,37.4276946 L64.9537532,65.5145547 L75.7274229,65.5145547 L75.7274229,66.1560754 L75.7274229,66.7975961 Z" id="connection_left" fill="#000000" fill-rule="nonzero"></path>
                    <path d="M180.932873,93.2625834 L181.068961,93.8882923 C173.085105,95.605038 165.098981,96.4634102 157.117393,96.4634102 C149.133537,96.4634102 141.149681,95.605038 133.165825,93.8882923 L133.301913,93.2625834 L133.301913,66.7953372 L133.301913,66.1538165 L133.301913,65.5122957 L144.075582,65.5122957 L144.075582,37.4254358 L147.486867,37.4254358 L147.486867,65.5122957 L154.007772,65.5122957 L154.007772,37.4254358 L170.159204,37.4254358 L170.159204,65.5122957 L180.932873,65.5122957 L180.932873,66.1538165 L180.932873,66.7953372 L180.932873,93.2625834 Z" id="connection_right" fill="#000000" fill-rule="nonzero"></path>
                    <path d="M169.98204,32.2209436 C172.992082,32.2209436 178.473123,28.5776108 184.579274,23.5680282 C193.172277,16.517001 202.716535,6.84449626 208.827216,0.348578894 C200.243272,1.97765619 188.472624,3.1649114 173.913894,3.98511443 C155.203614,5.0409559 131.748384,5.50316976 104.431512,5.53715608 C77.1146398,5.500904 53.6594102,5.0409559 34.9491308,3.98511443 C20.388135,3.16264564 8.61975196,1.97765619 0.0335433491,0.348578894 C6.14422411,6.84449626 15.6907473,16.5192668 24.2837506,23.5680282 C30.3876367,28.5776108 35.8709422,32.2209436 38.8809847,32.2209436 L169.98204,32.2209436 Z" id="Path" stroke="#000000" stroke-width="12"></path>
                </g>
                <g id="case" transform="translate(6.329114, 25.891830)" stroke="#000000" stroke-width="12">
                    <path d="M352.14,609.600391 C352.169444,609.226542 352.187563,608.786985 352.201152,608.268124 L352.201152,608.259062 C352.701693,587.074258 353.304155,560.39727 353.985887,528.277938 C354.543051,501.974797 355.156837,472.04645 355.806861,438.52235 C355.51922,429.554495 356.708288,421.760301 359.374067,415.139767 C362.073819,408.4354 366.270666,402.950009 371.962342,398.688125 L371.960077,398.68586 C394.382516,380.129333 412.297818,359.225484 425.699188,335.97658 C441.845609,302.726636 453.792918,259.631991 461.541117,206.69491 C469.311964,153.601491 472.854256,90.6769643 472.165729,17.9303932 L474.56425,17.9122671 L474.507628,15.5128334 C478.004623,15.4222032 481.467644,14.9599894 484.892162,14.1307233 C485.530861,13.9766521 486.167296,13.8089862 486.801466,13.6299917 C453.958255,8.44141444 418.283929,4.55111445 379.789811,1.95909162 C371.115272,1.37452703 362.298044,0.85566931 353.340393,0.404784219 C352.34837,70.9513078 343.821048,124.978217 327.765223,162.480982 C309.469419,205.215372 281.439106,226.701519 243.681078,226.934892 L243.662959,226.934892 C205.904931,226.701519 177.874618,205.213106 159.578814,162.480982 C143.522988,124.975952 134.997932,70.9513078 134.005909,0.404784219 C125.048258,0.85566931 116.233295,1.37452703 107.556491,1.95909162 C69.0601082,4.55111445 33.3880463,8.44141444 0.542570839,13.6299917 C1.17674082,13.8089862 1.81544059,13.9766521 2.45187547,14.1307233 C5.87639338,14.9599894 9.3371496,15.4199375 12.836409,15.5128334 L12.7797867,17.9122671 L15.1783081,17.9303932 C14.4897807,90.6769643 18.0320731,153.601491 25.8029203,206.69491 C33.5511185,259.631991 45.4984281,302.726636 61.6448487,335.97658 C75.0462198,359.225484 92.9592566,380.131598 115.38396,398.68586 L115.381696,398.688125 C121.073371,402.952275 125.267953,408.4354 127.96997,415.139767 C130.635749,421.760301 131.827082,429.556761 131.537176,438.52235 C132.1872,472.044184 132.798721,501.972532 133.35815,528.277938 C134.039883,560.399536 134.644609,587.076525 135.142885,608.259062 C135.154209,608.782451 135.174594,609.224275 135.204037,609.602652 C143.624909,611.768717 156.951538,613.275443 174.454629,614.263314 C193.169439,615.321421 216.525013,615.781369 243.672018,615.815351 C270.819024,615.781369 294.176863,615.319154 312.891673,614.263314 C330.392499,613.275443 343.719128,611.76645 352.14,609.600391 Z" id="Shape"></path>
                </g>
                <g id="light" fill="#000000" fill-rule="nonzero" stroke="#000000" stroke-width="12">
                    <path d="M140.280666,2.33173144 C131.341133,2.78261654 122.542025,3.2992085 113.88334,3.88377309 C72.6872048,6.65705627 34.7253364,10.91894 0,16.6648927 L0,35.7561378 C34.6732439,30.0464372 72.5286623,25.8117425 113.561725,23.0475223 C122.317801,22.4584262 131.223359,21.935037 140.276136,21.4796204 C140.219513,15.2261388 140.221778,8.84350909 140.280666,2.33173144 Z" id="Path"></path>
                    <path d="M354.922292,2.096093 C321.850327,0.521393815 286.878117,-0.167395469 250.010192,0.0342566565 L249.992073,0.0342566565 C213.121883,-0.165129716 178.149673,0.521393815 145.077708,2.096093 C145.016556,8.61013642 145.014292,14.9927661 145.070914,21.2485135 C178.104375,19.6828773 213.081115,19.0008853 249.998868,19.2002717 C286.91662,18.9986196 321.895625,19.6828773 354.929086,21.2485135 C354.985708,14.9927661 354.983444,8.61013642 354.922292,2.096093 Z" id="Path"></path>
                    <path d="M500,35.7584036 L500,16.6648927 C465.274663,10.9166742 427.31506,6.65705627 386.11666,3.88377309 C377.457975,3.30147425 368.658867,2.78261654 359.719334,2.33173144 C359.778222,8.84124333 359.778222,15.2261388 359.7216,21.4818862 C368.774376,21.9373028 377.679934,22.4584262 386.43601,23.0497881 C427.471338,25.8117425 465.326756,30.0487029 500,35.7584036 Z" id="Path"></path>
                </g>
            </g>
        </g>
    </g>
</svg>