<?xml version="1.0" encoding="UTF-8"?>
<svg width="2000px" height="2000px" viewBox="0 0 2000 2000" version="1.1" xmlns="http://www.w3.org/2000/svg" xmlns:xlink="http://www.w3.org/1999/xlink">
    <!-- Generator: Sketch 51.3 (57544) - http://www.bohemiancoding.com/sketch -->
    <title>standard</title>
    <desc>Created with Sketch.</desc>
    <defs></defs>
    <g id="Page-1" stroke="none" stroke-width="1" fill="none" fill-rule="evenodd">
        <g id="sockets" transform="translate(0.000000, -1.000000)" fill="#000000" fill-rule="nonzero">
            <g id="standard" transform="translate(349.000000, 350.000000)">
                <path d="M1129.52,1300.45 L171,1300.45 C76.74,1300.45 0,1223.75 0,1129.45 L0,171 C0,76.71 76.7,0 171,0 L1129.57,0 C1223.83,0 1300.49,76.7 1300.49,171 L1300.49,1129.5 C1300.45,1223.76 1223.78,1300.45 1129.52,1300.45 Z M171,29.82 C93.17,29.82 29.86,93.12 29.86,170.96 L29.86,1129.5 C29.86,1207.33 93.16,1270.64 171,1270.64 L1129.57,1270.64 C1207.37,1270.64 1270.68,1207.34 1270.68,1129.5 L1270.68,171 C1270.68,93.17 1207.38,29.86 1129.57,29.86 L171,29.82 Z" id="Shape"></path>
                <circle id="Oval" cx="439.19" cy="638.14" r="59.65"></circle>
                <path d="M439.19,708.92 C400.112627,708.897911 368.448963,677.207391 368.460006,638.130013 C368.471048,599.052635 400.152617,567.380015 439.229996,567.380011 C478.307376,567.380008 509.98895,599.052622 510,638.13 C509.950393,677.213478 478.27349,708.881433 439.19,708.92 Z M439.19,589.62 C419.560538,589.624046 401.866545,601.452731 394.359347,619.589924 C386.85215,637.727117 391.010306,658.600662 404.894721,672.476497 C418.779137,686.352332 439.65525,690.497582 457.787798,682.979173 C475.920346,675.460763 487.738089,657.759461 487.73,638.13 C487.691411,611.342956 465.977063,589.642028 439.19,589.62 Z" id="Shape"></path>
                <circle id="Oval" cx="861.28" cy="638.14" r="59.65"></circle>
                <path d="M861.29,708.92 C832.66258,708.94427 806.840129,691.719273 795.8662,665.278723 C784.892272,638.838173 790.928569,608.39047 811.159772,588.136379 C831.390974,567.882287 861.831832,561.811565 888.284774,572.755589 C914.737715,583.699613 931.991899,609.502571 932,638.13 C931.950535,677.174516 900.334435,708.826386 861.29,708.92 Z M861.29,589.62 C841.65781,589.611911 823.954609,601.4329 816.437957,619.569132 C808.921306,637.705365 813.072056,658.583832 826.954112,672.465888 C840.836168,686.347944 861.714635,690.498694 879.850868,682.982043 C897.9871,675.465391 909.808089,657.76219 909.8,638.13 C909.761447,611.354652 888.065348,589.658553 861.29,589.62 Z" id="Shape"></path>
                <g id="_Group_" transform="translate(217.000000, 217.000000)">
                    <path d="M433.24,866.09 C283.24,866.09 146.11,790.09 66.41,662.76 C29.7144874,604.09472 7.58851088,537.500776 1.88,468.54 C0.98,456.95 0.37,445.1 0.37,433.25 C0.413685953,415.156245 1.53232343,397.081067 3.72,379.12 C12.08,312.12 35.55,249.34 73.43,192.47 L73.49,192.41 C154.49,72.18 288.96,0.41 433.24,0.41 C671.92,0.41 866.08,194.6 866.08,433.28 C866.08,671.96 671.92,866.09 433.24,866.09 Z M92,204.9 C56,258.83 33.79,318.37 25.87,381.9 C23.7985457,398.952289 22.7400215,416.112402 22.7,433.29 C22.7,444.56 23.31,455.83 24.16,466.81 C29.5640272,532.183898 50.5421482,595.313709 85.34,650.92 C161,771.63 291,843.72 433.24,843.72 C659.58,843.72 843.72,659.58 843.72,433.24 C843.72,206.9 659.57,22.74 433.24,22.74 C296.44,22.74 168.87,90.82 92,204.9 Z" id="Shape"></path>
                </g>
                <g id="_Group_2" transform="translate(992.000000, 390.000000)">
                    <path d="M8.5,509.06 L5,287.18 L86.5,287.18 L85.83,295.25 C80.2055489,363.622376 58.2578706,429.647165 21.83,487.78 L8.5,509.06 Z M20.15,302.06 L22.59,457 C48.5138756,409.01193 64.7133141,356.379897 70.26,302.12 L20.15,302.06 Z" id="Shape"></path>
                    <path d="M85.08,214.91 L5,214.91 L0.81,0.31 L14.96,21.54 C52.55,77.94 75.82,140.17 84.06,206.54 L85.08,214.91 Z M19.59,200 L68.1,200 C60.6014323,148.011322 43.1532239,97.9550976 16.71,52.57 L19.59,200 Z" id="Shape"></path>
                </g>
                <path d="M299.95,899.09 L286.58,877.78 C250.177287,819.635314 228.231698,753.616807 222.58,685.25 L221.91,677.18 L303.41,677.18 L299.95,899.09 Z M238.22,692.09 C243.767153,746.353997 259.952077,798.993231 285.85,847 L288.3,692.12 L238.22,692.09 Z" id="Shape"></path>
                <path d="M303.47,604.91 L223.37,604.91 L224.37,596.52 C232.67,530.16 255.9,467.91 293.5,411.52 L307.65,390.29 L303.47,604.91 Z M240.34,590 L288.85,590 L291.76,442.57 C265.319948,487.959194 247.862463,538.012811 240.34,590 Z" id="Shape"></path>
            </g>
        </g>
    </g>
</svg>