<?xml version="1.0" encoding="UTF-8"?>
<svg width="1900px" height="1320px" viewBox="0 0 1900 1320" version="1.1" xmlns="http://www.w3.org/2000/svg" xmlns:xlink="http://www.w3.org/1999/xlink">
    <!-- Generator: Sketch 51.3 (57544) - http://www.bohemiancoding.com/sketch -->
    <title>sunshade</title>
    <desc>Created with Sketch.</desc>
    <defs></defs>
    <g id="Page-1" stroke="none" stroke-width="1" fill="none" fill-rule="evenodd">
        <g id="sunshade" transform="translate(-50.000000, -340.000000)" fill="#000000" fill-rule="nonzero">
            <path d="M1949.44907,808.671375 L1949.44907,689.077323 L1948.10706,689.077323 C1950.23515,673.933645 1947.84694,658.498699 1941.24164,644.70632 L1799.51152,358.660967 C1794.3745,347.535673 1783.31359,340.341139 1771.06097,340.15539 L229.122677,340.15539 C217.426022,340.15539 206.520446,346.992565 200.502602,358.378439 L58.602974,644.70632 C51.9976714,658.498699 49.6094563,673.933645 51.7375465,689.077323 L50.536803,689.077323 L50.536803,810.69145 L52.2743494,810.69145 L53.4750929,829.804461 C58.4758364,910.282528 116.648327,971.449814 186.715242,971.449814 C188.36803,971.449814 190.006691,971.449814 191.65948,971.350929 C200.467628,970.870343 209.194941,969.411053 217.680297,967 L217.680297,1659.19331 L1782.48922,1659.19331 L1782.48922,969.062454 C1792.60295,971.925523 1803.05636,973.412757 1813.56729,973.484015 C1815.33309,973.484015 1817.08476,973.484015 1818.85056,973.356877 C1888.38067,970.743494 1944.20818,909.152416 1948.7145,830.072862 L1949.94349,808.671375 L1949.44907,808.671375 Z M1912,659.171747 C1918.87811,673.058182 1918.16371,689.500027 1910.10706,702.737546 C1903.63717,713.148699 1893.59331,719.110037 1882.57472,719.110037 L1703.16952,719.110037 C1658.62429,603.669145 1614.18265,488.242379 1569.84461,372.82974 L1770.171,372.82974 L1912,659.171747 Z M443.307063,372.787361 L612.682528,372.787361 L524.547955,719.110037 L309.925651,719.110037 L443.307063,372.787361 Z M820.481784,372.787361 L984.347955,372.787361 C984.046592,488.2 983.942999,603.631475 984.037175,719.081784 L776.520446,719.081784 C790.967038,603.65031 805.6114,488.223544 820.453532,372.801487 L820.481784,372.787361 Z M1240.85502,719.110037 C1225.78686,603.669145 1210.84114,488.23767 1196.01784,372.815613 L1361.39554,372.815613 L1364.40446,384.455762 C1393.19405,495.988352 1421.88476,607.539777 1450.47658,719.110037 L1240.85502,719.110037 Z M258.830483,1618.14201 L258.830483,946.78513 C276.106517,934.226506 290.346772,917.953999 300.503346,899.165056 C324.391078,945.25948 367.843866,975.871375 417.865428,975.871375 C419.546468,975.871375 421.255762,975.871375 422.965056,975.772491 C470.895911,973.964312 512.088476,944.058736 535.3829,900.055019 C559.510781,945.655019 602.779926,975.885502 652.420074,975.871375 C654.101115,975.871375 655.810409,975.871375 657.519703,975.772491 C703.317472,973.907807 743.761338,945.640892 767.550186,903.600743 C792.313755,947.392565 835.003717,975.899628 882.454275,975.899628 C884.177695,975.899628 885.929368,975.899628 887.681041,975.772491 C935.498885,973.964312 976.606691,944.04461 999.830483,900.026766 C1023.84535,945.640892 1067.04387,975.871375 1116.7829,975.871375 C1118.46394,975.871375 1120.17323,975.871375 1121.88253,975.772491 C1168.10409,973.921933 1208.47732,945.683271 1232.0684,903.840892 C1256.62007,947.449071 1299.09814,975.885502 1346.84535,975.885502 C1348.59703,975.885502 1350.36283,975.885502 1352.12862,975.758364 C1400.15836,973.950186 1441.36506,944.030483 1464.48996,900.012639 C1488.50483,945.626766 1531.7316,975.857249 1581.21636,975.857249 C1582.8974,975.857249 1584.59257,975.857249 1586.30186,975.758364 C1634.47286,973.950186 1675.82082,943.747955 1699.03048,899.391078 C1709.31012,918.586745 1723.79789,935.209047 1741.40967,948.014126 L1741.40967,1618.12788 L258.830483,1618.14201 Z M325.464684,849.581413 L511.085502,849.581413 C500.208178,897.808922 464.369517,933.026022 421.354647,934.650558 C376.60223,936.727138 336.652788,900.47881 325.464684,849.581413 Z M790.039405,849.581413 L975.490706,849.581413 C964.655762,897.808922 928.873606,933.026022 886.014126,934.650558 C841.953903,936.557621 801.863197,900.817844 789.9829,849.581413 L790.039405,849.581413 Z M1254.44461,849.581413 L1440.03717,849.581413 C1429.42825,897.808922 1393.6461,933.026022 1350.47584,934.650558 C1304.33903,935.5829 1265.47732,900.379926 1254.3881,849.581413 L1254.44461,849.581413 Z M1817.16952,932.927138 C1801.81413,933.972491 1785.86543,929.452045 1771.51301,920.792565 C1747.49814,906.2 1729.95316,879.826022 1722.96059,849.214126 L1905.37472,849.214126 C1894.90706,896.579926 1859.66171,931.302602 1817.11301,932.898885 L1817.16952,932.927138 Z M1719.92342,808.713755 L1719.92342,808.473606 L280.034201,808.473606 L280.034201,808.600743 L83.1828996,808.600743 L83.1828996,741.189591 C93.2826113,747.946909 105.13292,751.613926 117.284015,751.742007 L1882.57472,751.742007 C1894.78415,751.612105 1906.68822,747.909271 1916.8171,741.090706 L1916.8171,808.671375 L1719.92342,808.713755 Z" id="Shape"></path>
            <path d="M1698.74796,927.544981 C1672.41636,965.149442 1632.15613,989.531599 1586.71152,991.255019 C1537.26914,992.964312 1492.88401,968.327881 1464.46171,927.686245 C1438.20074,965.191822 1398.06766,989.489219 1352.56654,991.255019 C1304.39554,993.289219 1260.74498,969.542751 1232.0119,930.37026 C1205.6803,966.378439 1166.31004,989.517472 1122.39108,991.240892 C1072.69442,993.232714 1028.19628,968.313755 999.816357,927.672119 C973.527138,965.177695 933.422305,989.489219 888.217844,991.240892 C840.569517,993.147955 796.495167,969.359108 767.634944,930.002974 C741.133829,966.166543 701.692937,989.475093 658.070632,991.226766 C608.40223,993.260967 563.918216,968.285502 535.425279,927.657993 C509.09368,965.177695 468.889963,989.503346 423.515985,991.226766 C373.649814,993.020818 329.504833,968.342007 301.124907,927.884015 C292.63754,940.073419 282.480355,951.010463 270.950929,960.374721 L270.950929,1348.62454 C416.735316,1277.87955 886.282528,1087.82305 1729.30335,1083.04833 L1729.30335,960.247584 C1717.61614,950.853873 1707.32754,939.842266 1698.74796,927.544981 Z" id="Shape"></path>
            <path d="M1727.7777,1601.48699 L270.371747,1601.48699 L270.371747,1033.73309 L1727.7777,1033.73309 L1727.7777,1601.48699 Z M290.883271,1580.87658 L1707.19554,1580.87658 L1707.19554,1054.31524 L290.883271,1054.31524 L290.883271,1580.87658 Z" id="Shape"></path>
        </g>
    </g>
</svg>