<?xml version="1.0" encoding="UTF-8"?>
<svg width="828px" height="1419px" viewBox="0 0 828 1419" version="1.1" xmlns="http://www.w3.org/2000/svg" xmlns:xlink="http://www.w3.org/1999/xlink">
    <!-- Generator: Sketch 51.2 (57519) - http://www.bohemiancoding.com/sketch -->
    <title>a2</title>
    <desc>Created with Sketch.</desc>
    <defs>
        <path d="M721.158354,421 L407.465722,421 L94.7817482,421 L89.7384583,421 L87.7211423,417 C80.6605365,399 69.5652987,381 58.4700609,361 C32.2449535,315 2.99387206,264 0.976556103,206 C-1.04075986,164 -1.04075986,137 12.0717939,114 C25.1843476,92 52.4181131,75 104.868328,55 C154.292569,37 204.725468,23 253.141051,15 C308.61724,4 361.067455,0 407.465722,0 C453.863989,0 507.322862,4 562.799051,15 C611.214634,23 661.647533,37 710.063116,55 C763.521989,75 789.747096,92 803.868308,114 C816.980862,137 815.972204,164 814.963546,206 C812.94623,264 783.695148,315 757.470041,361 C746.374803,381 735.279565,399 727.210301,417 L725.192985,421 L721.158354,421 Z" id="path-1"></path>
    </defs>
    <g id="Page-1" stroke="none" stroke-width="1" fill="none" fill-rule="evenodd">
        <g id="a2" transform="translate(6.000000, 6.000000)">
            <g id="Layer_x0020_1">
                <path d="M208,1061 C239,1072 328,1077 401,1077 L407,1077 L413,1077 C484,1077 570,1072 603,1062 C610,1061 631,860 644,773 C670,602 709,470 711,461 C712,458 713,456 714,454 C717,448 719,444 718,421 L711,422 L217,422 L177,422 L145,422 L105,422 L97,421 C96,444 98,448 101,454 C102,456 103,458 104,461 C106,470 145,602 171,773 C185,862 206,1060 208,1061 Z" id="Shape" stroke="#000000" stroke-width="16.9564"></path>
                <g id="Shape" style="mix-blend-mode: difference;" fill-rule="nonzero">
                    <use fill="#000000" style="mix-blend-mode: difference;" xlink:href="#path-1"></use>
                    <use stroke="#000000" stroke-width="12" xlink:href="#path-1"></use>
                </g>
                <path d="M588,1079 L608,1077 L595,1090 C594,1090 594,1091 592,1093 C591,1094 590,1095 590,1096 C587,1099 584,1104 581,1108 C580,1111 578,1115 577,1119 C574,1127 572,1136 570,1148 C568,1160 567,1174 565,1189 C564,1206 563,1223 563,1240 C562,1259 562,1278 562,1294 L562,1300 C563,1300 563,1300 563,1300 L516,1349 L517,1349 L501,1363 L461,1398 L460,1399 C453,1405 446,1411 408,1413 L407,1413 C370,1411 362,1405 355,1399 L354,1398 L314,1363 L299,1349 L253,1300 L253,1294 C253,1278 253,1259 253,1240 C252,1223 251,1206 250,1189 C249,1174 247,1160 245,1148 C243,1136 241,1127 238,1119 C237,1115 236,1111 234,1108 C231,1104 229,1099 225,1096 C225,1095 224,1094 223,1093 C222,1092 221,1091 220,1090 L207,1077 L227,1080 C234,1081 241,1081 249,1082 C258,1083 267,1084 277,1084 C296,1086 316,1087 337,1087 C361,1088 385,1089 407,1089 C429,1089 453,1088 477,1087 C498,1087 519,1086 538,1084 C548,1084 557,1083 566,1082 C574,1081 581,1080 588,1079 Z M422,1142 C392,1142 357,1141 323,1140 C301,1139 279,1138 260,1136 C261,1139 262,1143 262,1147 C263,1153 264,1159 265,1165 C283,1167 303,1168 323,1169 C356,1171 392,1171 422,1171 L422,1181 C392,1181 357,1181 323,1179 C303,1178 284,1177 266,1175 C266,1180 267,1184 267,1188 C268,1194 268,1199 268,1205 C285,1206 304,1208 323,1208 C356,1210 392,1211 422,1211 L422,1220 C392,1220 357,1220 323,1218 C304,1217 286,1216 269,1215 C269,1223 270,1231 270,1239 C270,1241 270,1242 270,1244 C287,1246 305,1247 323,1248 C356,1249 392,1250 422,1250 L422,1259 C392,1259 357,1259 323,1257 C305,1256 287,1255 270,1254 C270,1265 270,1276 270,1287 L276,1287 C281,1288 286,1288 290,1288 C296,1289 302,1289 307,1289 C314,1289 320,1290 326,1290 C332,1290 339,1290 345,1291 C352,1291 359,1291 366,1291 C373,1291 380,1291 387,1291 C394,1292 401,1292 408,1292 C414,1292 421,1292 429,1291 C435,1291 442,1291 450,1291 C456,1291 463,1291 470,1291 C476,1290 483,1290 490,1290 C496,1290 502,1289 508,1289 C513,1289 519,1289 525,1288 C530,1288 534,1288 539,1287 L545,1287 C545,1272 545,1255 545,1239 C546,1222 547,1204 548,1188 C549,1173 551,1159 553,1147 C555,1135 557,1125 560,1117 C561,1113 563,1109 565,1104 C567,1101 568,1099 570,1096 L564,1097 C556,1098 546,1098 536,1099 C518,1100 498,1101 477,1102 C453,1103 429,1103 407,1103 C385,1103 361,1103 338,1102 C317,1101 296,1100 278,1099 C268,1098 259,1098 251,1097 L245,1096 C247,1099 249,1102 250,1104 C252,1109 254,1113 255,1117 C256,1120 257,1123 258,1126 C277,1128 300,1129 323,1130 C356,1132 392,1132 422,1132 L422,1142 Z M451,1389 L450,1390 C445,1394 439,1399 408,1400 C376,1399 371,1394 365,1390 L364,1389 L339,1366 C343,1367 347,1367 352,1367 C360,1367 369,1367 378,1367 C388,1368 398,1368 408,1368 C418,1368 428,1368 437,1367 C447,1367 456,1367 464,1367 C468,1367 473,1367 476,1366 L451,1389 Z" id="base" fill="#000000"></path>
            </g>
        </g>
    </g>
</svg>