<?xml version="1.0" encoding="UTF-8"?>
<svg width="2000px" height="2000px" viewBox="0 0 2000 2000" version="1.1" xmlns="http://www.w3.org/2000/svg" xmlns:xlink="http://www.w3.org/1999/xlink">
    <!-- Generator: Sketch 51.3 (57544) - http://www.bohemiancoding.com/sketch -->
    <title>b</title>
    <desc>Created with Sketch.</desc>
    <defs></defs>
    <g id="Page-1" stroke="none" stroke-width="1" fill="none" fill-rule="evenodd">
        <g id="lights" transform="translate(-12032.000000, 0.000000)">
            <g id="b" transform="translate(12563.000000, 287.000000)">
                <path d="M603.793592,1167.37653 C597.06796,1168.03935 589.730686,1168.63637 582.01083,1169.16272 C567.031678,1170.22274 550.90722,1170.94892 534.780324,1171.48014 C516.131317,1172.07716 497.331227,1172.34278 479.98592,1172.47193 C462.63574,1172.3379 443.760108,1172.07473 425.111101,1171.48014 C408.984205,1170.94892 392.859747,1170.22274 377.9537,1169.16272 C370.309386,1168.6315 363.130505,1168.10271 356.631498,1167.44233 C350.28601,1166.78195 344.479061,1166.11913 339.281317,1165.38809 L324,1163.1389 L333.934927,1173.46615 C334.778068,1174.26056 335.462815,1174.98917 336.076895,1175.64955 L336.076895,1175.71534 C336.839621,1176.57798 337.451263,1177.30415 337.987364,1177.89874 C340.433935,1180.87897 342.649007,1184.12238 344.408393,1187.36579 C345.936281,1190.21444 347.084025,1193.12644 347.695667,1195.90686 L347.771209,1196.23827 L347.84675,1196.50144 C349.908303,1202.25966 351.745667,1209.7407 353.195577,1218.48159 C354.879422,1228.14846 356.178249,1239.20189 357.170036,1250.98881 C358.16426,1263.8991 358.85388,1277.40397 359.231588,1290.6481 C359.616606,1305.41038 359.689711,1319.97527 359.385108,1333.01958 L359.309566,1337.58863 L359.921209,1337.65442 L395.459837,1376.11967 L395.152797,1376.11967 L407.229693,1386.64675 L438.408844,1413.85632 L438.484386,1413.92211 L439.247111,1414.5167 C444.902978,1419.41715 450.634386,1424.31516 480.059025,1425.37518 L480.517148,1425.37518 C509.93935,1424.31516 515.670758,1419.41715 521.329061,1414.5167 L522.094223,1413.92211 L522.169765,1413.85632 L553.351353,1386.64675 L565.428249,1376.11967 L565.274729,1376.11967 L601.727166,1337.58619 C601.573646,1337.58619 601.422563,1337.58619 601.269043,1337.58619 L601.193501,1333.01715 C600.888899,1319.97527 600.888899,1305.41038 601.347021,1290.64567 C601.651624,1277.40397 602.338808,1263.8991 603.408574,1250.98637 C604.402797,1239.20189 605.699187,1228.14846 607.383032,1218.47915 C608.835379,1209.7407 610.594765,1202.25966 612.731859,1196.49901 L612.8074,1196.23583 L612.882942,1195.90442 C613.494584,1193.12157 614.639891,1190.20957 616.094675,1187.36336 C617.851624,1184.11751 620.142238,1180.8741 622.588808,1177.8963 C623.122473,1177.29928 623.734115,1176.50731 624.574819,1175.64467 C625.493501,1174.58466 626.178249,1173.79025 626.716787,1173.32726 L636.727256,1163 L621.372834,1165.2565 C616.097111,1166.0509 610.212184,1166.71372 603.793592,1167.37653 Z M514.069765,1406.84314 L513.304602,1407.50352 C509.176624,1411.01254 505.126624,1414.58736 480.288086,1415.51579 C455.449548,1414.5898 451.399548,1411.01254 447.27157,1407.50352 L446.508844,1406.84314 L426.407491,1389.36381 C429.538808,1389.49783 432.901624,1389.62698 436.495938,1389.76101 C442.841426,1389.95839 449.87166,1390.09242 457.360018,1390.15821 C464.694855,1390.22401 472.414711,1390.29224 480.288086,1390.29224 C488.161462,1390.29224 495.881317,1390.22644 503.216155,1390.15821 C510.704512,1390.09242 517.737184,1389.95839 524.080234,1389.76101 C527.672111,1389.62698 531.034927,1389.49783 534.090704,1389.36381 L514.069765,1406.84314 Z M603.335469,1184.59025 C601.578519,1187.96769 600.201714,1191.41092 599.36101,1194.91751 C597.219043,1201.07292 595.31101,1208.82202 593.783122,1217.75785 C592.179693,1227.49052 590.880866,1238.61218 589.884205,1250.3991 C588.81444,1262.84639 588.202797,1276.28303 587.820216,1289.72698 C587.437635,1302.63727 587.362093,1315.41354 587.591155,1327.19801 L582.851534,1327.52942 C579.030595,1327.7926 575.516696,1328.05821 572.151444,1328.25803 C567.489801,1328.52364 562.979241,1328.78926 558.627075,1328.98664 C553.736371,1329.24982 548.99675,1329.44964 544.413086,1329.64702 C539.06426,1329.8444 533.944494,1329.97843 528.975812,1330.17825 C523.549007,1330.30984 518.20018,1330.44142 513.077978,1330.57545 C507.422111,1330.70704 501.919765,1330.77283 496.648917,1330.83863 C491.071028,1330.90442 485.568682,1330.97265 480.29296,1330.97265 C475.019675,1330.97265 469.517328,1330.90686 463.93944,1330.83863 C458.666155,1330.77283 453.163808,1330.70704 447.507942,1330.57545 C442.310198,1330.44142 437.03935,1330.30984 431.612545,1330.17825 C426.646299,1329.97843 421.448556,1329.8444 416.17527,1329.64702 C411.586732,1329.4472 406.851985,1329.24982 401.961281,1328.98664 C397.604241,1328.78926 393.096119,1328.52364 388.356498,1328.25803 C385.069223,1328.05821 381.477346,1327.79503 377.731949,1327.52942 L372.994765,1327.19801 C373.101985,1319.02978 373.136101,1310.3815 373.016696,1301.54558 C385.785649,1302.64458 399.777888,1303.50478 414.179512,1304.15785 C440.51426,1305.35189 467.933393,1305.84901 491.62175,1305.84901 L491.62175,1298.20957 C467.7287,1298.20957 440.365613,1297.71976 414.508483,1296.54765 C399.963086,1295.88727 385.80027,1295.00758 372.877797,1293.87446 C372.843682,1292.49278 372.80713,1291.10866 372.765704,1289.72211 C372.585379,1283.41318 372.33926,1277.10424 372.024909,1270.89765 C385.057039,1272.03809 399.402617,1272.92753 414.179512,1273.59765 C440.51426,1274.7917 467.933393,1275.28881 491.62175,1275.28881 L491.62175,1267.64937 C467.7287,1267.64937 440.365613,1267.15957 414.508483,1265.98745 C399.480595,1265.30514 384.86453,1264.3889 371.598465,1263.20216 C371.335288,1258.84756 371.035559,1254.56606 370.704151,1250.39666 C370.409296,1246.912 370.090072,1243.48583 369.741606,1240.1352 C383.373195,1241.3731 398.535108,1242.32834 414.179512,1243.03989 C440.51426,1244.23393 467.933393,1244.73105 491.62175,1244.73105 L491.62175,1237.09161 C467.7287,1237.09161 440.365613,1236.6018 414.508483,1235.42969 C398.442509,1234.70108 382.841967,1233.70442 368.86435,1232.39341 C368.233213,1227.25659 367.524097,1222.35126 366.729693,1217.75541 C366.213086,1214.74106 365.664801,1211.86318 365.077527,1209.13393 C379.876353,1210.59115 396.726985,1211.68772 414.179512,1212.47969 C440.51426,1213.67374 467.933393,1214.17328 491.62175,1214.17328 L491.62175,1206.53384 C467.7287,1206.53384 440.365613,1206.04404 414.508483,1204.87193 C396.217689,1204.04097 378.533664,1202.86399 363.154873,1201.27274 C362.523736,1199.00162 361.856047,1196.87915 361.151805,1194.91751 C360.389079,1191.40848 359.012274,1187.96769 357.252888,1184.59025 C356.107581,1182.47265 354.730776,1180.35262 353.353971,1178.30081 L357.71101,1178.76381 C364.512184,1179.42419 371.620397,1180.02364 379.033213,1180.4842 C393.400722,1181.47599 409.374097,1182.2046 425.805595,1182.73583 C444.072021,1183.33285 462.64305,1183.66182 479.912815,1183.72762 L479.990794,1183.72762 C497.260559,1183.66182 515.909566,1183.33041 534.175992,1182.73583 C550.529512,1182.2046 566.580866,1181.47843 580.948375,1180.4842 C588.512274,1180.02121 595.851985,1179.42419 602.650722,1178.69801 L607.312364,1178.23502 C605.857581,1180.28682 604.480776,1182.40442 603.335469,1184.59025 Z" id="base" fill="#070504" fill-rule="nonzero"></path>
                <g id="case" stroke="#000000" stroke-width="12">
                    <path d="M464.063158,541.323636 C279.457843,541.323636 182.992173,547.472846 139.129186,529.693636 C126.079592,524.404177 80.0147571,449.705053 67.252895,426.098488 C37.0884934,371.80339 3.44358395,311.606651 1.12324537,243.147614 C-1.19709321,193.573829 -1.19709321,161.704966 13.8851076,134.557418 C28.9673083,108.590196 60.2918792,88.5246168 120.620683,64.9180523 C177.468978,43.6721442 235.477442,27.1475491 291.165568,17.7049233 C354.97488,4.72131289 415.303683,0 468.67147,0 C522.039257,0 583.528229,4.72131289 647.337541,17.7049233 C703.025667,27.1475491 761.034131,43.6721442 816.722257,64.9180523 C878.211229,88.5246168 908.375628,108.590196 924.617997,134.557418 C939.700201,161.704966 938.540035,193.573829 937.379861,243.147614 C935.059521,311.606651 901.414618,371.80339 871.250214,426.098488 C858.488352,449.705053 813.232536,517.006364 797.973205,529.693636 C765.762862,556.474721 640.195817,541.323636 464.063158,541.323636 Z" id="Shape" style="mix-blend-mode: difference;"></path>
                    <path d="M745.48933,541.974985 C693.836809,547.836265 613.332783,547.836265 476.218739,547.836265 L470.276683,547.836265 C333.162639,547.836265 252.660783,547.836265 201.006093,541.974985 C200.012858,541.861624 192.060478,540.795 186.595521,540.063306 C184.678449,539.808244 183.268837,539.617591 181.774648,539.424362 L161.131423,536.750073 L177.261721,552.319178 C203.662669,577.797064 236.15531,633.738147 260.986168,701.808858 C294.918782,794.834449 314.590459,884.613793 324.505453,983.8459 C329.530177,1035.97393 332.776623,1090.27643 332.776623,1144.77473 C344.933984,1160.05786 456.000566,1162.59302 475.967178,1162.85066 L484.240516,1162.85066 C509.669916,1162.52089 607.208561,1160.30262 627.756367,1146.51122 C628.285513,1145.97533 628.519726,1145.65328 628.645507,1144.84172 L628.643338,1140.50309 C628.903574,1080.71031 626.817348,1008.66681 629.905483,946.248689 C630.421618,939.676328 631.050521,934.907436 631.560151,931.287613 C642.240672,855.320278 663.697135,772.177705 689.375929,701.78567 C714.206786,633.714959 742.834921,577.797064 769.23587,552.316601 L785.366169,536.750073 L764.720774,539.421786 C758.316798,540.248807 751.895474,541.248444 745.48933,541.974985 Z" id="Shape"></path>
                </g>
                <g id="light">
                    <g id="light_lg" style="mix-blend-mode: difference;">
                        <g id="path-1-link" style="mix-blend-mode: difference;" fill="#000000" fill-rule="nonzero">
                            <path d="M1.12324537,243.164849 C-1.19709321,193.58755 -1.19709321,161.716429 13.8851076,134.566956 C28.9673083,108.597893 60.2918792,88.5308917 120.620683,64.9226539 C177.468978,43.6752399 235.477442,27.1494734 291.165568,17.7061783 C354.97488,4.72164755 415.303683,0 468.67147,0 C522.039257,0 583.528229,4.72164755 647.337541,17.7061783 C703.025667,27.1494734 761.034131,43.6752399 816.722257,64.9226539 C878.211229,88.5308917 908.375628,108.597893 924.617997,134.566956 C939.700201,161.716429 938.540035,193.58755 937.379861,243.164849 C935.059521,311.628739 3.44358395,311.628739 1.12324537,243.164849 Z" id="path-1"></path>
                        </g>
                        <g id="path-1-link" stroke="#000000" stroke-width="12">
                            <path d="M1.12324537,243.164849 C-1.19709321,193.58755 -1.19709321,161.716429 13.8851076,134.566956 C28.9673083,108.597893 60.2918792,88.5308917 120.620683,64.9226539 C177.468978,43.6752399 235.477442,27.1494734 291.165568,17.7061783 C354.97488,4.72164755 415.303683,0 468.67147,0 C522.039257,0 583.528229,4.72164755 647.337541,17.7061783 C703.025667,27.1494734 761.034131,43.6752399 816.722257,64.9226539 C878.211229,88.5308917 908.375628,108.597893 924.617997,134.566956 C939.700201,161.716429 938.540035,193.58755 937.379861,243.164849 C935.059521,311.628739 3.44358395,311.628739 1.12324537,243.164849 Z" id="path-1"></path>
                        </g>
                    </g>
                    <g id="light_sm_alt" style="mix-blend-mode: difference;" transform="translate(21.358634, 0.000000)">
                        <g id="path-2-link" style="mix-blend-mode: difference;" fill="#000000" fill-rule="nonzero">
                            <path d="M0.417397897,134.566956 C15.3708133,108.597893 46.4279068,88.5308917 106.241569,64.9226539 C162.604442,43.6752399 220.117577,27.1494734 275.330189,17.7061783 C338.594638,4.72164755 398.408299,0 451.320385,0 C504.232471,0 565.196394,4.72164755 628.460845,17.7061783 C683.673455,27.1494734 741.186591,43.6752399 796.399201,64.9226539 C857.363126,88.5308917 887.269961,108.597893 903.373632,134.566956 C918.327052,161.716429 -14.5360175,161.716429 0.417397897,134.566956 Z" id="path-2"></path>
                        </g>
                        <g id="path-2-link" stroke="#000000" stroke-width="12">
                            <path d="M0.417397897,134.566956 C15.3708133,108.597893 46.4279068,88.5308917 106.241569,64.9226539 C162.604442,43.6752399 220.117577,27.1494734 275.330189,17.7061783 C338.594638,4.72164755 398.408299,0 451.320385,0 C504.232471,0 565.196394,4.72164755 628.460845,17.7061783 C683.673455,27.1494734 741.186591,43.6752399 796.399201,64.9226539 C857.363126,88.5308917 887.269961,108.597893 903.373632,134.566956 C918.327052,161.716429 -14.5360175,161.716429 0.417397897,134.566956 Z" id="path-2"></path>
                        </g>
                    </g>
                </g>
            </g>
        </g>
    </g>
</svg>