<?xml version="1.0" encoding="UTF-8"?>
<svg width="464px" height="1311px" viewBox="0 0 464 1311" version="1.1" xmlns="http://www.w3.org/2000/svg" xmlns:xlink="http://www.w3.org/1999/xlink">
    <!-- Generator: Sketch 51.2 (57519) - http://www.bohemiancoding.com/sketch -->
    <title>E12</title>
    <desc>Created with Sketch.</desc>
    <defs></defs>
    <g id="Page-1" stroke="none" stroke-width="1" fill="none" fill-rule="evenodd">
        <g id="E12" transform="translate(6.000000, 6.000000)" fill-rule="nonzero">
            <path d="M340.3,1027.7 C338.6,1030.6 336.5,1033.6 334.5,1036.1 L331.9,1036.6 C331.5,1036.7 289.1,1045.3 226.4,1045.3 C164.1,1045.3 121.3,1036.7 120.9,1036.6 L115.9,1035.6 C114,1033.2 112.1,1030.4 110.5,1027.7 C66,951.7 34.4,868.1 16.7,779.3 C9.8,744.5 5,708.9 2.3,672.7 C33.7,668.6 130,657 225.4,657 C336.5,657 420.2,668.1 448.5,672.5 C445.8,708.8 441,744.5 434,779.4 C416.4,868.1 384.8,951.7 340.3,1027.7 Z" id="Shape" stroke="#000000" stroke-width="12"></path>
            <g id="Group-2" transform="translate(106.000000, 1046.000000)" fill="#000000">
                <path d="M228.029925,1.54166667 C223.840399,2.3125 219.650873,3.08333333 214.862843,3.85416667 C209.476309,4.625 204.089776,5.39583333 198.104738,5.39583333 C186.733167,6.9375 174.164589,7.70833333 161.59601,7.70833333 C147.23192,8.47916667 132.86783,9.25 119.700748,9.25 C106.533666,9.25 92.1695761,8.47916667 77.8054863,7.70833333 C65.2369077,7.70833333 53.2668329,6.9375 41.8952618,5.39583333 C35.9102244,5.39583333 30.5236908,4.625 25.1371571,3.85416667 C20.3491272,3.08333333 16.159601,3.08333333 11.9700748,2.3125 L0,0 L7.78054863,10.0208333 C8.37905237,10.7916667 8.97755611,11.5625 9.57605985,12.3333333 C10.1745636,13.1041667 10.7730673,13.875 10.7730673,14.6458333 C13.1670823,16.9583333 14.3640898,20.8125 16.159601,23.8958333 C17.3566085,26.2083333 17.9551122,29.2916667 18.553616,32.375 C20.3491272,38.5416667 21.5461347,45.4791667 22.7431421,54.7291667 C23.9401496,63.9791667 25.1371571,74.7708333 25.7356608,86.3333333 C26.3341646,99.4375 26.9326683,112.541667 27.5311721,125.645833 C27.5311721,140.291667 27.5311721,154.9375 27.5311721,167.270833 L27.5311721,171.895833 L55.0623441,209.666667 L64.0399002,220.458333 L87.9800499,247.4375 L88.5785536,248.208333 C92.7680798,252.833333 97.5561097,257.458333 119.700748,259 L120.299252,259 C143.042394,257.458333 147.23192,252.833333 151.421446,248.208333 L152.01995,247.4375 L175.9601,220.458333 L185.53616,209.666667 L184.937656,209.666667 L213.067332,171.895833 C213.067332,171.895833 213.067332,171.895833 212.468828,171.895833 L212.468828,167.270833 C212.468828,154.9375 212.468828,140.291667 213.067332,125.645833 C213.067332,112.541667 213.665835,99.4375 214.264339,86.3333333 C215.461347,74.7708333 216.05985,63.9791667 217.256858,54.7291667 C218.453865,45.4791667 219.650873,38.5416667 221.446384,32.375 C222.044888,29.2916667 223.241895,26.2083333 223.840399,23.8958333 C225.63591,20.8125 227.431421,16.9583333 229.226933,14.6458333 C229.226933,13.875 229.825436,13.1041667 230.42394,12.3333333 C231.620948,10.7916667 231.620948,10.0208333 232.219451,10.0208333 L240,0 L228.029925,1.54166667 Z M208.9,19.3 C207.6,22.7 206.6,26.1 206,29.6 C204.4,35.7 203.1,43.4 202,52.3 C200.8,62 199.9,73 199.2,84.7 C198.4,97.1 198,110.4 197.7,123.8 C197.4,136.6 197.4,149.3 197.5,161 L194.1,161.3 C191.3,161.6 188.8,161.8 186.3,162 C182.9,162.3 179.6,162.5 176.5,162.7 C172.9,163 169.5,163.2 166.2,163.4 C162.3,163.6 158.6,163.7 155,163.9 C151.1,164 147.2,164.2 143.5,164.3 C139.4,164.4 135.4,164.5 131.6,164.6 C127.5,164.7 123.6,164.7 119.7,164.7 C115.9,164.7 111.9,164.6 107.8,164.6 C104,164.5 100,164.5 95.9,164.3 C92.1,164.2 88.3,164 84.4,163.9 C80.8,163.7 77,163.6 73.2,163.4 C69.9,163.2 66.4,163 62.9,162.7 C59.7,162.5 56.5,162.2 53,162 C50.6,161.8 48,161.5 45.3,161.3 L41.9,161 C42,152.9 42,144.3 41.9,135.5 C51.2,136.6 61.3,137.4 71.8,138.1 C90.9,139.3 110.8,139.8 128,139.8 L128,132.2 C110.6,132.2 90.8,131.7 72,130.5 C61.4,129.8 51.2,129 41.8,127.8 C41.8,126.4 41.7,125.1 41.7,123.7 C41.6,117.4 41.4,111.2 41.2,105 C50.7,106.1 61.1,107 71.8,107.7 C90.9,108.9 110.8,109.4 128,109.4 L128,101.8 C110.6,101.8 90.8,101.3 72,100.1 C61.1,99.4 50.5,98.5 40.8,97.3 C40.6,93 40.4,88.7 40.2,84.6 C40,81.1 39.8,77.7 39.5,74.4 C49.4,75.6 60.4,76.6 71.8,77.3 C90.9,78.5 110.8,79 128,79 L128,71.4 C110.6,71.4 90.8,70.9 72,69.7 C60.3,69 49,68 38.8,66.7 C38.3,61.6 37.8,56.7 37.3,52.2 C36.9,49.2 36.5,46.3 36.1,43.6 C46.8,45 59.1,46.1 71.8,46.9 C90.9,48.1 110.8,48.6 128,48.6 L128,41 C110.6,41 90.8,40.5 72,39.3 C58.7,38.5 45.9,37.3 34.7,35.7 C34.2,33.4 33.8,31.3 33.2,29.4 C32.6,25.9 31.6,22.5 30.4,19.1 C29.6,17 28.6,14.9 27.6,12.8 L30.8,13.3 C35.7,14 40.9,14.6 46.3,15 C56.7,16 68.3,16.7 80.3,17.2 C93.6,17.8 107.1,18.1 119.6,18.2 C132.2,18.1 145.8,17.8 159.1,17.2 C171,16.7 182.6,15.9 193.1,15 C198.6,14.5 203.9,13.9 208.9,13.2 L212.3,12.7 C210.7,15.1 209.7,17.2 208.9,19.3 Z M144.1,240.2 L143.5,240.9 C140.5,244.4 137.6,247.9 119.5,248.9 C101.5,248 98.5,244.4 95.5,240.9 L94.9,240.2 L80.3,222.8 C82.6,222.9 85,223.1 87.6,223.2 C92.2,223.4 97.3,223.5 102.8,223.6 C108.1,223.7 113.7,223.7 119.5,223.7 C125.2,223.7 130.8,223.6 136.2,223.6 C141.6,223.5 146.7,223.4 151.4,223.2 C154,223.1 156.5,222.9 158.7,222.8 L144.1,240.2 Z" id="Path"></path>
            </g>
            <path d="M254.51393,18.2 C276.21393,42.1 307.41393,90.6 347.31393,162.2 C401.71393,260.1 439.81393,399.1 449.11393,534 C452.11393,577.8 452.21393,621.2 449.31393,663.7 C420.11393,659.3 336.51393,648.2 225.71393,648.2 C130.41393,648.2 34.2139299,659.7 2.11392988,664 C-0.786070121,621.4 -0.686070121,578 2.31392988,534 C11.6139299,399.1 49.6139299,260.1 104.11393,162.2 C143.91393,90.6 175.11393,42.1 196.91393,18.2 C213.41393,0 220.21393,0 225.71393,0 C231.21393,1.39374623e-13 238.01393,1.39374623e-13 254.51393,18.2 Z" id="Path" stroke="#000000" stroke-width="12" fill="#000000"></path>
        </g>
    </g>
</svg>