<?xml version="1.0" encoding="UTF-8"?>
<svg width="2000px" height="2000px" viewBox="0 0 2000 2000" version="1.1" xmlns="http://www.w3.org/2000/svg" xmlns:xlink="http://www.w3.org/1999/xlink">
    <!-- Generator: Sketch 51.3 (57544) - http://www.bohemiancoding.com/sketch -->
    <title>e</title>
    <desc>Created with Sketch.</desc>
    <defs></defs>
    <g id="Page-1" stroke="none" stroke-width="1" fill="none" fill-rule="evenodd">
        <g id="lights" transform="translate(-7105.000000, -1.000000)">
            <g id="e" transform="translate(7910.000000, 451.000000)">
                <path d="M293.621681,921.386207 C292.154867,923.986207 290.34292,926.675862 288.617257,928.917241 L286.373894,929.365517 C286.028761,929.455172 249.44469,937.165517 195.345133,937.165517 C141.590708,937.165517 104.661504,929.455172 104.316372,929.365517 L100.002212,928.468966 C98.3628319,926.317241 96.7234513,923.806897 95.3429204,921.386207 C56.9469027,853.248276 29.6814159,778.296552 14.409292,698.682759 C8.45575221,667.482759 4.31415929,635.565517 1.98451327,603.110345 C29.0774336,599.434483 112.168142,589.034483 194.482301,589.034483 C290.34292,589.034483 362.561947,598.986207 386.980088,602.931034 C384.650442,635.475862 380.50885,667.482759 374.469027,698.772414 C359.283186,778.296552 332.017699,853.248276 293.621681,921.386207 Z" id="Shape" stroke="#000000" stroke-width="12"></path>
                <g id="Group-2" transform="translate(91.460177, 937.793103)" fill="#000000" fill-rule="nonzero">
                    <path d="M196.751484,1.38218391 C193.136627,2.07327586 189.521771,2.76436781 185.390506,3.45545977 C180.742833,4.14655172 176.095161,4.83764368 170.931079,4.83764368 C161.119326,6.21982759 150.274756,6.91091954 139.430186,6.91091954 C127.036391,7.6020115 114.642597,8.29310345 103.281619,8.29310345 C91.920641,8.29310345 79.5268466,7.6020115 67.1330523,6.91091954 C56.2884823,6.91091954 45.9603204,6.21982759 36.1485666,4.83764368 C30.9844857,4.83764368 26.3368129,4.14655172 21.68914,3.45545977 C17.5578752,2.76436781 13.9430186,2.76436781 10.3281619,2.07327586 L0,0 L6.71330523,8.98419537 C7.22971333,9.67528739 7.74612142,10.3663793 8.26252952,11.0574712 C8.77893762,11.7485632 9.29534568,12.4396552 9.29534568,13.1307471 C11.3609781,15.204023 12.3937943,18.6594828 13.9430186,21.4238505 C14.9758348,23.4971264 15.4922428,26.2614943 16.008651,29.0258621 C17.5578752,34.5545977 18.5906914,40.7744253 19.6235076,49.0675288 C20.6563238,57.3606322 21.68914,67.0359195 22.205548,77.4022988 C22.7219562,89.1508621 23.2383642,100.899426 23.7547724,112.647988 C23.7547724,125.778736 23.7547724,138.909483 23.7547724,149.966954 L23.7547724,154.113505 L47.5095447,187.977012 L55.2556661,197.652299 L75.91199,221.840517 L76.428398,222.531609 C80.0432547,226.678161 84.1745194,230.824712 103.281619,232.206897 L103.798027,232.206897 C123.421535,230.824712 127.036391,226.678161 130.651248,222.531609 L131.167656,221.840517 L151.82398,197.652299 L160.08651,187.977012 L159.570101,187.977012 L183.841282,154.113505 C183.841282,154.113505 183.841282,154.113505 183.324874,154.113505 L183.324874,149.966954 C183.324874,138.909483 183.324874,125.778736 183.841282,112.647988 C183.841282,100.899426 184.357689,89.1508621 184.874098,77.4022988 C185.906914,67.0359195 186.423322,57.3606322 187.456139,49.0675288 C188.488954,40.7744253 189.521771,34.5545977 191.070995,29.0258621 C191.587403,26.2614943 192.620219,23.4971264 193.136627,21.4238505 C194.685852,18.6594828 196.235076,15.204023 197.784301,13.1307471 C197.784301,12.4396552 198.300708,11.7485632 198.817116,11.0574712 C199.849933,9.67528739 199.849933,8.98419537 200.36634,8.98419537 L207.079646,0 L196.751484,1.38218391 Z M180.245575,17.3034483 C179.123894,20.3517241 178.261062,23.4 177.743363,26.537931 C176.362832,32.0068966 175.24115,38.9103448 174.292035,46.8896552 C173.256637,55.5862069 172.480088,65.4482759 171.876106,75.937931 C171.185841,87.0551724 170.840708,98.9793103 170.581858,110.993103 C170.323009,122.468966 170.323009,133.855172 170.409292,144.344828 L167.475664,144.613793 C165.059735,144.882759 162.902655,145.062069 160.745575,145.241379 C157.811947,145.510345 154.964602,145.689655 152.289823,145.868966 C149.183628,146.137931 146.25,146.317241 143.402655,146.496552 C140.037611,146.675862 136.845133,146.765517 133.738938,146.944828 C130.373894,147.034483 127.00885,147.213793 123.816372,147.303448 C120.278761,147.393103 116.827434,147.482759 113.548673,147.572414 C110.011062,147.662069 106.646018,147.662069 103.280973,147.662069 C100.002212,147.662069 96.550885,147.572414 93.0132743,147.572414 C89.7345133,147.482759 86.2831858,147.482759 82.7455752,147.303448 C79.4668142,147.213793 76.1880531,147.034483 72.8230088,146.944828 C69.7168142,146.765517 66.4380531,146.675862 63.159292,146.496552 C60.3119469,146.317241 57.2920354,146.137931 54.2721239,145.868966 C51.5110619,145.689655 48.75,145.42069 45.7300885,145.241379 C43.659292,145.062069 41.4159292,144.793103 39.0862832,144.613793 L36.1526549,144.344828 C36.2389381,137.082759 36.2389381,129.372414 36.1526549,121.482759 C44.1769912,122.468966 52.8915929,123.186207 61.9513274,123.813793 C78.4314159,124.889655 95.6017699,125.337931 110.442478,125.337931 L110.442478,118.524138 C95.4292035,118.524138 78.3451327,118.075862 62.1238938,117 C52.9778761,116.372414 44.1769912,115.655172 36.0663717,114.57931 C36.0663717,113.324138 35.9800885,112.158621 35.9800885,110.903448 C35.8938053,105.255172 35.7212389,99.6965517 35.5486726,94.137931 C43.7455752,95.1241379 52.7190265,95.9310345 61.9513274,96.5586207 C78.4314159,97.6344828 95.6017699,98.0827586 110.442478,98.0827586 L110.442478,91.2689655 C95.4292035,91.2689655 78.3451327,90.8206897 62.1238938,89.7448276 C52.7190265,89.1172414 43.5730088,88.3103448 35.2035398,87.2344828 C35.0309735,83.3793103 34.8584071,79.5241379 34.6858407,75.8482759 C34.5132743,72.7103448 34.340708,69.662069 34.0818584,66.7034483 C42.6238938,67.7793103 52.1150442,68.6758621 61.9513274,69.3034483 C78.4314159,70.3793103 95.6017699,70.8275862 110.442478,70.8275862 L110.442478,64.0137931 C95.4292035,64.0137931 78.3451327,63.5655172 62.1238938,62.4896552 C52.0287611,61.862069 42.2787611,60.9655172 33.4778761,59.8 C33.0464602,55.2275862 32.6150442,50.8344828 32.1836283,46.8 C31.8384956,44.1103448 31.4933628,41.5103448 31.1482301,39.0896552 C40.380531,40.3448276 50.9933628,41.3310345 61.9513274,42.0482759 C78.4314159,43.1241379 95.6017699,43.5724138 110.442478,43.5724138 L110.442478,36.7586207 C95.4292035,36.7586207 78.3451327,36.3103448 62.1238938,35.2344828 C50.6482301,34.5172414 39.6039823,33.4413793 29.9402655,32.0068966 C29.5088496,29.9448276 29.1637168,28.062069 28.6460177,26.3586207 C28.1283186,23.2206897 27.2654867,20.1724138 26.2300885,17.1241379 C25.539823,15.2413793 24.6769912,13.3586207 23.8141593,11.4758621 L26.5752212,11.9241379 C30.8030973,12.5517241 35.289823,13.0896552 39.949115,13.4482759 C48.9225664,14.3448276 58.9314159,14.9724138 69.2853982,15.4206897 C80.7610619,15.9586207 92.409292,16.2275862 103.19469,16.3172414 C114.066372,16.2275862 125.800885,15.9586207 137.276549,15.4206897 C147.544248,14.9724138 157.553097,14.2551724 166.612832,13.4482759 C171.358407,13 175.931416,12.462069 180.245575,11.8344828 L183.179204,11.3862069 C181.798673,13.537931 180.935841,15.4206897 180.245575,17.3034483 Z M124.334071,215.351724 L123.816372,215.97931 C121.227876,219.117241 118.725664,222.255172 103.108407,223.151724 C87.5774336,222.344828 84.9889381,219.117241 82.4004425,215.97931 L81.8827434,215.351724 L69.2853982,199.751724 C71.2699115,199.841379 73.340708,200.02069 75.5840708,200.110345 C79.5530973,200.289655 83.9535398,200.37931 88.699115,200.468966 C93.2721239,200.558621 98.1039823,200.558621 103.108407,200.558621 C108.026549,200.558621 112.858407,200.468966 117.517699,200.468966 C122.176991,200.37931 126.577434,200.289655 130.632743,200.110345 C132.876106,200.02069 135.033186,199.841379 136.931416,199.751724 L124.334071,215.351724 Z" id="Path"></path>
                </g>
                <path d="M219.602727,16.3172414 C238.326179,37.7448276 265.246533,81.2275862 299.673524,145.42069 C346.611577,233.193103 379.485471,357.813793 387.509807,478.758621 C390.098302,518.027586 390.184586,556.937931 387.682373,595.041379 C362.487683,591.096552 290.35494,581.144828 194.75317,581.144828 C112.525294,581.144828 29.5208687,591.455172 1.82396605,595.310345 C-0.678246343,557.117241 -0.591963158,518.206897 1.99653242,478.758621 C10.0208687,357.813793 42.8084793,233.193103 89.8328157,145.42069 C124.173524,81.2275862 151.093878,37.7448276 169.903612,16.3172414 C184.140338,0 190.007594,0 194.75317,0 C199.498745,1.24956559e-13 205.366002,1.24956559e-13 219.602727,16.3172414 Z" id="Path" stroke="#000000" stroke-width="12" fill="#000000" fill-rule="nonzero"></path>
            </g>
        </g>
    </g>
</svg>