<?xml version="1.0" encoding="UTF-8"?>
<svg width="1450px" height="1169px" viewBox="0 0 1450 1169" version="1.1" xmlns="http://www.w3.org/2000/svg" xmlns:xlink="http://www.w3.org/1999/xlink">
    <!-- Generator: Sketch 51.2 (57519) - http://www.bohemiancoding.com/sketch -->
    <title>Layer_1</title>
    <desc>Created with Sketch.</desc>
    <defs></defs>
    <g id="Page-1" stroke="none" stroke-width="1" fill="none" fill-rule="evenodd">
        <g id="Layer_1" fill="#000000" fill-rule="nonzero">
            <g id="Group">
                <path d="M1438.39898,986.138107 C1402.36788,944.130116 1352.95141,899.028133 1313.71867,845.498721 C1393.84655,711.508951 1430.41944,559.897698 1438.0665,462.148338 C1451.03325,296.240409 1417.45269,141.636829 1348.62916,48.8746803 C1305.73913,4.32225064 1237.58056,-10.971867 1169.75448,8.31202046 C1154.46036,12.6342711 1139.8312,18.6189258 1126.53197,25.9335038 C1117.22251,31.2531969 1108.24552,36.9053708 1100.26598,43.5549872 C1050.06138,82.7877238 1017.81074,225.421995 1022.13299,390.332481 C1027.1202,576.85422 1074.33248,743.094629 1152.46547,847.161125 C1137.17136,870.767263 1121.21228,893.043478 1104.58824,913.324808 C1082.6445,940.588235 1059.37084,964.859335 1035.43223,985.805627 C1029.11509,992.122762 1022.79795,997.442455 1016.14834,1001.76471 C1012.82353,1003.75959 1010.16368,1005.42199 1007.50384,1007.0844 C902.439898,1065.60102 776.097187,901.355499 745.508951,858.465473 C821.314578,721.815857 855.892583,564.88491 862.87468,462.480818 C874.179028,296.57289 844.588235,142.30179 783.079284,49.5396419 C744.511509,4.65473146 683.335038,-10.6393862 622.823529,8.64450128 C609.191816,12.9667519 595.892583,18.9514066 583.923274,26.5984655 C575.611253,31.9181586 567.631714,37.9028133 560.317136,44.2199488 C514.767263,84.1176471 486.838875,223.42711 490.828645,390.664962 C495.150895,577.186701 537.375959,743.42711 606.86445,847.493606 C593.232737,871.099744 578.936061,893.70844 563.974425,913.98977 C544.358056,941.253197 523.744246,965.524297 502.465473,986.138107 C496.813299,992.455243 491.161125,997.774936 485.508951,1002.09719 C482.516624,1004.09207 480.189258,1005.75448 477.861893,1007.0844 C458.910486,1019.05371 437.964194,1022.37852 415.68798,1017.05882 C341.212276,999.769821 269.396419,895.038363 245.790281,858.132992 C260.419437,829.872123 273.71867,799.616368 285.023018,768.030691 C323.258312,683.913043 348.194373,575.524297 355.508951,462.813299 C366.148338,296.905371 338.219949,142.634271 281.033248,49.8721228 C245.12532,4.98721228 187.606138,-10.6393862 130.419437,8.9769821 C117.452685,13.2992327 105.150895,19.2838875 93.8465473,26.9309463 C85.8670077,32.2506394 78.5524297,38.2352941 71.9028133,44.5524297 C29.3452685,84.4501279 3.07928389,223.759591 6.73657289,390.664962 C10.7263427,577.519182 50.2915601,743.42711 115.457801,847.493606 C102.491049,871.432225 89.1918159,893.70844 75.2276215,914.322251 C56.9411765,941.585678 20.7007673,974.386189 0.751918159,995 C0.751918159,1103.17136 0.751918159,1153.70844 0.751918159,1153.70844 C0.751918159,1153.70844 131.749361,1023.04348 183.616368,956.879795 L188.2711,961.202046 C209.882353,982.480818 228.83376,1000.43478 245.790281,1015.7289 C294,1058.61893 332.900256,1081.5601 410.035806,1087.21228 C509.780051,1094.52685 599.882353,1050.97187 677.682864,958.209719 C705.611253,982.480818 726.890026,1000.76726 746.173913,1016.06138 C800.368286,1058.95141 843.590793,1081.89258 930.035806,1087.54476 C1042.7468,1094.85934 1144.48593,1050.63939 1232.26087,955.549872 C1292.77238,1030.69054 1410.17903,1139.41688 1429.08951,1153.70844 C1430.74958,1154.96303 1437.38641,1160.06022 1449,1169 L1449,999 C1447,996.333333 1443.46633,992.046036 1438.39898,986.138107 Z M1240.90537,943.580563 C1262.51662,918.976982 1281.13555,893.70844 1297.09463,869.104859 C1299.75448,865.11509 1302.08184,861.12532 1304.74169,857.13555 C1343.97442,910.332481 1395,961 1432,996 C1432.93168,996.881321 1450,1015.00966 1450,1018 C1450,1035 1450,1070.10049 1450,1102 C1450,1107.15478 1450,1124.82145 1450,1155 C1444.02764,1150.85216 1440.69431,1148.51882 1440,1148 C1349,1080 1286.19064,1000.00156 1240.90537,943.580563 Z M82.2097187,54.1943734 C88.5268542,48.2097187 95.1764706,42.8900256 102.158568,38.2352941 C103.488491,37.2378517 104.818414,36.57289 106.148338,35.9079284 C106.813299,35.9079284 107.478261,35.9079284 108.143223,35.9079284 C108.143223,35.9079284 108.475703,35.9079284 108.475703,35.9079284 C109.805627,35.9079284 111.13555,36.2404092 112.465473,36.2404092 C112.465473,36.2404092 112.797954,36.2404092 112.797954,36.2404092 C114.127877,36.57289 115.457801,36.9053708 117.120205,37.2378517 C117.120205,37.2378517 117.452685,37.2378517 117.452685,37.2378517 C136.071611,42.8900256 157.682864,60.8439898 168.987212,76.4705882 C149.370844,114.373402 135.40665,159.258312 127.094629,210.460358 C105.483376,340.127877 120.777494,512.685422 173.309463,726.470588 C162.670077,754.066496 151.365729,780.664962 139.396419,805.601023 C134.741688,815.242967 130.086957,824.88491 125.099744,834.194373 C-17.5345269,600.460358 4.40920716,127.007673 82.2097187,54.1943734 Z M230.828645,461.483376 C226.838875,524.987212 217.196931,586.163683 202.567775,643.350384 C195.585678,665.959079 188.2711,687.902813 180.29156,709.181586 C112.132992,425.575448 110.470588,216.112532 174.971867,86.4450128 C219.856777,179.539642 240.470588,315.856777 230.828645,461.483376 Z M237.810742,869.769821 C264.741688,911.329923 336.557545,1012.73657 413.360614,1030.69054 C421.672634,1032.68542 429.984655,1033.68286 438.296675,1033.35038 C389.421995,1054.96164 335.892583,1047.31458 261.41688,1010.40921 C259.421995,1008.7468 257.42711,1007.0844 255.432225,1005.08951 C238.475703,990.127877 219.856777,971.841432 198.245524,950.895141 L190.930946,943.580563 C207.887468,920.971867 223.514066,896.035806 237.810742,869.769821 Z M676.352941,708.184143 C603.872123,425.907928 602.209719,217.442455 671.033248,87.7749361 C718.578005,180.869565 740.189258,316.521739 730.214834,461.150895 C725.892583,524.654731 715.585678,585.831202 699.959079,643.017903 C692.644501,665.294118 684.664962,687.237852 676.352941,708.184143 Z M570.29156,54.1943734 C576.941176,48.2097187 584.255754,42.8900256 591.902813,37.9028133 C591.902813,37.9028133 591.902813,37.9028133 592.235294,37.9028133 C612.184143,32.5831202 644.767263,53.8618926 662.388747,74.1432225 C663.71867,75.4731458 664.716113,77.1355499 665.713555,78.4654731 C591.902813,211.457801 593.565217,428.567775 670.700767,723.14578 C659.396419,750.741688 647.759591,777.007673 635.12532,801.611253 C634.460358,802.941176 633.795396,803.938619 632.797954,805.268542 L632.465473,805.601023 C627.478261,815.575448 622.158568,825.549872 616.838875,835.191816 C550.342711,733.120205 509.780051,571.534527 505.457801,389.667519 C501.800512,229.079284 528.398977,91.0997442 570.29156,54.1943734 Z M736.531969,869.104859 C756.148338,896.368286 798.040921,949.897698 848.578005,988.465473 C889.805627,1019.71867 928.373402,1034.68031 963.616368,1033.35038 C943.335038,1041.32992 922.388747,1045.65217 900.112532,1045.98465 C860.547315,1045.98465 815.662404,1034.34783 762.132992,1010.74169 C759.805627,1009.07928 757.478261,1007.0844 755.150895,1005.08951 C736.199488,990.127877 715.253197,971.841432 690.982097,950.895141 L685.329923,945.907928 C703.283887,922.30179 720.57289,896.368286 736.531969,869.104859 Z M1044.74169,224.757033 C1044.74169,223.759591 1045.07417,222.762148 1045.07417,222.097187 C1045.07417,221.764706 1045.07417,221.432225 1045.40665,221.099744 C1057.04348,143.631714 1077.98977,84.1176471 1104.92072,58.1841432 C1106.25064,56.8542199 1107.58056,55.5242967 1109.24297,54.5268542 C1116.55754,48.5421995 1124.86957,43.2225064 1133.51407,38.2352941 C1133.84655,37.9028133 1134.17903,37.9028133 1134.51151,37.5703325 C1152.13299,33.2480818 1178.39898,45.5498721 1198.68031,60.511509 C1206.32737,66.1636829 1212.6445,72.4808184 1217.63171,78.4654731 C1135.17647,211.457801 1137.17136,428.235294 1223.28389,722.480818 C1210.64962,750.076726 1197.35038,776.342711 1183.05371,801.278772 C1182.38875,802.608696 1181.3913,803.606138 1180.39386,804.936061 L1180.06138,805.268542 C1174.07673,815.575448 1168.09207,825.882353 1161.77494,835.856777 C1086.30179,734.117647 1040.75192,571.867008 1035.76471,389.667519 C1034.43478,330.485934 1037.75959,274.296675 1044.74169,224.757033 Z M1227.93862,711.508951 C1145.48338,426.905371 1144.81841,217.442455 1222.95141,87.4424552 C1276.48082,180.537084 1301.0844,316.521739 1289.78005,461.483376 C1284.79284,524.987212 1273.48849,586.163683 1255.86701,643.017903 C1247.22251,666.29156 1237.91304,689.232737 1227.93862,711.508951 Z" id="Shape"></path>
            </g>
        </g>
    </g>
</svg>