<?xml version="1.0" encoding="UTF-8"?>
<svg width="841px" height="1352px" viewBox="0 0 841 1352" version="1.1" xmlns="http://www.w3.org/2000/svg" xmlns:xlink="http://www.w3.org/1999/xlink">
    <!-- Generator: Sketch 51.3 (57544) - http://www.bohemiancoding.com/sketch -->
    <title>wall</title>
    <desc>Created with Sketch.</desc>
    <defs></defs>
    <g id="Page-1" stroke="none" stroke-width="1" fill="none" fill-rule="evenodd">
        <g id="wall" fill="#000000" fill-rule="nonzero">
            <path d="M707.73,0 L133.1,0 C60.1,0 0.77,59.35 0.77,132.31 L0.77,1219.06 C0.77,1292.06 60.14,1351.37 133.1,1351.37 L707.73,1351.37 C780.73,1351.37 840.06,1292.02 840.06,1219.06 L840.06,132.26 C840.06,59.3 780.69,0 707.73,0 Z M808.52,1219.1 C808.453866,1274.73574 763.36575,1319.81939 707.73,1319.88 L133.1,1319.88 C77.46425,1319.81939 32.3761344,1274.73574 32.31,1219.1 L32.31,132.26 C32.3816434,76.6281616 77.4681485,31.5506031 133.1,31.49 L707.73,31.49 C763.36575,31.5506142 808.453866,76.6342563 808.52,132.27 L808.52,1219.1 Z" id="Shape"></path>
            <path d="M420.42,151.21 C329.81255,151.130119 245.144634,196.28334 194.73,271.57 L194.73,270.65 L186.73,284.08 C186.6033,284.421632 186.409492,284.734445 186.16,285 L185.16,287 C185.034984,287.254875 184.89473,287.501989 184.74,287.74 L183.82,289.5 L182.76,290.82 L181.97,292.58 C181.86,292.8 181.69,293.04 181.52,293.32 L180.9,294.4 L179.7,296.77 L179.19,296.83 L178.65,298.43 C178.474479,298.969436 178.257154,299.494361 178,300 L177.34,301.36 C177.16,301.91 176.97,302.28 176.77,302.75 L175.88,304.26 L173.09,310.11 C172.87,310.79 172.64,311.47 172.55,311.68 L171.8,313 C171.69,313.34 171.57,313.62 171.46,313.92 C171.35,314.22 171.15,314.66 171.04,315 L167.93,322.55 C167.757459,322.987708 167.546642,323.409343 167.3,323.81 L166.75,325.2 C166.63,325.57 166.5,325.88 166.38,326.2 L165.58,328.73 C165.49,328.98 165.4,329.19 165.3,329.44 L163.3,334.52 C163.149183,335.036473 163.025678,335.560533 162.93,336.09 L161.31,341.09 C161.109006,341.490004 160.957876,341.913168 160.86,342.35 L163.15,342.93 L160.66,342.93 L159.44,347.18 C159.008694,348.034998 158.747205,348.965492 158.67,349.92 L158.53,350.35 C158.1917,351.23072 157.969825,352.151837 157.87,353.09 L157.69,353.71 C153.646926,368.580659 150.952688,383.785529 149.64,399.14 L149.64,399.32 C149.13,406.96 148.85,415.06 148.87,422.73 C148.774322,431.937834 149.215068,441.143425 150.19,450.3 L150.19,451.9 L150.45,453.16 C150.469805,453.730916 150.553664,454.297802 150.7,454.85 L150.7,455.85 L150.82,456.59 C150.944544,457.133989 150.991676,457.692836 150.96,458.25 L151.22,459.25 C151.230913,459.777281 151.287796,460.302604 151.39,460.82 C151.454415,461.176301 151.484552,461.537952 151.48,461.9 L152.02,465.63 L152.14,466.37 C152.218683,466.641697 152.275531,466.919247 152.31,467.2 C152.39,467.6 152.45,467.97 152.56,468.37 L152.56,469.2 C157.321555,496.616139 166.248084,523.142805 179.03,547.86 L179.71,548.78 L179.8,548.96 C179.958957,549.257653 180.099228,549.564914 180.22,549.88 L180.9,551.27 C181.051509,551.583044 181.232316,551.88104 181.44,552.16 C181.663385,552.464821 181.838753,552.802067 181.96,553.16 L183.44,555.81 L184.15,556.81 C184.303472,557.158907 184.487523,557.493546 184.7,557.81 C184.820872,557.996941 184.924626,558.194408 185.01,558.4 L185.41,559.69 L186.13,560.4 C186.410088,560.734497 186.639228,561.108535 186.81,561.51 L194.66,574.51 L194.66,573.86 C204.496009,588.54972 215.749947,602.238662 228.26,614.73 C279.7,666.17 347.9,694.47 420.34,694.47 C517.78923,695.06124 608.090078,643.411878 656.986167,559.115529 C705.882256,474.81918 705.882256,370.79082 656.986167,286.494471 C608.090078,202.198122 517.78923,150.54876 420.34,151.14 L420.42,151.21 Z M654.54,393.32 L654.54,303.32 C660.767548,315.534408 666.049686,328.208198 670.34,341.23 C675.941006,358.129852 679.725695,375.578308 681.63,393.28 L654.54,393.32 Z M681.32,456.15 C679.202284,473.132673 675.348799,489.853448 669.82,506.05 C665.634758,518.486625 660.527242,530.593578 654.54,542.27 L654.54,456.15 L681.32,456.15 Z M158.44,447.43 C157.65,438.16 157.32,430.43 157.32,422.73 C157.32,415.92 157.72,408.93 158.21,401.79 L194.71,401.79 L194.71,287.65 C205.841352,269.219748 219.139325,252.18854 234.32,236.92 C283.484202,187.268131 350.526027,159.436119 420.4,159.67 C490.58,159.67 556.66,187.11 606.48,236.92 C621.707646,252.138538 635.013432,269.165377 646.1,287.62 L646.1,401.79 L682.6,401.79 C683.05,408.47 683.49,415.79 683.49,422.73 C683.49,430.28 683.15,437.98 682.37,447.43 L646.07,447.43 L646.07,558.13 C634.857219,576.489494 621.573568,593.500888 606.48,608.83 C556.55,658.48 490.48,685.83 420.39,685.83 C350.574402,686.047316 283.574568,658.31977 234.33,608.83 C219.200473,593.415042 205.905396,576.301238 194.71,557.83 L194.71,447.44 L158.44,447.43 Z M186,456.15 L186,542.2 C172.161396,515.302288 163.183432,486.1713 159.48,456.15 L186,456.15 Z M159.19,393.32 C162.639523,361.973705 171.721956,331.508088 186,303.39 L186,393.32 L159.19,393.32 Z" id="Shape"></path>
            <circle id="Oval" cx="284.35" cy="422.74" r="38.45"></circle>
            <circle id="Oval" cx="556.43" cy="422.74" r="38.45"></circle>
            <path d="M420.42,116.28 C251.36,116.28 113.83,253.83 113.83,422.89 C113.83,591.95 251.36,729.47 420.42,729.47 C589.48,729.47 727,591.95 727,422.89 C727,253.83 589.48,116.28 420.42,116.28 Z M420.42,713.7 C260.06,713.7 129.6,583.23 129.6,422.89 C129.6,262.55 260.06,132 420.42,132 C580.78,132 711.24,262.47 711.24,422.84 C711.24,583.21 580.77,713.7 420.42,713.7 Z" id="Shape"></path>
            <g id="power" transform="translate(321.000000, 985.000000)">
                <path d="M100.001485,200 C44.8605211,200 0,155.141631 0,100.002971 C0,44.8643109 44.8590357,0 100.001485,0 C155.143935,0 200,44.8583694 200,100.002971 C200,155.147572 155.14245,200 100.001485,200 Z M100.001485,5.4661854 C47.8743947,5.4661854 5.4662666,47.8736836 5.4662666,100.002971 C5.4662666,152.132258 47.8743947,194.533815 100.001485,194.533815 C152.128576,194.533815 194.533733,152.126316 194.533733,100.002971 C194.533733,47.8796251 152.125605,5.4661854 100.001485,5.4661854 Z" id="Shape"></path>
                <path d="M100,183.386581 C54.0195101,183.386581 16.6134185,145.981491 16.6134185,100.002231 C16.6134185,54.0229712 54.0195101,16.6134185 100,16.6134185 C145.98049,16.6134185 183.386581,54.0185093 183.386581,99.9977691 C183.386581,145.977029 145.98049,183.386581 100,183.386581 Z M100,19.3544755 C55.5291396,19.3544755 19.3500869,55.5310731 19.3500869,100.002231 C19.3500869,144.473389 55.5291396,180.649986 100,180.649986 C144.47086,180.649986 180.649913,144.473389 180.649913,100.002231 C180.649913,55.5310731 144.47086,19.3544755 100,19.3544755 Z" id="Shape"></path>
                <path d="M118.355144,77.4424276 C117.016161,76.5462863 115.298408,76.4289924 113.848944,77.1347293 C112.39948,77.8404662 111.438514,79.2620157 111.328033,80.8638939 C111.217552,82.465772 111.97434,84.0046155 113.313322,84.9007567 C119.924667,89.3135894 123.889709,96.7156737 123.885364,104.63703 C123.885364,117.73874 113.171865,128.397305 100.004462,128.397305 C86.8370588,128.397305 76.1310054,117.737258 76.1310054,104.635549 C76.1291363,96.7330184 80.0767953,89.3469143 86.6628434,84.9303885 C88.7294417,83.5393463 89.2714338,80.7447333 87.8734166,78.6884456 C86.4753995,76.632158 83.6667739,76.09287 81.6001756,77.4839122 C72.5262358,83.5704621 67.0883257,93.74837 67.0926543,104.63703 C67.0926543,122.69318 81.8577761,137.380192 99.999995,137.380192 C118.142214,137.380192 132.907336,122.688735 132.907336,104.63703 C132.916874,93.7249716 127.459347,83.5261444 118.355144,77.4424276 Z" id="Shape"></path>
                <path d="M99.6805112,110.543131 C100.867039,110.543131 102.004947,110.065936 102.84381,109.216565 C103.682674,108.367195 104.153746,107.215255 104.153354,106.014261 L104.153354,67.1471853 C104.153354,64.646784 102.150794,62.6198083 99.6805112,62.6198083 C97.2102281,62.6198083 95.207668,64.646784 95.207668,67.1471853 L95.207668,106.014261 C95.2072768,107.215255 95.6783487,108.367195 96.5172119,109.216565 C97.3560751,110.065936 98.4939839,110.543131 99.6805112,110.543131 Z" id="Shape"></path>
            </g>
        </g>
    </g>
</svg>