<?xml version="1.0" encoding="UTF-8"?>
<svg width="2000px" height="2000px" viewBox="0 0 2000 2000" version="1.1" xmlns="http://www.w3.org/2000/svg" xmlns:xlink="http://www.w3.org/1999/xlink">
    <!-- Generator: Sketch 51.3 (57544) - http://www.bohemiancoding.com/sketch -->
    <title>a_classic_resized</title>
    <desc>Created with Sketch.</desc>
    <defs></defs>
    <g id="Page-1" stroke="none" stroke-width="1" fill="none" fill-rule="evenodd">
        <g id="lights" transform="translate(-2319.000000, -1.000000)">
            <g id="a_classic_resized" transform="translate(3009.000000, 527.000000)">
                <path d="M344.890039,1081.0481 L344.087969,1081.83776 C340.07762,1084.99641 335.265201,1088.94472 310.401035,1089.73439 C284.734799,1088.94472 280.72445,1084.99641 275.912031,1081.83776 L275.109961,1081.0481 L255.058215,1062.88586 C258.266494,1063.67552 261.474774,1063.67552 265.485123,1063.67552 C271.901682,1063.67552 279.12031,1063.67552 286.338939,1063.67552 C294.359638,1064.46518 302.380336,1064.46518 310.401035,1064.46518 C318.421734,1064.46518 326.442432,1064.46518 333.661061,1063.67552 C341.681759,1063.67552 348.900388,1063.67552 355.316947,1063.67552 C358.525226,1063.67552 362.535576,1063.67552 364.941785,1062.88586 L344.890039,1081.0481 Z M454.773609,836.252692 L470.815006,834.673367 L460.388098,844.938981 C459.586028,844.938981 459.586028,845.728643 457.981889,847.307968 C457.179819,848.097631 456.377749,848.887294 456.377749,849.676956 C453.971539,852.045944 451.56533,855.994257 449.15912,859.152907 C448.35705,861.521895 446.752911,864.680546 445.950841,867.839196 C443.544631,874.156497 441.940492,881.26346 440.336352,890.739411 C438.732212,900.215363 437.930142,911.270639 436.326003,923.115578 C435.523933,936.539842 434.721863,949.964106 434.721863,963.38837 C433.919793,978.39196 433.919793,993.395549 433.919793,1006.03015 L433.919793,1010.76813 C434.721863,1010.76813 434.721863,1010.76813 434.721863,1010.76813 L397.02458,1049.46159 L397.826649,1049.46159 L384.993532,1060.51687 L352.910737,1088.15506 L352.108668,1088.94472 C346.494179,1093.6827 340.87969,1098.42067 310.401035,1100 L309.598965,1100 C279.92238,1098.42067 273.505821,1093.6827 267.891332,1088.94472 L267.089263,1088.15506 L235.006468,1060.51687 L222.97542,1049.46159 L186.080207,1010.76813 L186.080207,1006.03015 C186.080207,993.395549 186.080207,978.39196 186.080207,963.38837 C185.278137,949.964106 184.476067,936.539842 183.673997,923.115578 C182.871928,911.270639 181.267788,900.215363 179.663648,890.739411 C178.059508,881.26346 176.455369,874.156497 174.049159,867.839196 C173.247089,864.680546 172.445019,861.521895 170.84088,859.152907 C168.43467,855.994257 166.83053,852.045944 163.622251,849.676956 C163.622251,848.887294 162.820181,848.097631 162.018111,847.307968 C161.216041,846.518306 160.413972,845.728643 159.611902,844.938981 L149.184994,834.673367 L165.226391,837.042355 C170.84088,837.832017 176.455369,837.832017 182.871928,838.62168 C190.090556,839.411342 197.309185,840.201005 205.329884,840.201005 C220.569211,841.78033 236.610608,842.569993 253.454075,842.569993 C272.703752,843.359655 291.953428,844.149318 309.598965,844.149318 C327.244502,844.149318 346.494179,843.359655 365.743855,842.569993 C382.587322,842.569993 399.430789,841.78033 414.670116,840.201005 C422.690815,840.201005 429.909444,839.411342 437.128072,838.62168 C443.544631,837.832017 449.15912,837.042355 454.773609,836.252692 Z M321.630013,886.001436 C297.567917,886.001436 269.495472,885.211773 242.225097,884.422111 C224.57956,883.632448 206.934023,882.842785 191.694696,881.26346 C192.496766,883.632448 193.298836,886.791098 193.298836,889.949749 C194.100906,894.687724 194.902975,899.4257 195.705045,904.163676 C210.142303,905.743001 226.1837,906.532663 242.225097,907.322326 C268.693402,908.901651 297.567917,908.901651 321.630013,908.901651 L321.630013,916.798277 C297.567917,916.798277 269.495472,916.798277 242.225097,915.218952 C226.1837,914.429289 210.944373,913.639627 196.507115,912.060302 C196.507115,916.008615 197.309185,919.167265 197.309185,922.325915 C198.111255,927.063891 198.111255,931.012204 198.111255,935.750179 C211.746442,936.539842 226.98577,938.119167 242.225097,938.119167 C268.693402,939.698492 297.567917,940.488155 321.630013,940.488155 L321.630013,947.595118 C297.567917,947.595118 269.495472,947.595118 242.225097,946.015793 C226.98577,945.226131 212.548512,944.436468 198.913325,943.646805 C198.913325,949.964106 199.715395,956.281407 199.715395,962.598708 C199.715395,964.178033 199.715395,964.967696 199.715395,966.547021 C213.350582,968.126346 227.78784,968.916009 242.225097,969.705671 C268.693402,970.495334 297.567917,971.284996 321.630013,971.284996 L321.630013,978.39196 C297.567917,978.39196 269.495472,978.39196 242.225097,976.812635 C227.78784,976.022972 213.350582,975.233309 199.715395,974.443647 C199.715395,983.129935 199.715395,991.816224 199.715395,1000.50251 L204.527814,1000.50251 C208.538163,1001.29218 212.548512,1001.29218 215.756792,1001.29218 C220.569211,1002.08184 225.38163,1002.08184 229.391979,1002.08184 C235.006468,1002.08184 239.818887,1002.8715 244.631307,1002.8715 C249.443726,1002.8715 255.058215,1002.8715 259.870634,1003.66116 C265.485123,1003.66116 271.099612,1003.66116 276.714101,1003.66116 C282.32859,1003.66116 287.943079,1003.66116 293.557568,1003.66116 C299.172057,1004.45083 304.786546,1004.45083 310.401035,1004.45083 C315.213454,1004.45083 320.827943,1004.45083 327.244502,1003.66116 C332.056921,1003.66116 337.67141,1003.66116 344.087969,1003.66116 C348.900388,1003.66116 354.514877,1003.66116 360.129366,1003.66116 C364.941785,1002.8715 370.556274,1002.8715 376.170763,1002.8715 C380.983182,1002.8715 385.795602,1002.08184 390.608021,1002.08184 C394.61837,1002.08184 399.430789,1002.08184 404.243208,1001.29218 C408.253558,1001.29218 411.461837,1001.29218 415.472186,1000.50251 L420.284605,1000.50251 C420.284605,988.657574 420.284605,975.233309 420.284605,962.598708 C421.086675,949.174444 421.888745,934.960517 422.690815,922.325915 C423.492885,910.480976 425.097025,899.4257 426.701164,889.949749 C428.305304,880.473798 429.909444,872.577172 432.315653,866.259871 C433.117723,863.10122 434.721863,859.94257 436.326003,855.994257 C437.930142,853.625269 438.732212,852.045944 440.336352,849.676956 L435.523933,850.466619 C429.107374,851.256281 421.086675,851.256281 413.065977,852.045944 C398.628719,852.835607 382.587322,853.625269 365.743855,854.414932 C346.494179,855.204594 327.244502,855.204594 309.598965,855.204594 C291.953428,855.204594 272.703752,855.204594 254.256145,854.414932 C237.412678,853.625269 220.569211,852.835607 206.131953,852.045944 C198.111255,851.256281 190.892626,851.256281 184.476067,850.466619 L179.663648,849.676956 C181.267788,852.045944 182.871928,854.414932 183.673997,855.994257 C185.278137,859.94257 186.882277,863.10122 187.684347,866.259871 C188.486417,868.628859 189.288486,870.997846 190.090556,873.366834 C205.329884,874.946159 223.77749,875.735822 242.225097,876.525485 C268.693402,878.10481 297.567917,878.10481 321.630013,878.10481 L321.630013,886.001436 Z" id="base" fill="#000000" fill-rule="nonzero"></path>
                <path d="M590.323415,434.314429 C504.560759,444.843264 410.985942,450.107681 309.598965,450.107681 C157.518499,450.107681 28.5871505,433.852824 28.8745149,434.314429 C51.2602846,477.374731 109.187704,614.578607 124.274638,675.216798 C139.57813,736.944724 141.799864,759.315865 142.521727,815.326633 C142.521727,816.411101 142.676793,817.832493 142.986927,819.590811 L145.874379,825.536971 C148.411079,829.406799 236.874224,835.597959 321.463812,835.607569 C406.0534,835.617172 474.052762,826.590175 475.148117,824.810481 C475.701601,824.051402 476.149389,823.222793 476.479553,822.346734 L478.035569,815.492462 C478.773473,759.315865 480.987186,736.95262 496.282658,675.208902 C511.666358,613.078248 568.739715,473.750179 590.323415,434.314429 Z" id="case" stroke="#000000" stroke-width="12"></path>
                <path d="M619.825478,305.236181 C619.825478,136.919598 480.738544,0 309.785375,0 C138.944495,0 0.00193392171,136.919598 0.00193392171,305.236181 C-0.158950142,349.702849 9.67004503,394.06744 28.8745149,434.314429 C29.325542,435.380943 157.519507,450.107681 309.598965,450.107681 C461.678423,450.107681 561.733818,437.375254 590.323415,434.314429 C610.141168,393.439043 619.85878,350.529478 619.825478,305.236181 Z" id="light" stroke="#000000" stroke-width="12" fill="#000000" fill-rule="nonzero"></path>
            </g>
        </g>
    </g>
</svg>