<?xml version="1.0" encoding="UTF-8"?>
<svg width="2000px" height="2000px" viewBox="0 0 2000 2000" version="1.1" xmlns="http://www.w3.org/2000/svg" xmlns:xlink="http://www.w3.org/1999/xlink">
    <!-- Generator: Sketch 51.3 (57544) - http://www.bohemiancoding.com/sketch -->
    <title>a_sultan_resized</title>
    <desc>Created with Sketch.</desc>
    <defs></defs>
    <g id="Page-1" stroke="none" stroke-width="1" fill="none" fill-rule="evenodd">
        <g id="lights" transform="translate(-4712.000000, 0.000000)">
            <g id="a" transform="translate(5402.000000, 527.000000)">
                <path d="M158.039216,825.973107 C181.593137,834.536447 249.215686,838.428875 304.681373,838.428875 L309.240196,838.428875 L313.79902,838.428875 C367.745098,838.428875 433.088235,834.536447 458.161765,826.751592 C463.480392,825.973107 479.436275,669.497523 489.313725,601.769285 C509.068627,468.648266 538.70098,365.888181 540.220588,358.881812 C540.980392,356.546355 541.740196,354.989384 542.5,353.432413 C544.779412,348.7615 546.29902,345.647558 545.539216,327.742392 L540.220588,328.520878 L164.877451,328.520878 L134.485294,328.520878 L110.171569,328.520878 L79.7794118,328.520878 L73.7009804,327.742392 C72.9411765,345.647558 74.4607843,348.7615 76.7401961,353.432413 C77.5,354.989384 78.2598039,356.546355 79.0196078,358.881812 C80.5392157,365.888181 110.171569,468.648266 129.926471,601.769285 C140.563725,671.054494 156.519608,825.194621 158.039216,825.973107 Z" id="Shape" stroke="#000000" stroke-width="16.9564"></path>
                <g id="Shape" style="mix-blend-mode: difference;">
                    <g id="path-1-link" style="mix-blend-mode: difference;" fill="#000000" fill-rule="nonzero">
                        <path d="M547.938945,327.742392 L309.594053,327.742392 L72.015544,327.742392 L68.1836325,327.742392 L66.6508679,324.62845 C61.2861919,310.615711 52.8559868,296.602972 44.4257816,281.033263 C24.4998421,245.22293 2.27475573,205.52017 0.741991156,160.368011 C-0.790773424,127.671621 -0.790773424,106.652512 9.17219635,88.7473461 C19.1351661,71.6206653 39.8274879,58.3864119 79.6793669,42.8167021 C117.232099,28.8039632 155.551213,17.9051663 192.337563,11.6772824 C234.488589,3.11394197 274.340468,0 309.594053,0 C344.847639,0 385.4659,3.11394197 427.616926,11.6772824 C464.403276,17.9051663 502.72239,28.8039632 539.50874,42.8167021 C580.127001,58.3864119 600.052941,71.6206653 610.782293,88.7473461 C620.745263,106.652512 619.97888,127.671621 619.212498,160.368011 C617.679734,205.52017 595.454647,245.22293 575.528708,281.033263 C567.098502,296.602972 558.668297,310.615711 552.537239,324.62845 L551.004474,327.742392 L547.938945,327.742392 Z" id="path-1"></path>
                    </g>
                    <g id="path-1-link" stroke="#000000" stroke-width="12">
                        <path d="M547.938945,327.742392 L309.594053,327.742392 L72.015544,327.742392 L68.1836325,327.742392 L66.6508679,324.62845 C61.2861919,310.615711 52.8559868,296.602972 44.4257816,281.033263 C24.4998421,245.22293 2.27475573,205.52017 0.741991156,160.368011 C-0.790773424,127.671621 -0.790773424,106.652512 9.17219635,88.7473461 C19.1351661,71.6206653 39.8274879,58.3864119 79.6793669,42.8167021 C117.232099,28.8039632 155.551213,17.9051663 192.337563,11.6772824 C234.488589,3.11394197 274.340468,0 309.594053,0 C344.847639,0 385.4659,3.11394197 427.616926,11.6772824 C464.403276,17.9051663 502.72239,28.8039632 539.50874,42.8167021 C580.127001,58.3864119 600.052941,71.6206653 610.782293,88.7473461 C620.745263,106.652512 619.97888,127.671621 619.212498,160.368011 C617.679734,205.52017 595.454647,245.22293 575.528708,281.033263 C567.098502,296.602972 558.668297,310.615711 552.537239,324.62845 L551.004474,327.742392 L547.938945,327.742392 Z" id="path-1"></path>
                    </g>
                </g>
                <path d="M446.764706,839.985846 L461.960784,838.428875 L452.083333,848.549186 C451.323529,848.549186 451.323529,849.327672 449.803922,850.884643 C449.044118,851.663128 448.284314,852.441614 448.284314,853.220099 C446.004902,855.555556 443.72549,859.447983 441.446078,862.561925 C440.686275,864.897381 439.166667,868.011323 438.406863,871.125265 C436.127451,877.353149 434.607843,884.359519 433.088235,893.701345 C431.568627,903.043171 430.808824,913.941967 429.289216,925.61925 C428.529412,938.853503 427.769608,952.087757 427.769608,965.32201 C427.009804,980.113234 427.009804,994.904459 427.009804,1007.36023 L427.009804,1012.03114 C427.769608,1012.03114 427.769608,1012.03114 427.769608,1012.03114 L392.058824,1050.17693 L392.818627,1050.17693 L380.661765,1061.07573 L350.269608,1088.32272 L349.509804,1089.1012 C344.191176,1093.77212 338.872549,1098.44303 310,1100 L309.240196,1100 C281.127451,1098.44303 275.04902,1093.77212 269.730392,1089.1012 L268.970588,1088.32272 L238.578431,1061.07573 L227.181373,1050.17693 L192.230392,1012.03114 L192.230392,1007.36023 C192.230392,994.904459 192.230392,980.113234 192.230392,965.32201 C191.470588,952.087757 190.710784,938.853503 189.95098,925.61925 C189.191176,913.941967 187.671569,903.043171 186.151961,893.701345 C184.632353,884.359519 183.112745,877.353149 180.833333,871.125265 C180.073529,868.011323 179.313725,864.897381 177.794118,862.561925 C175.514706,859.447983 173.995098,855.555556 170.955882,853.220099 C170.955882,852.441614 170.196078,851.663128 169.436275,850.884643 C168.676471,850.106157 167.916667,849.327672 167.156863,848.549186 L157.279412,838.428875 L172.47549,840.764331 C177.794118,841.542817 183.112745,841.542817 189.191176,842.321302 C196.029412,843.099788 202.867647,843.878273 210.465686,843.878273 C224.901961,845.435244 240.098039,846.21373 256.053922,846.21373 C274.289216,846.992215 292.52451,847.770701 309.240196,847.770701 C325.955882,847.770701 344.191176,846.992215 362.426471,846.21373 C378.382353,846.21373 394.338235,845.435244 408.77451,843.878273 C416.372549,843.878273 423.210784,843.099788 430.04902,842.321302 C436.127451,841.542817 441.446078,840.764331 446.764706,839.985846 Z M320.637255,889.030432 C297.843137,889.030432 271.25,888.251946 245.416667,887.473461 C228.70098,886.694975 211.985294,885.91649 197.54902,884.359519 C198.308824,886.694975 199.068627,889.808917 199.068627,892.922859 C199.828431,897.593772 200.588235,902.264685 201.348039,906.935598 C215.02451,908.492569 230.220588,909.271054 245.416667,910.04954 C270.490196,911.606511 297.843137,911.606511 320.637255,911.606511 L320.637255,919.391366 C297.843137,919.391366 271.25,919.391366 245.416667,917.834395 C230.220588,917.055909 215.784314,916.277424 202.107843,914.720453 C202.107843,918.61288 202.867647,921.726822 202.867647,924.840764 C203.627451,929.511677 203.627451,933.404105 203.627451,938.075018 C216.544118,938.853503 230.980392,940.410474 245.416667,940.410474 C270.490196,941.967445 297.843137,942.745931 320.637255,942.745931 L320.637255,949.7523 C297.843137,949.7523 271.25,949.7523 245.416667,948.195329 C230.980392,947.416844 217.303922,946.638358 204.387255,945.859873 C204.387255,952.087757 205.147059,958.31564 205.147059,964.543524 C205.147059,966.100495 205.147059,966.878981 205.147059,968.435952 C218.063725,969.992923 231.740196,970.771408 245.416667,971.549894 C270.490196,972.328379 297.843137,973.106865 320.637255,973.106865 L320.637255,980.113234 C297.843137,980.113234 271.25,980.113234 245.416667,978.556263 C231.740196,977.777778 218.063725,976.999292 205.147059,976.220807 C205.147059,984.784147 205.147059,993.347488 205.147059,1001.91083 L209.705882,1001.91083 C213.504902,1002.68931 217.303922,1002.68931 220.343137,1002.68931 C224.901961,1003.4678 229.460784,1003.4678 233.259804,1003.4678 C238.578431,1003.4678 243.137255,1004.24628 247.696078,1004.24628 C252.254902,1004.24628 257.573529,1004.24628 262.132353,1005.02477 C267.45098,1005.02477 272.769608,1005.02477 278.088235,1005.02477 C283.406863,1005.02477 288.72549,1005.02477 294.044118,1005.02477 C299.362745,1005.80326 304.681373,1005.80326 310,1005.80326 C314.558824,1005.80326 319.877451,1005.80326 325.955882,1005.02477 C330.514706,1005.02477 335.833333,1005.02477 341.911765,1005.02477 C346.470588,1005.02477 351.789216,1005.02477 357.107843,1005.02477 C361.666667,1004.24628 366.985294,1004.24628 372.303922,1004.24628 C376.862745,1004.24628 381.421569,1003.4678 385.980392,1003.4678 C389.779412,1003.4678 394.338235,1003.4678 398.897059,1002.68931 C402.696078,1002.68931 405.735294,1002.68931 409.534314,1001.91083 L414.093137,1001.91083 C414.093137,990.233546 414.093137,976.999292 414.093137,964.543524 C414.852941,951.309271 415.612745,937.296532 416.372549,924.840764 C417.132353,913.163482 418.651961,902.264685 420.171569,892.922859 C421.691176,883.581033 423.210784,875.796178 425.490196,869.568294 C426.25,866.454352 427.769608,863.34041 429.289216,859.447983 C430.808824,857.112527 431.568627,855.555556 433.088235,853.220099 L428.529412,853.998585 C422.45098,854.77707 414.852941,854.77707 407.254902,855.555556 C393.578431,856.334041 378.382353,857.112527 362.426471,857.891012 C344.191176,858.669498 325.955882,858.669498 309.240196,858.669498 C292.52451,858.669498 274.289216,858.669498 256.813725,857.891012 C240.857843,857.112527 224.901961,856.334041 211.22549,855.555556 C203.627451,854.77707 196.789216,854.77707 190.710784,853.998585 L186.151961,853.220099 C187.671569,855.555556 189.191176,857.891012 189.95098,859.447983 C191.470588,863.34041 192.990196,866.454352 193.75,869.568294 C194.509804,871.903751 195.269608,874.239207 196.029412,876.574664 C210.465686,878.131635 227.941176,878.91012 245.416667,879.688606 C270.490196,881.245577 297.843137,881.245577 320.637255,881.245577 L320.637255,889.030432 Z M342.671569,1081.31635 L361.666667,1063.41118 C359.387255,1064.18967 355.588235,1064.18967 352.54902,1064.18967 C346.470588,1064.18967 339.632353,1064.18967 332.034314,1064.18967 C325.196078,1064.96815 317.598039,1064.96815 310,1064.96815 C302.401961,1064.96815 294.803922,1064.96815 287.205882,1064.18967 C280.367647,1064.18967 273.529412,1064.18967 267.45098,1064.18967 C263.651961,1064.18967 260.612745,1064.18967 257.573529,1063.41118 L276.568627,1081.31635 L277.328431,1082.09483 C281.887255,1085.20878 285.686275,1089.1012 310,1089.87969 C333.553922,1089.1012 338.112745,1085.20878 341.911765,1082.09483 L342.671569,1081.31635 Z" id="base" fill="#000000" fill-rule="nonzero"></path>
            </g>
        </g>
    </g>
</svg>