<?xml version="1.0" encoding="UTF-8"?>
<svg width="1210px" height="1417px" viewBox="0 0 1210 1417" version="1.1" xmlns="http://www.w3.org/2000/svg" xmlns:xlink="http://www.w3.org/1999/xlink">
    <!-- Generator: Sketch 51.3 (57544) - http://www.bohemiancoding.com/sketch -->
    <title>a_sultan_resized</title>
    <desc>Created with Sketch.</desc>
    <defs></defs>
    <g id="Page-1" stroke="none" stroke-width="1" fill="none" fill-rule="evenodd">
        <g id="lights" transform="translate(-5196.000000, -325.000000)">
            <g id="a" transform="translate(5491.000000, 491.000000)">
                <path d="M158.039216,825.973107 C181.593137,834.536447 249.215686,838.428875 304.681373,838.428875 L309.240196,838.428875 L313.79902,838.428875 C367.745098,838.428875 433.088235,834.536447 458.161765,826.751592 C463.480392,825.973107 479.436275,669.497523 489.313725,601.769285 C509.068627,468.648266 538.70098,365.888181 540.220588,358.881812 C540.980392,356.546355 541.740196,354.989384 542.5,353.432413 C544.779412,348.7615 546.29902,345.647558 545.539216,327.742392 L540.220588,328.520878 L164.877451,328.520878 L134.485294,328.520878 L110.171569,328.520878 L79.7794118,328.520878 L73.7009804,327.742392 C72.9411765,345.647558 74.4607843,348.7615 76.7401961,353.432413 C77.5,354.989384 78.2598039,356.546355 79.0196078,358.881812 C80.5392157,365.888181 110.171569,468.648266 129.926471,601.769285 C140.563725,671.054494 156.519608,825.194621 158.039216,825.973107 Z" id="Shape" stroke="#000000" stroke-width="16.9564"></path>
                <path d="M445.037406,843.488095 L460,842 L450.274314,851.672619 C449.526185,851.672619 449.526185,852.416667 448.029925,853.904762 C447.281796,854.64881 446.533666,855.392857 446.533666,856.136905 C444.289277,858.369048 442.044888,862.089286 439.800499,865.065476 C439.052369,867.297619 437.55611,870.27381 436.80798,873.25 C434.563591,879.202381 433.067332,885.89881 431.571072,894.827381 C430.074813,903.755952 429.326683,914.172619 427.830424,925.333333 C427.082294,937.982143 426.334165,950.630952 426.334165,963.279762 C425.586035,977.416667 425.586035,991.553571 425.586035,1003.45833 L425.586035,1007.92262 C426.334165,1007.92262 426.334165,1007.92262 426.334165,1007.92262 L391.17207,1044.38095 L391.9202,1044.38095 L379.950125,1054.79762 L350.024938,1080.83929 L349.276808,1081.58333 C344.0399,1086.04762 338.802993,1090.5119 310.374065,1092 L309.625935,1092 C281.945137,1090.5119 275.9601,1086.04762 270.723192,1081.58333 L269.975062,1080.83929 L240.049875,1054.79762 L228.82793,1044.38095 L194.413965,1007.92262 L194.413965,1003.45833 C194.413965,991.553571 194.413965,977.416667 194.413965,963.279762 C193.665835,950.630952 192.917706,937.982143 192.169576,925.333333 C191.421446,914.172619 189.925187,903.755952 188.428928,894.827381 C186.932668,885.89881 185.436409,879.202381 183.19202,873.25 C182.44389,870.27381 181.695761,867.297619 180.199501,865.065476 C177.955112,862.089286 176.458853,858.369048 173.466334,856.136905 C173.466334,855.392857 172.718204,854.64881 171.970075,853.904762 C171.221945,853.160714 170.473815,852.416667 169.725686,851.672619 L160,842 L174.962594,844.232143 C180.199501,844.97619 185.436409,844.97619 191.421446,845.720238 C198.154613,846.464286 204.887781,847.208333 212.369077,847.208333 C226.583541,848.696429 241.546135,849.440476 257.256858,849.440476 C275.21197,850.184524 293.167082,850.928571 309.625935,850.928571 C326.084788,850.928571 344.0399,850.184524 361.995012,849.440476 C377.705736,849.440476 393.416459,848.696429 407.630923,847.208333 C415.112219,847.208333 421.845387,846.464286 428.578554,845.720238 C434.563591,844.97619 439.800499,844.232143 445.037406,843.488095 Z M320.84788,890.363095 C298.40399,890.363095 272.219451,889.619048 246.783042,888.875 C230.32419,888.130952 213.865337,887.386905 199.650873,885.89881 C200.399002,888.130952 201.147132,891.107143 201.147132,894.083333 C201.895262,898.547619 202.643392,903.011905 203.391521,907.47619 C216.857855,908.964286 231.820449,909.708333 246.783042,910.452381 C271.471322,911.940476 298.40399,911.940476 320.84788,911.940476 L320.84788,919.380952 C298.40399,919.380952 272.219451,919.380952 246.783042,917.892857 C231.820449,917.14881 217.605985,916.404762 204.139651,914.916667 C204.139651,918.636905 204.887781,921.613095 204.887781,924.589286 C205.63591,929.053571 205.63591,932.77381 205.63591,937.238095 C218.354115,937.982143 232.568579,939.470238 246.783042,939.470238 C271.471322,940.958333 298.40399,941.702381 320.84788,941.702381 L320.84788,948.39881 C298.40399,948.39881 272.219451,948.39881 246.783042,946.910714 C232.568579,946.166667 219.102244,945.422619 206.38404,944.678571 C206.38404,950.630952 207.13217,956.583333 207.13217,962.535714 C207.13217,964.02381 207.13217,964.767857 207.13217,966.255952 C219.850374,967.744048 233.316708,968.488095 246.783042,969.232143 C271.471322,969.97619 298.40399,970.720238 320.84788,970.720238 L320.84788,977.416667 C298.40399,977.416667 272.219451,977.416667 246.783042,975.928571 C233.316708,975.184524 219.850374,974.440476 207.13217,973.696429 C207.13217,981.880952 207.13217,990.065476 207.13217,998.25 L211.620948,998.25 C215.361596,998.994048 219.102244,998.994048 222.094763,998.994048 C226.583541,999.738095 231.072319,999.738095 234.812968,999.738095 C240.049875,999.738095 244.538653,1000.48214 249.027431,1000.48214 C253.516209,1000.48214 258.753117,1000.48214 263.241895,1001.22619 C268.478803,1001.22619 273.715711,1001.22619 278.952618,1001.22619 C284.189526,1001.22619 289.426434,1001.22619 294.663342,1001.22619 C299.900249,1001.97024 305.137157,1001.97024 310.374065,1001.97024 C314.862843,1001.97024 320.099751,1001.97024 326.084788,1001.22619 C330.573566,1001.22619 335.810474,1001.22619 341.795511,1001.22619 C346.284289,1001.22619 351.521197,1001.22619 356.758105,1001.22619 C361.246883,1000.48214 366.483791,1000.48214 371.720698,1000.48214 C376.209476,1000.48214 380.698254,999.738095 385.187032,999.738095 C388.927681,999.738095 393.416459,999.738095 397.905237,998.994048 C401.645885,998.994048 404.638404,998.994048 408.379052,998.25 L412.86783,998.25 C412.86783,987.089286 412.86783,974.440476 412.86783,962.535714 C413.61596,949.886905 414.36409,936.494048 415.112219,924.589286 C415.860349,913.428571 417.356608,903.011905 418.852868,894.083333 C420.349127,885.154762 421.845387,877.714286 424.089776,871.761905 C424.837905,868.785714 426.334165,865.809524 427.830424,862.089286 C429.326683,859.857143 430.074813,858.369048 431.571072,856.136905 L427.082294,856.880952 C421.097257,857.625 413.61596,857.625 406.134663,858.369048 C392.668329,859.113095 377.705736,859.857143 361.995012,860.60119 C344.0399,861.345238 326.084788,861.345238 309.625935,861.345238 C293.167082,861.345238 275.21197,861.345238 258.004988,860.60119 C242.294264,859.857143 226.583541,859.113095 213.117207,858.369048 C205.63591,857.625 198.902743,857.625 192.917706,856.880952 L188.428928,856.136905 C189.925187,858.369048 191.421446,860.60119 192.169576,862.089286 C193.665835,865.809524 195.162095,868.785714 195.910224,871.761905 C196.658354,873.994048 197.406484,876.22619 198.154613,878.458333 C212.369077,879.946429 229.57606,880.690476 246.783042,881.434524 C271.471322,882.922619 298.40399,882.922619 320.84788,882.922619 L320.84788,890.363095 Z M342.543641,1074.14286 L361.246883,1057.02976 C359.002494,1057.77381 355.261845,1057.77381 352.269327,1057.77381 C346.284289,1057.77381 339.551122,1057.77381 332.069825,1057.77381 C325.336658,1058.51786 317.855362,1058.51786 310.374065,1058.51786 C302.892768,1058.51786 295.411471,1058.51786 287.930175,1057.77381 C281.197007,1057.77381 274.46384,1057.77381 268.478803,1057.77381 C264.738155,1057.77381 261.745636,1057.77381 258.753117,1057.02976 L277.456359,1074.14286 L278.204489,1074.8869 C282.693267,1077.8631 286.433915,1081.58333 310.374065,1082.32738 C333.566085,1081.58333 338.054863,1077.8631 341.795511,1074.8869 L342.543641,1074.14286 Z" id="base" fill="#000000" fill-rule="nonzero"></path>
                <path d="M547.938945,327.742392 L309.594053,327.742392 L72.015544,327.742392 L68.1836325,327.742392 L66.6508679,324.62845 C61.2861919,310.615711 52.8559868,296.602972 44.4257816,281.033263 C24.4998421,245.22293 2.27475573,205.52017 0.741991156,160.368011 C-0.790773424,127.671621 -0.790773424,106.652512 9.17219635,88.7473461 C19.1351661,71.6206653 39.8274879,58.3864119 79.6793669,42.8167021 C117.232099,28.8039632 155.551213,17.9051663 192.337563,11.6772824 C234.488589,3.11394197 274.340468,0 309.594053,0 C344.847639,0 385.4659,3.11394197 427.616926,11.6772824 C464.403276,17.9051663 502.72239,28.8039632 539.50874,42.8167021 C580.127001,58.3864119 600.052941,71.6206653 610.782293,88.7473461 C620.745263,106.652512 619.97888,127.671621 619.212498,160.368011 C617.679734,205.52017 595.454647,245.22293 575.528708,281.033263 C567.098502,296.602972 558.668297,310.615711 552.537239,324.62845 L551.004474,327.742392 L547.938945,327.742392 Z" id="globe" stroke="#000000" stroke-width="12" fill="#000000" fill-rule="nonzero"></path>
            </g>
        </g>
    </g>
</svg>