<?xml version="1.0" encoding="UTF-8"?>
<svg width="1500px" height="1417px" viewBox="0 0 1500 1417" version="1.1" xmlns="http://www.w3.org/2000/svg" xmlns:xlink="http://www.w3.org/1999/xlink">
    <!-- Generator: Sketch 51.3 (57544) - http://www.bohemiancoding.com/sketch -->
    <title>b</title>
    <desc>Created with Sketch.</desc>
    <defs></defs>
    <g id="Page-1" stroke="none" stroke-width="1" fill="none" fill-rule="evenodd">
        <g id="lights" transform="translate(-8826.000000, -328.000000)">
            <g id="b" transform="translate(9107.000000, 328.000000)">
                <path d="M587.406658,1171.17011 C580.954743,1171.80166 573.916079,1172.37053 566.510402,1172.87205 C552.140866,1173.88207 536.672635,1174.574 521.202066,1175.08017 C503.312029,1175.64903 485.277058,1175.90212 468.637664,1176.02518 C451.993595,1175.89747 433.886156,1175.64671 415.99612,1175.08017 C400.52555,1174.574 385.057319,1173.88207 370.757913,1172.87205 C363.424704,1172.36588 356.537986,1171.86204 350.303474,1171.2328 C344.216232,1170.60357 338.645612,1169.97201 333.659404,1169.27545 L319,1167.13235 L328.530599,1176.9725 C329.339426,1177.72944 329.996306,1178.42369 330.585394,1179.05292 L330.585394,1179.11561 C331.317079,1179.93756 331.903829,1180.62948 332.418112,1181.19603 C334.765113,1184.03569 336.890037,1187.12612 338.57782,1190.21655 C340.043527,1192.93084 341.14456,1195.7055 341.73131,1198.35478 L341.803777,1198.67055 L341.876244,1198.92131 C343.853897,1204.40794 345.616484,1211.53613 347.007386,1219.86475 C348.622703,1229.07567 349.868671,1239.60775 350.820094,1250.83873 C351.773856,1263.1401 352.43541,1276.008 352.797746,1288.62745 C353.167095,1302.69346 353.237225,1316.57138 352.945018,1329.00044 L352.872551,1333.35399 L353.459301,1333.41667 L387.551591,1370.06767 L387.257047,1370.06767 L398.842442,1380.09823 L428.752676,1406.02444 L428.825144,1406.08713 L429.556828,1406.65367 C434.982514,1411.32299 440.480667,1415.98998 468.707794,1417 L469.147272,1417 C497.37206,1415.98998 502.870214,1411.32299 508.298237,1406.65367 L509.032259,1406.08713 L509.104727,1406.02444 L539.017298,1380.09823 L550.602693,1370.06767 L550.455421,1370.06767 L585.42433,1333.35166 C585.277058,1333.35166 585.132124,1333.35166 584.984852,1333.35166 L584.912384,1328.99813 C584.620179,1316.57138 584.620179,1302.69346 585.059656,1288.62514 C585.351863,1276.008 586.01108,1263.1401 587.037309,1250.83641 C587.99107,1239.60775 589.2347,1229.07567 590.850016,1219.86242 C592.243256,1211.53613 593.931039,1204.40794 595.981159,1198.919 L596.053625,1198.66823 L596.126093,1198.35245 C596.712843,1195.70086 597.811538,1192.9262 599.207116,1190.21424 C600.892561,1187.12148 603.089953,1184.03105 605.436953,1181.1937 C605.948899,1180.62484 606.535649,1179.87022 607.342138,1179.04827 C608.223432,1178.03826 608.880313,1177.28132 609.396933,1176.84016 L619,1167 L604.270466,1169.15007 C599.209453,1169.907 593.564028,1170.53856 587.406658,1171.17011 Z M501.334377,1399.34204 L500.600355,1399.97127 C496.640376,1403.31479 492.755201,1406.721 468.927532,1407.60564 C445.099864,1406.72332 441.214689,1403.31479 437.25471,1399.97127 L436.523025,1399.34204 L417.23975,1382.68714 C420.243629,1382.81484 423.469587,1382.9379 426.917621,1383.06561 C433.004862,1383.25368 439.748983,1383.38139 446.932582,1383.44407 C453.968909,1383.50677 461.374585,1383.57178 468.927532,1383.57178 C476.480481,1383.57178 483.886156,1383.50908 490.922483,1383.44407 C498.106082,1383.38139 504.852541,1383.25368 510.937444,1383.06561 C514.38314,1382.9379 517.609098,1382.81484 520.540512,1382.68714 L501.334377,1399.34204 Z M586.967179,1187.57192 C585.281733,1190.79006 583.960961,1194.07089 583.154471,1197.41209 C581.099677,1203.27717 579.269297,1210.66078 577.80359,1219.17514 C576.265417,1228.44876 575.019449,1239.04586 574.06335,1250.27684 C573.037122,1262.13704 572.450371,1274.93993 572.08336,1287.74978 C571.716349,1300.05114 571.643882,1312.22481 571.863622,1323.45345 L567.316892,1323.76923 C563.651456,1324.02 560.280564,1324.27308 557.05227,1324.46347 C552.580345,1324.71656 548.253354,1324.96965 544.078311,1325.15772 C539.386647,1325.40849 534.839917,1325.59888 530.442797,1325.78695 C525.311656,1325.97502 520.400252,1326.10273 515.633784,1326.29313 C510.427837,1326.41851 505.296694,1326.54388 500.382954,1326.67159 C494.957267,1326.79697 489.678853,1326.85966 484.622516,1326.92236 C479.271634,1326.98505 473.993221,1327.05006 468.932208,1327.05006 C463.873533,1327.05006 458.595119,1326.98737 453.244237,1326.92236 C448.185563,1326.85966 442.907148,1326.79697 437.481462,1326.67159 C432.495254,1326.54388 427.438917,1326.41851 422.23297,1326.29313 C417.468839,1326.10273 412.482631,1325.97502 407.423956,1325.78695 C403.02216,1325.59656 398.480106,1325.40849 393.788442,1325.15772 C389.608723,1324.96965 385.284071,1324.71656 380.737341,1324.46347 C377.583851,1324.27308 374.138155,1324.02231 370.545186,1323.76923 L366.000795,1323.45345 C366.103651,1315.67048 366.136378,1307.43011 366.021833,1299.01094 C378.27112,1300.05811 391.693908,1300.87774 405.50942,1301.5 C430.772407,1302.63772 457.075646,1303.1114 479.799943,1303.1114 L479.799943,1295.83228 C456.879284,1295.83228 430.629809,1295.36557 405.825003,1294.24875 C391.871569,1293.61951 378.285146,1292.78131 365.888587,1291.70164 C365.85586,1290.38513 365.820796,1289.06629 365.781056,1287.74514 C365.60807,1281.73378 365.371967,1275.7224 365.070409,1269.80855 C377.572163,1270.8952 391.33391,1271.74269 405.50942,1272.3812 C430.772407,1273.51894 457.075646,1273.9926 479.799943,1273.9926 L479.799943,1266.71348 C456.879284,1266.71348 430.629809,1266.24678 405.825003,1265.12995 C391.408714,1264.47982 377.387488,1263.60679 364.661321,1262.47603 C364.408854,1258.32682 364.121324,1254.24726 363.803403,1250.27451 C363.520548,1246.95421 363.214316,1243.68964 362.880031,1240.49704 C375.956847,1241.67656 390.501706,1242.58674 405.50942,1243.26473 C430.772407,1244.40245 457.075646,1244.87613 479.799943,1244.87613 L479.799943,1237.59701 C456.879284,1237.59701 430.629809,1237.1303 405.825003,1236.01347 C390.412876,1235.31923 375.447239,1234.36958 362.038478,1233.1204 C361.433026,1228.22587 360.75277,1223.5519 359.990696,1219.17282 C359.495114,1216.30064 358.969143,1213.5585 358.405769,1210.95798 C372.602318,1212.34647 388.76717,1213.39132 405.50942,1214.14593 C430.772407,1215.28366 457.075646,1215.75964 479.799943,1215.75964 L479.799943,1208.48052 C456.879284,1208.48052 430.629809,1208.01383 405.825003,1206.897 C388.278601,1206.10523 371.314273,1204.98377 356.561363,1203.46757 C355.955912,1201.30357 355.315396,1199.28121 354.639815,1197.41209 C353.90813,1194.06857 352.587358,1190.79006 350.899574,1187.57192 C349.800879,1185.5542 348.480106,1183.53417 347.159334,1181.57913 L351.339052,1182.02029 C357.863434,1182.64953 364.68236,1183.2207 371.793492,1183.65954 C385.576278,1184.60455 400.899574,1185.2988 416.662349,1185.80497 C434.185375,1186.37383 452.000607,1186.68729 468.567534,1186.74998 L468.642339,1186.74998 C485.209266,1186.68729 503.099303,1186.37151 520.622329,1185.80497 C536.310299,1185.2988 551.708401,1184.60688 565.491187,1183.65954 C572.747253,1183.21839 579.788255,1182.64953 586.3103,1181.9576 L590.782224,1181.51645 C589.386647,1183.47147 588.065875,1185.48919 586.967179,1187.57192 Z" id="base" fill="#070504" fill-rule="nonzero"></path>
                <g id="case" stroke="#000000" stroke-width="12">
                    <path d="M469,541.882812 C284.394684,541.882812 182.992173,547.472846 139.129186,529.693636 C126.079592,524.404177 80.0147571,449.705053 67.252895,426.098488 C37.0884934,371.80339 3.44358395,311.606651 1.12324537,243.147614 C-1.19709322,193.573829 -1.19709322,161.704966 13.8851076,134.557418 C28.9673083,108.590196 60.2918792,88.5246168 120.620683,64.9180523 C177.468978,43.6721442 235.477442,27.1475491 291.165568,17.7049233 C354.97488,4.72131289 415.303683,0 468.67147,0 C522.039257,0 583.528229,4.72131289 647.337541,17.7049233 C703.025667,27.1475491 761.034131,43.6721442 816.722257,64.9180523 C878.211229,88.5246168 908.375628,108.590196 924.617997,134.557418 C939.700201,161.704966 938.540035,193.573829 937.379861,243.147614 C935.059521,311.606651 901.414618,371.80339 871.250214,426.098488 C858.488352,449.705053 817.284126,519.036254 797.973205,529.693636 C765.762862,547.47 645.132659,541.882812 469,541.882812 Z" id="Shape" style="mix-blend-mode: difference;"></path>
                    <path d="M460.248796,545.249927 C379.822225,545.238636 276.072627,543.48866 149,540 L164,555.249927 C190.400948,580.249927 227.384065,636.086494 264,705.249927 C309,790.249927 323.996511,888.882739 324,995.249927 C324.001663,1045.93993 324,1093.52635 324,1148.02466 C336.157361,1163.30779 443.000566,1165.84295 462.967178,1166.10059 L471.240516,1166.10059 C496.669916,1165.77081 593.452194,1163.55255 614,1149.76115 C613.892772,1080.54877 613.892772,1029.04503 614,995.249927 C614.333853,890.029927 629,790.249927 674,705.249927 C710.615935,636.086494 747.599051,580.249927 774,555.249927 L789,540 C650.851023,543.511325 541.267288,545.261301 460.248796,545.249927 Z" id="Shape" transform="translate(469.000000, 853.050293) scale(-1, 1) translate(-469.000000, -853.050293) "></path>
                </g>
                <g id="light">
                    <g id="light_lg" style="mix-blend-mode: difference;">
                        <g id="path-1-link" style="mix-blend-mode: difference;" fill="#000000" fill-rule="nonzero">
                            <path d="M1.12324537,243.164849 C-1.19709321,193.58755 -1.19709321,161.716429 13.8851076,134.566956 C28.9673083,108.597893 60.2918792,88.5308917 120.620683,64.9226539 C177.468978,43.6752399 235.477442,27.1494734 291.165568,17.7061783 C354.97488,4.72164755 415.303683,0 468.67147,0 C522.039257,0 583.528229,4.72164755 647.337541,17.7061783 C703.025667,27.1494734 761.034131,43.6752399 816.722257,64.9226539 C878.211229,88.5308917 908.375628,108.597893 924.617997,134.566956 C939.700201,161.716429 938.540035,193.58755 937.379861,243.164849 C935.059521,311.628739 3.44358395,311.628739 1.12324537,243.164849 Z" id="path-1"></path>
                        </g>
                        <g id="path-1-link" stroke="#000000" stroke-width="12">
                            <path d="M1.12324537,243.164849 C-1.19709321,193.58755 -1.19709321,161.716429 13.8851076,134.566956 C28.9673083,108.597893 60.2918792,88.5308917 120.620683,64.9226539 C177.468978,43.6752399 235.477442,27.1494734 291.165568,17.7061783 C354.97488,4.72164755 415.303683,0 468.67147,0 C522.039257,0 583.528229,4.72164755 647.337541,17.7061783 C703.025667,27.1494734 761.034131,43.6752399 816.722257,64.9226539 C878.211229,88.5308917 908.375628,108.597893 924.617997,134.566956 C939.700201,161.716429 938.540035,193.58755 937.379861,243.164849 C935.059521,311.628739 3.44358395,311.628739 1.12324537,243.164849 Z" id="path-1"></path>
                        </g>
                    </g>
                    <g id="light_sm_alt" style="mix-blend-mode: difference;" transform="translate(21.358634, 0.000000)">
                        <g id="path-2-link" style="mix-blend-mode: difference;" fill="#000000" fill-rule="nonzero">
                            <path d="M0.417397897,134.566956 C15.3708133,108.597893 46.4279068,88.5308917 106.241569,64.9226539 C162.604442,43.6752399 220.117577,27.1494734 275.330189,17.7061783 C338.594638,4.72164755 398.408299,0 451.320385,0 C504.232471,0 565.196394,4.72164755 628.460845,17.7061783 C683.673455,27.1494734 741.186591,43.6752399 796.399201,64.9226539 C857.363126,88.5308917 887.269961,108.597893 903.373632,134.566956 C918.327052,161.716429 -14.5360175,161.716429 0.417397897,134.566956 Z" id="path-2"></path>
                        </g>
                        <g id="path-2-link" stroke="#000000" stroke-width="12">
                            <path d="M0.417397897,134.566956 C15.3708133,108.597893 46.4279068,88.5308917 106.241569,64.9226539 C162.604442,43.6752399 220.117577,27.1494734 275.330189,17.7061783 C338.594638,4.72164755 398.408299,0 451.320385,0 C504.232471,0 565.196394,4.72164755 628.460845,17.7061783 C683.673455,27.1494734 741.186591,43.6752399 796.399201,64.9226539 C857.363126,88.5308917 887.269961,108.597893 903.373632,134.566956 C918.327052,161.716429 -14.5360175,161.716429 0.417397897,134.566956 Z" id="path-2"></path>
                        </g>
                    </g>
                </g>
            </g>
        </g>
    </g>
</svg>