<?xml version="1.0" encoding="UTF-8"?>
<svg width="2000px" height="2000px" viewBox="0 0 2000 2000" version="1.1" xmlns="http://www.w3.org/2000/svg" xmlns:xlink="http://www.w3.org/1999/xlink">
    <!-- Generator: Sketch 51.3 (57544) - http://www.bohemiancoding.com/sketch -->
    <title>par</title>
    <desc>Created with Sketch.</desc>
    <defs></defs>
    <g id="Page-1" stroke="none" stroke-width="1" fill="none" fill-rule="evenodd">
        <g id="lights" transform="translate(-9587.000000, 0.000000)">
            <g id="par" transform="translate(9982.000000, 315.000000)">
                <path d="M721.824782,1104.19793 C715.452022,1104.87915 708.49971,1105.49274 701.18489,1106.03371 C686.991646,1107.12315 671.713184,1107.86948 656.432414,1108.41545 C638.76186,1109.02905 620.948148,1109.30203 604.512893,1109.43477 C588.073019,1109.29703 570.18773,1109.02654 552.517175,1108.41545 C537.236405,1107.86948 521.957944,1107.12315 507.833968,1106.03371 C500.590726,1105.48774 493.788497,1104.94427 487.630472,1104.26556 C481.617912,1103.58685 476.115633,1102.90563 471.190599,1102.1543 L456.711042,1099.84268 L466.124716,1110.45659 C466.923621,1111.27304 467.572441,1112.02188 468.154301,1112.70059 L468.154301,1112.7682 C468.87701,1113.65479 469.456562,1114.40111 469.964535,1115.01221 C472.282742,1118.07516 474.381596,1121.4086 476.048674,1124.74203 C477.496399,1127.66975 478.583923,1130.66258 479.163476,1133.52018 L479.235053,1133.86079 L479.306632,1134.13126 C481.260021,1140.04931 483.000985,1147.738 484.374823,1156.72151 C485.970322,1166.65672 487.201003,1178.01696 488.140755,1190.13104 C489.082815,1203.39968 489.736254,1217.2794 490.094144,1230.89115 C490.458961,1246.06318 490.52823,1261.03235 490.239609,1274.43873 L490.168031,1279.1346 L490.747583,1279.20222 L524.421616,1318.73515 L524.130686,1318.73515 L535.573946,1329.55442 L565.11723,1357.51925 L565.188807,1357.58686 L565.911516,1358.19796 C571.270637,1363.23443 576.701337,1368.26839 604.582162,1369.35784 L605.016248,1369.35784 C632.894764,1368.26839 638.325464,1363.23443 643.686894,1358.19796 L644.411912,1357.58686 L644.483489,1357.51925 L674.029082,1329.55442 L685.472342,1318.73515 L685.326877,1318.73515 L719.866774,1279.13209 C719.721309,1279.13209 719.578153,1279.13209 719.432688,1279.13209 L719.36111,1274.43623 C719.072488,1261.03235 719.072488,1246.06318 719.506575,1230.88865 C719.795197,1217.2794 720.446326,1203.39968 721.459964,1190.12853 C722.402025,1178.01696 723.630397,1166.65672 725.225896,1156.71901 C726.602043,1147.738 728.26912,1140.04931 730.294087,1134.12876 L730.365666,1133.85828 L730.437243,1133.51767 C731.016795,1130.65758 732.102012,1127.66475 733.480467,1124.73954 C735.145236,1121.40359 737.315668,1118.07016 739.633875,1115.0097 C740.13954,1114.39611 740.719092,1113.58216 741.515686,1112.69558 C742.386169,1111.60614 743.034989,1110.78968 743.545272,1110.31384 L753.030524,1099.69992 L738.481699,1102.01906 C733.482776,1102.83551 727.906611,1103.51673 721.824782,1104.19793 Z M636.80847,1350.3114 L636.083453,1350.99011 C632.172057,1354.59654 628.334547,1358.27058 604.799205,1359.22478 C581.263864,1358.27309 577.426354,1354.59654 573.514957,1350.99011 L572.792249,1350.3114 L553.745547,1332.3469 C556.712575,1332.48464 559.898956,1332.61739 563.304688,1332.75513 C569.317248,1332.95799 575.978629,1333.09574 583.074097,1333.16335 C590.0241,1333.23098 597.33892,1333.3011 604.799205,1333.3011 C612.25949,1333.3011 619.574311,1333.23348 626.524313,1333.16335 C633.619781,1333.09574 640.283471,1332.95799 646.293723,1332.75513 C649.697146,1332.61739 652.883526,1332.48464 655.778976,1332.3469 L636.80847,1350.3114 Z M721.390695,1121.88945 C719.725927,1125.36064 718.421359,1128.89945 717.624764,1132.50337 C715.595178,1138.82963 713.787254,1146.79382 712.339529,1155.97769 C710.820226,1165.9805 709.589544,1177.41087 708.645176,1189.52496 C707.631537,1202.31775 707.051986,1216.12735 706.689477,1229.94447 C706.326968,1243.2131 706.255391,1256.344 706.472433,1268.45557 L701.981485,1268.79618 C698.361019,1269.06666 695.031483,1269.33965 691.842793,1269.54501 C687.425732,1269.818 683.151827,1270.09099 679.028005,1270.29385 C674.3939,1270.56433 669.902951,1270.7697 665.559777,1270.97256 C660.491585,1271.17541 655.640438,1271.31317 650.932445,1271.51853 C645.790367,1271.65377 640.722176,1271.78902 635.868718,1271.92676 C630.509597,1272.062 625.29594,1272.12962 620.301636,1272.19724 C615.016402,1272.26486 609.802745,1272.33498 604.803823,1272.33498 C599.80721,1272.33498 594.593554,1272.26737 589.308318,1272.19724 C584.311705,1272.12962 579.098049,1272.062 573.738927,1271.92676 C568.813893,1271.78902 563.819588,1271.65377 558.677509,1271.51853 C553.971827,1271.31317 549.046792,1271.17541 544.050178,1270.97256 C539.702386,1270.76719 535.216056,1270.56433 530.581951,1270.29385 C526.45351,1270.09099 522.181914,1269.818 517.690965,1269.54501 C514.576164,1269.33965 511.172741,1269.06917 507.623851,1268.79618 L503.135212,1268.45557 C503.236807,1260.06061 503.269133,1251.17228 503.155993,1242.09111 C515.255001,1243.22061 528.513112,1244.10469 542.159131,1244.77588 C567.112181,1246.00308 593.092723,1246.51399 615.538229,1246.51399 L615.538229,1238.6625 C592.898768,1238.6625 566.971334,1238.1591 542.470842,1236.95445 C528.688595,1236.27574 515.268855,1235.37163 503.024382,1234.20706 C502.992056,1232.78703 502.957422,1231.36449 502.918169,1229.93945 C502.747305,1223.45541 502.514099,1216.97135 502.216242,1210.59248 C514.564619,1211.76458 528.157531,1212.67871 542.159131,1213.36743 C567.112181,1214.59462 593.092723,1215.10553 615.538229,1215.10553 L615.538229,1207.25404 C592.898768,1207.25404 566.971334,1206.75065 542.470842,1205.54599 C528.231418,1204.84474 514.38221,1203.90307 501.812172,1202.6834 C501.562803,1198.20792 501.2788,1193.80758 500.96478,1189.52245 C500.685394,1185.94107 500.382919,1182.4198 500.052736,1178.97616 C512.96912,1180.24842 527.335537,1181.23018 542.159131,1181.96148 C567.112181,1183.18867 593.092723,1183.69958 615.538229,1183.69958 L615.538229,1175.84809 C592.898768,1175.84809 566.971334,1175.3447 542.470842,1174.14004 C527.247796,1173.39121 512.465765,1172.36688 499.221506,1171.01948 C498.623483,1165.74008 497.951572,1160.69859 497.198848,1155.97519 C496.709346,1152.87716 496.189827,1149.9194 495.633365,1147.1144 C509.655747,1148.61207 525.622281,1149.73908 542.159131,1150.55302 C567.112181,1151.78021 593.092723,1152.29363 615.538229,1152.29363 L615.538229,1144.44213 C592.898768,1144.44213 566.971334,1143.93874 542.470842,1142.73409 C525.139706,1141.88007 508.383503,1140.67042 493.811588,1139.035 C493.213563,1136.70084 492.580906,1134.51946 491.913613,1132.50337 C491.190905,1128.89694 489.886336,1125.36064 488.21926,1121.88945 C487.134043,1119.71308 485.829475,1117.5342 484.524906,1115.42544 L488.653346,1115.90129 C495.097684,1116.58 501.832953,1117.1961 508.856842,1117.66944 C522.470535,1118.68875 537.60584,1119.43759 553.175232,1119.98356 C570.483278,1120.59715 588.079947,1120.93525 604.443624,1121.00288 L604.51751,1121.00288 C620.881188,1120.93525 638.551743,1120.59466 655.85979,1119.98356 C671.355294,1119.43759 686.564485,1118.69126 700.178178,1117.66944 C707.345224,1117.19359 714.299846,1116.58 720.741874,1115.83366 L725.158936,1115.35782 C723.78048,1117.46657 722.475911,1119.64295 721.390695,1121.88945 Z" id="base" fill="#070504" fill-rule="nonzero"></path>
                <g id="case" stroke-linecap="round" stroke-linejoin="round" stroke="#1D1D1B">
                    <path d="M604.48904,0.870565122 C818.594368,0.870565122 1191.10878,102.726684 1202.70206,159.313417 C1203.86139,178.175661 1217.58027,218.912228 1202.70206,281.289263 C1187.82386,343.6663 916.348155,746.557956 792.300105,874.821217 C787.662795,930.150468 783.025485,1010.62938 783.025485,1010.62938 C783.025485,1010.62938 798.932838,1050.86883 752.559736,1091.10829 C748.486556,1094.89517 677.40354,1101.15131 606.57705,1101.39474 C536.290759,1101.6363 466.257095,1095.89405 462.214982,1092.13605 C415.84188,1051.89659 431.749232,1010.62938 431.749232,1010.62938 C431.749232,1010.62938 423.63394,930.150468 418.996629,874.821217 C293.789253,746.557956 21.7932655,350.465116 7.43534436,282.546747 C-6.92257675,214.628377 6.27601679,178.175661 7.43534436,160.5709 C17.8692924,103.984168 390.383712,0.870565122 604.48904,0.870565122 Z" id="Shape" stroke-width="12"></path>
                    <path d="M604.48904,0.870565122 C818.594368,0.870565122 1191.10878,102.726684 1202.70206,159.313417 C1203.86139,178.175661 1217.58027,218.912228 1202.70206,281.289263 C1187.82386,343.6663 21.7932655,350.465116 7.43534436,282.546747 C-6.92257675,214.628377 6.27601679,178.175661 7.43534436,160.5709 C17.8692924,103.984168 390.383712,0.870565122 604.48904,0.870565122 Z" id="Shape" stroke-width="12"></path>
                    <path d="M418.80971,874.482638 C538.89335,918.494542 671.10665,918.494542 791.19029,874.482638" id="Shape" stroke-width="10"></path>
                </g>
                <path d="M604.48904,0.870565122 C818.594368,0.870565122 1191.10878,102.726684 1202.70206,159.313417 C1203.28289,168.763392 904.192277,180.745982 604.48904,180.885221 C305.981649,181.023905 6.85683934,169.355685 7.43534436,160.5709 C17.8692924,103.984168 390.383712,0.870565122 604.48904,0.870565122 Z" id="light" fill="#000000" fill-rule="nonzero"></path>
            </g>
        </g>
    </g>
</svg>