<?xml version="1.0" encoding="UTF-8"?>
<svg width="2000px" height="2000px" viewBox="0 0 2000 2000" version="1.1" xmlns="http://www.w3.org/2000/svg" xmlns:xlink="http://www.w3.org/1999/xlink">
    <!-- Generator: Sketch 51.3 (57544) - http://www.bohemiancoding.com/sketch -->
    <title>par</title>
    <desc>Created with Sketch.</desc>
    <defs></defs>
    <g id="Page-1" stroke="none" stroke-width="1" fill="none" fill-rule="evenodd">
        <g id="lights" transform="translate(-9587.000000, 0.000000)">
            <g id="par" transform="translate(9982.000000, 315.000000)">
                <path d="M723.406658,1106.17011 C716.954743,1106.80166 709.916079,1107.37053 702.510402,1107.87206 C688.140867,1108.88207 672.672635,1109.574 657.202067,1110.08017 C639.31203,1110.64904 621.277058,1110.90212 604.637665,1111.02518 C587.993595,1110.89748 569.886156,1110.64671 551.99612,1110.08017 C536.525551,1109.574 521.057319,1108.88207 506.757913,1107.87206 C499.424704,1107.36588 492.537986,1106.86204 486.303474,1106.2328 C480.216233,1105.60357 474.645612,1104.97201 469.659405,1104.27545 L455,1102.13235 L464.5306,1111.97251 C465.339427,1112.72944 465.996307,1113.42369 466.585394,1114.05292 L466.585394,1114.11561 C467.317079,1114.93756 467.90383,1115.62948 468.418112,1116.19603 C470.765113,1119.03569 472.890037,1122.12612 474.577821,1125.21655 C476.043527,1127.93084 477.14456,1130.7055 477.731311,1133.35478 L477.803777,1133.67055 L477.876245,1133.92131 C479.853897,1139.40794 481.616485,1146.53613 483.007387,1154.86475 C484.622703,1164.07568 485.868671,1174.60776 486.820094,1185.83873 C487.773856,1198.1401 488.435411,1211.008 488.797746,1223.62745 C489.167095,1237.69346 489.237225,1251.57138 488.945018,1264.00044 L488.872552,1268.35399 L489.459301,1268.41667 L523.551592,1305.06768 L523.257048,1305.06768 L534.842442,1315.09823 L564.752677,1341.02444 L564.825144,1341.08713 L565.556828,1341.65367 C570.982514,1346.32299 576.480667,1350.98998 604.707794,1352 L605.147272,1352 C633.37206,1350.98998 638.870214,1346.32299 644.298237,1341.65367 L645.03226,1341.08713 L645.104727,1341.02444 L675.017299,1315.09823 L686.602693,1305.06768 L686.455421,1305.06768 L721.42433,1268.35166 C721.277058,1268.35166 721.132124,1268.35166 720.984852,1268.35166 L720.912385,1263.99813 C720.620179,1251.57138 720.620179,1237.69346 721.059657,1223.62514 C721.351864,1211.008 722.011081,1198.1401 723.037309,1185.83641 C723.991071,1174.60776 725.234701,1164.07568 726.850016,1154.86242 C728.243256,1146.53613 729.931039,1139.40794 731.981159,1133.919 L732.053626,1133.66823 L732.126093,1133.35245 C732.712843,1130.70086 733.811539,1127.9262 735.207116,1125.21424 C736.892562,1122.12148 739.089953,1119.03105 741.436954,1116.1937 C741.948899,1115.62484 742.53565,1114.87022 743.342138,1114.04828 C744.223433,1113.03826 744.880313,1112.28132 745.396933,1111.84016 L755,1102 L740.270466,1104.15007 C735.209454,1104.907 729.564028,1105.53856 723.406658,1106.17011 Z M637.334377,1334.34204 L636.600356,1334.97127 C632.640377,1338.3148 628.755202,1341.721 604.927533,1342.60564 C581.099865,1341.72332 577.21469,1338.3148 573.25471,1334.97127 L572.523026,1334.34204 L553.23975,1317.68714 C556.24363,1317.81484 559.469588,1317.93791 562.917622,1318.06561 C569.004862,1318.25368 575.748984,1318.38139 582.932582,1318.44407 C589.96891,1318.50677 597.374585,1318.57178 604.927533,1318.57178 C612.480481,1318.57178 619.886157,1318.50908 626.922483,1318.44407 C634.106083,1318.38139 640.852541,1318.25368 646.937445,1318.06561 C650.383141,1317.93791 653.609099,1317.81484 656.540512,1317.68714 L637.334377,1334.34204 Z M722.967179,1122.57192 C721.281734,1125.79006 719.960962,1129.07089 719.154472,1132.41209 C717.099677,1138.27717 715.269298,1145.66078 713.803591,1154.17514 C712.265417,1163.44876 711.019449,1174.04586 710.063351,1185.27684 C709.037122,1197.13704 708.450372,1209.93993 708.083361,1222.74979 C707.716349,1235.05114 707.643883,1247.22481 707.863622,1258.45345 L703.316892,1258.76923 C699.651457,1259.02 696.280565,1259.27308 693.05227,1259.46347 C688.580345,1259.71657 684.253355,1259.96965 680.078312,1260.15772 C675.386648,1260.40849 670.839918,1260.59888 666.442798,1260.78695 C661.311656,1260.97502 656.400253,1261.10273 651.633784,1261.29313 C646.427837,1261.41851 641.296695,1261.54389 636.382954,1261.67159 C630.957268,1261.79697 625.678853,1261.85966 620.622516,1261.92236 C615.271635,1261.98505 609.993221,1262.05006 604.932208,1262.05006 C599.873533,1262.05006 594.59512,1261.98737 589.244237,1261.92236 C584.185563,1261.85966 578.907149,1261.79697 573.481462,1261.67159 C568.495255,1261.54389 563.438917,1261.41851 558.23297,1261.29313 C553.46884,1261.10273 548.482631,1260.97502 543.423957,1260.78695 C539.022161,1260.59656 534.480107,1260.40849 529.788443,1260.15772 C525.608724,1259.96965 521.284071,1259.71657 516.737341,1259.46347 C513.583852,1259.27308 510.138156,1259.02232 506.545186,1258.76923 L502.000795,1258.45345 C502.103652,1250.67048 502.136378,1242.43011 502.021834,1234.01094 C514.271121,1235.05811 527.693908,1235.87774 541.509421,1236.5 C566.772407,1237.63773 593.075647,1238.1114 615.799944,1238.1114 L615.799944,1230.83228 C592.879284,1230.83228 566.62981,1230.36558 541.825004,1229.24875 C527.87157,1228.61951 514.285147,1227.78131 501.888588,1226.70164 C501.85586,1225.38513 501.820796,1224.06629 501.781056,1222.74514 C501.60807,1216.73378 501.371967,1210.7224 501.07041,1204.80855 C513.572164,1205.8952 527.33391,1206.74269 541.509421,1207.3812 C566.772407,1208.51894 593.075647,1208.9926 615.799944,1208.9926 L615.799944,1201.71348 C592.879284,1201.71348 566.62981,1201.24678 541.825004,1200.12995 C527.408715,1199.47982 513.387489,1198.60679 500.661322,1197.47604 C500.408855,1193.32682 500.121325,1189.24726 499.803404,1185.27451 C499.520548,1181.95421 499.214316,1178.68964 498.880031,1175.49704 C511.956847,1176.67656 526.501706,1177.58674 541.509421,1178.26473 C566.772407,1179.40246 593.075647,1179.87613 615.799944,1179.87613 L615.799944,1172.59701 C592.879284,1172.59701 566.62981,1172.13031 541.825004,1171.01347 C526.412876,1170.31923 511.44724,1169.36958 498.038478,1168.1204 C497.433026,1163.22587 496.75277,1158.5519 495.990696,1154.17283 C495.495115,1151.30064 494.969143,1148.5585 494.405769,1145.95799 C508.602319,1147.34648 524.767171,1148.39133 541.509421,1149.14593 C566.772407,1150.28366 593.075647,1150.75965 615.799944,1150.75965 L615.799944,1143.48052 C592.879284,1143.48052 566.62981,1143.01383 541.825004,1141.897 C524.278602,1141.10523 507.314273,1139.98377 492.561364,1138.46757 C491.955912,1136.30357 491.315396,1134.28121 490.639815,1132.41209 C489.90813,1129.06857 488.587358,1125.79006 486.899574,1122.57192 C485.800879,1120.5542 484.480106,1118.53417 483.159334,1116.57913 L487.339053,1117.02029 C493.863434,1117.64953 500.68236,1118.22071 507.793492,1118.65955 C521.576278,1119.60455 536.899574,1120.2988 552.66235,1120.80497 C570.185376,1121.37383 588.000608,1121.68729 604.567535,1121.74998 L604.642339,1121.74998 C621.209267,1121.68729 639.099304,1121.37152 656.62233,1120.80497 C672.3103,1120.2988 687.708401,1119.60688 701.491187,1118.65955 C708.747253,1118.21839 715.788256,1117.64953 722.3103,1116.9576 L726.782225,1116.51645 C725.386647,1118.47147 724.065875,1120.48919 722.967179,1122.57192 Z" id="base" fill="#070504" fill-rule="nonzero"></path>
                <g id="case" stroke-linecap="round" stroke-linejoin="round" stroke="#1D1D1B">
                    <path d="M604.48904,0.870565122 C818.594368,0.870565122 1191.10878,102.726684 1202.70206,159.313417 C1203.86139,178.175661 1217.58027,218.912228 1202.70206,281.289263 C1187.82386,343.6663 916.348155,746.557956 792.300105,874.821217 C787.662795,930.150468 783.025485,1010.62938 783.025485,1010.62938 C783.025485,1010.62938 798.932838,1050.86883 752.559736,1091.10829 C748.486556,1094.89517 677.40354,1101.15131 606.57705,1101.39474 C536.290759,1101.6363 466.257095,1095.89405 462.214982,1092.13605 C415.84188,1051.89659 431.749232,1010.62938 431.749232,1010.62938 C431.749232,1010.62938 423.63394,930.150468 418.996629,874.821217 C293.789253,746.557956 21.7932655,350.465116 7.43534436,282.546747 C-6.92257675,214.628377 6.27601679,178.175661 7.43534436,160.5709 C17.8692924,103.984168 390.383712,0.870565122 604.48904,0.870565122 Z" id="Shape" stroke-width="12"></path>
                    <path d="M604.48904,0.870565122 C818.594368,0.870565122 1191.10878,102.726684 1202.70206,159.313417 C1203.86139,178.175661 1217.58027,218.912228 1202.70206,281.289263 C1187.82386,343.6663 21.7932655,350.465116 7.43534436,282.546747 C-6.92257675,214.628377 6.27601679,178.175661 7.43534436,160.5709 C17.8692924,103.984168 390.383712,0.870565122 604.48904,0.870565122 Z" id="Shape" stroke-width="12"></path>
                    <path d="M418.80971,874.482638 C538.89335,918.494542 671.10665,918.494542 791.19029,874.482638" id="Shape" stroke-width="10"></path>
                </g>
                <path d="M604.48904,0.870565122 C818.594368,0.870565122 1191.10878,102.726684 1202.70206,159.313417 C1203.28289,168.763392 904.192277,180.745982 604.48904,180.885221 C305.981649,181.023905 6.85683934,169.355685 7.43534436,160.5709 C17.8692924,103.984168 390.383712,0.870565122 604.48904,0.870565122 Z" id="light" fill="#000000" fill-rule="nonzero"></path>
            </g>
        </g>
    </g>
</svg>