<?xml version="1.0" encoding="UTF-8"?>
<svg width="1500px" height="1500px" viewBox="0 0 1500 1500" version="1.1" xmlns="http://www.w3.org/2000/svg" xmlns:xlink="http://www.w3.org/1999/xlink">
    <!-- Generator: Sketch 51.3 (57544) - http://www.bohemiancoding.com/sketch -->
    <title>lock</title>
    <desc>Created with Sketch.</desc>
    <defs></defs>
    <g id="Page-1" stroke="none" stroke-width="1" fill="none" fill-rule="evenodd">
        <g id="locks" fill="#000000" fill-rule="nonzero">
            <g id="lock" transform="translate(376.000000, 376.000000)">
                <path d="M374.505637,0 C168.003319,0 0,168.003319 0,374.505637 C0,581.007955 168.003319,749 374.505637,749 C581.007955,749 749,581.024865 749,374.505637 C749,167.986409 580.996681,0 374.505637,0 Z M374.505637,727.760728 C179.716484,727.755091 21.2674559,569.283516 21.2674559,374.505637 C21.2674559,179.727758 179.716484,21.2674559 374.505637,21.2674559 C569.294789,21.2674559 727.755091,179.739031 727.755091,374.528184 C727.755091,569.317336 569.283516,727.755091 374.505637,727.755091 L374.505637,727.760728 Z" id="Shape"></path>
                <path d="M464.999935,278.199139 C465.051955,234.620409 433.932337,197.253196 391.098013,189.460619 C348.26369,181.668042 305.998761,205.684869 290.728545,246.495048 C275.458329,287.305228 291.562046,333.205149 328.97116,355.496783 L309.35569,537.936151 C308.692553,544.074825 310.669881,550.206006 314.793649,554.797853 C318.917418,559.3897 324.798131,562.008507 330.966527,561.999979 L425.02496,561.999979 C431.186656,561.999962 437.058162,559.379375 441.176137,554.791342 C445.294113,550.203309 447.27069,544.079972 446.61325,537.947435 L426.608853,351.925293 C450.668474,335.102281 465.001962,307.576279 464.999935,278.199139 Z" id="Shape"></path>
            </g>
        </g>
    </g>
</svg>