<?xml version="1.0" encoding="UTF-8"?>
<svg width="1066px" height="1367px" viewBox="0 0 1066 1367" version="1.1" xmlns="http://www.w3.org/2000/svg" xmlns:xlink="http://www.w3.org/1999/xlink">
    <!-- Generator: Sketch 51.2 (57519) - http://www.bohemiancoding.com/sketch -->
    <title>br</title>
    <desc>Created with Sketch.</desc>
    <defs>
        <path d="M1.26215418,229.976247 C-1.34513459,183.087886 -1.34513459,152.945368 15.6022424,127.268409 C32.5496194,102.707838 67.7480178,83.7292162 135.537526,61.4014252 C199.416101,41.3064133 264.59832,25.6769596 327.17325,16.7458432 C398.873692,4.46555819 466.6632,0 526.630841,0 C586.598483,0 655.691635,4.46555819 727.392077,16.7458432 C789.967007,25.6769596 855.149226,41.3064133 917.724157,61.4014252 C986.817309,83.7292162 1020.71206,102.707838 1038.96308,127.268409 C1055.91046,152.945368 1054.60682,183.087886 1053.30317,229.976247 C1050.69588,294.726841 3.86944295,294.726841 1.26215418,229.976247 Z" id="path-1"></path>
        <path d="M24.4690164,127.268409 C41.2716815,102.707838 76.1695243,83.7292162 143.380185,61.4014252 C206.713307,41.3064133 271.338941,25.6769596 333.379551,16.7458432 C404.467749,4.46555819 471.678409,0 531.133993,0 C590.589578,0 659.09275,4.46555819 730.180949,16.7458432 C792.221558,25.6769596 856.847193,41.3064133 918.887802,61.4014252 C987.390975,83.7292162 1020.99631,102.707838 1039.09148,127.268409 C1055.89415,152.945368 7.66635137,152.945368 24.4690164,127.268409 Z" id="path-2"></path>
    </defs>
    <g id="Page-1" stroke="none" stroke-width="1" fill="none" fill-rule="evenodd">
        <g id="br" transform="translate(6.000000, 6.000000)">
            <path d="M663.588087,1102.06895 C656.862455,1102.73177 649.525181,1103.32879 641.805325,1103.85514 C626.826173,1104.91516 610.701715,1105.64134 594.574819,1106.17256 C575.925812,1106.76958 557.125722,1107.0352 539.780415,1107.16435 C522.430235,1107.03032 503.554603,1106.76715 484.905596,1106.17256 C468.7787,1105.64134 452.654242,1104.91516 437.748195,1103.85514 C430.103881,1103.32392 422.925,1102.79513 416.425993,1102.13475 C410.080505,1101.47437 404.273556,1100.81155 399.075812,1100.08051 L383.794495,1097.83132 L393.729422,1108.15857 C394.572563,1108.95298 395.25731,1109.68159 395.87139,1110.34197 L395.87139,1110.40776 C396.634116,1111.2704 397.245758,1111.99657 397.781859,1112.59116 C400.22843,1115.57139 402.443502,1118.8148 404.202888,1122.05821 C405.730776,1124.90686 406.87852,1127.81886 407.490162,1130.59928 L407.565704,1130.93069 L407.641245,1131.19386 C409.702798,1136.95208 411.540162,1144.43312 412.990072,1153.17401 C414.673917,1162.84088 415.972744,1173.89431 416.964531,1185.68123 C417.958755,1198.59152 418.648375,1212.09639 419.026083,1225.34052 C419.411101,1240.1028 419.484206,1254.66769 419.179603,1267.712 L419.104061,1272.28105 L419.715704,1272.34684 L455.254332,1310.81209 L454.947292,1310.81209 L467.024188,1321.33917 L498.203339,1348.54874 L498.278881,1348.61453 L499.041606,1349.20912 C504.697473,1354.10957 510.428881,1359.00758 539.85352,1360.0676 L540.311643,1360.0676 C569.733845,1359.00758 575.465253,1354.10957 581.123556,1349.20912 L581.888718,1348.61453 L581.96426,1348.54874 L613.145848,1321.33917 L625.222744,1310.81209 L625.069224,1310.81209 L661.521661,1272.27861 C661.368141,1272.27861 661.217058,1272.27861 661.063538,1272.27861 L660.987996,1267.70957 C660.683394,1254.66769 660.683394,1240.1028 661.141516,1225.33809 C661.446119,1212.09639 662.133303,1198.59152 663.203069,1185.67879 C664.197292,1173.89431 665.493682,1162.84088 667.177527,1153.17157 C668.629874,1144.43312 670.38926,1136.95208 672.526354,1131.19143 L672.601895,1130.92825 L672.677437,1130.59684 C673.289079,1127.81399 674.434386,1124.90199 675.88917,1122.05578 C677.646119,1118.80993 679.936733,1115.56652 682.383303,1112.58872 C682.916968,1111.9917 683.52861,1111.19973 684.369314,1110.33709 C685.287996,1109.27708 685.972744,1108.48267 686.511282,1108.01968 L696.521751,1097.69242 L681.167329,1099.94892 C675.891606,1100.74332 670.006679,1101.40614 663.588087,1102.06895 Z M573.86426,1341.53556 L573.099097,1342.19594 C568.971119,1345.70496 564.921119,1349.27978 540.082581,1350.20821 C515.244043,1349.28222 511.194043,1345.70496 507.066065,1342.19594 L506.303339,1341.53556 L486.201986,1324.05623 C489.333303,1324.19025 492.696119,1324.3194 496.290433,1324.45343 C502.635921,1324.65081 509.666155,1324.78484 517.154513,1324.85063 C524.48935,1324.91643 532.209206,1324.98466 540.082581,1324.98466 C547.955957,1324.98466 555.675812,1324.91886 563.01065,1324.85063 C570.499007,1324.78484 577.531679,1324.65081 583.874729,1324.45343 C587.466606,1324.3194 590.829422,1324.19025 593.885199,1324.05623 L573.86426,1341.53556 Z M663.129964,1119.28267 C661.373014,1122.66011 659.996209,1126.10334 659.155505,1129.60993 C657.013538,1135.76534 655.105505,1143.51444 653.577617,1152.45027 C651.974188,1162.18294 650.675361,1173.3046 649.6787,1185.09152 C648.608935,1197.53881 647.997292,1210.97545 647.614711,1224.4194 C647.23213,1237.32969 647.156588,1250.10596 647.38565,1261.89043 L642.646029,1262.22184 C638.82509,1262.48502 635.311191,1262.75063 631.945939,1262.95045 C627.284296,1263.21606 622.773736,1263.48168 618.42157,1263.67906 C613.530866,1263.94224 608.791245,1264.14206 604.207581,1264.33944 C598.858755,1264.53682 593.738989,1264.67085 588.770307,1264.87067 C583.343502,1265.00226 577.994675,1265.13384 572.872473,1265.26787 C567.216606,1265.39946 561.71426,1265.46525 556.443412,1265.53105 C550.865523,1265.59684 545.363177,1265.66507 540.087455,1265.66507 C534.81417,1265.66507 529.311823,1265.59928 523.733935,1265.53105 C518.46065,1265.46525 512.958303,1265.39946 507.302437,1265.26787 C502.104693,1265.13384 496.833845,1265.00226 491.40704,1264.87067 C486.440794,1264.67085 481.243051,1264.53682 475.969765,1264.33944 C471.381227,1264.13962 466.64648,1263.94224 461.755776,1263.67906 C457.398736,1263.48168 452.890614,1263.21606 448.150993,1262.95045 C444.863718,1262.75063 441.271841,1262.48745 437.526444,1262.22184 L432.78926,1261.89043 C432.89648,1253.7222 432.930596,1245.07392 432.811191,1236.238 C445.580144,1237.337 459.572383,1238.1972 473.974007,1238.85027 C500.308755,1240.04431 527.727888,1240.54143 551.416245,1240.54143 L551.416245,1232.90199 C527.523195,1232.90199 500.160108,1232.41218 474.302978,1231.24007 C459.757581,1230.57969 445.594765,1229.7 432.672292,1228.56688 C432.638177,1227.1852 432.601625,1225.80108 432.560199,1224.41453 C432.379874,1218.1056 432.133755,1211.79666 431.819404,1205.59007 C444.851534,1206.73051 459.197112,1207.61995 473.974007,1208.29007 C500.308755,1209.48412 527.727888,1209.98123 551.416245,1209.98123 L551.416245,1202.34179 C527.523195,1202.34179 500.160108,1201.85199 474.302978,1200.67987 C459.27509,1199.99756 444.659025,1199.08132 431.39296,1197.89458 C431.129783,1193.53998 430.830054,1189.25848 430.498646,1185.08908 C430.203791,1181.60442 429.884567,1178.17825 429.536101,1174.82762 C443.16769,1176.06552 458.329603,1177.02076 473.974007,1177.73231 C500.308755,1178.92635 527.727888,1179.42347 551.416245,1179.42347 L551.416245,1171.78403 C527.523195,1171.78403 500.160108,1171.29422 474.302978,1170.12211 C458.237004,1169.3935 442.636462,1168.39684 428.658845,1167.08583 C428.027708,1161.94901 427.318592,1157.04368 426.524188,1152.44783 C426.007581,1149.43348 425.459296,1146.5556 424.872022,1143.82635 C439.670848,1145.28357 456.52148,1146.38014 473.974007,1147.17211 C500.308755,1148.36616 527.727888,1148.8657 551.416245,1148.8657 L551.416245,1141.22626 C527.523195,1141.22626 500.160108,1140.73646 474.302978,1139.56435 C456.012184,1138.73339 438.328159,1137.55641 422.949368,1135.96516 C422.318231,1133.69404 421.650542,1131.57157 420.9463,1129.60993 C420.183574,1126.1009 418.806769,1122.66011 417.047383,1119.28267 C415.902076,1117.16507 414.525271,1115.04504 413.148466,1112.99323 L417.505505,1113.45623 C424.306679,1114.11661 431.414892,1114.71606 438.827708,1115.17662 C453.195217,1116.16841 469.168592,1116.89702 485.60009,1117.42825 C503.866516,1118.02527 522.437545,1118.35424 539.70731,1118.42004 L539.785289,1118.42004 C557.055054,1118.35424 575.704061,1118.02283 593.970487,1117.42825 C610.324007,1116.89702 626.375361,1116.17085 640.74287,1115.17662 C648.306769,1114.71363 655.64648,1114.11661 662.445217,1113.39043 L667.106859,1112.92744 C665.652076,1114.97924 664.275271,1117.09684 663.129964,1119.28267 Z" id="base" fill="#070504"></path>
            <g id="case" stroke="#000000" stroke-width="12">
                <path d="M521.452632,512 C314.017661,512 205.622335,517.816105 156.334928,501 C141.671524,495.997072 89.9099723,425.344418 75.5698841,403.016627 C41.6751301,351.662708 3.86944295,294.726841 1.26215418,229.976247 C-1.34513459,183.087886 -1.34513459,152.945368 15.6022424,127.268409 C32.5496194,102.707838 67.7480178,83.7292162 135.537526,61.4014252 C199.416101,41.3064133 264.59832,25.6769596 327.17325,16.7458432 C398.873692,4.46555819 466.6632,0 526.630841,0 C586.598483,0 655.691635,4.46555819 727.392077,16.7458432 C789.967007,25.6769596 855.149226,41.3064133 917.724157,61.4014252 C986.817309,83.7292162 1020.71206,102.707838 1038.96308,127.268409 C1055.91046,152.945368 1054.60682,183.087886 1053.30317,229.976247 C1050.69588,294.726841 1012.8902,351.662708 978.995443,403.016627 C964.655355,425.344418 913.802871,489 896.656459,501 C860.462747,526.330347 719.367155,512 521.452632,512 Z" id="Shape" style="mix-blend-mode: difference;" fill-rule="nonzero"></path>
                <path d="M837.68204,512.616065 C779.641787,518.159838 689.18204,518.159838 535.111462,518.159838 L528.434567,518.159838 C374.363989,518.159838 283.906679,518.159838 225.863989,512.616065 C224.747924,512.508845 215.812094,511.5 209.6713,510.807942 C207.517148,510.566697 205.933213,510.386372 204.254242,510.20361 L181.058123,507.674188 L199.183213,522.39991 C228.849097,546.497653 265.360018,599.408394 293.261643,663.791697 C331.390614,751.778069 353.495036,836.694043 364.636191,930.550722 C370.28231,979.854964 373.930235,1031.21588 373.930235,1082.762 C387.591065,1097.21724 512.39296,1099.61507 534.828791,1099.85875 L544.125271,1099.85875 C572.699458,1099.54684 682.300451,1097.44874 705.38935,1084.40442 C705.983935,1083.89756 706.247112,1083.59296 706.388448,1082.82536 L706.386011,1078.72175 C706.67843,1022.16796 704.334206,954.027076 707.804242,894.990162 C708.384206,888.773827 709.090884,884.263267 709.663538,880.839531 C721.664892,808.987365 745.774819,730.348646 774.629242,663.769765 C802.530866,599.386462 834.699368,546.497653 864.365253,522.397473 L882.490343,507.674188 L859.291787,510.201173 C852.095848,510.983394 844.880415,511.928881 837.68204,512.616065 Z" id="Shape"></path>
            </g>
            <g id="light" fill-rule="nonzero">
                <g id="light_lg" style="mix-blend-mode: difference;">
                    <use fill="#000000" style="mix-blend-mode: difference;" xlink:href="#path-1"></use>
                    <use stroke="#000000" stroke-width="12" xlink:href="#path-1"></use>
                </g>
                <g id="light_sm_alt" style="mix-blend-mode: difference;">
                    <use fill="#000000" style="mix-blend-mode: difference;" xlink:href="#path-2"></use>
                    <use stroke="#000000" stroke-width="12" xlink:href="#path-2"></use>
                </g>
            </g>
        </g>
    </g>
</svg>