<?xml version="1.0" encoding="UTF-8"?>
<svg width="87px" height="151px" viewBox="0 0 87 151" version="1.1" xmlns="http://www.w3.org/2000/svg" xmlns:xlink="http://www.w3.org/1999/xlink">
    <!-- Generator: Sketch 52.6 (67491) - http://www.bohemiancoding.com/sketch -->
    <title>ic-entrance-door</title>
    <desc>Created with Sketch.</desc>
    <g id="Page-1" stroke="none" stroke-width="1" fill="none" fill-rule="evenodd">
        <g id="ic-entrance-door" transform="translate(1.000000, 1.000000)">
            <path d="M0,0 L85,0 L85,149 L0.224215247,149 C0.100384585,149 0,148.898956 0,148.774311 L0,0 Z" id="Path" stroke="#000000"></path>
            <g id="handle" transform="translate(12.000000, 69.000000)" fill="#000000" fill-rule="nonzero">
                <path d="M10.3136891,4.57552607 L6.96484759,4.57458786 L6.96484759,1.49979895 C6.96421927,0.671684584 6.3936695,0.500591181 5.68974946,0.5 L1.27509813,0.5 C0.571178089,0.500591181 0.000628320829,0.671684584 0,1.49979895 C3.64433039e-17,6.62208453 3.64433039e-17,9.45548488 0,10 C0,10.4994088 0.296079955,10.4994088 1,10.5 L5.68974946,10.5 C6.3936695,10.4994088 6.96484759,10.4994088 6.96484759,10 L6.96484759,6.22517089 L10.3136891,6.21645892 C10.6924831,6.21601591 10.9994976,5.85495393 11,5.40932851 C11,4.94183085 10.6985427,4.57552607 10.3136891,4.57552607 Z M10.3136891,5.79640799 L4.53347972,5.79640799 L4.53347972,6.23013001 C4.53347972,6.91221389 4.06346704,7.46515212 3.48367702,7.46515212 C2.903887,7.46515212 2.43387433,6.91221389 2.43387433,6.23013001 C2.43387433,5.56118483 2.90428893,4.99490685 3.46060631,4.99303042 L10.3134613,4.99504088 C10.4981409,4.99504088 10.6426034,5.17678595 10.6426034,5.40879239 C10.6426664,5.62263568 10.4954616,5.79611213 10.3136891,5.79640799 Z M6.60767884,9 C6.60705099,9.59607452 6.50667973,9.99933534 6,10 L1,10 C0.493320269,9.99933534 0.357796603,9.59607452 0.35716875,9 L0.35716875,2 C0.357796603,1.40392553 0.493320269,1.00066464 1,1 L6,1 C6.50667973,1.00066464 6.60705099,1.40392553 6.60767884,2 L6.60767884,4.57445383 L3.46026452,4.57351561 C2.69693737,4.57592816 2.07693343,5.31926015 2.07693343,6.23066613 C2.07693343,7.14484877 2.70688151,7.88594022 3.48396184,7.88594022 C4.26104218,7.88594022 4.89099025,7.14484877 4.89099025,6.23066613 L6.60802063,6.22624313 L6.60767884,9 Z" id="Shape"></path>
            </g>
            <path d="M78,6 L78,149 L5.22762707,149 C5.10191211,149 5,148.899208 5,148.774874 L5.22762707,6 L78,6 Z" id="Shape" stroke="#000000"></path>
        </g>
    </g>
</svg>