<?xml version="1.0" encoding="UTF-8"?>
<svg width="39px" height="68px" viewBox="0 0 39 68" version="1.1" xmlns="http://www.w3.org/2000/svg" xmlns:xlink="http://www.w3.org/1999/xlink">
    <!-- Generator: Sketch 52.6 (67491) - http://www.bohemiancoding.com/sketch -->
    <title>ic-entrance-door</title>
    <desc>Created with Sketch.</desc>
    <g id="Page-1" stroke="none" stroke-width="1" fill="none" fill-rule="evenodd">
        <g id="ic-entrance-door">
            <path d="M0.5,0.5 L38.41,0.5 L38.41,66.52 L0.6,66.52 C0.544771525,66.52 0.5,66.4752285 0.5,66.42 L0.5,0.5 Z" id="Path" stroke="#000000"></path>
            <g id="handle" transform="translate(6.000000, 31.000000)" fill="#000000">
                <path d="M4.68804052,2.03356714 L3.16583982,2.03315016 L3.16583982,0.666577313 C3.16555421,0.298526482 2.90621341,0.000262746936 2.58624975,0 L0.579590061,0 C0.259626404,0.000262746936 0.000285600377,0.298526482 0,0.666577313 L0,7.33342269 C0.000285600377,7.7014735 0.259626404,7.99973724 0.579590061,8 L2.58624975,8 C2.90621341,7.99973724 3.16555421,7.7014735 3.16583982,7.33342269 L3.16583982,2.76674262 L4.68804052,2.76287063 C4.8602196,2.76267374 4.99977165,2.60220175 5,2.404146 C5,2.19636927 4.86297397,2.03356714 4.68804052,2.03356714 Z M3.00354217,7.33342269 C3.00325678,7.5983447 2.81661051,7.81301529 2.58630154,7.8133107 L0.579590061,7.8133107 C0.349281092,7.81301529 0.162634819,7.5983447 0.162349432,7.33342269 L0.162349432,0.666577313 C0.162634819,0.401655328 0.349281092,0.186984699 0.579590061,0.186689303 L2.58624975,0.186689303 C2.81655872,0.186984699 3.003205,0.401655328 3.00349038,0.666577313 L3.00349038,2.03309059 L1.57284751,2.03267361 C1.22588062,2.03374585 0.944060652,2.36411562 0.944060652,2.76918495 C0.944060652,3.17548834 1.23040068,3.50486232 1.58361902,3.50486232 C1.93683736,3.50486232 2.22317739,3.17548834 2.22317739,2.76918495 L3.00364574,2.76721917 L3.00354217,7.33342269 Z M4.68804052,2.57618133 L2.0606726,2.57618133 L2.0606726,2.76894667 C2.0606726,3.07209506 1.84703047,3.31784539 1.58348955,3.31784539 C1.31994864,3.31784539 1.10630651,3.07209506 1.10630651,2.76894667 C1.10630651,2.4716377 1.32013133,2.2199586 1.57300287,2.21912463 L4.68793695,2.22001817 C4.77188222,2.22001817 4.837547,2.30079376 4.837547,2.40390773 C4.83757565,2.49894919 4.77066438,2.57604984 4.68804052,2.57618133 Z" id="Shape" fill-rule="nonzero"></path>
                <path d="M1.99999973,5.48225765 C2.00024734,5.2492136 1.82731548,5.04941714 1.58933128,5.00779274 C1.35134709,4.96616833 1.11656415,5.09465381 1.0317825,5.31291251 C0.947000853,5.53117122 1.03653578,5.77660683 1.2444048,5.89575861 L1.13545633,6.87138849 C1.13179689,6.90417269 1.14276726,6.93691099 1.16563323,6.96144381 C1.1884992,6.98597662 1.22110697,6.99999315 1.25532949,7 L1.77798365,7 C1.81221658,7.00000949 1.84484044,6.98600003 1.86771967,6.9614652 C1.89059889,6.93693037 1.90157707,6.90418264 1.89791651,6.87138849 L1.78681892,5.87631733 C1.92038158,5.7863684 1.99996273,5.63926454 1.99999973,5.48225765 Z" id="Shape"></path>
            </g>
            <path d="M35.39,3 L35.39,66.52 L3.42,66.52 C3.36477153,66.52 3.32,66.4752285 3.32,66.42 L3.42,3 L35.39,3 Z" id="Shape" stroke="#000000"></path>
            <path d="M19.4862155,10 C22.5313946,10 25,11.9793727 25,14.4210526 L25,24 L14,24 L14,14.4210526 C14,11.9793727 16.4686054,10 19.5137845,10 L19.4862155,10 Z M19.5,10 L19.5,24 L19.5,10 Z M14,16.5 L25,16.5 L14,16.5 Z" id="Shape" stroke="#000000"></path>
        </g>
    </g>
</svg>