<?xml version="1.0" encoding="UTF-8"?>
<svg width="52px" height="59px" viewBox="0 0 52 59" version="1.1" xmlns="http://www.w3.org/2000/svg" xmlns:xlink="http://www.w3.org/1999/xlink">
    <!-- Generator: Sketch 52.6 (67491) - http://www.bohemiancoding.com/sketch -->
    <title>ic-window</title>
    <desc>Created with Sketch.</desc>
    <g id="Page-1" stroke="none" stroke-width="1" fill="none" fill-rule="evenodd">
        <g id="ic-window" transform="translate(0.000000, 1.000000)" stroke="#000000">
            <path d="M46.35,1.5 L46.35,52.58 L5.58,52.58 C5.52477153,52.58 5.48,52.5352285 5.48,52.48 L5.48,1.5 C5.48,-0.361199607 46.35,0.0585368029 46.35,1.5 Z" id="Path"></path>
            <polygon id="Rectangle" points="0.5 52.62 51.29 52.62 51.29 56.59 0.5 56.59"></polygon>
            <path d="M8.45,29.51 L24.4,29.51 L24.4,49.57 L8.45,49.57 L8.45,29.51 Z M27.39,29.51 L43.41,29.51 L43.41,49.57 L27.39,49.57 L27.39,29.51 Z M24.4,4.62 L24.4,26.57 L8.45,26.57 L8.45,4.62 L24.4,4.62 Z M43.4,26.57 L27.4,26.57 L27.4,4.62 L43.4,4.62 L43.4,26.57 Z" id="Shape"></path>
        </g>
    </g>
</svg>