<?xml version="1.0" encoding="UTF-8"?>
<svg width="1500px" height="1500px" viewBox="0 0 1500 1500" version="1.1" xmlns="http://www.w3.org/2000/svg" xmlns:xlink="http://www.w3.org/1999/xlink">
    <!-- Generator: Sketch 51.3 (57544) - http://www.bohemiancoding.com/sketch -->
    <title>pad</title>
    <desc>Created with Sketch.</desc>
    <defs></defs>
    <g id="Page-1" stroke="none" stroke-width="1" fill="none" fill-rule="evenodd">
        <g id="homealarms" transform="translate(-4451.000000, 0.000000)" fill="#000000" fill-rule="nonzero">
            <g id="pad" transform="translate(4926.000000, 370.000000)">
                <path d="M509.317172,0.39017341 L40.6828277,0.39017341 C18.2274241,0.425723173 0.0285060464,27.2507118 0,60.3561774 L0,699.727638 C0.0285060464,732.833103 18.2274241,759.658092 40.6828277,759.693642 L509.317172,759.693642 C531.775678,759.658079 549.975878,732.825953 550,699.715906 L550,60.3444458 C549.967111,27.243562 531.769474,0.42570942 509.317172,0.39017341 Z M538.135336,683.72091 C538.119982,713.771799 525.226641,738.125624 509.317172,738.154624 L40.6828277,738.154624 C24.7733595,738.125624 11.8800177,713.771799 11.8646643,683.72091 L11.8646643,175.41989 C35.95606,161.779521 115.22093,125.390173 274.996021,125.390173 C434.771113,125.390173 514.039961,161.779521 538.127378,175.41989 L538.135336,683.72091 Z" id="Shape"></path>
                <g id="buttons" transform="translate(53.000000, 231.000000)">
                    <path d="M178.656069,139.284682 L265.657514,139.284682 C279.983818,139.252866 291.58743,127.642793 291.611272,113.316474 L291.611272,26.3222543 C291.58743,11.9959348 279.983818,0.385862714 265.657514,0.354046243 L178.656069,0.354046243 C164.324122,0.377912983 152.711728,11.9903066 152.687861,26.3222543 L152.687861,113.316474 C152.711728,127.648422 164.324122,139.260815 178.656069,139.284682 Z M163.482659,26.3222543 C163.502521,17.9504521 170.284267,11.1687059 178.656069,11.1488439 L265.657514,11.1488439 C274.037558,11.1488439 280.830925,17.9422112 280.830925,26.3222543 L280.830925,113.316474 C280.830925,121.696517 274.037558,128.489884 265.657514,128.489884 L178.656069,128.489884 C170.284267,128.470022 163.502521,121.688276 163.482659,113.316474 L163.482659,26.3222543 Z" id="Shape"></path>
                    <path d="M0.63583815,26.3222543 L0.63583815,113.316474 C0.659680053,127.642793 12.2632914,139.252866 26.5895954,139.284682 L113.598266,139.284682 C127.92457,139.252866 139.528181,127.642793 139.552023,113.316474 L139.552023,26.3222543 C139.528181,11.9959348 127.92457,0.385862714 113.598266,0.354046243 L26.5895954,0.354046243 C12.2632914,0.385862714 0.659680053,11.9959348 0.63583815,26.3222543 Z M128.778902,26.3222543 L128.778902,113.316474 C128.778902,121.696517 121.985534,128.489884 113.605491,128.489884 L26.5895954,128.489884 C18.2095522,128.489884 11.416185,121.696517 11.416185,113.316474 L11.416185,26.3222543 C11.416185,17.9422112 18.2095522,11.1488439 26.5895954,11.1488439 L113.598266,11.1488439 C117.623756,11.146927 121.485029,12.7447033 124.332158,15.5904776 C127.179288,18.4362518 128.778902,22.2967635 128.778902,26.3222543 Z" id="Shape"></path>
                    <path d="M330.715318,139.284682 L417.709538,139.284682 C432.041485,139.260815 443.653879,127.648422 443.677746,113.316474 L443.677746,26.3222543 C443.653879,11.9903066 432.041485,0.377912983 417.709538,0.354046243 L330.715318,0.354046243 C316.38337,0.377912983 304.770977,11.9903066 304.74711,26.3222543 L304.74711,113.316474 C304.770977,127.648422 316.38337,139.260815 330.715318,139.284682 Z M315.541908,26.3222543 C315.56177,17.9504521 322.343516,11.1687059 330.715318,11.1488439 L417.709538,11.1488439 C426.08134,11.1687059 432.863086,17.9504521 432.882948,26.3222543 L432.882948,113.316474 C432.863086,121.688276 426.08134,128.470022 417.709538,128.489884 L330.715318,128.489884 C322.343516,128.470022 315.56177,121.688276 315.541908,113.316474 L315.541908,26.3222543 Z" id="Shape"></path>
                    <path d="M178.656069,290.671965 L265.657514,290.671965 C279.983818,290.640149 291.58743,279.030077 291.611272,264.703757 L291.611272,177.709538 C291.591405,163.380397 279.986634,151.765933 265.657514,151.734104 L178.656069,151.734104 C164.324122,151.757971 152.711728,163.370364 152.687861,177.702312 L152.687861,264.696532 C152.707751,279.031301 164.321306,290.648088 178.656069,290.671965 Z M163.482659,177.709538 C163.502521,169.337735 170.284267,162.555989 178.656069,162.536127 L265.657514,162.536127 C274.037558,162.536127 280.830925,169.329494 280.830925,177.709538 L280.830925,264.703757 C280.830925,273.0838 274.037558,279.877168 265.657514,279.877168 L178.656069,279.877168 C170.284267,279.857306 163.502521,273.075559 163.482659,264.703757 L163.482659,177.709538 Z" id="Shape"></path>
                    <path d="M113.598266,151.734104 L26.5895954,151.734104 C12.2632914,151.765921 0.659680053,163.375993 0.63583815,177.702312 L0.63583815,264.696532 C0.659680053,279.022851 12.2632914,290.632923 26.5895954,290.66474 L113.598266,290.66474 C127.92457,290.632923 139.528181,279.022851 139.552023,264.696532 L139.552023,177.709538 C139.532157,163.380397 127.927385,151.765933 113.598266,151.734104 Z M128.771676,264.696532 C128.771676,273.076575 121.978309,279.869942 113.598266,279.869942 L26.5895954,279.869942 C18.2095522,279.869942 11.416185,273.076575 11.416185,264.696532 L11.416185,177.709538 C11.416185,169.329494 18.2095522,162.536127 26.5895954,162.536127 L113.598266,162.536127 C121.978309,162.536127 128.771676,169.329494 128.771676,177.709538 L128.771676,264.696532 Z" id="Shape"></path>
                    <path d="M330.715318,290.671965 L417.709538,290.671965 C432.041485,290.648099 443.653879,279.035705 443.677746,264.703757 L443.677746,177.709538 C443.657867,163.377583 432.048704,151.761958 417.716763,151.734104 L330.722543,151.734104 C316.390596,151.757971 304.778202,163.370364 304.754335,177.702312 L304.754335,264.696532 C304.774214,279.028486 316.383377,290.644111 330.715318,290.671965 Z M315.541908,177.709538 C315.56177,169.337735 322.343516,162.555989 330.715318,162.536127 L417.709538,162.536127 C426.08134,162.555989 432.863086,169.337735 432.882948,177.709538 L432.882948,264.703757 C432.863086,273.075559 426.08134,279.857306 417.709538,279.877168 L330.715318,279.877168 C322.343516,279.857306 315.56177,273.075559 315.541908,264.703757 L315.541908,177.709538 Z" id="Shape"></path>
                    <path d="M178.656069,442.059249 L265.657514,442.059249 C279.983818,442.027432 291.58743,430.41736 291.611272,416.09104 L291.611272,329.096821 C291.58743,314.770501 279.983818,303.160429 265.657514,303.128613 L178.656069,303.128613 C164.324122,303.152479 152.711728,314.764873 152.687861,329.096821 L152.687861,416.09104 C152.711728,430.422988 164.324122,442.035382 178.656069,442.059249 Z M163.482659,329.096821 C163.502521,320.725019 170.284267,313.943272 178.656069,313.92341 L265.657514,313.92341 C274.037558,313.92341 280.830925,320.716778 280.830925,329.096821 L280.830925,416.09104 C280.830925,424.471084 274.037558,431.264451 265.657514,431.264451 L178.656069,431.264451 C170.284267,431.244589 163.502521,424.462843 163.482659,416.09104 L163.482659,329.096821 Z" id="Shape"></path>
                    <path d="M113.598266,303.128613 L26.5895954,303.128613 C12.2632914,303.160429 0.659680053,314.770501 0.63583815,329.096821 L0.63583815,416.09104 C0.659680053,430.41736 12.2632914,442.027432 26.5895954,442.059249 L113.598266,442.059249 C127.92457,442.027432 139.528181,430.41736 139.552023,416.09104 L139.552023,329.096821 C139.528181,314.770501 127.92457,303.160429 113.598266,303.128613 Z M128.771676,416.09104 C128.771676,424.471084 121.978309,431.264451 113.598266,431.264451 L26.5895954,431.264451 C18.2095522,431.264451 11.416185,424.471084 11.416185,416.09104 L11.416185,329.096821 C11.416185,320.716778 18.2095522,313.92341 26.5895954,313.92341 L113.598266,313.92341 C121.978309,313.92341 128.771676,320.716778 128.771676,329.096821 L128.771676,416.09104 Z" id="Shape"></path>
                    <path d="M330.715318,442.059249 L417.709538,442.059249 C432.041485,442.035382 443.653879,430.422988 443.677746,416.09104 L443.677746,329.096821 C443.653879,314.764873 432.041485,303.152479 417.709538,303.128613 L330.715318,303.128613 C316.38337,303.152479 304.770977,314.764873 304.74711,329.096821 L304.74711,416.09104 C304.770977,430.422988 316.38337,442.035382 330.715318,442.059249 Z M315.541908,329.096821 C315.56177,320.725019 322.343516,313.943272 330.715318,313.92341 L417.709538,313.92341 C426.08134,313.943272 432.863086,320.725019 432.882948,329.096821 L432.882948,416.09104 C432.863086,424.462843 426.08134,431.244589 417.709538,431.264451 L330.715318,431.264451 C322.343516,431.244589 315.56177,424.462843 315.541908,416.09104 L315.541908,329.096821 Z" id="Shape"></path>
                </g>
            </g>
        </g>
    </g>
</svg>