<?xml version="1.0" encoding="UTF-8"?>
<svg width="2000px" height="2000px" viewBox="0 0 2000 2000" version="1.1" xmlns="http://www.w3.org/2000/svg" xmlns:xlink="http://www.w3.org/1999/xlink">
    <!-- Generator: Sketch 51.3 (57544) - http://www.bohemiancoding.com/sketch -->
    <title>button</title>
    <desc>Created with Sketch.</desc>
    <defs></defs>
    <g id="Page-1" stroke="none" stroke-width="1" fill="none" fill-rule="evenodd">
        <g id="button" transform="translate(351.000000, 0.000000)" fill="#000000" fill-rule="nonzero">
            <path d="M1093.83559,0 L204.901427,0 C91.9727705,0 0.191165279,87.8367879 0.191165279,195.816098 L0.191165279,1804.1839 C0.191165279,1912.22241 92.0346492,2000 204.901427,2000 L1093.83559,2000 C1206.76424,2000 1298.54585,1912.16321 1298.54585,1804.1839 L1298.54585,195.742099 C1298.54585,87.7627889 1206.70237,0 1093.83559,0 Z M1249.75448,1804.2431 C1249.65218,1886.58286 1179.90231,1953.30574 1093.83559,1953.39544 L204.901427,1953.39544 C118.834708,1953.30574 49.0848405,1886.58286 48.9825327,1804.2431 L48.9825327,195.742099 C49.0933627,113.408114 118.840739,46.6942482 204.901427,46.6045569 L1093.83559,46.6045569 C1179.90231,46.6942646 1249.65218,113.417134 1249.75448,195.756899 L1249.75448,1804.2431 Z" id="Shape"></path>
            <path d="M649.376243,233.917015 C509.209426,233.793442 378.230879,303.644025 300.241058,420.110071 L300.241058,418.686861 L287.865315,439.46264 C287.669314,439.991133 287.3695,440.475045 286.983543,440.88585 L285.436576,443.979786 C285.24318,444.374069 285.026211,444.756347 284.786849,445.124542 L283.363639,447.847206 L281.723853,449.889203 L280.501748,452.611867 C280.331581,452.9522 280.068597,453.323472 279.805612,453.756623 L278.846492,455.427348 L276.990131,459.093662 L276.201177,459.18648 L275.365815,461.661629 C275.094289,462.496119 274.758094,463.308161 274.360285,464.090369 L273.339287,466.194245 C273.060832,467.045077 272.766908,467.617455 272.457515,468.34453 L271.080713,470.680452 L266.764673,479.730214 C266.42434,480.782152 266.068537,481.83409 265.92931,482.158954 L264.769084,484.200951 C264.598918,484.72692 264.413282,485.160071 264.243115,485.624162 C264.072949,486.088252 263.763555,486.768918 263.593389,487.294887 L258.782319,498.974495 C258.515403,499.651615 258.189276,500.303871 257.807729,500.923674 L256.956897,503.07396 C256.77126,503.646338 256.570155,504.125898 256.384518,504.620927 L255.146944,508.534756 C255.007717,508.921498 254.86849,509.246361 254.713793,509.633103 L251.619857,517.4917 C251.386548,518.290668 251.19549,519.101372 251.047479,519.92044 L248.541391,527.655279 C248.23046,528.274073 247.996667,528.928694 247.845256,529.604459 L251.387812,530.5017 L247.535862,530.5017 L245.648561,537.076314 C244.981345,538.398968 244.57683,539.838413 244.457396,541.315006 L244.24082,541.980202 C243.717481,543.342648 243.374248,544.767586 243.219822,546.218894 L242.941367,547.178014 C236.686862,570.182446 232.518962,593.703892 230.488276,617.456766 L230.488276,617.73522 C229.699322,629.554055 229.266171,642.084495 229.297111,653.949738 C229.1491,668.193962 229.83092,682.434716 231.339108,696.599643 L231.339108,699.074792 L231.74132,701.023971 C231.771958,701.90716 231.901685,702.784115 232.128062,703.638347 L232.128062,705.185315 L232.313698,706.330071 C232.506364,707.171605 232.579275,708.036123 232.530273,708.898038 L232.932485,710.445006 C232.949367,711.260693 233.037363,712.073351 233.19547,712.873746 C233.295118,713.424932 233.341739,713.984394 233.334697,714.544471 L234.170059,720.314661 L234.355696,721.459417 C234.477416,721.879724 234.565358,722.309085 234.61868,722.743401 C234.742438,723.362188 234.835256,723.934566 235.005422,724.553353 L235.005422,725.837337 C242.371395,768.249223 256.180449,809.285124 275.953662,847.521831 L277.0056,848.945042 L277.144828,849.223496 C277.390729,849.683955 277.607724,850.159278 277.794554,850.646706 L278.846492,852.796992 C279.080872,853.281261 279.360574,853.742251 279.681855,854.173793 C280.027424,854.645341 280.298713,855.16705 280.486278,855.720761 L282.775791,859.820226 L283.874138,861.367194 C284.111554,861.906942 284.396275,862.424618 284.72497,862.914162 C284.911955,863.203353 285.072459,863.508829 285.20453,863.826873 L285.823317,865.822461 L286.937134,866.920809 C287.370422,867.438265 287.724894,868.016889 287.989073,868.637943 L300.132771,888.748526 L300.132771,887.742996 C315.348761,910.467522 332.758241,931.643875 352.110892,950.967574 C431.68692,1030.5436 537.190131,1074.32279 649.252485,1074.32279 C800.003315,1075.23742 939.695828,995.337519 1015.33651,864.933773 C1090.97719,734.530028 1090.97719,573.601494 1015.33651,443.197749 C939.695828,312.794003 800.003315,232.894098 649.252485,233.808728 L649.376243,233.917015 Z M1011.55237,608.453413 L1011.55237,469.226302 C1021.18618,488.121599 1029.35748,507.727545 1035.99446,527.871855 C1044.65904,554.015383 1050.51383,581.007585 1053.45973,608.391534 L1011.55237,608.453413 Z M1052.98017,705.649405 C1049.70413,731.921055 1043.74291,757.787557 1035.19004,782.843103 C1028.7156,802.082163 1020.81444,820.811231 1011.55237,838.874281 L1011.55237,705.649405 L1052.98017,705.649405 Z M244.101593,692.159845 C242.879489,677.819453 242.368989,665.861391 242.368989,653.949738 C242.368989,643.414887 242.987776,632.601581 243.745791,621.556231 L300.210119,621.556231 L300.210119,444.985315 C317.429963,416.474307 338.0015,390.127575 361.485517,366.507634 C437.540959,289.697786 541.25251,246.642557 649.345303,247.004364 C757.91151,247.004364 860.135149,289.453163 937.205089,366.507634 C960.761769,390.050223 981.345392,416.390197 998.495957,444.938906 L998.495957,621.556231 L1054.96029,621.556231 C1055.65642,631.889976 1056.33709,643.213781 1056.33709,653.949738 C1056.33709,665.629346 1055.81112,677.540999 1054.60448,692.159845 L998.449548,692.159845 L998.449548,863.409191 C981.103736,891.810739 960.554354,918.12682 937.205089,941.840464 C859.964982,1018.64742 757.756813,1060.95699 649.329834,1060.95699 C541.327345,1061.29317 437.680753,1018.39955 361.500987,941.840464 C338.096094,917.994019 317.529037,891.519513 300.210119,862.945101 L300.210119,692.175315 L244.101593,692.159845 Z M286.736029,705.649405 L286.736029,838.765993 C265.328152,797.156096 251.43953,752.091393 245.71044,705.649405 L286.736029,705.649405 Z M245.261819,608.453413 C250.598121,559.961701 264.648353,512.832369 286.736029,469.33459 L286.736029,608.453413 L245.261819,608.453413 Z" id="Shape"></path>
            <circle id="Oval" cx="438.880321" cy="653.965208" r="59.4809156"></circle>
            <circle id="Oval" cx="859.779346" cy="653.965208" r="59.4809156"></circle>
            <path d="M649.376243,179.881427 C387.84585,179.881427 175.091356,392.666861 175.091356,654.197253 C175.091356,915.727646 387.84585,1128.46667 649.376243,1128.46667 C910.906635,1128.46667 1123.64566,915.727646 1123.64566,654.197253 C1123.64566,392.666861 910.906635,179.881427 649.376243,179.881427 Z M649.376243,1104.07099 C401.304471,1104.07099 199.487039,902.238086 199.487039,654.197253 C199.487039,406.156421 401.304471,204.199762 649.376243,204.199762 C897.448014,204.199762 1099.26545,406.032663 1099.26545,654.119905 C1099.26545,902.207146 897.432545,1104.07099 649.376243,1104.07099 Z" id="Shape"></path>
            <g id="power" transform="translate(495.000000, 1470.000000)">
                <path d="M154.699087,309.393579 C69.3977859,309.393579 0,239.999122 0,154.701386 C0,69.4036486 69.395488,0 154.699087,0 C240.002687,0 309.393579,69.3944573 309.393579,154.701386 C309.393579,240.008313 240.000389,309.393579 154.699087,309.393579 Z M154.699087,8.45601332 C74.0601516,8.45601332 8.45613894,74.0590516 8.45613894,154.701386 C8.45613894,235.343719 74.0601516,300.937566 154.699087,300.937566 C235.338023,300.937566 300.93744,235.334527 300.93744,154.701386 C300.93744,74.0682429 235.333427,8.45601332 154.699087,8.45601332 Z" id="Shape"></path>
                <path d="M154.69679,283.693153 C83.5664478,283.693153 25.7004251,225.82868 25.7004251,154.700241 C25.7004251,83.5718021 83.5664478,25.7004251 154.69679,25.7004251 C225.827131,25.7004251 283.693153,83.5648996 283.693153,154.693338 C283.693153,225.821777 225.827131,283.693153 154.69679,283.693153 Z M154.69679,29.9407522 C85.9017962,29.9407522 29.9339632,85.9047873 29.9339632,154.700241 C29.9339632,223.495695 85.9017962,279.459729 154.69679,279.459729 C223.491782,279.459729 279.459616,223.495695 279.459616,154.700241 C279.459616,85.9047873 223.491782,29.9407522 154.69679,29.9407522 Z" id="Shape"></path>
                <path d="M183.091608,119.800949 C181.020244,118.414647 178.362936,118.233198 176.120661,119.32495 C173.878387,120.416702 172.391803,122.615794 172.220893,125.093848 C172.049982,127.571902 173.220709,129.952443 175.292071,131.338745 C185.51961,138.165255 191.653402,149.616042 191.646681,161.870126 C191.646681,182.138051 175.073242,198.626509 154.703692,198.626509 C134.334142,198.626509 117.772221,182.135758 117.772221,161.867835 C117.76933,149.642874 123.876231,138.216808 134.064636,131.384584 C137.261598,129.232687 138.100042,124.90951 135.937354,121.728499 C133.774667,118.547488 129.429813,117.713227 126.232852,119.865125 C112.195758,129.280822 103.783486,145.025719 103.790182,161.870126 C103.790182,189.80241 126.631352,212.522746 154.696782,212.522746 C182.762212,212.522746 205.603382,189.795534 205.603382,161.870126 C205.618137,144.989522 197.175518,129.212264 183.091608,119.800949 Z" id="Shape"></path>
                <path d="M154.202551,171.006675 C156.038071,171.006675 157.798378,170.268469 159.096072,168.95452 C160.393768,167.640572 161.122501,165.858557 161.121895,164.000658 L161.121895,103.87454 C161.121895,100.006499 158.023999,96.8708331 154.202551,96.8708331 C150.381102,96.8708331 147.283206,100.006499 147.283206,103.87454 L147.283206,164.000658 C147.282601,165.858557 148.011334,167.640572 149.309028,168.95452 C150.606723,170.268469 152.367031,171.006675 154.202551,171.006675 Z" id="Shape"></path>
            </g>
        </g>
    </g>
</svg>