<?xml version="1.0" encoding="UTF-8"?>
<svg width="2000px" height="2000px" viewBox="0 0 2000 2000" version="1.1" xmlns="http://www.w3.org/2000/svg" xmlns:xlink="http://www.w3.org/1999/xlink">
    <!-- Generator: Sketch 51.3 (57544) - http://www.bohemiancoding.com/sketch -->
    <title>f</title>
    <desc>Created with Sketch.</desc>
    <defs></defs>
    <g id="Page-1" stroke="none" stroke-width="1" fill="none" fill-rule="evenodd">
        <g id="sockets" transform="translate(-2297.000000, -1.000000)" fill="#000000" fill-rule="nonzero">
            <g id="f" transform="translate(2647.000000, 351.000000)">
                <path d="M1129.52,1300.45 L171,1300.45 C76.74,1300.45 0,1223.75 0,1129.45 L0,171 C0,76.71 76.7,0 171,0 L1129.57,0 C1223.83,0 1300.49,76.7 1300.49,171 L1300.49,1129.5 C1300.45,1223.76 1223.78,1300.45 1129.52,1300.45 Z M171,29.82 C93.17,29.82 29.86,93.12 29.86,170.96 L29.86,1129.5 C29.86,1207.33 93.16,1270.64 171,1270.64 L1129.57,1270.64 C1207.37,1270.64 1270.68,1207.34 1270.68,1129.5 L1270.68,171 C1270.68,93.17 1207.38,29.86 1129.57,29.86 L171,29.82 Z" id="Shape"></path>
                <g id="type_f" transform="translate(217.000000, 217.000000)">
                    <g id="SVG-Layer" transform="translate(23.000000, 24.000000)" fill-opacity="0" stroke="#979797" stroke-width="6">
                        <g id="svg">
                            <g id="svgg">
                                <path d="M411.571396,255.029993 C476.653362,255.029993 509.807586,171.280489 460.986311,130.210563 L455.45874,125.560768 L455.45874,63.4421897 L455.45874,1.3208124 L460.465476,1.3208124 C470.551753,1.3208124 514.248684,11.2362699 535.600117,18.3691287 C631.061321,50.2654368 706.111956,108.56564 757.74742,190.940641 L768.390934,207.924571 L768.390934,286.74434 L768.390934,365.564109 L794.623094,366.093195 L820.855254,366.62508 L822.414959,378.071807 C824.097871,390.41434 822.868589,445.898351 820.754447,452.944429 C819.502763,457.118327 818.757913,457.235902 793.928647,457.235902 L768.390934,457.235902 L768.390934,535.098278 L768.390934,612.960654 L758.598677,629.384705 C706.593588,716.59986 615.520278,783.751751 514.881527,809.089076 C496.400287,813.741671 465.029782,819.662391 458.796564,819.673589 C455.685555,819.679188 455.45874,815.477296 455.45874,758.078498 L455.45874,696.480607 L463.898506,688.199997 C504.336019,648.52417 480.150797,577.637886 422.727344,567.526471 C356.374093,555.841796 311.425477,641.282134 359.244285,688.199997 L367.684051,696.480607 L367.684051,758.296851 L367.684051,820.113094 L358.619843,818.816974 C233.748266,800.965231 128.267989,733.39903 66.075817,631.425464 L54.7490571,612.851477 L54.7490571,534.090495 L54.7490571,455.329514 L29.0265314,455.329514 L3.30120556,455.329514 L1.83390712,450.083447 C-0.0730208107,443.258522 -0.0730208107,375.83509 1.83390712,369.010165 L3.30120556,363.764098 L29.0265314,363.764098 L54.7490571,363.764098 L54.7490571,286.411212 C54.7490571,199.047689 53.2089538,208.509645 71.9814132,180.568882 C135.57648,85.9017368 233.80987,22.3862607 345.738979,3.56592729 L366.729187,0.0358900338 L367.233221,62.7759336 L367.734455,125.518777 L362.181682,130.190967 C313.332405,171.280489 346.467028,255.029993 411.571396,255.029993 Z M172.54736,354.302143 C104.42999,371.204891 119.111375,470.922144 189.043267,466.356331 C259.439989,461.759724 259.140369,360.544794 188.710044,353.428732 C183.773313,352.92764 176.498425,353.322355 172.54736,354.302143 Z M623.374805,355.290329 C561.577459,372.403032 570.246841,462.188032 634.099525,466.356331 C659.085601,467.988378 678.75132,456.785199 689.574046,434.753959 C710.723865,391.699262 669.703913,342.460701 623.374805,355.290329 Z" id="path0"></path>
                            </g>
                        </g>
                    </g>
                    <circle id="Oval" cx="208" cy="435" r="50"></circle>
                    <circle id="Oval" cx="661" cy="435" r="50"></circle>
                    <path d="M432.884988,865.41 C283.008008,865.41 145.990473,789.469699 66.3558382,662.239718 C29.6904209,603.620519 7.58259072,537.078886 1.87876159,468.172279 C0.979499717,456.591383 0.37,444.750692 0.37,432.91 C0.413650124,414.830458 1.53137017,396.769478 3.71725254,378.82252 C12.0703962,311.875149 35.5211476,249.144463 73.3700809,192.319135 L73.4300317,192.259182 C154.363601,72.123624 288.723317,0.41 432.884988,0.41 C671.369238,0.41 865.37,194.447462 865.37,432.939976 C865.37,671.432491 671.369238,865.41 432.884988,865.41 Z M91.9248509,204.739371 C55.9543758,258.627009 33.7625911,318.120239 25.8490865,381.600336 C23.7793311,398.63923 22.721675,415.785864 22.6816864,432.949969 C22.6816864,444.211116 23.2911861,455.472263 24.140489,466.443638 C29.5400841,531.766185 50.5010002,594.846407 85.270313,650.409018 C160.868262,771.024199 290.761644,843.057572 432.884988,843.057572 C659.039358,843.057572 843.028338,659.062216 843.028338,432.900008 C843.028338,206.7378 659.029366,22.7224596 432.884988,22.7224596 C296.197182,22.7224596 168.731807,90.7489821 91.9248509,204.739371 Z" id="Shape"></path>
                </g>
            </g>
        </g>
    </g>
</svg>