<?xml version="1.0" encoding="UTF-8"?>
<svg width="2000px" height="2000px" viewBox="0 0 2000 2000" version="1.1" xmlns="http://www.w3.org/2000/svg" xmlns:xlink="http://www.w3.org/1999/xlink">
    <!-- Generator: Sketch 51.3 (57544) - http://www.bohemiancoding.com/sketch -->
    <title>f_button</title>
    <desc>Created with Sketch.</desc>
    <defs></defs>
    <g id="Page-1" stroke="none" stroke-width="1" fill="none" fill-rule="evenodd">
        <g id="sockets" transform="translate(-4868.000000, -2443.000000)" fill="#000000" fill-rule="nonzero">
            <g id="f_button" transform="translate(5218.000000, 2487.000000)">
                <path d="M1095.03032,0 L204.969677,0 C91.8979137,0 0,83.9280508 0,187.102281 L0,1723.89772 C0,1827.12851 91.9598708,1911 204.969677,1911 L1095.03032,1911 C1208.10209,1911 1300,1827.07195 1300,1723.89772 L1300,187.031575 C1300,83.8573448 1208.04013,0 1095.03032,0 Z M1251.1468,1723.95428 C1251.04437,1802.62992 1181.20611,1866.38364 1095.03032,1866.46935 L204.969677,1866.46935 C118.793891,1866.38364 48.9556348,1802.62992 48.8531973,1723.95428 L48.8531973,187.031575 C48.9641678,108.361453 118.79993,44.6163542 204.969677,44.5306541 L1095.03032,44.5306541 C1181.20611,44.6163699 1251.04437,108.370072 1251.1468,187.045717 L1251.1468,1723.95428 Z" id="Shape"></path>
                <g id="power" transform="translate(452.000000, 1379.000000)">
                    <path d="M200.00297,400 C89.7210422,400 0,310.283262 0,200.005942 C0,89.7286218 89.7180714,0 200.00297,0 C310.28787,0 400,89.7167388 400,200.005942 C400,310.295144 310.2849,400 200.00297,400 Z M200.00297,10.9323708 C95.7487894,10.9323708 10.9325332,95.7473672 10.9325332,200.005942 C10.9325332,304.264516 95.7487894,389.06763 200.00297,389.06763 C304.257152,389.06763 389.067466,304.252632 389.067466,200.005942 C389.067466,95.7592502 304.25121,10.9323708 200.00297,10.9323708 Z" id="Shape"></path>
                    <path d="M200,366.773162 C108.03902,366.773162 33.226837,291.962982 33.226837,200.004462 C33.226837,108.045942 108.03902,33.226837 200,33.226837 C291.96098,33.226837 366.773162,108.037019 366.773162,199.995538 C366.773162,291.954058 291.96098,366.773162 200,366.773162 Z M200,38.708951 C111.058279,38.708951 38.7001738,111.062146 38.7001738,200.004462 C38.7001738,288.946778 111.058279,361.299972 200,361.299972 C288.94172,361.299972 361.299826,288.946778 361.299826,200.004462 C361.299826,111.062146 288.94172,38.708951 200,38.708951 Z" id="Shape"></path>
                    <path d="M236.710288,154.884855 C234.032322,153.092573 230.596816,152.857985 227.697888,154.269459 C224.79896,155.680932 222.877028,158.524031 222.656066,161.727788 C222.435104,164.931544 223.94868,168.009231 226.626644,169.801513 C239.849334,178.627179 247.779418,193.431347 247.770728,209.27406 C247.770728,235.47748 226.34373,256.79461 200.008924,256.79461 C173.674118,256.79461 152.262011,235.474516 152.262011,209.271098 C152.258273,193.466037 160.153591,178.693829 173.325687,169.860777 C177.458883,167.078693 178.542868,161.489467 175.746833,157.376891 C172.950799,153.264316 167.333548,152.18574 163.200351,154.967824 C145.052472,167.140924 134.176651,187.49674 134.185309,209.27406 C134.185309,245.38636 163.715552,274.760384 199.99999,274.760384 C236.284428,274.760384 265.814672,245.37747 265.814672,209.27406 C265.833748,187.449943 254.918694,167.052289 236.710288,154.884855 Z" id="Shape"></path>
                    <path d="M199.361022,221.086262 C201.734078,221.086262 204.009894,220.131872 205.68762,218.43313 C207.365348,216.73439 208.307492,214.43051 208.306708,212.028522 L208.306708,134.294371 C208.306708,129.293568 204.301588,125.239617 199.361022,125.239617 C194.420456,125.239617 190.415336,129.293568 190.415336,134.294371 L190.415336,212.028522 C190.414554,214.43051 191.356697,216.73439 193.034424,218.43313 C194.71215,220.131872 196.987968,221.086262 199.361022,221.086262 Z" id="Shape"></path>
                </g>
                <path d="M651.81168,1128.87457 C487.495354,1128.87457 337.27737,1045.58932 249.970629,906.053669 C209.772817,841.764827 185.535089,768.787293 179.281745,693.216045 C178.295847,680.515046 177.627628,667.529123 177.627628,654.5432 C177.675483,634.715007 178.900886,614.907169 181.297359,595.224383 C190.455256,521.801867 216.165283,453.003875 257.660633,390.682407 L257.726359,390.616655 C346.457174,258.861595 493.761284,180.211835 651.81168,180.211835 C913.271817,180.211835 1125.96287,393.016584 1125.96287,654.576076 C1125.96287,916.135567 913.271817,1128.87457 651.81168,1128.87457 Z M278.002994,404.303926 C238.567076,463.403572 214.237305,528.650983 205.561403,598.270869 C203.292245,616.957764 202.132692,635.762819 202.088851,654.587034 C202.088851,666.93736 202.757071,679.287683 203.688197,691.32021 C209.607996,762.960746 232.588315,832.142084 270.707349,893.078706 C353.588504,1025.35978 495.995986,1104.36021 651.81168,1104.36021 C899.754063,1104.36021 1101.46878,902.568839 1101.46878,654.532241 C1101.46878,406.495643 899.743107,204.682354 651.81168,204.682354 C501.955192,204.682354 362.209633,279.288396 278.002994,404.303926 Z" id="Shape"></path>
                <g id="type_f" transform="translate(217.000000, 222.000000)">
                    <g id="SVG-Layer" transform="translate(23.000000, 24.000000)" fill-opacity="0" stroke="#979797" stroke-width="6">
                        <g id="svg">
                            <g id="svgg">
                                <path d="M411.571396,255.029993 C476.653362,255.029993 509.807586,171.280489 460.986311,130.210563 L455.45874,125.560768 L455.45874,63.4421897 L455.45874,1.3208124 L460.465476,1.3208124 C470.551753,1.3208124 514.248684,11.2362699 535.600117,18.3691287 C631.061321,50.2654368 706.111956,108.56564 757.74742,190.940641 L768.390934,207.924571 L768.390934,286.74434 L768.390934,365.564109 L794.623094,366.093195 L820.855254,366.62508 L822.414959,378.071807 C824.097871,390.41434 822.868589,445.898351 820.754447,452.944429 C819.502763,457.118327 818.757913,457.235902 793.928647,457.235902 L768.390934,457.235902 L768.390934,535.098278 L768.390934,612.960654 L758.598677,629.384705 C706.593588,716.59986 615.520278,783.751751 514.881527,809.089076 C496.400287,813.741671 465.029782,819.662391 458.796564,819.673589 C455.685555,819.679188 455.45874,815.477296 455.45874,758.078498 L455.45874,696.480607 L463.898506,688.199997 C504.336019,648.52417 480.150797,577.637886 422.727344,567.526471 C356.374093,555.841796 311.425477,641.282134 359.244285,688.199997 L367.684051,696.480607 L367.684051,758.296851 L367.684051,820.113094 L358.619843,818.816974 C233.748266,800.965231 128.267989,733.39903 66.075817,631.425464 L54.7490571,612.851477 L54.7490571,534.090495 L54.7490571,455.329514 L29.0265314,455.329514 L3.30120556,455.329514 L1.83390712,450.083447 C-0.0730208107,443.258522 -0.0730208107,375.83509 1.83390712,369.010165 L3.30120556,363.764098 L29.0265314,363.764098 L54.7490571,363.764098 L54.7490571,286.411212 C54.7490571,199.047689 53.2089538,208.509645 71.9814132,180.568882 C135.57648,85.9017368 233.80987,22.3862607 345.738979,3.56592729 L366.729187,0.0358900338 L367.233221,62.7759336 L367.734455,125.518777 L362.181682,130.190967 C313.332405,171.280489 346.467028,255.029993 411.571396,255.029993 Z M172.54736,354.302143 C104.42999,371.204891 119.111375,470.922144 189.043267,466.356331 C259.439989,461.759724 259.140369,360.544794 188.710044,353.428732 C183.773313,352.92764 176.498425,353.322355 172.54736,354.302143 Z M623.374805,355.290329 C561.577459,372.403032 570.246841,462.188032 634.099525,466.356331 C659.085601,467.988378 678.75132,456.785199 689.574046,434.753959 C710.723865,391.699262 669.703913,342.460701 623.374805,355.290329 Z" id="path0"></path>
                            </g>
                        </g>
                    </g>
                    <circle id="Oval" cx="208" cy="435" r="50"></circle>
                    <circle id="Oval" cx="661" cy="435" r="50"></circle>
                    <path d="M432.884988,865.41 C283.008008,865.41 145.990473,789.469699 66.3558382,662.239718 C29.6904209,603.620519 7.58259072,537.078886 1.87876159,468.172279 C0.979499717,456.591383 0.37,444.750692 0.37,432.91 C0.413650124,414.830458 1.53137017,396.769478 3.71725254,378.82252 C12.0703962,311.875149 35.5211476,249.144463 73.3700809,192.319135 L73.4300317,192.259182 C154.363601,72.123624 288.723317,0.41 432.884988,0.41 C671.369238,0.41 865.37,194.447462 865.37,432.939976 C865.37,671.432491 671.369238,865.41 432.884988,865.41 Z M91.9248509,204.739371 C55.9543758,258.627009 33.7625911,318.120239 25.8490865,381.600336 C23.7793311,398.63923 22.721675,415.785864 22.6816864,432.949969 C22.6816864,444.211116 23.2911861,455.472263 24.140489,466.443638 C29.5400841,531.766185 50.5010002,594.846407 85.270313,650.409018 C160.868262,771.024199 290.761644,843.057572 432.884988,843.057572 C659.039358,843.057572 843.028338,659.062216 843.028338,432.900008 C843.028338,206.7378 659.029366,22.7224596 432.884988,22.7224596 C296.197182,22.7224596 168.731807,90.7489821 91.9248509,204.739371 Z" id="Shape"></path>
                </g>
            </g>
        </g>
    </g>
</svg>