<?xml version="1.0" encoding="UTF-8"?>
<svg width="2000px" height="2000px" viewBox="0 0 2000 2000" version="1.1" xmlns="http://www.w3.org/2000/svg" xmlns:xlink="http://www.w3.org/1999/xlink">
    <!-- Generator: Sketch 51.3 (57544) - http://www.bohemiancoding.com/sketch -->
    <title>k</title>
    <desc>Created with Sketch.</desc>
    <defs></defs>
    <g id="Page-1" stroke="none" stroke-width="1" fill="none" fill-rule="evenodd">
        <g id="sockets" transform="translate(-7299.000000, 0.000000)" fill="#000000" fill-rule="nonzero">
            <g id="k" transform="translate(7648.000000, 351.000000)">
                <path d="M1129.52,1300.45 L171,1300.45 C76.74,1300.45 0,1223.75 0,1129.45 L0,171 C0,76.71 76.7,0 171,0 L1129.57,0 C1223.83,0 1300.49,76.7 1300.49,171 L1300.49,1129.5 C1300.45,1223.76 1223.78,1300.45 1129.52,1300.45 Z M171,29.82 C93.17,29.82 29.86,93.12 29.86,170.96 L29.86,1129.5 C29.86,1207.33 93.16,1270.64 171,1270.64 L1129.57,1270.64 C1207.37,1270.64 1270.68,1207.34 1270.68,1129.5 L1270.68,171 C1270.68,93.17 1207.38,29.86 1129.57,29.86 L171,29.82 Z" id="Shape"></path>
                <g id="_Group_" transform="translate(217.000000, 217.000000)">
                    <path d="M432.884988,865.41 C283.008008,865.41 145.990473,789.469699 66.3558382,662.239718 C29.6904209,603.620519 7.58259072,537.078886 1.87876159,468.172279 C0.979499717,456.591383 0.37,444.750692 0.37,432.91 C0.413650124,414.830458 1.53137017,396.769478 3.71725254,378.82252 C12.0703962,311.875149 35.5211476,249.144463 73.3700809,192.319135 L73.4300317,192.259182 C154.363601,72.123624 288.723317,0.41 432.884988,0.41 C671.369238,0.41 865.37,194.447462 865.37,432.939976 C865.37,671.432491 671.369238,865.41 432.884988,865.41 Z M91.9248509,204.739371 C55.9543758,258.627009 33.7625911,318.120239 25.8490865,381.600336 C23.7793311,398.63923 22.721675,415.785864 22.6816864,432.949969 C22.6816864,444.211116 23.2911861,455.472263 24.140489,466.443638 C29.5400841,531.766185 50.5010002,594.846407 85.270313,650.409018 C160.868262,771.024199 290.761644,843.057572 432.884988,843.057572 C659.039358,843.057572 843.028338,659.062216 843.028338,432.900008 C843.028338,206.7378 659.029366,22.7224596 432.884988,22.7224596 C296.197182,22.7224596 168.731807,90.7489821 91.9248509,204.739371 Z" id="Shape"></path>
                    <g id="type_k" transform="translate(155.000000, 382.000000)">
                        <circle id="Oval" cx="52.5" cy="52.5" r="52.5"></circle>
                        <circle id="Oval" cx="505.5" cy="52.5" r="52.5"></circle>
                        <path d="M278.963985,428 C315.28915,428 345.613482,401.470719 345.613482,368.745192 C345.613482,351.158627 348.805439,343.140433 336.843811,343.140433 C327.705699,343.140433 309.390625,343 278.963985,343 C249.465577,343 276.700453,343 221.961127,343.418521 C210.928698,343.502871 213.191457,351.391229 213.191457,368.745192 C213.191457,401.466618 242.638821,428 278.963985,428 Z" id="Oval-2"></path>
                    </g>
                </g>
            </g>
        </g>
    </g>
</svg>