<?xml version="1.0" encoding="UTF-8"?>
<svg width="1250px" height="1250px" viewBox="0 0 1250 1250" version="1.1" xmlns="http://www.w3.org/2000/svg" xmlns:xlink="http://www.w3.org/1999/xlink">
    <!-- Generator: Sketch 51.3 (57544) - http://www.bohemiancoding.com/sketch -->
    <title>circle</title>
    <desc>Created with Sketch.</desc>
    <defs></defs>
    <g id="Page-1" stroke="none" stroke-width="1" fill="none" fill-rule="evenodd">
        <g id="buttons" transform="translate(-2500.000000, -125.000000)" fill="#000000" fill-rule="nonzero">
            <g id="circle" transform="translate(2375.000000, 0.000000)">
                <path d="M750.063103,999.959169 C612.268003,999.959169 500.163326,887.858203 500.163326,750.066815 C500.163326,612.275427 612.264291,500.159614 750.063103,500.159614 C887.861915,500.159614 999.955457,612.260579 999.955457,750.066815 C999.955457,887.873051 887.858203,999.959169 750.063103,999.959169 Z M750.063103,513.819599 C619.799555,513.819599 513.823311,619.795843 513.823311,750.066815 C513.823311,880.337788 619.799555,986.299183 750.063103,986.299183 C880.326652,986.299183 986.295471,880.32294 986.295471,750.066815 C986.295471,619.81069 880.319228,513.819599 750.063103,513.819599 Z" id="Shape"></path>
                <path d="M750.063103,958.177431 C635.308092,958.177431 541.952487,864.821826 541.952487,750.066815 C541.952487,635.311804 635.308092,541.945063 750.063103,541.945063 C864.818114,541.945063 958.173719,635.300668 958.173719,750.055679 C958.173719,864.81069 864.818114,958.177431 750.063103,958.177431 Z M750.063103,548.786192 C639.075724,548.786192 548.78248,639.075724 548.78248,750.066815 C548.78248,861.057906 639.075724,951.347439 750.063103,951.347439 C861.050483,951.347439 951.343727,861.057906 951.343727,750.066815 C951.343727,639.075724 861.050483,548.786192 750.063103,548.786192 Z" id="Shape"></path>
            </g>
        </g>
    </g>
</svg>