<?xml version="1.0" encoding="UTF-8"?>
<svg width="1250px" height="1250px" viewBox="0 0 1250 1250" version="1.1" xmlns="http://www.w3.org/2000/svg" xmlns:xlink="http://www.w3.org/1999/xlink">
    <!-- Generator: Sketch 51.3 (57544) - http://www.bohemiancoding.com/sketch -->
    <title>rounded</title>
    <desc>Created with Sketch.</desc>
    <defs></defs>
    <g id="Page-1" stroke="none" stroke-width="1" fill="none" fill-rule="evenodd">
        <g id="buttons" transform="translate(-5000.000000, -125.000000)" fill="#000000" fill-rule="nonzero">
            <g id="rounded" transform="translate(5000.000000, 125.000000)">
                <path d="M727.858881,874.615073 L522.262774,874.615073 C441.159773,874.615073 375.158151,808.679092 375.158151,727.62966 L375.158151,522.200162 C375.158151,441.162885 441.151663,375.214749 522.262774,375.214749 L727.858881,375.214749 C808.961882,375.214749 874.963504,441.150729 874.963504,522.200162 L874.963504,727.62966 C874.963504,808.683144 808.969992,874.615073 727.858881,874.615073 Z M522.262774,388.86953 C448.678021,388.86953 388.819951,448.687196 388.819951,522.204214 L388.819951,727.633712 C388.819951,801.154781 448.678021,860.968395 522.262774,860.968395 L727.858881,860.968395 C801.443633,860.968395 861.301703,801.150729 861.301703,727.633712 L861.301703,522.204214 C861.301703,448.683144 801.443633,388.86953 727.858881,388.86953 L522.262774,388.86953 Z" id="Shape"></path>
                <path d="M714.010543,838.452188 L536.131387,838.452188 C467.335766,838.452188 411.358475,782.536467 411.358475,713.780389 L411.358475,536.057536 C411.358475,467.309562 467.319546,411.385737 536.131387,411.385737 L714.010543,411.385737 C782.806164,411.385737 838.783455,467.301459 838.783455,536.057536 L838.783455,713.780389 C838.77129,782.528363 782.798054,838.452188 714.010543,838.452188 Z M536.131387,418.209076 C471.107056,418.209076 418.187348,471.073744 418.187348,536.057536 L418.187348,713.780389 C418.187348,778.764182 471.107056,831.645057 536.131387,831.645057 L714.010543,831.645057 C779.04704,831.645057 831.954582,778.780389 831.954582,713.796596 L831.954582,536.057536 C831.954582,471.073744 779.04704,418.209076 714.010543,418.209076 L536.131387,418.209076 Z" id="Shape"></path>
            </g>
        </g>
    </g>
</svg>