<?xml version="1.0" encoding="UTF-8"?>
<svg width="2000px" height="2000px" viewBox="0 0 2000 2000" version="1.1" xmlns="http://www.w3.org/2000/svg" xmlns:xlink="http://www.w3.org/1999/xlink">
    <!-- Generator: Sketch 51.3 (57544) - http://www.bohemiancoding.com/sketch -->
    <title>square</title>
    <desc>Created with Sketch.</desc>
    <defs></defs>
    <g id="Page-1" stroke="none" stroke-width="1" fill="none" fill-rule="evenodd">
        <g id="buttons" fill="#000000" fill-rule="nonzero">
            <g id="square" transform="translate(750.000000, 750.000000)">
                <path d="M434.119908,499.80784 L65.7955419,499.80784 C29.5772483,499.80784 0.107609531,470.338201 0.107609531,434.119908 L0.107609531,65.7955419 C0.107609531,29.5926211 29.5926211,0.107609531 65.7955419,0.107609531 L434.119908,0.107609531 C470.338201,0.107609531 499.80784,29.5772483 499.80784,65.7955419 L499.80784,434.119908 C499.80784,470.338201 470.338201,499.80784 434.119908,499.80784 Z M65.7955419,11.5641814 C35.8877786,11.5641814 11.5641814,35.8877786 11.5641814,65.7955419 L11.5641814,434.119908 C11.5641814,464.027671 35.8877786,488.351268 65.7955419,488.351268 L434.119908,488.351268 C464.027671,488.351268 488.351268,464.027671 488.351268,434.119908 L488.351268,65.7955419 C488.351268,35.8877786 464.027671,11.5641814 434.119908,11.5641814 L65.7955419,11.5641814 Z" id="Shape"></path>
                <path d="M398.885473,433.78555 L101.037663,433.78555 C81.7774116,433.760131 66.1720142,418.149573 66.1529593,398.889316 L66.1529593,101.041507 C66.1720142,81.7812475 81.7774116,66.1706922 101.037663,66.1452729 L398.885473,66.1452729 C418.14935,66.1664535 433.760527,81.7776291 433.781706,101.041507 L433.781706,398.889316 C433.760527,418.153194 418.14935,433.76437 398.885473,433.78555 Z M101.037663,74.727133 C86.5186533,74.7462006 74.7552087,86.5148032 74.7425058,101.03382 L74.7425058,398.88163 C74.7552087,413.400646 86.5186533,425.169251 101.037663,425.188317 L398.885473,425.188317 C413.406353,425.169262 425.173105,413.40251 425.19216,398.88163 L425.19216,101.03382 C425.173105,86.5129381 413.406353,74.7461879 398.885473,74.727133 L101.037663,74.727133 Z" id="Shape"></path>
            </g>
        </g>
    </g>
</svg>