<?xml version="1.0" encoding="UTF-8"?>
<svg width="1250px" height="1250px" viewBox="0 0 1250 1250" version="1.1" xmlns="http://www.w3.org/2000/svg" xmlns:xlink="http://www.w3.org/1999/xlink">
    <!-- Generator: Sketch 51.3 (57544) - http://www.bohemiancoding.com/sketch -->
    <title>standard</title>
    <desc>Created with Sketch.</desc>
    <defs></defs>
    <g id="Page-1" stroke="none" stroke-width="1" fill="none" fill-rule="evenodd">
        <g id="buttons" transform="translate(0.000000, -125.000000)" fill="#000000" fill-rule="nonzero">
            <g id="standard" transform="translate(0.000000, 125.000000)">
                <path d="M809.119908,874.80784 L440.795542,874.80784 C404.577248,874.80784 375.10761,845.338201 375.10761,809.119908 L375.10761,440.795542 C375.10761,404.592621 404.592621,375.10761 440.795542,375.10761 L809.119908,375.10761 C845.338201,375.10761 874.80784,404.577248 874.80784,440.795542 L874.80784,809.119908 C874.80784,845.338201 845.338201,874.80784 809.119908,874.80784 Z M440.795542,386.564181 C410.887779,386.564181 386.564181,410.887779 386.564181,440.795542 L386.564181,809.119908 C386.564181,839.027671 410.887779,863.351268 440.795542,863.351268 L809.119908,863.351268 C839.027671,863.351268 863.351268,839.027671 863.351268,809.119908 L863.351268,440.795542 C863.351268,410.887779 839.027671,386.564181 809.119908,386.564181 L440.795542,386.564181 Z" id="Shape"></path>
                <path d="M773.885473,808.78555 L476.037663,808.78555 C456.777412,808.760131 441.172014,793.149573 441.152959,773.889316 L441.152959,476.041507 C441.172014,456.781248 456.777412,441.170692 476.037663,441.145273 L773.885473,441.145273 C793.14935,441.166453 808.760527,456.777629 808.781706,476.041507 L808.781706,773.889316 C808.760527,793.153194 793.14935,808.76437 773.885473,808.78555 Z M476.037663,449.727133 C461.518653,449.746201 449.755209,461.514803 449.742506,476.03382 L449.742506,773.88163 C449.755209,788.400646 461.518653,800.169251 476.037663,800.188317 L773.885473,800.188317 C788.406353,800.169262 800.173105,788.40251 800.19216,773.88163 L800.19216,476.03382 C800.173105,461.512938 788.406353,449.746188 773.885473,449.727133 L476.037663,449.727133 Z" id="Shape"></path>
            </g>
        </g>
    </g>
</svg>