<?xml version="1.0" encoding="UTF-8"?>
<svg width="2000px" height="2000px" viewBox="0 0 2000 2000" version="1.1" xmlns="http://www.w3.org/2000/svg" xmlns:xlink="http://www.w3.org/1999/xlink">
    <!-- Generator: Sketch 51.3 (57544) - http://www.bohemiancoding.com/sketch -->
    <title>toggle</title>
    <desc>Created with Sketch.</desc>
    <defs></defs>
    <g id="Page-1" stroke="none" stroke-width="1" fill="none" fill-rule="evenodd">
        <g id="buttons" transform="translate(-7500.000000, 0.000000)" fill="#000000" fill-rule="nonzero">
            <g id="toggle" transform="translate(8354.000000, 750.000000)">
                <path d="M233.517488,0.0476947536 L57.945151,0.0476947536 C26.0294118,0.0476947536 0.0635930048,26.0135135 0.0635930048,57.9292528 L0.0635930048,441.800477 C0.0635930048,473.716216 26.0294118,499.682035 57.945151,499.682035 L233.517488,499.682035 C265.433227,499.682035 291.399046,473.716216 291.399046,441.800477 L291.399046,57.9292528 C291.399046,26.0135135 265.433227,0.0476947536 233.517488,0.0476947536 Z M277.742448,441.800477 C277.711791,466.212538 257.929549,485.99478 233.517488,486.025437 L57.945151,486.025437 C33.5330899,485.99478 13.7508482,466.212538 13.7201908,441.800477 L13.7201908,57.9292528 C13.7508482,33.5171917 33.5330899,13.73495 57.945151,13.7042925 L233.517488,13.7042925 C257.929549,13.73495 277.711791,33.5171917 277.742448,57.9292528 L277.742448,441.800477 Z" id="Shape"></path>
                <path d="M228.024642,28.4022258 L63.4260731,28.4022258 C43.8031764,28.4307025 27.9052335,44.335757 27.8855326,63.9586645 L27.8855326,435.77504 C27.9118062,455.392645 43.8084678,471.289307 63.4260731,471.31558 L228.024642,471.31558 C247.64755,471.295879 263.552604,455.397937 263.581081,435.77504 L263.581081,63.95469 C263.556987,44.3280434 247.651291,28.4241255 228.024642,28.4022258 Z M228.024642,464.487281 L63.4260731,464.487281 C47.5769108,464.467573 34.7335403,451.624202 34.7138315,435.77504 L34.7138315,253.279014 L256.756757,253.279014 L256.756757,435.77504 C256.734842,451.631045 243.880659,464.476337 228.024642,464.487281 Z M256.756757,246.450715 L34.7138315,246.450715 L34.7138315,63.95469 C34.7269663,48.1002257 47.5716185,35.2484612 63.4260731,35.2265501 L228.024642,35.2265501 C243.885951,35.2396965 256.741416,48.0933835 256.756757,63.95469 L256.756757,246.450715 Z" id="Shape"></path>
            </g>
        </g>
    </g>
</svg>