<?xml version="1.0" encoding="UTF-8"?>
<svg width="1250px" height="1250px" viewBox="0 0 1250 1250" version="1.1" xmlns="http://www.w3.org/2000/svg" xmlns:xlink="http://www.w3.org/1999/xlink">
    <!-- Generator: Sketch 51.3 (57544) - http://www.bohemiancoding.com/sketch -->
    <title>toggle</title>
    <desc>Created with Sketch.</desc>
    <defs></defs>
    <g id="Page-1" stroke="none" stroke-width="1" fill="none" fill-rule="evenodd">
        <g id="buttons" transform="translate(-7500.000000, -125.000000)" fill="#000000" fill-rule="nonzero">
            <g id="toggle" transform="translate(7500.000000, 125.000000)">
                <path d="M712.517488,375.047695 L536.945151,375.047695 C505.029412,375.047695 479.063593,401.013514 479.063593,432.929253 L479.063593,816.800477 C479.063593,848.716216 505.029412,874.682035 536.945151,874.682035 L712.517488,874.682035 C744.433227,874.682035 770.399046,848.716216 770.399046,816.800477 L770.399046,432.929253 C770.399046,401.013514 744.433227,375.047695 712.517488,375.047695 Z M756.742448,816.800477 C756.711791,841.212538 736.929549,860.99478 712.517488,861.025437 L536.945151,861.025437 C512.53309,860.99478 492.750848,841.212538 492.720191,816.800477 L492.720191,432.929253 C492.750848,408.517192 512.53309,388.73495 536.945151,388.704293 L712.517488,388.704293 C736.929549,388.73495 756.711791,408.517192 756.742448,432.929253 L756.742448,816.800477 Z" id="Shape"></path>
                <path d="M707.024642,403.402226 L542.426073,403.402226 C522.803176,403.430703 506.905233,419.335757 506.885533,438.958665 L506.885533,810.77504 C506.911806,830.392645 522.808468,846.289307 542.426073,846.31558 L707.024642,846.31558 C726.64755,846.295879 742.552604,830.397937 742.581081,810.77504 L742.581081,438.95469 C742.556987,419.328043 726.651291,403.424126 707.024642,403.402226 Z M707.024642,839.487281 L542.426073,839.487281 C526.576911,839.467573 513.73354,826.624202 513.713831,810.77504 L513.713831,628.279014 L735.756757,628.279014 L735.756757,810.77504 C735.734842,826.631045 722.880659,839.476337 707.024642,839.487281 Z M735.756757,621.450715 L513.713831,621.450715 L513.713831,438.95469 C513.726966,423.100226 526.571619,410.248461 542.426073,410.22655 L707.024642,410.22655 C722.885951,410.239696 735.741416,423.093383 735.756757,438.95469 L735.756757,621.450715 Z" id="Shape"></path>
            </g>
        </g>
    </g>
</svg>