<?xml version="1.0" encoding="UTF-8"?>
<svg width="2000px" height="2000px" viewBox="0 0 2000 2000" version="1.1" xmlns="http://www.w3.org/2000/svg" xmlns:xlink="http://www.w3.org/1999/xlink">
    <!-- Generator: Sketch 51.3 (57544) - http://www.bohemiancoding.com/sketch -->
    <title>standard</title>
    <desc>Created with Sketch.</desc>
    <defs></defs>
    <g id="Page-1" stroke="none" stroke-width="1" fill="none" fill-rule="evenodd">
        <g id="remotes" fill="#000000" fill-rule="nonzero">
            <g id="standard" transform="translate(684.000000, 303.000000)">
                <path d="M348.1,234.9 L282.8,234.9 C265.6,234.9 251.5,220.8 251.5,203.6 L251.5,138.5 C251.5,121.3 265.6,107.2 282.8,107.2 L348.1,107.2 C365.3,107.2 379.4,121.3 379.4,138.5 L379.4,203.6 C379.4,220.8 365.3,234.9 348.1,234.9 Z" id="Shape"></path>
                <path d="M197.5,924.7 L132.2,924.7 C115,924.7 100.9,910.6 100.9,893.4 L100.9,828.3 C100.9,811.1 115,797 132.2,797 L197.5,797 C214.7,797 228.8,811.1 228.8,828.3 L228.8,893.4 C228.8,910.6 214.7,924.7 197.5,924.7 Z" id="Shape"></path>
                <path d="M348.1,924.7 L282.8,924.7 C265.6,924.7 251.5,910.6 251.5,893.4 L251.5,828.3 C251.5,811.1 265.6,797 282.8,797 L348.1,797 C365.3,797 379.4,811.1 379.4,828.3 L379.4,893.4 C379.4,910.6 365.3,924.7 348.1,924.7 Z" id="Shape"></path>
                <path d="M498.7,924.7 L433.4,924.7 C416.2,924.7 402.1,910.6 402.1,893.4 L402.1,828.3 C402.1,811.1 416.2,797 433.4,797 L498.7,797 C515.9,797 530,811.1 530,828.3 L530,893.4 C530,910.6 515.9,924.7 498.7,924.7 Z" id="Shape"></path>
                <path d="M197.5,1077.2 L132.2,1077.2 C115,1077.2 100.9,1063.1 100.9,1045.9 L100.9,980.8 C100.9,963.6 115,949.5 132.2,949.5 L197.5,949.5 C214.7,949.5 228.8,963.6 228.8,980.8 L228.8,1045.9 C228.8,1063.1 214.7,1077.2 197.5,1077.2 Z" id="Shape"></path>
                <path d="M348.1,1077.2 L282.8,1077.2 C265.6,1077.2 251.5,1063.1 251.5,1045.9 L251.5,980.8 C251.5,963.6 265.6,949.5 282.8,949.5 L348.1,949.5 C365.3,949.5 379.4,963.6 379.4,980.8 L379.4,1045.9 C379.4,1063.1 365.3,1077.2 348.1,1077.2 Z" id="Shape"></path>
                <path d="M498.7,1077.2 L433.4,1077.2 C416.2,1077.2 402.1,1063.1 402.1,1045.9 L402.1,980.8 C402.1,963.6 416.2,949.5 433.4,949.5 L498.7,949.5 C515.9,949.5 530,963.6 530,980.8 L530,1045.9 C530,1063.1 515.9,1077.2 498.7,1077.2 Z" id="Shape"></path>
                <path d="M197.5,1231.9 L132.2,1231.9 C115,1231.9 100.9,1217.8 100.9,1200.6 L100.9,1135.5 C100.9,1118.3 115,1104.2 132.2,1104.2 L197.5,1104.2 C214.7,1104.2 228.8,1118.3 228.8,1135.5 L228.8,1200.6 C228.8,1217.8 214.7,1231.9 197.5,1231.9 Z" id="Shape"></path>
                <path d="M348.1,1231.9 L282.8,1231.9 C265.6,1231.9 251.5,1217.8 251.5,1200.6 L251.5,1135.5 C251.5,1118.3 265.6,1104.2 282.8,1104.2 L348.1,1104.2 C365.3,1104.2 379.4,1118.3 379.4,1135.5 L379.4,1200.6 C379.4,1217.8 365.3,1231.9 348.1,1231.9 Z" id="Shape"></path>
                <path d="M498.7,1231.9 L433.4,1231.9 C416.2,1231.9 402.1,1217.8 402.1,1200.6 L402.1,1135.5 C402.1,1118.3 416.2,1104.2 433.4,1104.2 L498.7,1104.2 C515.9,1104.2 530,1118.3 530,1135.5 L530,1200.6 C530,1217.8 515.9,1231.9 498.7,1231.9 Z" id="Shape"></path>
                <path d="M250.8,369.3 L143.3,369.3 C121.2,369.3 103.1,387.4 103.1,409.5 L103.1,672.2 C103.1,694.3 121.2,712.4 143.3,712.4 L250.8,712.4 C272.9,712.4 291,694.3 291,672.2 L291,409.4 C291,387.4 272.9,369.3 250.8,369.3 Z M232.5,647.3 L161.7,647.3 L161.7,627 L232.5,627 L232.5,647.3 Z M237.7,484.7 L206.9,484.7 L206.9,515.6 L187.1,515.6 L187.1,484.7 L156.3,484.7 L156.3,465.1 L187.1,465.1 L187.1,434.3 L206.9,434.3 L206.9,465.1 L237.7,465.1 L237.7,484.7 Z" id="Shape"></path>
                <path d="M487.7,369.3 L380.2,369.3 C358.1,369.3 340,387.4 340,409.5 L340,672.2 C340,694.3 358.1,712.4 380.2,712.4 L487.7,712.4 C509.8,712.4 527.9,694.3 527.9,672.2 L527.9,409.4 C527.9,387.4 509.8,369.3 487.7,369.3 Z M480.8,591.8 L439.5,660.6 C437,664.8 430.9,665 428.4,660.7 C418.4,644 397.3,608.9 387,591.7 C384.4,587.3 387.6,581.9 392.6,581.9 L475.1,581.9 C480.3,581.9 483.4,587.4 480.8,591.8 Z M475.2,499.7 L392.7,499.7 C387.6,499.7 384.4,494.2 387.1,489.9 C397.4,472.8 418.4,437.6 428.5,420.9 C431,416.7 437.1,416.8 439.6,421 L480.9,489.8 C483.4,494.2 480.3,499.7 475.2,499.7 Z" id="Shape"></path>
                <path d="M516,1392.6 L115,1392.6 C51.6,1392.6 0,1341 0,1277.5 L0,115.8 C0,52.4 51.6,0.7 115,0.7 L516,0.7 C579.4,0.7 631.1,52.3 631.1,115.8 L631.1,1277.5 C631,1340.9 579.4,1392.6 516,1392.6 Z M115,25.3 C65.1,25.3 24.5,65.9 24.5,115.9 L24.5,1277.6 C24.5,1327.5 65.1,1368.2 115,1368.2 L516,1368.2 C565.9,1368.2 606.6,1327.6 606.6,1277.6 L606.6,115.8 C606.6,65.9 566,25.2 516,25.2 L115,25.2 L115,25.3 Z" id="Shape"></path>
            </g>
        </g>
        <g id="images" transform="translate(-5323.000000, -43998.000000)"></g>
    </g>
</svg>