<?xml version="1.0" encoding="UTF-8"?>
<svg width="785px" height="1399px" viewBox="0 0 785 1399" version="1.1" xmlns="http://www.w3.org/2000/svg" xmlns:xlink="http://www.w3.org/1999/xlink">
    <!-- Generator: Sketch 51.2 (57519) - http://www.bohemiancoding.com/sketch -->
    <title>a1</title>
    <desc>Created with Sketch.</desc>
    <defs></defs>
    <g id="Page-1" stroke="none" stroke-width="1" fill="none" fill-rule="evenodd">
        <g id="a1" transform="translate(6.000000, 6.000000)">
            <path d="M567,1059 C560,1060 553,1061 545,1062 C536,1063 527,1064 517,1064 C498,1066 477,1067 456,1067 C432,1068 408,1069 386,1069 C364,1069 340,1068 316,1067 C295,1067 275,1066 256,1064 C246,1064 237,1063 228,1062 C220,1061 213,1061 206,1060 L186,1057 L199,1070 C200,1071 201,1072 202,1073 C203,1074 204,1075 204,1076 C208,1079 210,1084 213,1088 C215,1091 216,1095 217,1099 C220,1107 222,1116 224,1128 C226,1140 228,1154 229,1169 C230,1186 231,1203 232,1220 C232,1239 232,1258 232,1274 L232,1280 L278,1329 L293,1343 L333,1378 L334,1379 C341,1385 349,1391 386,1393 L387,1393 C425,1391 432,1385 439,1379 L440,1378 L480,1343 L496,1329 L495,1329 L542,1280 C542,1280 542,1280 541,1280 L541,1274 C541,1258 541,1239 542,1220 C542,1203 543,1186 544,1169 C546,1154 547,1140 549,1128 C551,1116 553,1107 556,1099 C557,1095 559,1091 560,1088 C563,1084 566,1079 569,1076 C569,1075 570,1074 571,1073 C573,1071 573,1070 574,1070 L587,1057 L567,1059 Z M401,1122 C371,1122 336,1121 302,1120 C280,1119 258,1118 239,1116 C240,1119 241,1123 241,1127 C242,1133 243,1139 244,1145 C262,1147 282,1148 302,1149 C335,1151 371,1151 401,1151 L401,1161 C371,1161 336,1161 302,1159 C282,1158 263,1157 245,1155 C245,1160 246,1164 246,1168 C247,1174 247,1179 247,1185 C264,1186 283,1188 302,1188 C335,1190 371,1191 401,1191 L401,1200 C371,1200 336,1200 302,1198 C283,1197 265,1196 248,1195 C248,1203 249,1211 249,1219 C249,1221 249,1222 249,1224 C266,1226 284,1227 302,1228 C335,1229 371,1230 401,1230 L401,1239 C371,1239 336,1239 302,1237 C284,1236 266,1235 249,1234 C249,1245 249,1256 249,1267 L255,1267 C260,1268 265,1268 269,1268 C275,1269 281,1269 286,1269 C293,1269 299,1270 305,1270 C311,1270 318,1270 324,1271 C331,1271 338,1271 345,1271 C352,1271 359,1271 366,1271 C373,1272 380,1272 387,1272 C393,1272 400,1272 408,1271 C414,1271 421,1271 429,1271 C435,1271 442,1271 449,1271 C455,1270 462,1270 469,1270 C475,1270 481,1269 487,1269 C492,1269 498,1269 504,1268 C509,1268 513,1268 518,1267 L524,1267 C524,1252 524,1235 524,1219 C525,1202 526,1184 527,1168 C528,1153 530,1139 532,1127 C534,1115 536,1105 539,1097 C540,1093 542,1089 544,1084 C546,1081 547,1079 549,1076 L543,1077 C535,1078 525,1078 515,1079 C497,1080 477,1081 456,1082 C432,1083 408,1083 386,1083 C364,1083 340,1083 317,1082 C296,1081 275,1080 257,1079 C247,1078 238,1078 230,1077 L224,1076 C226,1079 228,1082 229,1084 C231,1089 233,1093 234,1097 C235,1100 236,1103 237,1106 C256,1108 279,1109 302,1110 C335,1112 371,1112 401,1112 L401,1122 Z M430,1369 L429,1370 C424,1374 418,1379 387,1380 C355,1379 350,1374 344,1370 L343,1369 L318,1346 C322,1347 326,1347 331,1347 C339,1347 348,1347 357,1347 C367,1348 377,1348 387,1348 C397,1348 407,1348 416,1347 C426,1347 435,1347 443,1347 C447,1347 452,1347 455,1346 L430,1369 Z" id="base" fill="#000000"></path>
            <path d="M736,550 C629.073333,563.333333 512.406667,570 386,570 C196.39,570 35.6417215,549.41544 36,550 C63.91,604.53 136.132411,778.28 154.942411,855.07 C174.022411,933.24 176.792411,961.57 177.692411,1032.5 C177.692411,1033.87333 177.885744,1035.67333 178.272411,1037.9 L181.872411,1045.43 C185.035103,1050.33061 295.328669,1058.17087 400.792785,1058.18304 C506.2569,1058.1952 591.03675,1046.76374 592.402411,1044.51 C593.09248,1043.54873 593.65077,1042.49941 594.062411,1041.39 L596.002411,1032.71 C596.922411,961.57 599.682411,933.25 618.752411,855.06 C637.932411,776.38 709.09,599.94 736,550 Z" id="case" stroke="#000000" stroke-width="12"></path>
            <path d="M772.782411,386.54 C772.782411,173.39 599.372411,0 386.232411,0 C173.232411,0 0.00241116368,173.39 0.00241116368,386.54 C-0.198174935,442.850972 12.0563626,499.032676 36,550 C36.562329,551.350594 196.391256,570 386,570 C575.608744,570 700.355228,553.876117 736,550 C760.708263,498.236897 772.82393,443.897784 772.782411,386.54 Z" id="light" stroke="#000000" stroke-width="12" fill="#000000"></path>
        </g>
    </g>
</svg>