<?xml version="1.0" encoding="UTF-8"?>
<svg width="901px" height="1288px" viewBox="0 0 901 1288" version="1.1" xmlns="http://www.w3.org/2000/svg" xmlns:xlink="http://www.w3.org/1999/xlink">
    <!-- Generator: Sketch 51.2 (57519) - http://www.bohemiancoding.com/sketch -->
    <title>gu</title>
    <desc>Created with Sketch.</desc>
    <defs></defs>
    <g id="Page-1" stroke="none" stroke-width="1" fill="none" fill-rule="evenodd">
        <g id="gu" transform="translate(16.000000, 6.000000)">
            <path d="M434.482286,41.7105038 C370.433387,41.3600324 309.679241,42.5532103 252.223785,45.2900375 C253.908557,166.911487 268.508604,259.853351 296.023926,324.119567 C326.385254,395.028987 372.543289,430.686498 434.498032,431.076348 C496.452775,430.686498 542.614746,395.032925 572.972137,324.119567 C600.483523,259.857289 615.087506,166.911487 616.772279,45.2900375 C559.316822,42.5532103 498.562676,41.3639703 434.513777,41.7105038 L434.482286,41.7105038 Z" id="alt_fill"></path>
            <g id="base" transform="translate(253.000000, 1114.000000)">
                <path d="M131.614261,116.094222 L131.614261,162.094296 L131.850783,163.181778 C117.974841,166.165481 104.098899,167.657333 90.2229565,167.657333 C76.3470145,167.657333 62.4710725,166.165481 48.5951304,163.181778 L48.8316522,162.094296 L48.8316522,116.094222 L48.8316522,114.979259 L48.8316522,113.864296 L60.6735072,113.864296 L67.5562899,113.864296 L67.5562899,65.0493333 L73.4851014,65.0493333 L73.4851014,113.864296 L84.8184348,113.864296 L84.8184348,65.0493333 L112.889623,65.0493333 L112.889623,113.864296 L131.614261,113.864296 L131.614261,114.979259 L131.614261,116.094222 Z" id="connection_left" fill="#000000" fill-rule="nonzero"></path>
                <path d="M314.461333,162.09037 L314.697855,163.177852 C300.821913,166.161556 286.942029,167.653407 273.070029,167.653407 C259.194087,167.653407 245.318145,166.161556 231.442203,163.177852 L231.678725,162.09037 L231.678725,116.090296 L231.678725,114.975333 L231.678725,113.86037 L250.403362,113.86037 L250.403362,65.0454074 L256.332174,65.0454074 L256.332174,113.86037 L267.665507,113.86037 L267.665507,65.0454074 L295.736696,65.0454074 L295.736696,113.86037 L314.461333,113.86037 L314.461333,114.975333 L314.461333,116.090296 L314.461333,162.09037 Z" id="connection_right" fill="#000000" fill-rule="nonzero"></path>
                <path d="M295.428785,56 C300.660239,56 310.186287,49.6678876 320.798778,40.961233 C335.733418,28.7065478 352.321338,11.8957345 362.941702,0.605830117 C348.022807,3.43716645 327.565421,5.50061601 302.262347,6.92612888 C269.743881,8.76118135 228.978692,9.56450905 181.501968,9.62357726 C134.025244,9.56057116 93.260055,8.76118135 60.7415893,6.92612888 C35.4345786,5.49667813 14.9811289,3.43716645 0.0582983407,0.605830117 C10.6786615,11.8957345 27.2705188,28.7104857 42.2051585,40.961233 C52.8137126,49.6678876 62.3436975,56 67.5751514,56 L295.428785,56 Z" id="Path" stroke="#000000" stroke-width="12"></path>
            </g>
            <g id="case" transform="translate(11.000000, 45.000000)" stroke="#000000" stroke-width="12">
                <path d="M612.01932,1059.48548 C612.070493,1058.83573 612.101984,1058.07178 612.125602,1057.17 L612.125602,1057.15425 C612.995543,1020.33506 614.042621,973.970456 615.227472,918.147057 C616.195823,872.432198 617.262583,820.41673 618.392325,762.151845 C617.892404,746.565713 619.959005,733.019403 624.592129,721.512915 C629.284298,709.860725 636.578417,700.327116 646.47055,692.919962 L646.466613,692.916024 C685.436812,660.66478 716.573607,624.333891 739.865189,583.927296 C767.927668,526.138894 788.692092,451.240401 802.158461,359.235753 C815.664193,266.959391 821.820697,157.596564 820.624037,31.1630233 L824.792667,31.1315203 L824.694258,26.9613045 C830.772034,26.8037892 836.790765,26.0004615 842.742577,24.5591971 C843.852637,24.2914213 844.958761,24.0000181 846.060948,23.6889255 C788.979448,14.6711783 726.977469,7.90983692 660.074692,3.40490123 C644.998342,2.38892798 629.674,1.48715326 614.105603,0.703514973 C612.381467,123.313373 597.560982,217.212142 569.655958,282.391946 C537.857851,356.664316 489.141166,394.00724 423.517714,394.412842 L423.486223,394.412842 C357.86277,394.00724 309.146086,356.660378 277.347978,282.391946 C249.442954,217.208204 234.626406,123.313373 232.90227,0.703514973 C217.333872,1.48715326 202.013467,2.38892798 186.933181,3.40490123 C120.026468,7.90983692 58.0284244,14.6711783 0.942988118,23.6889255 C2.04517555,24.0000181 3.15523575,24.2914213 4.26135957,24.5591971 C10.2131717,26.0004615 16.227966,26.7998513 22.3096788,26.9613045 L22.2112692,31.1315203 L26.3798995,31.1630233 C25.1832389,157.596564 31.339743,266.959391 44.8454754,359.235753 C58.311844,451.240401 79.076268,526.138894 107.138747,583.927296 C130.43033,624.333891 161.563188,660.668718 200.537323,692.916024 L200.533387,692.919962 C210.425519,700.331054 217.715702,709.860725 222.411807,721.512915 C227.044931,733.019403 229.115469,746.569651 228.611612,762.151845 C229.741354,820.412792 230.804177,872.42826 231.776464,918.147057 C232.961316,973.974394 234.01233,1020.339 234.878334,1057.15425 C234.898016,1058.0639 234.933444,1058.83179 234.984617,1059.48941 C249.620091,1063.25403 272.781773,1065.87272 303.202146,1067.58964 C335.728485,1069.42863 376.320473,1070.22802 423.501968,1070.28708 C470.683463,1070.22802 511.279388,1069.42469 543.805727,1067.58964 C574.222163,1065.87272 597.383845,1063.25009 612.01932,1059.48548 Z" id="Shape"></path>
            </g>
            <g id="light" fill="#000000" stroke="#000000" stroke-width="12">
                <path d="M243.807797,4.05254925 C228.27089,4.83618754 212.97804,5.73402437 197.929245,6.74999763 C126.330362,11.5699638 60.3526347,18.9771177 0,28.9635835 L0,62.1441675 C60.2620979,52.2207078 126.054815,44.8608085 197.370278,40.0565938 C212.588338,39.0327448 228.066198,38.1230943 243.799924,37.3315803 C243.701514,26.4630292 243.705451,15.3700188 243.807797,4.05254925 Z" id="Path"></path>
                <path d="M616.854943,3.64300964 C559.375868,0.906182451 498.594167,-0.290933326 434.517714,0.059538069 L434.486223,0.059538069 C370.405833,-0.286995446 309.624132,0.906182451 252.145057,3.64300964 C252.038775,14.9644171 252.034839,26.0574274 252.133248,36.9299164 C309.545404,34.2088408 370.334978,33.0235386 434.498032,33.3700722 C498.661086,33.0196008 559.454596,34.2088408 616.866752,36.9299164 C616.965161,26.0574274 616.961225,14.9644171 616.854943,3.64300964 Z" id="Path"></path>
                <path d="M869,62.1481054 L869,28.9635835 C808.647365,18.9731798 742.673575,11.5699638 671.070755,6.74999763 C656.02196,5.73796225 640.72911,4.83618754 625.192203,4.05254925 C625.294549,15.3660809 625.294549,26.4630292 625.19614,37.3355182 C640.929865,38.1270322 656.407726,39.0327448 671.625785,40.0605317 C742.945185,44.8608085 808.737902,52.2246457 869,62.1481054 Z" id="Path"></path>
            </g>
        </g>
    </g>
</svg>