<?xml version="1.0" encoding="UTF-8"?>
<svg width="2000px" height="2000px" viewBox="0 0 2000 2000" version="1.1" xmlns="http://www.w3.org/2000/svg" xmlns:xlink="http://www.w3.org/1999/xlink">
    <!-- Generator: Sketch 51.3 (57544) - http://www.bohemiancoding.com/sketch -->
    <title>standard</title>
    <desc>Created with Sketch.</desc>
    <defs></defs>
    <g id="Page-1" stroke="none" stroke-width="1" fill="none" fill-rule="evenodd">
        <g id="thermostats">
            <g id="standard" transform="translate(332.000000, 332.000000)">
                <path d="M667.66,180.71 C398.73,180.71 180.71,398.71 180.71,667.66 C180.71,936.61 398.71,1154.61 667.66,1154.61 C936.61,1154.61 1154.61,936.61 1154.61,667.66 C1154.61,398.71 936.59,180.71 667.66,180.71 Z M611.95,847.35 L377.49,847.35 L377.49,813.61 L496,682.19 C517.16,658.523333 531.52,639.733333 539.08,625.82 C546.64,611.906667 550.41,597.663333 550.39,583.09 C550.39,565.09 545.126667,549.9 534.6,537.52 C524.073333,525.14 510.116667,518.966667 492.73,519 C467.75,519 449.34,525.416667 437.5,538.25 C425.66,551.083333 419.733333,569.083333 419.72,592.25 L372.72,592.25 L372.25,590.77 C371.396667,559.65 381.73,533.49 403.25,512.29 C424.77,491.09 454.573333,480.49 492.66,480.49 C525.093333,480.49 550.97,489.97 570.29,508.93 C589.61,527.89 599.253333,552.023333 599.22,581.33 C599.22,601.036667 593.376667,620.786667 581.69,640.58 C570.003333,660.373333 553.67,681.606667 532.69,704.28 L437.59,807.63 L438.1,808.86 L611.95,808.86 L611.95,847.35 Z M892.86,709.5 C892.86,755.7 882.636667,791.096667 862.19,815.69 C841.743333,840.283333 813.72,852.573333 778.12,852.56 C742.5,852.56 714.35,840.226667 693.67,815.56 C672.99,790.893333 662.633333,755.54 662.6,709.5 L662.6,623.83 C662.6,577.83 672.916667,542.44 693.55,517.66 C714.183333,492.88 742.206667,480.5 777.62,480.52 C813.213333,480.52 841.32,492.9 861.94,517.66 C882.56,542.42 892.866667,577.81 892.86,623.83 L892.86,709.5 Z M964.71,565.81 C939.227582,565.81 918.57,545.152418 918.57,519.67 C918.57,494.187582 939.227582,473.53 964.71,473.53 C990.192418,473.53 1010.85,494.187582 1010.85,519.67 C1010.82244,545.140995 990.180995,565.782443 964.71,565.81 Z" id="Shape" fill="#000000" fill-rule="nonzero"></path>
                <path d="M777.62,519 C756.08,519 739.69,526.9 728.45,542.7 C717.21,558.5 711.576667,582.033333 711.55,613.3 L711.55,719.3 C711.55,750.566667 717.256667,774.183333 728.67,790.15 C740.083333,806.116667 756.57,814.096667 778.13,814.09 C799.636667,814.09 815.97,806.153333 827.13,790.28 C838.29,774.406667 843.88,750.74 843.9,719.28 L843.9,613.28 C843.9,582.013333 838.233333,558.48 826.9,542.68 C815.566667,526.88 799.14,518.986667 777.62,519 Z" id="Shape" fill="#000000" fill-rule="nonzero"></path>
                <circle id="Oval" stroke="#000000" stroke-width="28.23" cx="667.66" cy="667.66" r="667.48"></circle>
                <circle id="Oval" fill="#000000" fill-rule="nonzero" cx="964.7" cy="519.01" r="25.83"></circle>
            </g>
        </g>
        <g id="images" transform="translate(-4918.000000, -54081.000000)"></g>
    </g>
</svg>