<?xml version="1.0" encoding="UTF-8"?>
<svg width="2000px" height="2000px" viewBox="0 0 2000 2000" version="1.1" xmlns="http://www.w3.org/2000/svg" xmlns:xlink="http://www.w3.org/1999/xlink">
    <!-- Generator: Sketch 51.3 (57544) - http://www.bohemiancoding.com/sketch -->
    <title>center</title>
    <desc>Created with Sketch.</desc>
    <defs></defs>
    <g id="Page-1" stroke="none" stroke-width="1" fill="none" fill-rule="evenodd">
        <g id="amplifiers" fill="#000000" fill-rule="nonzero">
            <g id="center" transform="translate(290.000000, 745.000000)">
                <path d="M713.3,74.2 C646.98,73.67 583.43,112.79 554.16,170.55 C524.11,227.94 529.16,300.63 566.32,351.87 C531.44,298.95 530.52,227.78 561.54,174.58 C592,120.79 652.94,87.8 713,91 C773.27,92.73 829,131.26 853.21,184.45 C878.43,237.29 870.91,302.98 835.38,347.63 L862.46,367.57 C903.14,311.2 907.76,233.06 875.82,173.28 C845,113 779.68,73.11 713.3,74.2 Z" id="Shape"></path>
                <path d="M709.63,155.28 C669.183776,155.28 632.720147,179.644218 617.242047,217.011657 C601.763947,254.379096 610.319522,297.390879 638.919322,325.990678 C667.519121,354.590478 710.530904,363.146053 747.898343,347.667953 C785.265782,332.189853 809.63,295.726224 809.63,255.28 C809.585885,200.069808 764.840192,155.324115 709.63,155.28 Z" id="Shape"></path>
                <path d="M709.63,119.84 C654.85813,119.82382 605.470456,152.805148 584.498957,203.403114 C563.527458,254.00108 575.102687,312.249895 613.826528,350.985178 C652.550368,389.720461 710.79576,401.312899 761.399921,380.35635 C812.004081,359.3998 844.999998,310.021872 845,255.25 C845.000003,180.48074 784.399257,119.862087 709.63,119.84 Z M709.63,362.84 C666.103998,362.839999 626.864222,336.6195 610.209412,296.405943 C593.554601,256.192387 602.764922,209.905839 633.545313,179.131168 C664.325705,148.356497 710.613964,139.15478 750.824424,155.817065 C791.034884,172.47935 817.24809,211.723999 817.24,255.25 C817.173867,314.653947 769.033947,362.793867 709.63,362.86 L709.63,362.84 Z" id="Shape"></path>
                <path d="M1329.33,0.61 L89.93,0.61 C40.7903719,0.643094384 0.963094384,40.4703719 0.93,89.61 L0.93,420.93 C0.985186454,464.142823 32.0400448,501.086596 74.6,508.57 L74.6,553.71 C74.6,567.517119 85.7928813,578.71 99.6,578.71 L292.9,578.71 C306.707119,578.71 317.9,567.517119 317.9,553.71 L317.9,509.89 L1101.41,509.89 L1101.41,553.71 C1101.41,567.517119 1112.60288,578.71 1126.41,578.71 L1319.69,578.71 C1333.49712,578.71 1344.69,567.517119 1344.69,553.71 L1344.69,508.57 C1387.24996,501.086596 1418.30481,464.142823 1418.36,420.93 L1418.36,89.57 C1418.30483,40.4342878 1378.46574,0.626520481 1329.33,0.61 Z M1387.71,420.93 C1387.67143,453.156393 1361.55639,479.271429 1329.33,479.31 L89.93,479.31 C57.7036066,479.271429 31.5885714,453.156393 31.55,420.93 L31.55,89.57 C31.5830619,57.3397015 57.6997076,31.2185822 89.93,31.18 L1329.33,31.18 C1361.56029,31.2185822 1387.67694,57.3397015 1387.71,89.57 L1387.71,420.93 Z" id="Shape"></path>
                <path d="M373,223.45 C355.442868,223.45 341.21,237.682868 341.21,255.24 C341.21,272.797132 355.442868,287.03 373,287.03 C390.557132,287.03 404.79,272.797132 404.79,255.24 C404.767962,237.692004 390.547996,223.472038 373,223.45 Z" id="Shape"></path>
                <path d="M373,204.13 C344.767204,204.13 321.88,227.017204 321.88,255.25 C321.88,283.482796 344.767204,306.37 373,306.37 C401.232796,306.37 424.12,283.482796 424.12,255.25 C424.12,227.017204 401.232796,204.13 373,204.13 Z M373,293.92 C351.643149,293.92 334.33,276.606851 334.33,255.25 C334.33,233.893149 351.643149,216.58 373,216.58 C394.356851,216.58 411.67,233.893149 411.67,255.25 C411.642442,276.593807 394.343813,293.887963 373,293.91 L373,293.92 Z" id="Shape"></path>
                <path d="M192.17,223.45 C174.619394,223.472084 160.407132,237.712685 160.42001,255.263301 C160.432888,272.813916 174.666032,287.033646 192.216652,287.029974 C209.767272,287.026303 223.994465,272.800619 224,255.25 C223.983442,237.682493 209.737515,223.449992 192.17,223.45 Z" id="Shape"></path>
                <path d="M192.17,204.13 C163.937204,204.13 141.05,227.017204 141.05,255.25 C141.05,283.482796 163.937204,306.37 192.17,306.37 C220.402796,306.37 243.29,283.482796 243.29,255.25 C243.29,241.692133 237.904158,228.689561 228.317299,219.102701 C218.730439,209.515842 205.727867,204.13 192.17,204.13 Z M192.17,293.92 C170.813149,293.92 153.5,276.606851 153.5,255.25 C153.5,233.893149 170.813149,216.58 192.17,216.58 C213.526851,216.58 230.84,233.893149 230.84,255.25 C230.812442,276.593807 213.513813,293.887963 192.17,293.91 L192.17,293.92 Z" id="Shape"></path>
            </g>
        </g>
    </g>
</svg>