<?xml version="1.0" encoding="UTF-8"?>
<svg width="2000px" height="2000px" viewBox="0 0 2000 2000" version="1.1" xmlns="http://www.w3.org/2000/svg" xmlns:xlink="http://www.w3.org/1999/xlink">
    <!-- Generator: Sketch 51.3 (57544) - http://www.bohemiancoding.com/sketch -->
    <title>right</title>
    <desc>Created with Sketch.</desc>
    <defs></defs>
    <g id="Page-1" stroke="none" stroke-width="1" fill="none" fill-rule="evenodd">
        <g id="amplifiers" transform="translate(-2709.000000, -35.000000)" fill="#000000" fill-rule="nonzero">
            <g id="right" transform="translate(2999.000000, 780.000000)">
                <path d="M1154.67611,97.0217928 C1088.35611,96.4917928 1024.80611,135.611793 995.536111,193.371793 C965.486111,250.761793 970.536111,323.451793 1007.69611,374.691793 C972.816111,321.771793 971.896111,250.601793 1002.91611,197.401793 C1033.37611,143.611793 1094.31611,110.621793 1154.37611,113.821793 C1214.64611,115.551793 1270.37611,154.081793 1294.58611,207.271793 C1319.80611,260.111793 1312.28611,325.801793 1276.75611,370.451793 L1303.83611,390.391793 C1344.51611,334.021793 1349.13611,255.881793 1317.19611,196.101793 C1286.37611,135.821793 1221.05611,95.9317928 1154.67611,97.0217928 Z" id="Shape"></path>
                <path d="M1151.00292,178 C1110.5567,178 1074.09307,202.364218 1058.61497,239.731657 C1043.13687,277.099096 1051.69245,320.110879 1080.29224,348.710678 C1108.89204,377.310478 1151.90383,385.866053 1189.27127,370.387953 C1226.63871,354.909853 1251.00292,318.446224 1251.00292,278 C1250.95881,222.789808 1206.21311,178.044115 1151.00292,178 Z" id="Shape"></path>
                <path d="M1151.45395,142.000006 C1096.68208,141.983826 1047.29441,174.965154 1026.32291,225.56312 C1005.35141,276.161086 1016.92664,334.409901 1055.65048,373.145184 C1094.37432,411.880467 1152.61971,423.472905 1203.22387,402.516356 C1253.82803,381.559806 1286.82395,332.181878 1286.82395,277.410006 C1286.82396,202.640746 1226.22321,142.022093 1151.45395,142.000006 Z M1151.45395,385.000006 C1107.92795,385.000005 1068.68818,358.779506 1052.03337,318.565949 C1035.37855,278.352393 1044.58888,232.065845 1075.36927,201.291174 C1106.14966,170.516503 1152.43792,161.314786 1192.64838,177.977071 C1232.85884,194.639356 1259.07204,233.884005 1259.06395,277.410006 C1258.99782,336.813953 1210.8579,384.953873 1151.45395,385.020006 L1151.45395,385.000006 Z" id="Shape"></path>
                <path d="M1329.33,0.61 L89.93,0.61 C40.7903719,0.643094384 0.963094384,40.4703719 0.93,89.61 L0.93,420.93 C0.985186454,464.142823 32.0400448,501.086596 74.6,508.57 L74.6,553.71 C74.6,567.517119 85.7928813,578.71 99.6,578.71 L292.9,578.71 C306.707119,578.71 317.9,567.517119 317.9,553.71 L317.9,509.89 L1101.41,509.89 L1101.41,553.71 C1101.41,567.517119 1112.60288,578.71 1126.41,578.71 L1319.69,578.71 C1333.49712,578.71 1344.69,567.517119 1344.69,553.71 L1344.69,508.57 C1387.24996,501.086596 1418.30481,464.142823 1418.36,420.93 L1418.36,89.57 C1418.30483,40.4342878 1378.46574,0.626520481 1329.33,0.61 Z M1387.71,420.93 C1387.67143,453.156393 1361.55639,479.271429 1329.33,479.31 L89.93,479.31 C57.7036066,479.271429 31.5885714,453.156393 31.55,420.93 L31.55,89.57 C31.5830619,57.3397015 57.6997076,31.2185822 89.93,31.18 L1329.33,31.18 C1361.56029,31.2185822 1387.67694,57.3397015 1387.71,89.57 L1387.71,420.93 Z" id="Shape"></path>
                <path d="M373,223.45 C355.442868,223.45 341.21,237.682868 341.21,255.24 C341.21,272.797132 355.442868,287.03 373,287.03 C390.557132,287.03 404.79,272.797132 404.79,255.24 C404.767962,237.692004 390.547996,223.472038 373,223.45 Z" id="Shape"></path>
                <path d="M373,204.13 C344.767204,204.13 321.88,227.017204 321.88,255.25 C321.88,283.482796 344.767204,306.37 373,306.37 C401.232796,306.37 424.12,283.482796 424.12,255.25 C424.12,227.017204 401.232796,204.13 373,204.13 Z M373,293.92 C351.643149,293.92 334.33,276.606851 334.33,255.25 C334.33,233.893149 351.643149,216.58 373,216.58 C394.356851,216.58 411.67,233.893149 411.67,255.25 C411.642442,276.593807 394.343813,293.887963 373,293.91 L373,293.92 Z" id="Shape"></path>
                <path d="M192.17,223.45 C174.619394,223.472084 160.407132,237.712685 160.42001,255.263301 C160.432888,272.813916 174.666032,287.033646 192.216652,287.029974 C209.767272,287.026303 223.994465,272.800619 224,255.25 C223.983442,237.682493 209.737515,223.449992 192.17,223.45 Z" id="Shape"></path>
                <path d="M192.17,204.13 C163.937204,204.13 141.05,227.017204 141.05,255.25 C141.05,283.482796 163.937204,306.37 192.17,306.37 C220.402796,306.37 243.29,283.482796 243.29,255.25 C243.29,241.692133 237.904158,228.689561 228.317299,219.102701 C218.730439,209.515842 205.727867,204.13 192.17,204.13 Z M192.17,293.92 C170.813149,293.92 153.5,276.606851 153.5,255.25 C153.5,233.893149 170.813149,216.58 192.17,216.58 C213.526851,216.58 230.84,233.893149 230.84,255.25 C230.812442,276.593807 213.513813,293.887963 192.17,293.91 L192.17,293.92 Z" id="Shape"></path>
            </g>
        </g>
    </g>
</svg>