<?xml version="1.0" encoding="UTF-8"?>
<svg width="1500px" height="1500px" viewBox="0 0 1500 1500" version="1.1" xmlns="http://www.w3.org/2000/svg" xmlns:xlink="http://www.w3.org/1999/xlink">
    <!-- Generator: Sketch 51.3 (57544) - http://www.bohemiancoding.com/sketch -->
    <title>standard</title>
    <desc>Created with Sketch.</desc>
    <defs></defs>
    <g id="Page-1" stroke="none" stroke-width="1" fill="none" fill-rule="evenodd">
        <g id="speakers" fill="#000000" fill-rule="nonzero">
            <g id="standard">
                <path d="M750.67,239.08 C637.32,239.08 545.43,330.97 545.43,444.32 C545.43,557.67 637.32,649.57 750.67,649.57 C864.02,649.57 955.91,557.68 955.91,444.32 C955.91,330.96 864,239.08 750.67,239.08 Z M750.67,520.29 C708.696359,520.29 674.67,486.263641 674.67,444.29 C674.67,402.316359 708.696359,368.29 750.67,368.29 C792.643641,368.29 826.67,402.316359 826.67,444.29 C826.664478,486.259736 792.639736,520.28 750.67,520.28 L750.67,520.29 Z" id="Shape"></path>
                <path d="M750.67,774.24 C611.35,774.24 498.41,887.18 498.41,1026.5 C498.41,1165.82 611.35,1278.76 750.67,1278.76 C889.99,1278.76 1002.92,1165.81 1002.92,1026.5 C1002.92,887.19 890,774.24 750.67,774.24 Z M750.67,1138.72 C705.280337,1138.72404 664.357784,1111.38508 646.985109,1069.45166 C629.612435,1027.51824 639.211033,979.248782 671.304941,947.152013 C703.39885,915.055245 751.667457,905.452345 793.602425,922.821282 C835.537392,940.19022 862.88,981.110337 862.88,1026.5 C862.88,1056.25994 851.057909,1084.80099 830.014452,1105.84445 C808.970995,1126.88791 780.429942,1138.71 750.67,1138.71 L750.67,1138.72 Z" id="Shape"></path>
                <path d="M1036.2,1421.15 L465.14,1421.15 C392.63,1421.15 333.64,1362.15 333.64,1289.66 L333.64,209.66 C333.64,137.15 392.64,78.14 465.14,78.14 L1036.2,78.14 C1108.71,78.14 1167.69,137.14 1167.69,209.66 L1167.69,1289.66 C1167.61284,1362.24794 1108.78794,1421.07284 1036.2,1421.15 Z M465.14,109.51 C409.850584,109.587162 365.055081,154.400558 365,209.69 L365,1289.69 C365.066134,1344.9778 409.872189,1389.77939 465.16,1389.84 L1036.2,1389.84 C1091.48391,1389.77388 1136.28388,1344.97391 1136.35,1289.69 L1136.35,209.69 C1136.30041,154.394379 1091.4956,109.576154 1036.2,109.51 L465.14,109.51 Z" id="Shape"></path>
                <circle id="Oval" cx="750.67" cy="444.32" r="29.44"></circle>
                <circle id="Oval" cx="750.67" cy="1026.5" r="46.5"></circle>
            </g>
        </g>
    </g>
</svg>