<?xml version="1.0" encoding="utf-8"?>
<!-- Generator: Adobe Illustrator 21.0.0, SVG Export Plug-In . SVG Version: 6.00 Build 0)  -->
<svg version="1.1" id="Layer_1" xmlns="http://www.w3.org/2000/svg" xmlns:xlink="http://www.w3.org/1999/xlink" x="0px" y="0px"
	 viewBox="0 0 1417.3 1417.3" style="enable-background:new 0 0 1417.3 1417.3;" xml:space="preserve">
<path d="M710,2.9C319.4,2.9,2.7,319.6,2.7,710.2s316.7,707.3,707.3,707.3c390.6,0,707.3-316.7,707.3-707.3S1100.6,2.9,710,2.9z
	 M644.3,370c0-37.6,30.4-68,68-68c37.6,0,68,30.4,68,68v390c0,37.6-30.4,68-68,68c-37.6,0-68-30.4-68-68V370z M710,1118.4
	c-54.1,0-98-43.9-98-98c0-54.1,43.9-98,98-98s98,43.9,98,98C808,1074.6,764.1,1118.4,710,1118.4z"/>
</svg>
