<?xml version="1.0" encoding="UTF-8"?>
<svg width="2000px" height="2000px" viewBox="0 0 2000 2000" version="1.1" xmlns="http://www.w3.org/2000/svg" xmlns:xlink="http://www.w3.org/1999/xlink">
    <!-- Generator: Sketch 53.1 (72631) - https://sketchapp.com -->
    <title>standard</title>
    <desc>Created with Sketch.</desc>
    <g id="Page-1" stroke="none" stroke-width="1" fill="none" fill-rule="evenodd">
        <g id="standard" transform="translate(450.000000, 450.000000)" fill="#000000" fill-rule="nonzero">
            <path d="M550,0 C246.267496,0 0,246.267496 0,550 C0,853.732504 246.267496,1100 550,1100 C853.732504,1100 1100,853.732504 1100,550 C1100,246.267496 853.732504,0 550,0 Z M498.911353,285.458787 C498.911353,256.22084 522.550544,232.581649 551.788491,232.581649 C581.026439,232.581649 604.66563,256.22084 604.66563,285.458787 L604.66563,588.724728 C604.66563,617.962675 581.026439,641.601866 551.788491,641.601866 C522.550544,641.601866 498.911353,617.962675 498.911353,588.724728 L498.911353,285.458787 Z M550,867.418351 C507.931571,867.418351 473.794712,833.281493 473.794712,791.213064 C473.794712,749.144635 507.931571,715.007776 550,715.007776 C592.068429,715.007776 626.205288,749.144635 626.205288,791.213064 C626.205288,833.359253 592.068429,867.418351 550,867.418351 Z" id="Shape"></path>
        </g>
    </g>
</svg>