<?xml version="1.0" encoding="UTF-8"?>
<svg width="1500px" height="1500px" viewBox="0 0 1500 1500" version="1.1" xmlns="http://www.w3.org/2000/svg" xmlns:xlink="http://www.w3.org/1999/xlink">
    <!-- Generator: Sketch 51.3 (57544) - http://www.bohemiancoding.com/sketch -->
    <title>retro</title>
    <desc>Created with Sketch.</desc>
    <defs></defs>
    <g id="Page-1" stroke="none" stroke-width="1" fill="none" fill-rule="evenodd">
        <g id="coffeemachines" fill="#000000" fill-rule="nonzero">
            <g id="retro" transform="translate(103.000000, 81.000000)">
                <path d="M1231.57,609.24 L1117.57,612.88 L1117.57,193 C1117.48732,122.483137 1060.33688,65.3416375 989.82,65.27 L956.11,65.27 C942.36,27.35 906.29,0 863.66,0 L355.12,0 C312.49,0 276.43,27.32 262.66,65.26 L215.46,65.26 C144.93532,65.3261367 87.7771778,122.475332 87.7,193 L87.7,1140.75 C87.8562509,1151.33623 89.3856899,1161.85743 92.25,1172.05 L83,1172.05 C37.1603658,1172.05 0,1209.21037 0,1255.05 C0,1300.88963 37.1603658,1338.05 83,1338.05 L1108.8,1338.05 C1154.61451,1337.9894 1191.7394,1300.86451 1191.8,1255.05 C1191.8,1210.68 1156.73,1174.64 1112.9,1172.45 C1115.61,1162.26 1117.57,1151.78 1117.57,1140.74 L1117.57,726.24 L1231.57,729.89 C1253.61212,730.64096 1274.309,719.310148 1285.55256,700.336451 C1296.79612,681.362755 1296.79612,657.767245 1285.55256,638.793549 C1274.309,619.819852 1253.61212,608.48904 1231.57,609.24 Z M962.36,516.46 L962.36,98.72 C962.36,97.9 962.14,97.15 962.12,96.34 L989.84,96.34 C1043.20359,96.4005847 1086.45286,139.636433 1086.53,193 L1086.53,613.88 L848.34,621.5 C840.68296,621.839371 833.394359,624.883079 827.77,630.09 C825.958025,624.831888 823.51698,619.812133 820.5,615.14 L863.67,615.14 C918.145953,615.079389 962.293869,570.935946 962.36,516.46 Z M801,653.36 L801,685.76 C800.983497,706.856919 783.89689,723.961418 762.8,724 L455.69,724 C434.585293,723.977953 417.482047,706.874707 417.46,685.77 L417.46,653.37 C417.482047,632.265293 434.585293,615.162047 455.69,615.14 L762.8,615.14 C783.889092,615.178556 800.972482,632.270891 801,653.36 Z M287.47,98.72 C287.508584,61.379453 317.769453,31.1185835 355.11,31.08 L863.66,31.08 C901.000547,31.1185835 931.261416,61.379453 931.3,98.72 L931.3,516.46 C931.255906,553.796642 900.996648,584.051427 863.66,584.09 L355.12,584.09 C317.783352,584.051427 287.524094,553.796642 287.48,516.46 L287.47,98.72 Z M118.76,1140.77 L118.76,193 C118.826129,139.628622 162.078616,96.3806084 215.45,96.32 L256.66,96.32 C256.66,97.13 256.42,97.89 256.42,98.7 L256.42,516.46 C256.486131,570.935946 300.634047,615.079389 355.11,615.14 L398,615.14 C390.441703,626.457084 386.408414,639.761023 386.41,653.37 L386.41,685.77 C386.481618,723.994484 417.465474,754.955979 455.69,755 L584.08,755 L584.08,774.74 L386.9,774.74 C374.412227,774.778433 364.298433,784.892227 364.26,797.38 L364.26,955.38 C364.26,1036.84 414.75,1107.01 485.95,1136.38 L330.3,1136.38 C320.014841,1136.38552 311.679999,1144.72484 311.68,1155.01 C311.68,1161.39 313.99,1167.01 317.17,1172.01 L124.48,1172.01 C120.775584,1162.00732 118.840046,1151.4363 118.76,1140.77 Z M1160.76,1255.08 C1160.76,1283.79881 1137.47881,1307.08 1108.76,1307.08 L83,1307.08 C55.0423383,1306.05372 32.9075573,1283.09149 32.9075573,1255.115 C32.9075573,1227.13851 55.0423383,1204.17628 83,1203.15 L1108.8,1203.15 C1137.47977,1203.17204 1160.72692,1226.41024 1160.76,1255.09 L1160.76,1255.08 Z M1086.52,1140.77 C1086.44692,1151.45648 1084.51127,1162.04839 1080.8,1172.07 L860.13,1172.07 C863.3,1167.07 865.62,1161.44 865.62,1155.07 C865.620001,1144.78484 857.285159,1136.44552 847,1136.44 L706.6,1136.44 C752.702648,1117.35036 789.86257,1081.50532 810.6,1036.12 C859.37,1015.24 930.76,972.38 930.76,899.91 C930.76,811.71 894.29,800.81 880.51,799.43 L828.3,799.43 L828.3,797.43 C828.261567,784.942227 818.147773,774.828433 805.66,774.79 L616.52,774.79 L616.52,755 L762.8,755 C792.004161,754.923564 818.014689,736.516114 827.8,709 C833.421954,714.212047 840.711284,717.259603 848.37,717.6 L1086.56,725.21 L1086.52,1140.77 Z M828.3,955.48 L828.3,846.65 L873.87,846.57 C876.77,850.77 883.48,864.36 883.48,899.91 C883.48,931.24 857.27,956.44 827.32,974.69 C827.94,968.37 828.3,962 828.3,955.48 Z" id="Shape"></path>
                <path d="M614.14,455.31 C666.04,455.31 708.25,398.2 708.25,327.97 C708.25,257.74 666,200.63 614.14,200.63 C562.28,200.63 520,257.74 520,328 C520,398.26 562.24,455.31 614.14,455.31 Z M603.14,245.54 C603.63853,243.463731 604.956305,241.677692 606.793085,240.588811 C608.629865,239.49993 610.829201,239.200954 612.89,239.76 C614.950814,240.278827 616.720514,241.59629 617.808633,243.421704 C618.896752,245.247117 619.213864,247.43046 618.69,249.49 C618.57,249.91 608.06,292.69 622.48,324.89 C637.38,358.14 642.48,392.66 635.48,412.89 C634.369225,416.122233 631.327769,418.291832 627.91,418.29 C627.017551,418.288686 626.131742,418.136544 625.29,417.84 C623.271419,417.157661 621.608451,415.698234 620.669828,413.78532 C619.731204,411.872406 619.59449,409.664081 620.29,407.65 C625,394 623,365.24 607.84,331.45 C591.1,294.09 602.64,247.51 603.12,245.54 L603.14,245.54 Z" id="Shape"></path>
            </g>
        </g>
    </g>
</svg>