<?xml version="1.0" encoding="UTF-8"?>
<svg width="1500px" height="1500px" viewBox="0 0 1500 1500" version="1.1" xmlns="http://www.w3.org/2000/svg" xmlns:xlink="http://www.w3.org/1999/xlink">
    <!-- Generator: Sketch 51.3 (57544) - http://www.bohemiancoding.com/sketch -->
    <title>standard</title>
    <desc>Created with Sketch.</desc>
    <defs></defs>
    <g id="Page-1" stroke="none" stroke-width="1" fill="none" fill-rule="evenodd">
        <g id="kettles" fill="#000000" fill-rule="nonzero">
            <g id="standard" transform="translate(250.000000, 188.000000)">
                <path d="M816.476346,651.39478 L821.639478,700.50571 L842.030995,655.530179 C874.045677,584.942904 923.14845,448.597064 892.153344,328.539967 C872.022838,250.619902 819.738989,194.420881 736.615008,161.500816 L707.430669,149.934747 L719.249592,179.021207 C772.324633,309.730832 801.435563,508.042414 816.476346,651.39478 Z M866.182708,335.236542 C889.290375,424.698206 864.03752,525.4323 837.365416,596.696574 C822.185971,469.934747 796.900489,315.660685 755.766721,199.681892 C813.670473,230.065253 850.734095,275.546493 866.182708,335.236542 Z" id="Shape"></path>
                <path d="M987.495922,303.939641 C962.911909,208.760196 890.179445,86.6639478 683.523654,43.817292 C648.368679,14.0538336 544.249592,0.685154976 454.192496,0.685154976 C369.404568,0.685154976 293.107667,11.3784666 250.530179,29.1272431 C219.877651,40.6443719 191.606852,69.5840131 166.39478,115.195759 C136.574225,117.642741 85.0652529,122.895595 31.9004894,132.805873 C12.8357878,136.291806 -0.532102341,153.59267 0.905383361,172.920065 C4.77977162,224.445351 19.1680261,353.181077 69.2659054,446.982055 C39.9021207,619.755302 21.141925,841.761827 18.9885808,1042.03915 C18.3115824,1103.71941 65.6769984,1121.76998 91.3295269,1122.71615 L442.610114,1122.71615 L794.388254,1122.71615 C819.54323,1121.7863 866.916803,1103.73573 866.231648,1042.05546 C865.522023,974.991843 862.724307,900.774878 858.075041,827.088091 C951.386623,692.275693 1031.03589,472.610114 987.495922,303.939641 Z M95.0570962,438.205546 C45.6769984,348.662316 31.4926591,221.443719 27.7324633,170.905383 C27.3194968,165.24051 31.2583715,160.181276 36.8515498,159.192496 C93.4176183,148.646003 148.181077,143.499184 175.766721,141.362153 L183.156607,140.783034 L186.615008,134.257749 C209.54323,90.8564437 234.225122,63.9314845 260.424144,54.0701468 C299.714519,37.6835237 373.964111,27.5203915 454.192496,27.5203915 C568.270799,27.5203915 649.339315,47.1696574 667.707993,65.6688418 L670.562806,68.5644372 L674.5677,69.3800979 C870.391517,108.800979 938.7031,222.340946 961.492659,310.652529 C1003.33605,472.71615 924.445351,685.995106 833.433931,815.546493 L830.734095,819.412724 L831.019576,824.119086 C834.559543,879.632953 837.071778,935.530179 838.425775,988.491028 L46.8107667,988.491028 C51.4192496,802.520392 69.54323,603.792822 96.5660685,446.965742 L97.3817292,442.324633 L95.0570962,438.205546 Z M793.890701,1095.90538 L91.9331158,1095.90538 C87.1615008,1095.66884 45.2936378,1092.18597 45.8482871,1042.34095 C45.9407287,1033.38499 46.0685155,1024.38554 46.2316476,1015.34258 L839.013051,1015.34258 C839.18162,1024.45623 839.312126,1033.45568 839.404568,1042.34095 C839.95106,1092.16966 798.083197,1095.68515 793.890701,1095.90538 Z" id="Shape"></path>
                <path d="M432.185971,845.358891 C495.856444,845.358891 547.650897,793.572594 547.626427,729.257749 L524.959217,253.670473 C524.959217,181.37031 490.269168,138.205546 432.177814,138.205546 C374.08646,138.205546 339.404568,181.386623 339.429038,253.042414 L316.712887,729.902121 C316.712887,793.572594 368.515498,845.358891 432.185971,845.358891 Z" id="Shape"></path>
            </g>
        </g>
    </g>
</svg>