<?xml version="1.0" encoding="UTF-8"?>
<svg width="1289px" height="1339px" viewBox="0 0 1289 1339" version="1.1" xmlns="http://www.w3.org/2000/svg" xmlns:xlink="http://www.w3.org/1999/xlink">
    <!-- Generator: Sketch 51.2 (57519) - http://www.bohemiancoding.com/sketch -->
    <title>par</title>
    <desc>Created with Sketch.</desc>
    <defs></defs>
    <g id="Page-1" stroke="none" stroke-width="1" fill="none" fill-rule="evenodd">
        <g id="par" transform="translate(6.000000, 6.000000)">
            <path d="M761.793592,1074.37653 C755.06796,1075.03935 747.730686,1075.63637 740.01083,1076.16273 C725.031679,1077.22274 708.90722,1077.94892 692.780325,1078.48014 C674.131318,1079.07717 655.331227,1079.34278 637.985921,1079.47193 C620.63574,1079.33791 601.760108,1079.07473 583.111101,1078.48014 C566.984206,1077.94892 550.859747,1077.22274 535.9537,1076.16273 C528.309386,1075.6315 521.130505,1075.10271 514.631498,1074.44233 C508.286011,1073.78195 502.479061,1073.11913 497.281318,1072.38809 L482,1070.1389 L491.934928,1080.46616 C492.778069,1081.26056 493.462816,1081.98917 494.076895,1082.64955 L494.076895,1082.71534 C494.839621,1083.57798 495.451264,1084.30415 495.987365,1084.89874 C498.433935,1087.87897 500.649007,1091.12238 502.408394,1094.36579 C503.936282,1097.21444 505.084025,1100.12644 505.695668,1102.90686 L505.771209,1103.23827 L505.846751,1103.50144 C507.908303,1109.25966 509.745668,1116.7407 511.195578,1125.48159 C512.879422,1135.14847 514.178249,1146.2019 515.170036,1157.98881 C516.16426,1170.8991 516.853881,1184.40397 517.231588,1197.6481 C517.616606,1212.41038 517.689711,1226.97527 517.385108,1240.01958 L517.309567,1244.58863 L517.921209,1244.65442 L553.459838,1283.11968 L553.152798,1283.11968 L565.229693,1293.64675 L596.408845,1320.85632 L596.484386,1320.92211 L597.247112,1321.5167 C602.902978,1326.41715 608.634386,1331.31516 638.059025,1332.37518 L638.517148,1332.37518 C667.93935,1331.31516 673.670758,1326.41715 679.329061,1321.5167 L680.094224,1320.92211 L680.169765,1320.85632 L711.351354,1293.64675 L723.428249,1283.11968 L723.274729,1283.11968 L759.727166,1244.58619 C759.573646,1244.58619 759.422563,1244.58619 759.269043,1244.58619 L759.193502,1240.01715 C758.888899,1226.97527 758.888899,1212.41038 759.347022,1197.64567 C759.651625,1184.40397 760.338809,1170.8991 761.408574,1157.98637 C762.402798,1146.2019 763.699188,1135.14847 765.383032,1125.47915 C766.835379,1116.7407 768.594765,1109.25966 770.731859,1103.49901 L770.807401,1103.23583 L770.882942,1102.90442 C771.494585,1100.12157 772.639892,1097.20957 774.094675,1094.36336 C775.851625,1091.11751 778.142238,1087.8741 780.588809,1084.8963 C781.122473,1084.29928 781.734116,1083.50731 782.574819,1082.64468 C783.493502,1081.58466 784.178249,1080.79025 784.716787,1080.32726 L794.727256,1070 L779.372834,1072.2565 C774.097112,1073.0509 768.212184,1073.71372 761.793592,1074.37653 Z M672.069765,1313.84314 L671.304603,1314.50352 C667.176625,1318.01255 663.126625,1321.58736 638.288087,1322.51579 C613.449549,1321.5898 609.399549,1318.01255 605.27157,1314.50352 L604.508845,1313.84314 L584.407491,1296.36381 C587.538809,1296.49783 590.901625,1296.62699 594.495939,1296.76101 C600.841426,1296.95839 607.871661,1297.09242 615.360018,1297.15821 C622.694856,1297.22401 630.414711,1297.29224 638.288087,1297.29224 C646.161462,1297.29224 653.881318,1297.22644 661.216155,1297.15821 C668.704513,1297.09242 675.737184,1296.95839 682.080235,1296.76101 C685.672112,1296.62699 689.034928,1296.49783 692.090704,1296.36381 L672.069765,1313.84314 Z M761.335469,1091.59025 C759.57852,1094.96769 758.201715,1098.41092 757.361011,1101.91751 C755.219043,1108.07292 753.311011,1115.82202 751.783123,1124.75785 C750.179693,1134.49052 748.880866,1145.61218 747.884206,1157.3991 C746.81444,1169.84639 746.202798,1183.28303 745.820217,1196.72699 C745.437635,1209.63727 745.362094,1222.41354 745.591155,1234.19801 L740.851534,1234.52942 C737.030596,1234.7926 733.516697,1235.05821 730.151444,1235.25803 C725.489801,1235.52365 720.979242,1235.78926 716.627076,1235.98664 C711.736372,1236.24982 706.996751,1236.44964 702.413087,1236.64702 C697.06426,1236.8444 691.944495,1236.97843 686.975812,1237.17825 C681.549007,1237.30984 676.200181,1237.44143 671.077978,1237.57545 C665.422112,1237.70704 659.919765,1237.77283 654.648917,1237.83863 C649.071029,1237.90442 643.568682,1237.97265 638.29296,1237.97265 C633.019675,1237.97265 627.517329,1237.90686 621.93944,1237.83863 C616.666155,1237.77283 611.163809,1237.70704 605.507942,1237.57545 C600.310199,1237.44143 595.03935,1237.30984 589.612545,1237.17825 C584.6463,1236.97843 579.448556,1236.8444 574.175271,1236.64702 C569.586733,1236.4472 564.851986,1236.24982 559.961282,1235.98664 C555.604242,1235.78926 551.096119,1235.52365 546.356498,1235.25803 C543.069224,1235.05821 539.477347,1234.79504 535.731949,1234.52942 L530.994765,1234.19801 C531.101986,1226.02978 531.136101,1217.3815 531.016697,1208.54558 C543.78565,1209.64458 557.777888,1210.50478 572.179513,1211.15785 C598.51426,1212.3519 625.933394,1212.84901 649.621751,1212.84901 L649.621751,1205.20957 C625.7287,1205.20957 598.365614,1204.71977 572.508484,1203.54765 C557.963087,1202.88727 543.800271,1202.00758 530.877798,1200.87446 C530.843682,1199.49278 530.80713,1198.10866 530.765704,1196.72211 C530.585379,1190.41318 530.33926,1184.10424 530.02491,1177.89765 C543.05704,1179.03809 557.402617,1179.92753 572.179513,1180.59765 C598.51426,1181.7917 625.933394,1182.28881 649.621751,1182.28881 L649.621751,1174.64937 C625.7287,1174.64937 598.365614,1174.15957 572.508484,1172.98745 C557.480596,1172.30514 542.864531,1171.3889 529.598466,1170.20217 C529.335289,1165.84756 529.03556,1161.56606 528.704152,1157.39666 C528.409296,1153.912 528.090072,1150.48583 527.741606,1147.1352 C541.373195,1148.3731 556.535108,1149.32834 572.179513,1150.03989 C598.51426,1151.23394 625.933394,1151.73105 649.621751,1151.73105 L649.621751,1144.09161 C625.7287,1144.09161 598.365614,1143.60181 572.508484,1142.42969 C556.442509,1141.70108 540.841968,1140.70442 526.86435,1139.39341 C526.233213,1134.25659 525.524097,1129.35126 524.729693,1124.75542 C524.213087,1121.74106 523.664801,1118.86318 523.077527,1116.13394 C537.876354,1117.59116 554.726986,1118.68773 572.179513,1119.47969 C598.51426,1120.67374 625.933394,1121.17329 649.621751,1121.17329 L649.621751,1113.53384 C625.7287,1113.53384 598.365614,1113.04404 572.508484,1111.87193 C554.21769,1111.04097 536.533664,1109.86399 521.154874,1108.27274 C520.523736,1106.00162 519.856047,1103.87915 519.151805,1101.91751 C518.389079,1098.40848 517.012274,1094.96769 515.252888,1091.59025 C514.107581,1089.47265 512.730776,1087.35262 511.353971,1085.30081 L515.711011,1085.76381 C522.512184,1086.42419 529.620397,1087.02365 537.033213,1087.48421 C551.400722,1088.47599 567.374097,1089.2046 583.805596,1089.73583 C602.072022,1090.33285 620.643051,1090.66182 637.912816,1090.72762 L637.990794,1090.72762 C655.26056,1090.66182 673.909567,1090.33042 692.175993,1089.73583 C708.529513,1089.2046 724.580866,1088.47843 738.948375,1087.48421 C746.512274,1087.02121 753.851986,1086.42419 760.650722,1085.69801 L765.312365,1085.23502 C763.857581,1087.28682 762.480776,1089.40442 761.335469,1091.59025 Z" id="base" fill="#070504"></path>
            <g id="case" stroke="#1D1D1B" stroke-linecap="round" stroke-linejoin="round">
                <path d="M637.960747,0.847053509 C863.921494,0.847053509 1257.06274,99.952314 1269.29796,155.010792 C1270.52148,173.363618 1285,213 1269.29796,273.6924 C1253.59592,334.384801 967.088094,726.395442 836.171268,851.194659 C831.277181,905.029616 826.383094,983.335007 826.383094,983.335007 C826.383094,983.335007 843.171268,1022.4877 794.230399,1061.6404 C789.931679,1065.32501 714.912662,1071.41219 640.164374,1071.64904 C565.986198,1071.88408 492.074637,1066.29691 487.808704,1062.6404 C438.867835,1023.4877 455.656008,983.335007 455.656008,983.335007 C455.656008,983.335007 447.091356,905.029616 442.197269,851.194659 C310.056922,726.395442 23,341 7.84705351,274.915922 C-7.30589298,208.831844 6.62353177,173.363618 7.84705351,156.234314 C18.8587491,101.175836 412,0.847053509 637.960747,0.847053509 Z" id="Shape" stroke-width="12"></path>
                <path d="M637.960747,0.847053509 C863.921494,0.847053509 1257.06274,99.952314 1269.29796,155.010792 C1270.52148,173.363618 1285,213 1269.29796,273.6924 C1253.59592,334.384801 23,341 7.84705351,274.915922 C-7.30589298,208.831844 6.62353177,173.363618 7.84705351,156.234314 C18.8587491,101.175836 412,0.847053509 637.960747,0.847053509 Z" id="Shape" stroke-width="12"></path>
                <path d="M442,850.865224 C568.732899,893.688485 708.267101,893.688485 835,850.865224" id="Shape" stroke-width="10"></path>
            </g>
            <path d="M637.960747,0.847053509 C863.921494,0.847053509 1257.06274,99.952314 1269.29796,155.010792 C1269.91095,164.205549 954.259122,175.864521 637.960747,176 C322.924434,176.134938 7.23651557,164.781845 7.84705351,156.234314 C18.8587491,101.175836 412,0.847053509 637.960747,0.847053509 Z" id="light" fill="#000000"></path>
        </g>
    </g>
</svg>