<?xml version="1.0" encoding="UTF-8"?>
<svg width="498px" height="889px" viewBox="0 0 498 889" version="1.1" xmlns="http://www.w3.org/2000/svg" xmlns:xlink="http://www.w3.org/1999/xlink">
    <!-- Generator: Sketch 53.1 (72631) - https://sketchapp.com -->
    <title>alarm_contact-door_front</title>
    <desc>Created with Sketch.</desc>
    <g id="Page-1" stroke="none" stroke-width="1" fill="none" fill-rule="evenodd">
        <g id="alarm_contact-door_front" transform="translate(6.000000, 6.000000)">
            <path d="M0,0 L486,0 L486,877 L1.28198365,877 C0.573963628,877 0,876.405262 0,875.671615 L0,0 Z" id="Path" stroke="#000000" stroke-width="12"></path>
            <g id="handle" transform="translate(71.000000, 405.000000)" fill="#000000" fill-rule="nonzero">
                <path d="M71.0069187,27.0898301 L40.5227497,26.9392396 L40.5227497,8.8321494 C40.5190939,3.95547589 37.1995316,0.0034813969 33.1039968,0 L7.41875278,0 C3.32321797,0.0034813969 0.00365568483,3.95547589 0,8.8321494 L0,97.1678506 C0.00365568483,102.044524 3.32321797,105.996518 7.41875278,106 L33.1039968,106 C37.1995316,105.996518 40.5190939,102.044524 40.5227497,97.1678506 L40.5227497,36.6593397 L71.0069187,36.7531013 C73.2108109,36.7504926 74.9970771,34.6242387 75,32 C75,29.2469583 73.2460668,27.0898301 71.0069187,27.0898301 Z M38.4453398,97.1678506 C38.4416868,100.678067 36.0526145,103.522453 33.1046597,103.526367 L7.41875278,103.526367 C4.47079798,103.522453 2.08172568,100.678067 2.07807273,97.1678506 L2.07807273,8.8321494 C2.08172568,5.3219331 4.47079798,2.47754726 7.41875278,2.47363326 L33.1039968,2.47363326 C36.0519516,2.47754726 38.441024,5.3219331 38.4446769,8.8321494 L38.4446769,26.9384503 L20.1324481,26.9329253 C15.6912719,26.9471325 12.0839763,31.324532 12.0839763,36.6917006 C12.0839763,42.0752205 15.7491287,46.4394257 20.2703235,46.4394257 C24.7915182,46.4394257 28.4566706,42.0752205 28.4566706,36.6917006 L38.4466655,36.665654 L38.4453398,97.1678506 Z M69.0863171,34.2826252 L26.3766093,34.1344026 L26.3766093,36.6885434 C26.3766093,40.7052595 23.64199,43.9614514 20.2686662,43.9614514 C16.8953426,43.9614514 14.1607233,40.7052595 14.1607233,36.6885434 C14.1607233,32.7491995 16.897681,29.4144515 20.1344367,29.4034013 L69.0849914,29.5634633 C70.1594908,29.5634633 71,30.6337399 71,32 C71.0003667,33.2592993 70.1439025,34.280883 69.0863171,34.2826252 Z" id="Shape"></path>
                <path d="M25.5999965,72.6399139 C25.603166,69.5520802 23.3896381,66.9047771 20.3434404,66.3532538 C17.2972428,65.8017304 14.2920211,67.504163 13.206816,70.3960908 C12.1216109,73.2880187 13.267658,76.5400405 15.9283814,78.1188016 L14.533841,91.0458975 C14.4870002,91.4802881 14.6274209,91.9140706 14.9201053,92.2391305 C15.2127898,92.5641902 15.6301692,92.7499092 16.0682175,92.75 L22.7581907,92.75 C23.1963722,92.7501257 23.6139576,92.5645004 23.9068118,92.2394139 C24.1996658,91.9143274 24.3401865,91.48042 24.2933313,91.0458975 L22.8712822,77.8612046 C24.5808842,76.6693813 25.5995229,74.7202552 25.5999965,72.6399139 Z" id="Shape"></path>
            </g>
            <path d="M448,33 L448,877 L38.2815716,877 C37.5737792,877 37,876.405114 37,875.671285 L38.2815716,33 L448,33 Z" id="Shape" stroke="#000000" stroke-width="8"></path>
            <path d="M243.323308,125 C282.356967,125 314,151.438764 314,184.052631 L314,312 L173,312 L173,184.052631 C173,151.438764 204.643033,125 243.676692,125 L243.323308,125 Z M243.5,125 L243.5,312 L243.5,125 Z M173,211.821429 L314,211.821429 L173,211.821429 Z" id="Shape" stroke="#000000" stroke-width="4"></path>
        </g>
    </g>
</svg>