<?xml version="1.0" encoding="UTF-8"?>
<svg width="512px" height="889px" viewBox="0 0 512 889" version="1.1" xmlns="http://www.w3.org/2000/svg" xmlns:xlink="http://www.w3.org/1999/xlink">
    <!-- Generator: Sketch 53.1 (72631) - https://sketchapp.com -->
    <title>alarm_contact-door</title>
    <desc>Created with Sketch.</desc>
    <g id="Page-1" stroke="none" stroke-width="1" fill="none" fill-rule="evenodd">
        <g id="alarm_contact-door" transform="translate(6.000000, 6.000000)">
            <path d="M0,0 L500,0 L500,876.470588 L1.31891322,876.470588 C0.590497559,876.470588 0,875.876212 0,875.143006 L0,0 Z" id="Path" stroke="#000000" stroke-width="12"></path>
            <path d="M464.411765,35 L464.411765,876.176471 L36.3389828,876.176471 C35.599483,876.176471 35,875.583576 35,874.8522 L36.3389828,35 L464.411765,35 Z" id="Shape" stroke="#000000" stroke-width="8"></path>
            <g id="handle" transform="translate(77.000000, 411.000000)" fill="#000000" fill-rule="nonzero">
                <path d="M71.0069187,20.0898301 L40.5227497,19.9392396 L40.5227497,8.8321494 C40.5190939,3.95547589 37.1995316,0.0034813969 33.1039968,0 L7.41875278,0 C3.32321797,0.0034813969 0.00365568483,3.95547589 -4.6629367e-15,8.8321494 L-2.13162821e-14,41 C0.00365568483,45.8766732 3.32321797,49.8286678 7.41875278,49.8321494 L33.1039968,49.8321494 C37.1995316,49.8286678 40.5190939,45.8766732 40.5227497,41 L40.5227497,29.6593397 L71.0069187,29.7531013 C73.2108109,29.7504926 74.9970771,27.6242387 75,25 C75,22.2469583 73.2460668,20.0898301 71.0069187,20.0898301 Z M38.4446769,41.6414839 C38.4410239,45.1517005 36.0519516,47.9960858 33.1039968,48 L7.41808987,48 C4.47013507,47.9960858 2.08106277,45.1517005 2.07740982,41.6414839 L2.07807273,8.35851613 C2.08172568,4.84829983 4.47079798,2.003914 7.41875278,2 L33.1039968,2 C36.0519516,2.003914 38.441024,4.84829983 38.4446769,8.35851613 L38.4446769,19.9384503 L20.1324481,19.9329253 C15.6912719,19.9471325 12.0839763,24.324532 12.0839763,29.6917006 C12.0839763,35.0752205 15.7491287,39.4394257 20.2703235,39.4394257 C24.7915182,39.4394257 28.4566706,35.0752205 28.4566706,29.6917006 L38.4466655,29.665654 L38.4446769,41.6414839 Z M69.0863171,27.2826252 L26.3766093,27.1344026 L26.3766093,29.6885434 C26.3766093,33.7052595 23.64199,36.9614514 20.2686662,36.9614514 C16.8953426,36.9614514 14.1607233,33.7052595 14.1607233,29.6885434 C14.1607233,25.7491995 16.897681,22.4144515 20.1344367,22.4034013 L69.0849914,22.5634633 C70.1594908,22.5634633 71,23.6337399 71,25 C71.0003667,26.2592993 70.1439025,27.280883 69.0863171,27.2826252 Z" id="Shape"></path>
            </g>
        </g>
    </g>
</svg>