<?xml version="1.0" encoding="UTF-8"?>
<svg width="2000px" height="2000px" viewBox="0 0 2000 2000" version="1.1" xmlns="http://www.w3.org/2000/svg" xmlns:xlink="http://www.w3.org/1999/xlink">
    <!-- Generator: Sketch 51.3 (57544) - http://www.bohemiancoding.com/sketch -->
    <title>door</title>
    <desc>Created with Sketch.</desc>
    <defs></defs>
    <g id="Page-1" stroke="none" stroke-width="1" fill="none" fill-rule="evenodd">
        <g id="garagedoors" transform="translate(-2500.000000, -33.000000)" fill-rule="nonzero">
            <g id="door" transform="translate(2750.000000, 250.000000)">
                <polygon id="Shape" fill="#000000" points="0 0 0 1500 1500 1500 1500 0"></polygon>
                <path d="M1474.98226,2031.6655 L25,2031.6655 L25,1111.51396 C25.019544,1067.44473 51.2649632,1031.71873 83.6591393,1031.6655 L1416.34086,1031.6655 C1448.73504,1031.71873 1474.98046,1067.44473 1475,1111.51396 L1474.98226,2031.6655 Z M1417.83084,1438.92741 L82.1691581,1438.92741 C75.5762108,1438.92741 70.231571,1444.38057 70.231571,1451.10738 C70.231571,1457.83419 75.5762108,1463.28735 82.1691581,1463.28735 L1417.83084,1463.28735 C1424.42379,1463.28735 1429.76843,1457.83419 1429.76843,1451.10738 C1429.76843,1444.38057 1424.42379,1438.92741 1417.83084,1438.92741 Z M1417.83084,1212.92741 L82.1691581,1212.92741 C75.5762108,1212.92741 70.231571,1218.38057 70.231571,1225.10738 C70.231571,1231.83419 75.5762108,1237.28735 82.1691581,1237.28735 L1417.83084,1237.28735 C1424.42379,1237.28735 1429.76843,1231.83419 1429.76843,1225.10738 C1429.76843,1218.38057 1424.42379,1212.92741 1417.83084,1212.92741 Z M766.691337,1 L766.691337,1.19907821 L766.691337,1.01809802 L766.691337,1 Z M1417.83084,1329.28962 L82.1691581,1329.28962 C75.5762108,1329.28962 70.231571,1334.74277 70.231571,1341.46958 C70.231571,1348.19639 75.5762108,1353.64955 82.1691581,1353.64955 L1417.83084,1353.64955 C1424.42379,1353.64955 1429.76843,1348.19639 1429.76843,1341.46958 C1429.76843,1334.74277 1424.42379,1329.28962 1417.83084,1329.28962 Z M1417.83084,1548.6919 L82.1691581,1548.6919 C75.5762108,1548.6919 70.231571,1554.14506 70.231571,1560.87187 C70.231571,1567.59868 75.5762108,1573.05183 82.1691581,1573.05183 L1417.83084,1573.05183 C1424.42379,1573.05183 1429.76843,1567.59868 1429.76843,1560.87187 C1429.76843,1554.14506 1424.42379,1548.6919 1417.83084,1548.6919 Z M1417.83084,1658.38399 L82.1691581,1658.38399 C75.5762108,1658.38399 70.231571,1663.83715 70.231571,1670.56396 C70.231571,1677.29077 75.5762108,1682.74393 82.1691581,1682.74393 L1417.83084,1682.74393 C1424.42379,1682.74393 1429.76843,1677.29077 1429.76843,1670.56396 C1429.76843,1663.83715 1424.42379,1658.38399 1417.83084,1658.38399 Z M1417.83084,1768.07608 L82.1691581,1768.07608 C75.5762116,1768.07609 70.231573,1773.52924 70.231573,1780.25605 C70.231573,1786.98286 75.5762116,1792.43602 82.1691581,1792.43602 L1417.83084,1792.43602 C1424.42379,1792.43602 1429.76843,1786.98286 1429.76843,1780.25605 C1429.76843,1773.52924 1424.42379,1768.07608 1417.83084,1768.07608 Z M1417.83084,1877.78627 L82.1691581,1877.78627 C75.5762108,1877.78627 70.231571,1883.23943 70.231571,1889.96624 C70.231571,1896.69305 75.5762108,1902.14621 82.1691581,1902.14621 L1417.83084,1902.14621 C1424.42379,1902.14621 1429.76843,1896.69305 1429.76843,1889.96624 C1429.76843,1883.23943 1424.42379,1877.78627 1417.83084,1877.78627 Z M1417.83084,1985.16182 L82.1691581,1985.16182 C75.5762108,1985.16182 70.231571,1990.61498 70.231571,1997.34179 C70.231571,2004.0686 75.5762108,2009.52175 82.1691581,2009.52175 L1417.83084,2009.52175 C1424.42379,2009.52175 1429.76843,2004.0686 1429.76843,1997.34179 C1429.76843,1990.61498 1424.42379,1985.16182 1417.83084,1985.16182 Z" id="Path" fill="#FFFFFF" transform="translate(750.000000, 1016.332750) scale(1, -1) translate(-750.000000, -1016.332750) "></path>
            </g>
        </g>
    </g>
</svg>