<?xml version="1.0" encoding="UTF-8"?>
<svg width="98px" height="93px" viewBox="0 0 98 93" version="1.1" xmlns="http://www.w3.org/2000/svg" xmlns:xlink="http://www.w3.org/1999/xlink">
    <!-- Generator: Sketch 51.2 (57519) - http://www.bohemiancoding.com/sketch -->
    <title>Group</title>
    <desc>Created with Sketch.</desc>
    <defs></defs>
    <g id="Page-1" stroke="none" stroke-width="1" fill="none" fill-rule="evenodd">
        <g id="Group" transform="translate(-1.000000, 1.000000)" fill-rule="nonzero" stroke="#000000">
            <polygon id="Polygon" points="50 0 97.5528258 34.5491503 79.3892626 90.4508497 20.6107374 90.4508497 2.44717419 34.5491503"></polygon>
            <polygon id="Polygon" points="50.5 0 66.1924325 11.4012196 60.1984567 29.8487804 40.8015433 29.8487804 34.8075675 11.4012196"></polygon>
            <polygon id="Polygon" points="66.5 12 82.1924325 23.4012196 76.1984567 41.8487804 56.8015433 41.8487804 50.8075675 23.4012196"></polygon>
            <polygon id="Polygon" points="69.5 61 85.1924325 72.4012196 79.1984567 90.8487804 59.8015433 90.8487804 53.8075675 72.4012196"></polygon>
            <polygon id="Polygon" points="75.5 42 91.1924325 53.4012196 85.1984567 71.8487804 65.8015433 71.8487804 59.8075675 53.4012196"></polygon>
            <polygon id="Polygon" points="81.5 23 97.1924325 34.4012196 91.1984567 52.8487804 71.8015433 52.8487804 65.8075675 34.4012196"></polygon>
            <polygon id="Polygon" points="24.5 42 40.1924325 53.4012196 34.1984567 71.8487804 14.8015433 71.8487804 8.80756748 53.4012196"></polygon>
            <polygon id="Polygon" points="30.5 61 46.1924325 72.4012196 40.1984567 90.8487804 20.8015433 90.8487804 14.8075675 72.4012196"></polygon>
            <polygon id="Polygon" points="50.5 61 66.1924325 72.4012196 60.1984567 90.8487804 40.8015433 90.8487804 34.8075675 72.4012196"></polygon>
            <polygon id="Polygon" points="33.5 12 49.1924325 23.4012196 43.1984567 41.8487804 23.8015433 41.8487804 17.8075675 23.4012196"></polygon>
            <polygon id="Polygon" points="18.5 23 34.1924325 34.4012196 28.1984567 52.8487804 8.80154334 52.8487804 2.80756748 34.4012196"></polygon>
        </g>
    </g>
</svg>