<?xml version="1.0" encoding="UTF-8"?>
<svg width="1750px" height="1515px" viewBox="0 0 1750 1515" version="1.1" xmlns="http://www.w3.org/2000/svg" xmlns:xlink="http://www.w3.org/1999/xlink">
    <title>group</title>
    <defs></defs>
    <g id="Page-1" stroke="none" stroke-width="1" fill="none" fill-rule="evenodd">
        <g id="Group" transform="translate(6.000000, 6.000000)" fill-rule="nonzero">
            <polygon id="contain" stroke="#000000" stroke-width="12" points="1736.46651 751.5 1302.57506 1503 434.792148 1503 0.900692841 751.5 434.792148 0 1302.57506 0"></polygon>
            <polygon id="center" stroke="#000000" stroke-width="12" fill="#000000" fill-rule="nonzero" points="1157.36721 752 1013.0254 1002 724.341801 1002 580 752 724.341801 502 1013.0254 502"></polygon>
            <polygon id="htl" stroke="#000000" stroke-width="12" points="725.367206 500 581.025404 750 292.341801 750 148 500 292.341801 250 581.025404 250"></polygon>
            <polygon id="hbl" stroke="#000000" stroke-width="12" points="725.367206 1000 581.025404 1250 292.341801 1250 148 1000 292.341801 750 581.025404 750"></polygon>
            <polygon id="hb" stroke="#000000" stroke-width="12" points="1157.36721 1250 1013.0254 1500 724.341801 1500 580 1250 724.341801 1000 1013.0254 1000"></polygon>
            <polygon id="hbr" stroke="#000000" stroke-width="12" points="1590.36721 1000 1446.0254 1250 1157.3418 1250 1013 1000 1157.3418 750 1446.0254 750"></polygon>
            <polygon id="htr" stroke="#000000" stroke-width="12" points="1590.36721 500 1446.0254 750 1157.3418 750 1013 500 1157.3418 250 1446.0254 250"></polygon>
            <polygon id="ht" stroke="#000000" stroke-width="12" points="1157.36721 250 1013.0254 500 724.341801 500 580 250 724.341801 0 1013.0254 0"></polygon>
            <polygon id="sl" stroke="#000000" stroke-width="12" fill="#000000" fill-rule="nonzero" points="147.341801 1002 3 752 147.341801 502 291.683603 752"></polygon>
            <polygon id="sbl" stroke="#000000" stroke-width="12" fill="#000000" fill-rule="nonzero" points="724.025404 1500 435.341801 1500 291 1250 579.683603 1250"></polygon>
            <polygon id="sbr" stroke="#000000" stroke-width="12" fill="#000000" fill-rule="nonzero" points="1303.0254 1503 1014.3418 1503 1158.6836 1253 1447.36721 1253"></polygon>
            <polygon id="sr" stroke="#000000" stroke-width="12" fill="#000000" fill-rule="nonzero" points="1592.0254 1002 1447.6836 752 1592.0254 502 1736.36721 752"></polygon>
            <polygon id="str" fill="#000000" fill-rule="nonzero" points="1157.6836 250 1013.3418 0 1302.0254 0 1446.36721 250"></polygon>
            <polygon id="stl" stroke="#000000" stroke-width="12" fill="#000000" fill-rule="nonzero" points="291 250 435.341801 0 724.025404 0 579.683603 250"></polygon>
        </g>
    </g>
</svg>