<?xml version="1.0" encoding="UTF-8"?>
<svg width="3028px" height="3028px" viewBox="0 0 3028 3028" version="1.1" xmlns="http://www.w3.org/2000/svg" xmlns:xlink="http://www.w3.org/1999/xlink">
    <!-- Generator: Sketch 51.3 (57544) - http://www.bohemiancoding.com/sketch -->
    <title>icon</title>
    <desc>Created with Sketch.</desc>
    <defs></defs>
    <g id="Page-1" stroke="none" stroke-width="1" fill="none" fill-rule="evenodd">
        <g id="icon" transform="translate(14.000000, 16.000000)">
            <polygon id="Polygon" stroke="#000000" stroke-width="24" points="1500 0 3000 1145.89803 2427.05098 3000 572.949017 3000 0 1145.89803"></polygon>
            <polygon id="Polygon" fill="#000000" points="1500 0 2000 381.966011 1500 764 1000 381.966011"></polygon>
            <polygon id="Polygon" fill="#000000" points="500 764 691 1382 190.983006 1764 0 1145.96601"></polygon>
            <polygon id="Polygon" fill="#000000" points="1000 2382 1191.01699 3000.001 572.983006 3000.001 382 2381.96701"></polygon>
            <polygon id="Polygon" fill="#000000" points="2618 2381.96601 2427.01699 3000 1809 3000 2000 2381.96601"></polygon>
            <polygon id="Polygon" fill="#000000" points="2500 764 3000 1145.96601 2809.01699 1764 2308 1382"></polygon>
            <polygon id="Star" stroke="#979797" fill="#000000" points="1500 2000 1000 2382 1191 1764 691 1382 1309 1382 1500 764 1691 1382 2309 1382 1809 1764 2000 2382"></polygon>
        </g>
    </g>
</svg>