<?xml version="1.0" encoding="UTF-8"?>
<svg width="3000px" height="3001px" viewBox="0 0 3000 3001" version="1.1" xmlns="http://www.w3.org/2000/svg" xmlns:xlink="http://www.w3.org/1999/xlink">
    <!-- Generator: Sketch 51.3 (57544) - http://www.bohemiancoding.com/sketch -->
    <title>icon</title>
    <desc>Created with Sketch.</desc>
    <defs>
        <polygon id="path-1" points="691 1382 1191 1763.96601 1000.01699 2382 381.983006 2382 191 1763.96601"></polygon>
    </defs>
    <g id="Page-1" stroke="none" stroke-width="1" fill="none" fill-rule="evenodd">
        <g id="icon">
            <polygon id="Polygon" fill="#000000" points="1500 0 3000 1145.89803 2427.05098 3000 572.949017 3000 0 1145.89803"></polygon>
            <polygon id="Polygon" stroke="#000000" fill="#FFFFFF" fill-rule="nonzero" points="1500 2000 2000 2381.96601 1809.01699 3000 1190.98301 3000 1000 2381.96601"></polygon>
            <polygon id="Polygon" stroke="#000000" fill="#FFFFFF" fill-rule="nonzero" points="1000 382 1500 763.966011 1309.01699 1382 690.983006 1382 500 763.966011"></polygon>
            <polygon id="Polygon" stroke="#000000" fill="#FFFFFF" fill-rule="nonzero" points="2000 382 2500 763.966011 2309.01699 1382 1690.98301 1382 1500 763.966011"></polygon>
            <g id="Polygon" fill-rule="nonzero">
                <use fill="#FFFFFF" style="mix-blend-mode: difference;" xlink:href="#path-1"></use>
                <use stroke="#000000" stroke-width="1" xlink:href="#path-1"></use>
            </g>
            <polygon id="Polygon" stroke="#000000" fill="#FFFFFF" fill-rule="nonzero" points="2309 1382 2809 1763.96601 2618.01699 2382 1999.98301 2382 1809 1763.96601"></polygon>
        </g>
    </g>
</svg>