<?xml version="1.0" encoding="UTF-8"?>
<svg width="2000px" height="2000px" viewBox="0 0 2000 2000" version="1.1" xmlns="http://www.w3.org/2000/svg" xmlns:xlink="http://www.w3.org/1999/xlink">
    <!-- Generator: Sketch 51.3 (57544) - http://www.bohemiancoding.com/sketch -->
    <title>fan</title>
    <desc>Created with Sketch.</desc>
    <defs></defs>
    <g id="Page-1" stroke="none" stroke-width="1" fill="none" fill-rule="evenodd">
        <g id="fans" fill="#000000" fill-rule="nonzero">
            <g id="fan" transform="translate(472.000000, 368.000000)">
                <path d="M378.3,528.9 C378.284845,490.478524 393.04307,453.522095 419.52,425.68 C377.67,408.28 335.07,401.8 289.89,408.54 C186.89,423.92 119.12,514.83 134.44,617.72 C145.73,693.58 183.93,754.35 238.44,806.03 C247.39,814.52 258.32,821.52 269.44,827.03 C295.57,840.03 314.73,833.65 329.06,808.44 C332.49,802.44 335.32,796.01 338.29,789.72 C361.09,741.52 389.64,697.16 426.19,658.14 C429.46,654.65 432.39,650.84 435.43,647.24 C434.82,646.63 434.29,645.99 433.7,645.38 C398.630531,616.88051 378.278336,574.089469 378.3,528.9 Z" id="Shape"></path>
                <path d="M802.69,825.89 C862.69,778.18 896.27,714.72 913.79,641.69 C916.67,629.69 917.27,616.69 916.5,604.37 C914.71,575.23 899.59,561.84 870.6,562.04 C863.65,562.04 856.71,562.83 849.77,563.4 C796.62,567.75 743.93,565.21 691.87,553.06 C687.21,551.97 682.45,551.34 677.81,550.51 C677.58,551.34 677.29,552.12 677.06,552.94 C670.414458,594.191771 646.872527,630.805664 612.098854,653.971664 C577.325182,677.137663 534.468151,684.758336 493.84,675 C499.7,719.95 515.38,760.07 543.84,795.83 C608.64,877.4 721.25,890.6 802.69,825.89 Z" id="Shape"></path>
                <path d="M398,233.58 C428.34,277.43 452.49,324.33 468,375.49 C469.39,380.07 471.22,384.49 472.82,388.95 C473.65,388.72 474.47,388.59 475.3,388.38 C514.344927,373.504414 557.823817,375.580227 595.273971,394.107919 C632.724126,412.63561 660.754534,445.937547 672.62,486 C708.62,458.45 735.53,424.81 752.28,382.31 C790.48,285.39 745.61,181.31 648.85,143.1 C577.5,114.95 505.78,117.64 433.77,139 C421.95,142.51 410.42,148.47 400.1,155.31 C375.76,171.43 371.73,191.22 386.39,216.23 C389.89,222.21 394,227.85 398,233.58 Z" id="Shape"></path>
                <path d="M642,528.9 C641.983432,466.307954 591.232052,415.578957 528.640005,415.590002 C466.047958,415.601046 415.314483,466.34795 415.320004,528.939997 C415.325525,591.532045 466.067952,642.269998 528.66,642.27 C591.263094,642.258955 642.005523,591.503095 642,528.9 Z" id="Shape"></path>
                <path d="M1025.58,708.15 C1046.34104,650.670651 1056.92935,590.013771 1056.87,528.9 C1056.87,237.65 819.87,0.7 528.65,0.7 C237.43,0.7 0.45,237.7 0.45,528.9 C0.45,652.09 44.79,772.54 125.29,868.06 C205.66,963.43 316.64,1027.56 437.78,1048.66 L441.51,1049.31 L441.51,1165.6 L327.38,1165.6 C279.180582,1165.64961 240.119608,1204.71058 240.07,1252.91 L240.07,1263.3 L826.61,1263.3 L826.61,1252.9 C826.560392,1204.70058 787.499418,1165.63961 739.3,1165.59 L633.41,1165.59 L633.41,1046.32 L636.99,1045.57 C816.268927,1008.08719 963.326164,880.390847 1025.58,708.14 L1025.58,708.15 Z M739.31,1186.37 C769.919061,1186.32429 796.594596,1207.20547 803.9,1236.93 L805.28,1242.51 L261.4,1242.51 L262.78,1236.93 C270.085404,1207.20547 296.760939,1186.32429 327.37,1186.37 L462.29,1186.37 L462.29,1049.75 L467.29,1050.34 C487.643112,1052.83514 508.124773,1054.13736 528.63,1054.24 C552.77,1054.24 577.81,1052.15 607.43,1047.67 L612.6,1046.89 L612.6,1186.39 L739.31,1186.37 Z M528.65,1033.46 C250.45,1033.46 24.12,807.12 24.12,528.92 C24.12,250.72 250.46,24.37 528.65,24.37 C806.84,24.37 1033.21,250.71 1033.21,528.92 C1033.21,807.13 806.87,1033.46 528.65,1033.46 Z" id="Shape"></path>
                <path d="M528.67,66.07 C273.46,66.07 65.84,273.69 65.84,528.9 C65.84,784.11 273.46,991.74 528.67,991.74 C783.88,991.74 991.5,784.11 991.5,528.9 C991.5,273.69 783.87,66.07 528.67,66.07 Z M528.67,970.97 C284.92,970.97 86.62,772.66 86.62,528.9 C86.62,285.14 284.92,86.85 528.67,86.85 C772.42,86.85 970.72,285.15 970.72,528.9 C970.72,772.65 772.42,971 528.67,971 L528.67,970.97 Z" id="Shape"></path>
            </g>
        </g>
    </g>
</svg>