<?xml version="1.0" encoding="UTF-8"?>
<svg width="2000px" height="2000px" viewBox="0 0 2000 2000" version="1.1" xmlns="http://www.w3.org/2000/svg" xmlns:xlink="http://www.w3.org/1999/xlink">
    <!-- Generator: Sketch 51.3 (57544) - http://www.bohemiancoding.com/sketch -->
    <title>simple</title>
    <desc>Created with Sketch.</desc>
    <defs></defs>
    <g id="Page-1" stroke="none" stroke-width="1" fill="none" fill-rule="evenodd">
        <g id="fans" transform="translate(-2500.000000, 0.000000)" fill="#000000" fill-rule="nonzero">
            <g id="simple" transform="translate(2950.000000, 450.000000)">
                <path d="M371.769148,549.88121 C371.751165,504.240147 389.263621,460.339422 420.681769,427.265659 C371.021575,406.596112 320.471413,398.898488 266.859763,406.904968 C144.63754,425.174946 64.2200647,533.167387 82.399137,655.390929 C95.7961165,745.5054 141.125135,817.694384 205.807983,879.085313 C216.428263,889.170626 229.398058,897.485961 242.593312,904.031317 C273.599784,919.474082 296.335491,911.895248 313.339806,881.948164 C317.409924,874.820734 320.768069,867.182505 324.292341,859.710583 C351.347357,802.453564 385.225458,749.758099 428.596548,703.406048 C432.476807,699.260259 435.953614,694.734341 439.560949,690.457883 C438.837109,689.733261 438.208198,688.973002 437.508091,688.24838 C395.893834,654.393694 371.743441,603.562004 371.769148,549.88121 Z" id="Shape"></path>
                <path d="M875.360302,902.677106 C946.557713,846.00216 986.404531,770.617711 1007.19417,683.865011 C1010.61165,669.610151 1011.32362,654.167387 1010.40992,639.532397 C1008.28587,604.916847 990.344121,589.010799 955.943905,589.24838 C947.696872,589.24838 939.461704,590.186825 931.226537,590.863931 C868.157497,596.031317 805.634304,593.014039 743.858684,578.580994 C738.329018,577.286177 732.68069,576.537797 727.174757,575.551836 C726.901834,576.537797 726.557713,577.464363 726.28479,578.438445 C718.399033,627.441629 690.463624,670.935454 649.200366,698.45446 C607.937109,725.973466 557.081948,735.026101 508.871629,723.434125 C515.825243,776.830454 534.431499,824.489201 568.202805,866.968683 C645.096009,963.866091 778.721683,979.546436 875.360302,902.677106 Z" id="Shape"></path>
                <path d="M395.145631,199.069114 C431.147789,251.158747 459.804746,306.87149 478.209277,367.644708 C479.858684,373.085313 482.030205,378.335853 483.928803,383.633909 C484.9137,383.360691 485.886731,383.206263 486.871629,382.956803 C533.203257,365.286021 584.796331,367.75189 629.235564,389.761027 C673.674799,411.770163 706.93634,451.329699 721.016181,498.920086 C763.734628,466.193305 795.666667,426.232181 815.542611,375.74622 C860.871629,260.614471 807.627832,136.977322 692.81014,91.587473 C608.144552,58.1479482 523.039914,61.3434125 437.591154,86.7170626 C423.565264,90.8866091 409.883495,97.9665227 397.63754,106.091793 C368.755124,125.240821 363.973031,148.74946 381.368932,178.458963 C385.522114,185.562635 390.399137,192.262419 395.145631,199.069114 Z" id="Shape"></path>
                <path d="M684.681769,549.88121 C684.662109,475.527807 624.439328,415.26658 550.166133,415.2797 C475.892938,415.292819 415.691404,475.575319 415.697955,549.928722 C415.704506,624.282127 475.916664,684.553993 550.18986,684.553996 C624.476163,684.540875 684.688323,624.247737 684.681769,549.88121 Z" id="Shape"></path>
                <path d="M550.201726,0.0831533477 C247.363538,0.0831533477 0.996763754,246.715983 0.996763754,549.88121 C0.996763754,853.046436 247.363538,1099.69114 550.201726,1099.69114 C853.039914,1099.69114 1099.40669,853.046436 1099.40669,549.88121 C1099.40669,246.715983 853.028047,0.0831533477 550.201726,0.0831533477 Z M550.201726,1075.01836 C260.962244,1075.01836 25.6548004,839.444924 25.6548004,549.88121 C25.6548004,260.317495 260.962244,24.7678186 550.201726,24.7678186 C839.441208,24.7678186 1074.74865,260.329374 1074.74865,549.88121 C1074.74865,839.433045 839.441208,1075.054 550.201726,1075.054 L550.201726,1075.01836 Z" id="Shape"></path>
            </g>
        </g>
    </g>
</svg>