<?xml version="1.0" encoding="UTF-8"?>
<svg width="2000px" height="2000px" viewBox="0 0 2000 2000" version="1.1" xmlns="http://www.w3.org/2000/svg" xmlns:xlink="http://www.w3.org/1999/xlink">
    <!-- Generator: Sketch 51.3 (57544) - http://www.bohemiancoding.com/sketch -->
    <title>home</title>
    <desc>Created with Sketch.</desc>
    <defs></defs>
    <g id="Page-1" stroke="none" stroke-width="1" fill="none" fill-rule="evenodd">
        <g id="garagedoors" fill="#000000" fill-rule="nonzero">
            <g id="home" transform="translate(0.000000, 33.000000)">
                <path d="M1997.37822,884.255014 C1996.18911,879.326648 1995,874.383954 1993.62464,869.498567 C1985.97421,842.277937 1971.61891,820.014327 1949.69914,801.117479 C1879.02101,740.076409 1808.41452,678.949379 1737.87966,617.73639 L1531.89112,439.111748 C1384.55587,311.337154 1237.10124,183.677173 1089.52722,56.1318052 C1065.17192,35.0429799 1040.15759,23.5243553 1013.12321,20.8882521 C1010.51367,20.5860354 1007.94407,20.0048718 1005.45845,19.1547278 L988.681948,19.1547278 C984.011461,20.5157593 979.283668,21.7191977 974.541547,22.9226361 C963.080229,25.7879656 952.320917,28.5673352 943.223496,33.1232092 C927.363897,40.9885387 912.47851,53.1805158 901.275072,62.8366762 C673.60554,259.723018 446.060172,456.795606 218.638968,654.054441 L100.114613,756.891117 C83.7106017,771.217765 67.3209169,785.630372 50.6160458,799.627507 C24.1117479,821.876791 8.26647564,849.140401 2.20630372,882.965616 C1.7110745,885.519102 1.04579154,888.036648 0.214899713,890.501433 L2.02005731,927.106017 C3.45272206,932.722063 4.88538682,938.366762 6.50429799,943.939828 C21.3610315,996.174785 57.9942693,1021.7765 111.647564,1018.4384 C118.524355,1017.97994 125.415473,1017.23496 132.750716,1016.40401 L166.189112,1013.03725 L166.103152,1836.67622 C166.103152,1877.60745 182.52149,1905.74499 216.246418,1922.6361 C229.486616,1929.09588 243.980887,1932.57764 258.710602,1932.83668 C402.73639,1933.51003 546.805158,1933.39542 690.859599,1933.29513 L774.512894,1933.2235 L1238.95415,1933.7106 C1358.4384,1932.95129 1478.10888,1933.0659 1597.73639,1933.25215 L1732.26361,1933.36676 C1795.20057,1933.36676 1832.7937,1895.60172 1832.7937,1832.3639 L1832.67908,1013.36676 L1866.57593,1016.48997 C1875.07163,1017.34957 1883.09456,1018.2235 1891.13181,1018.48138 C1945.4298,1020.8596 1981.48997,992.077364 1994.49857,936.160458 L1998.6533,918.653295 L1997.37822,884.255014 Z M1584.97135,1589.41261 L413.839542,1589.41261 L413.839542,1043.10888 C413.855327,1016.94451 435.053411,995.73361 461.217765,995.702006 L1537.60745,995.702006 C1563.7718,995.73361 1584.96989,1016.94451 1584.98567,1043.10888 L1584.97135,1589.41261 Z M1945.24355,936.962751 C1935.75931,961.318052 1923.29513,975.530086 1890.80229,971.232092 C1868.20593,968.495855 1845.95903,963.396306 1824.42693,956.017192 C1812.10602,951.719198 1801.7765,951.805158 1795.34384,956.361032 C1789.21203,960.659026 1785.80229,969.91404 1785.80229,982.234957 L1785.67335,1839.08309 C1785.01433,1868.42407 1767.40688,1885.88825 1738.56734,1885.95989 L1623.53868,1885.95989 L1623.53868,1043.10888 C1623.4913,995.65419 1585.03349,957.196381 1537.5788,957.148997 L461.217765,957.148997 C413.763072,957.196381 375.305263,995.65419 375.25788,1043.10888 L375.25788,1886.03152 L263.997135,1886.03152 C229.7851,1886.03152 213.123209,1869.19771 213.108883,1834.59885 L212.979943,980.429799 C212.979943,963.338109 206.246418,954.025788 192.922636,952.82235 C190.057307,952.406877 185.12894,953.767908 180.444126,954.928367 L148.495702,962.005731 C133.567335,965.315186 118.653295,968.595989 103.624642,971.346705 C94.7707736,972.922636 72.5931232,973.753582 57.9083095,946.676218 C37.722063,909.512894 46.2034384,865.415473 78.9541547,836.905444 L475.644699,493.338109 C627.106017,362.325692 778.328558,231.04107 929.312321,99.4842407 C989.942693,46.4756447 1032.07736,68.2664756 1068.52436,99.6704871 C1135.82139,157.664756 1202.98949,215.792741 1270.02865,274.054441 L1915.90258,833.810888 C1949.49857,862.893983 1959.88539,899.541547 1945.24355,936.962751 Z" id="Shape"></path>
                <polygon id="Shape" points="1012.89398 1.11747851 1012.89398 1.27507163 1012.89398 1.13180516"></polygon>
                <path d="M1538.81089,1140.40115 L460.014327,1140.40115 C454.689289,1140.40115 450.372493,1144.71794 450.372493,1150.04298 C450.372493,1155.36802 454.689289,1159.68481 460.014327,1159.68481 L1538.81089,1159.68481 C1544.13593,1159.68481 1548.45272,1155.36802 1548.45272,1150.04298 C1548.45272,1144.71794 1544.13593,1140.40115 1538.81089,1140.40115 Z" id="Shape"></path>
                <path d="M1538.81089,1053.61032 L460.014327,1053.61032 C454.689289,1053.61032 450.372493,1057.92711 450.372493,1063.25215 C450.372493,1068.57719 454.689289,1072.89398 460.014327,1072.89398 L1538.81089,1072.89398 C1544.13593,1072.89398 1548.45272,1068.57719 1548.45272,1063.25215 C1548.45272,1057.92711 1544.13593,1053.61032 1538.81089,1053.61032 Z" id="Shape"></path>
                <path d="M1538.81089,1227.29226 L460.014327,1227.29226 C454.689289,1227.29226 450.372493,1231.60906 450.372493,1236.9341 C450.372493,1242.25914 454.689289,1246.57593 460.014327,1246.57593 L1538.81089,1246.57593 C1544.13593,1246.57593 1548.45272,1242.25914 1548.45272,1236.9341 C1548.45272,1231.60906 1544.13593,1227.29226 1538.81089,1227.29226 Z" id="Shape"></path>
                <path d="M1538.81089,1314.12607 L460.014327,1314.12607 C454.689289,1314.12607 450.372493,1318.44287 450.372493,1323.76791 C450.372493,1329.09295 454.689289,1333.40974 460.014327,1333.40974 L1538.81089,1333.40974 C1544.13593,1333.40974 1548.45272,1329.09295 1548.45272,1323.76791 C1548.45272,1318.44287 1544.13593,1314.12607 1538.81089,1314.12607 Z" id="Shape"></path>
                <path d="M1538.81089,1400.95989 L460.014327,1400.95989 C454.68929,1400.95989 450.372494,1405.27668 450.372494,1410.60172 C450.372494,1415.92676 454.68929,1420.24355 460.014327,1420.24355 L1538.81089,1420.24355 C1544.13593,1420.24355 1548.45272,1415.92676 1548.45272,1410.60172 C1548.45272,1405.27668 1544.13593,1400.95989 1538.81089,1400.95989 Z" id="Shape"></path>
                <path d="M1538.81089,1487.80802 L460.014327,1487.80802 C454.689289,1487.80802 450.372493,1492.12482 450.372493,1497.44986 C450.372493,1502.77489 454.689289,1507.09169 460.014327,1507.09169 L1538.81089,1507.09169 C1544.13593,1507.09169 1548.45272,1502.77489 1548.45272,1497.44986 C1548.45272,1492.12482 1544.13593,1487.80802 1538.81089,1487.80802 Z" id="Shape"></path>
            </g>
        </g>
    </g>
</svg>