<?xml version="1.0" encoding="UTF-8"?>
<svg width="1301px" height="1301px" viewBox="0 0 1301 1301" version="1.1" xmlns="http://www.w3.org/2000/svg" xmlns:xlink="http://www.w3.org/1999/xlink">
    <!-- Generator: Sketch 51.2 (57519) - http://www.bohemiancoding.com/sketch -->
    <title>socket</title>
    <desc>Created with Sketch.</desc>
    <defs></defs>
    <g id="Page-1" stroke="none" stroke-width="1" fill="none" fill-rule="evenodd">
        <g id="socket" fill="#000000" fill-rule="nonzero">
            <path d="M1129.52,1300.45 L171,1300.45 C76.74,1300.45 0,1223.75 0,1129.45 L0,171 C0,76.71 76.7,0 171,0 L1129.57,0 C1223.83,0 1300.49,76.7 1300.49,171 L1300.49,1129.5 C1300.45,1223.76 1223.78,1300.45 1129.52,1300.45 Z M171,29.82 C93.17,29.82 29.86,93.12 29.86,170.96 L29.86,1129.5 C29.86,1207.33 93.16,1270.64 171,1270.64 L1129.57,1270.64 C1207.37,1270.64 1270.68,1207.34 1270.68,1129.5 L1270.68,171 C1270.68,93.17 1207.38,29.86 1129.57,29.86 L171,29.82 Z" id="Shape"></path>
            <g id="_Group_" transform="translate(217.000000, 217.000000)">
                <path d="M432.884988,865.41 C283.008008,865.41 145.990473,789.469699 66.3558382,662.239718 C29.6904209,603.620519 7.58259072,537.078886 1.87876159,468.172279 C0.979499717,456.591383 0.37,444.750692 0.37,432.91 C0.413650124,414.830458 1.53137017,396.769478 3.71725254,378.82252 C12.0703962,311.875149 35.5211476,249.144463 73.3700809,192.319135 L73.4300317,192.259182 C154.363601,72.123624 288.723317,0.41 432.884988,0.41 C671.369238,0.41 865.37,194.447462 865.37,432.939976 C865.37,671.432491 671.369238,865.41 432.884988,865.41 Z M91.9248509,204.739371 C55.9543758,258.627009 33.7625911,318.120239 25.8490865,381.600336 C23.7793311,398.63923 22.721675,415.785864 22.6816864,432.949969 C22.6816864,444.211116 23.2911861,455.472263 24.140489,466.443638 C29.5400841,531.766185 50.5010002,594.846407 85.270313,650.409018 C160.868262,771.024199 290.761644,843.057572 432.884988,843.057572 C659.039358,843.057572 843.028338,659.062216 843.028338,432.900008 C843.028338,206.7378 659.029366,22.7224596 432.884988,22.7224596 C296.197182,22.7224596 168.731807,90.7489821 91.9248509,204.739371 Z" id="Shape"></path>
            </g>
            <g id="type_i" transform="translate(221.000000, 218.000000)">
                <path d="M432.37015,864.68037 C282.54336,864.68037 145.571709,788.768129 65.9637413,661.585162 C29.3106023,602.987624 7.21017542,536.470579 1.50825635,467.589434 C0.609295612,456.012818 0,444.176501 0,432.340185 C0.0436355071,414.267324 1.16098126,396.213017 3.34613164,378.272691 C11.6964781,311.350058 35.1393764,248.642552 72.9756351,191.838222 L73.0355658,191.778291 C153.942032,71.6871247 288.256755,0 432.37015,0 C670.774538,0 864.710335,193.965762 864.710335,432.37015 C864.710335,670.774538 670.774538,864.68037 432.37015,864.68037 Z M91.5241917,204.253868 C55.5657621,258.121594 33.3814088,317.592841 25.4705543,381.04948 C23.4014919,398.082078 22.34419,415.222376 22.3042148,432.380139 C22.3042148,443.637125 22.9135104,454.894111 23.7625289,465.861432 C29.1603159,531.15984 50.1142127,594.216754 84.8718822,649.758834 C160.444515,770.329446 290.2944,842.336201 432.37015,842.336201 C658.448788,842.336201 842.376155,658.408834 842.376155,432.330196 C842.376155,206.251559 658.438799,22.3042148 432.37015,22.3042148 C295.728118,22.3042148 168.305427,90.3056005 91.5241917,204.253868 Z" id="Shape"></path>
                <rect id="Rectangle" x="410.525404" y="579.330254" width="44.948037" height="149.82679"></rect>
                <rect id="Rectangle" transform="translate(581.313533, 349.797515) rotate(-30.000000) translate(-581.313533, -349.797515) " x="558.839514" y="274.88412" width="44.948037" height="149.82679"></rect>
                <rect id="Rectangle" transform="translate(281.659953, 349.797515) rotate(30.000000) translate(-281.659953, -349.797515) " x="259.185935" y="274.88412" width="44.948037" height="149.82679"></rect>
            </g>
        </g>
    </g>
</svg>