<?xml version="1.0" encoding="UTF-8"?>
<svg width="841px" height="1352px" viewBox="0 0 841 1352" version="1.1" xmlns="http://www.w3.org/2000/svg" xmlns:xlink="http://www.w3.org/1999/xlink">
    <!-- Generator: Sketch 51.3 (57544) - http://www.bohemiancoding.com/sketch -->
    <title>wall</title>
    <desc>Created with Sketch.</desc>
    <defs></defs>
    <g id="Page-1" stroke="none" stroke-width="1" fill="none" fill-rule="evenodd">
        <g id="wall" fill="#000000" fill-rule="nonzero">
            <path d="M707.73,0 L133.1,0 C60.1,0 0.77,59.35 0.77,132.31 L0.77,1219.06 C0.77,1292.06 60.14,1351.37 133.1,1351.37 L707.73,1351.37 C780.73,1351.37 840.06,1292.02 840.06,1219.06 L840.06,132.26 C840.06,59.3 780.69,0 707.73,0 Z M808.52,1219.1 C808.453866,1274.73574 763.36575,1319.81939 707.73,1319.88 L133.1,1319.88 C77.46425,1319.81939 32.3761344,1274.73574 32.31,1219.1 L32.31,132.26 C32.3816434,76.6281616 77.4681485,31.5506031 133.1,31.49 L707.73,31.49 C763.36575,31.5506142 808.453866,76.6342563 808.52,132.27 L808.52,1219.1 Z" id="Shape"></path>
            <g id="power" transform="translate(321.000000, 985.000000)">
                <path d="M100.001485,200 C44.8605211,200 0,155.141631 0,100.002971 C0,44.8643109 44.8590357,0 100.001485,0 C155.143935,0 200,44.8583694 200,100.002971 C200,155.147572 155.14245,200 100.001485,200 Z M100.001485,5.4661854 C47.8743947,5.4661854 5.4662666,47.8736836 5.4662666,100.002971 C5.4662666,152.132258 47.8743947,194.533815 100.001485,194.533815 C152.128576,194.533815 194.533733,152.126316 194.533733,100.002971 C194.533733,47.8796251 152.125605,5.4661854 100.001485,5.4661854 Z" id="Shape"></path>
                <path d="M100,183.386581 C54.0195101,183.386581 16.6134185,145.981491 16.6134185,100.002231 C16.6134185,54.0229712 54.0195101,16.6134185 100,16.6134185 C145.98049,16.6134185 183.386581,54.0185093 183.386581,99.9977691 C183.386581,145.977029 145.98049,183.386581 100,183.386581 Z M100,19.3544755 C55.5291396,19.3544755 19.3500869,55.5310731 19.3500869,100.002231 C19.3500869,144.473389 55.5291396,180.649986 100,180.649986 C144.47086,180.649986 180.649913,144.473389 180.649913,100.002231 C180.649913,55.5310731 144.47086,19.3544755 100,19.3544755 Z" id="Shape"></path>
                <path d="M118.355144,77.4424276 C117.016161,76.5462863 115.298408,76.4289924 113.848944,77.1347293 C112.39948,77.8404662 111.438514,79.2620157 111.328033,80.8638939 C111.217552,82.465772 111.97434,84.0046155 113.313322,84.9007567 C119.924667,89.3135894 123.889709,96.7156737 123.885364,104.63703 C123.885364,117.73874 113.171865,128.397305 100.004462,128.397305 C86.8370588,128.397305 76.1310054,117.737258 76.1310054,104.635549 C76.1291363,96.7330184 80.0767953,89.3469143 86.6628434,84.9303885 C88.7294417,83.5393463 89.2714338,80.7447333 87.8734166,78.6884456 C86.4753995,76.632158 83.6667739,76.09287 81.6001756,77.4839122 C72.5262358,83.5704621 67.0883257,93.74837 67.0926543,104.63703 C67.0926543,122.69318 81.8577761,137.380192 99.999995,137.380192 C118.142214,137.380192 132.907336,122.688735 132.907336,104.63703 C132.916874,93.7249716 127.459347,83.5261444 118.355144,77.4424276 Z" id="Shape"></path>
                <path d="M99.6805112,110.543131 C100.867039,110.543131 102.004947,110.065936 102.84381,109.216565 C103.682674,108.367195 104.153746,107.215255 104.153354,106.014261 L104.153354,67.1471853 C104.153354,64.646784 102.150794,62.6198083 99.6805112,62.6198083 C97.2102281,62.6198083 95.207668,64.646784 95.207668,67.1471853 L95.207668,106.014261 C95.2072768,107.215255 95.6783487,108.367195 96.5172119,109.216565 C97.3560751,110.065936 98.4939839,110.543131 99.6805112,110.543131 Z" id="Shape"></path>
            </g>
            <g id="k" transform="translate(115.000000, 116.000000)">
                <g id="_Group_">
                    <path d="M306.503566,612.752251 C200.383395,612.752251 103.368335,558.982835 46.9831516,468.897838 C21.0222579,427.392602 5.36884198,380.277899 1.33025432,331.488679 C0.693533304,323.288843 0.261977945,314.90506 0.261977945,306.521276 C0.292884349,293.720083 1.08428435,280.932033 2.63199508,268.224717 C8.54642591,220.822731 25.1506952,176.406363 51.9495756,136.171275 L51.9920237,136.128825 C109.296916,51.0670237 204.430111,0.290299885 306.503566,0.290299885 C475.361981,0.290299885 612.723929,137.678234 612.723929,306.5425 C612.723929,475.406767 475.361981,612.752251 306.503566,612.752251 Z M65.0872527,144.965404 C39.6184118,183.120465 23.9055519,225.244558 18.3024069,270.191545 C16.8369197,282.255908 16.0880479,294.396557 16.059734,306.549576 C16.059734,314.523014 16.4912894,322.496452 17.092637,330.264718 C20.9158122,376.516249 35.7571574,421.180106 60.3755171,460.521129 C113.902531,545.922527 205.873346,596.925648 306.503566,596.925648 C466.631828,596.925648 596.904949,466.648013 596.904949,306.514201 C596.904949,146.380389 466.624753,16.0886034 306.503566,16.0886034 C209.72197,16.0886034 119.470303,64.2546805 65.0872527,144.965404 Z" id="Shape"></path>
                </g>
                <g id="type_k" transform="translate(109.747517, 270.474527)">
                    <circle id="Oval" cx="37.1725462" cy="37.1725462" r="37.1725462"></circle>
                    <circle id="Oval" cx="357.918516" cy="37.1725462" r="37.1725462"></circle>
                    <path d="M197.520031,303.044758 C223.240009,303.044758 244.711107,284.26074 244.711107,261.08948 C244.711107,248.637339 246.971167,242.960068 238.501755,242.960068 C232.031528,242.960068 219.063568,242.860635 197.520031,242.860635 C176.633727,242.860635 195.91734,242.860635 157.159243,243.156968 C149.347748,243.216692 150.949891,248.802032 150.949891,261.08948 C150.949891,284.257836 171.800053,303.044758 197.520031,303.044758 Z" id="Oval-2"></path>
                </g>
            </g>
        </g>
    </g>
</svg>