<?xml version="1.0" encoding="UTF-8"?>
<svg width="1249px" height="1187px" viewBox="0 0 1249 1187" version="1.1" xmlns="http://www.w3.org/2000/svg" xmlns:xlink="http://www.w3.org/1999/xlink">
    <!-- Generator: Sketch 51.3 (57544) - http://www.bohemiancoding.com/sketch -->
    <title>simple</title>
    <desc>Created with Sketch.</desc>
    <defs></defs>
    <g id="Page-1" stroke="none" stroke-width="1" fill="none" fill-rule="evenodd">
        <g id="fans" transform="translate(-4748.000000, -158.000000)" fill="#000000" fill-rule="nonzero">
            <g id="simple" transform="translate(4748.000000, 158.000000)">
                <path d="M391.662484,647.641107 C391.638364,586.427236 415.126102,527.547508 457.264175,483.18892 C390.659838,455.466889 322.861874,445.142822 250.957836,455.881126 C87.0331819,480.384852 -20.8228746,625.224499 3.55892838,789.150924 C21.5269803,910.012607 82.3223375,1006.8326 169.075084,1089.17022 C183.319023,1102.69666 200.714134,1113.8492 218.411631,1122.62784 C259.997565,1143.3397 290.490733,1133.17496 313.29695,1093.00988 C318.7558,1083.45056 323.259749,1073.20615 327.986509,1063.1848 C364.272743,986.391582 409.710111,915.716335 467.87949,853.548883 C473.0837,847.988545 477.7468,841.918376 482.584964,836.182783 C481.614148,835.210919 480.770652,834.191258 479.831667,833.219394 C424.018554,787.813431 391.628005,719.637881 391.662484,647.641107 Z" id="Shape"></path>
                <path d="M1067.0798,1120.81157 C1162.56989,1044.79903 1216.01251,943.693281 1243.89562,827.340411 C1248.47914,808.221769 1249.43405,787.509907 1248.20859,767.881434 C1245.3598,721.454998 1221.2963,700.12178 1175.15867,700.440424 C1164.09774,700.440424 1153.05272,701.699068 1142.00769,702.607203 C1057.41939,709.537711 973.563176,705.490932 890.709608,686.133307 C883.293211,684.396697 875.717664,683.392968 868.333097,682.070595 C867.967052,683.392968 867.505516,684.63568 867.139471,685.94212 C856.563081,751.665274 819.096063,809.999268 763.75371,846.907806 C708.411359,883.816344 640.20433,895.957754 575.544567,880.410576 C584.870765,952.025823 609.825509,1015.94582 655.119642,1072.91937 C758.248939,1202.87834 937.467922,1223.90885 1067.0798,1120.81157 Z" id="Shape"></path>
                <path d="M423.015063,177.131323 C471.301219,246.994028 509.73598,321.716055 534.420168,403.225199 C536.632355,410.522147 539.544803,417.564181 542.091205,424.669943 C543.412151,424.303502 544.717183,424.096383 546.038129,423.761807 C608.178189,400.061723 677.374907,403.368951 736.976883,432.887643 C796.578861,462.406335 841.189298,515.463653 860.073204,579.291961 C917.367258,535.398745 960.194564,481.802818 986.852214,414.090961 C1047.64757,259.676061 976.236899,93.8537042 822.243214,32.976761 C708.689582,-11.8723871 594.547095,-7.58662483 479.943072,26.4445583 C461.131524,32.0367611 442.781512,41.5323534 426.357216,52.4299794 C387.62007,78.1126888 381.206319,109.642516 404.537731,149.488953 C410.107986,159.01641 416.649057,168.002171 423.015063,177.131323 Z" id="Shape"></path>
                <path d="M811.341429,647.641107 C811.315061,547.918196 730.544163,467.095734 630.928827,467.113332 C531.31349,467.130927 450.571089,547.981919 450.579875,647.704831 C450.588662,747.427745 531.345311,828.264476 630.960649,828.264479 C730.593567,828.246882 811.350218,747.381622 811.341429,647.641107 Z" id="Shape"></path>
            </g>
        </g>
    </g>
</svg>