<?xml version="1.0" encoding="UTF-8"?>
<svg width="1500px" height="1500px" viewBox="0 0 1500 1500" version="1.1" xmlns="http://www.w3.org/2000/svg" xmlns:xlink="http://www.w3.org/1999/xlink">
    <!-- Generator: Sketch 51.3 (57544) - http://www.bohemiancoding.com/sketch -->
    <title>center</title>
    <desc>Created with Sketch.</desc>
    <defs></defs>
    <g id="Page-1" stroke="none" stroke-width="1" fill="none" fill-rule="evenodd">
        <g id="amplifiers" fill="#000000" fill-rule="nonzero">
            <g id="center" transform="translate(50.000000, 464.000000)">
                <path d="M703.749119,73.2064834 C638.317125,72.68358 575.618041,111.279774 546.739958,168.266385 C517.092319,224.887949 522.0747,296.604651 558.737139,347.158562 C524.324172,294.947146 523.41649,224.730092 554.021142,172.242424 C584.073291,119.172657 644.197322,86.6243834 703.453136,89.7815363 C762.916138,91.4883721 817.89993,129.502467 841.785765,181.980268 C866.668076,234.112755 859.248767,298.923185 824.194503,342.975335 L850.91191,362.648344 C891.047216,307.033122 895.605356,229.939394 864.093023,170.959831 C833.685694,111.486963 769.24031,72.1310782 703.749119,73.2064834 Z" id="Shape"></path>
                <path d="M700.128259,153.200846 C660.223598,153.200846 624.248207,177.238834 608.977354,214.105933 C593.706501,250.973033 602.14752,293.408901 630.364377,321.625757 C658.581233,349.842614 701.017101,358.283633 737.884201,343.01278 C774.7513,327.741927 798.789288,291.766536 798.789288,251.861875 C798.745764,197.390932 754.599202,153.24437 700.128259,153.200846 Z" id="Shape"></path>
                <path d="M700.128259,118.235377 C646.089769,118.219414 597.363381,150.759131 576.672684,200.679605 C555.981988,250.600079 567.402228,308.068959 605.607568,346.285588 C643.812907,384.502217 701.278411,395.939435 751.204996,375.263488 C801.131581,354.587541 833.685692,305.870769 833.685694,251.832276 C833.685697,178.064155 773.896377,118.257168 700.128259,118.235377 Z M700.128259,357.981677 C657.185058,357.981676 618.470692,332.112262 602.038884,292.437153 C585.607076,252.762045 594.694074,207.09526 625.062324,176.732653 C655.430575,146.370047 701.099048,137.291537 740.771102,153.730719 C780.443156,170.169901 806.305374,208.889076 806.297393,251.832276 C806.232145,310.440822 758.736805,357.936162 700.128259,358.001409 L700.128259,357.981677 Z" id="Shape"></path>
                <path d="M1311.53066,0.601832276 L88.7258633,0.601832276 C40.2442006,0.634483536 0.950198829,39.9284853 0.917547569,88.410148 L0.917547569,415.293869 C0.971995092,457.928085 31.6110378,494.377192 73.6011276,501.760395 L73.6011276,546.295983 C73.6011276,559.918229 84.6441394,570.96124 98.2663848,570.96124 L288.978154,570.96124 C302.600399,570.96124 313.643411,559.918229 313.643411,546.295983 L313.643411,503.06272 L1086.66244,503.06272 L1086.66244,546.295983 C1086.66244,559.918229 1097.70545,570.96124 1111.3277,570.96124 L1302.01973,570.96124 C1315.64198,570.96124 1326.68499,559.918229 1326.68499,546.295983 L1326.68499,501.760395 C1368.67508,494.377192 1399.31412,457.928085 1399.36857,415.293869 L1399.36857,88.3706836 C1399.31414,39.8928843 1360.00848,0.618131552 1311.53066,0.601832276 Z M1369.12896,415.293869 C1369.09091,447.08876 1343.32555,472.854123 1311.53066,472.892178 L88.7258633,472.892178 C56.930972,472.854123 31.1656096,447.08876 31.1275546,415.293869 L31.1275546,88.3706836 C31.1601738,56.5719394 56.9271252,30.8005744 88.7258633,30.7625088 L1311.53066,30.7625088 C1343.32939,30.8005744 1369.09634,56.5719394 1369.12896,88.3706836 L1369.12896,415.293869 Z" id="Shape"></path>
                <path d="M368.005638,220.458069 C350.683591,220.458069 336.641297,234.500363 336.641297,251.82241 C336.641297,269.144457 350.683591,283.186751 368.005638,283.186751 C385.327685,283.186751 399.369979,269.144457 399.369979,251.82241 C399.348236,234.509377 385.318671,220.479812 368.005638,220.458069 Z" id="Shape"></path>
                <path d="M368.005638,201.396758 C340.15087,201.396758 317.57012,223.977509 317.57012,251.832276 C317.57012,279.687044 340.15087,302.267794 368.005638,302.267794 C395.860405,302.267794 418.441156,279.687044 418.441156,251.832276 C418.441156,223.977509 395.860405,201.396758 368.005638,201.396758 Z M368.005638,289.984496 C346.934749,289.984496 329.853418,272.903165 329.853418,251.832276 C329.853418,230.761387 346.934749,213.680056 368.005638,213.680056 C389.076527,213.680056 406.157858,230.761387 406.157858,251.832276 C406.130669,272.890296 389.063663,289.952888 368.005638,289.97463 L368.005638,289.984496 Z" id="Shape"></path>
                <path d="M189.596899,220.458069 C172.28129,220.479857 158.259327,234.529781 158.272033,251.845399 C158.284738,269.161017 172.327304,283.190348 189.642927,283.186726 C206.958549,283.183103 220.995244,269.147898 221.000705,251.832276 C220.984369,234.499993 206.92919,220.458061 189.596899,220.458069 Z" id="Shape"></path>
                <path d="M189.596899,201.396758 C161.742132,201.396758 139.161381,223.977509 139.161381,251.832276 C139.161381,279.687044 161.742132,302.267794 189.596899,302.267794 C217.451667,302.267794 240.032417,279.687044 240.032417,251.832276 C240.032417,238.455945 234.71869,225.627474 225.260196,216.168979 C215.801702,206.710485 202.97323,201.396758 189.596899,201.396758 Z M189.596899,289.984496 C168.52601,289.984496 151.444679,272.903165 151.444679,251.832276 C151.444679,230.761387 168.52601,213.680056 189.596899,213.680056 C210.667788,213.680056 227.749119,230.761387 227.749119,251.832276 C227.721931,272.890296 210.654925,289.952888 189.596899,289.97463 L189.596899,289.984496 Z" id="Shape"></path>
            </g>
        </g>
    </g>
</svg>