<?xml version="1.0" encoding="UTF-8"?>
<svg width="1750px" height="1750px" viewBox="0 0 1750 1750" version="1.1" xmlns="http://www.w3.org/2000/svg" xmlns:xlink="http://www.w3.org/1999/xlink">
    <!-- Generator: Sketch 51.3 (57544) - http://www.bohemiancoding.com/sketch -->
    <title>standard</title>
    <desc>Created with Sketch.</desc>
    <defs></defs>
    <g id="Page-1" stroke="none" stroke-width="1" fill="none" fill-rule="evenodd">
        <g id="tvs" fill="#000000" fill-rule="nonzero">
            <g id="standard" transform="translate(189.000000, 440.000000)">
                <path d="M1362.82,0.46 L9.1,0.46 C6.68929276,0.452026283 4.37458823,1.40409158 2.66713931,3.10591155 C0.959690396,4.80773151 -1.31869992e-05,7.11927957 0,9.53 L0,757.59 C0,759.995514 0.955586542,762.302504 2.65654149,764.003459 C4.35749645,765.704413 6.66448644,766.66 9.07,766.66 L585.86,766.66 C578.953707,774.161703 576.931237,784.945621 580.65,794.44 C402.04,799.53 193.24,814.35 190.71,814.53 C175.758669,815.596704 164.500624,828.578148 165.56,843.53 C165.99028,850.740595 169.30987,857.473082 174.76791,862.204638 C180.22595,866.936195 187.361295,869.267054 194.56,868.67 C197.56,868.46 499.66,847.03 685.96,847.03 C886.71,847.03 1174.34,868.45 1177.23,868.67 C1177.93,868.72 1178.61,868.74 1179.29,868.74 C1193.91004,868.768396 1205.92524,857.21079 1206.46426,842.600662 C1207.00328,827.990534 1195.87239,815.578986 1181.29,814.53 C1178.76,814.35 958.21,797.92 767.29,793.71 C770.632626,784.370771 768.518047,773.948095 761.8,766.65 L1362.8,766.65 C1367.80922,766.65 1371.87,762.589223 1371.87,757.58 L1371.87,9.53 C1371.87001,4.52857742 1367.82141,0.471028495 1362.82,0.46 Z M1322.65,717.46 L49.26,717.46 L49.26,49.7 L1322.65,49.7 L1322.65,717.46 Z" id="Shape"></path>
            </g>
        </g>
    </g>
</svg>