<?xml version="1.0" encoding="UTF-8"?>
<svg width="2000px" height="2000px" viewBox="0 0 2000 2000" version="1.1" xmlns="http://www.w3.org/2000/svg" xmlns:xlink="http://www.w3.org/1999/xlink">
    <!-- Generator: Sketch 51.3 (57544) - http://www.bohemiancoding.com/sketch -->
    <title>rounded</title>
    <desc>Created with Sketch.</desc>
    <defs></defs>
    <g id="Page-1" stroke="none" stroke-width="1" fill="none" fill-rule="evenodd">
        <g id="buttons" transform="translate(-5000.000000, 0.000000)" fill="#000000" fill-rule="nonzero">
            <g id="rounded" transform="translate(5750.000000, 750.000000)">
                <path d="M352.858881,499.615073 L147.262774,499.615073 C66.1597729,499.615073 0.158150852,433.679092 0.158150852,352.62966 L0.158150852,147.200162 C0.158150852,66.1628849 66.1516626,0.214748784 147.262774,0.214748784 L352.858881,0.214748784 C433.961882,0.214748784 499.963504,66.1507293 499.963504,147.200162 L499.963504,352.62966 C499.963504,433.683144 433.969992,499.615073 352.858881,499.615073 Z M147.262774,13.86953 C73.6780211,13.86953 13.8199513,73.6871961 13.8199513,147.204214 L13.8199513,352.633712 C13.8199513,426.154781 73.6780211,485.968395 147.262774,485.968395 L352.858881,485.968395 C426.443633,485.968395 486.301703,426.150729 486.301703,352.633712 L486.301703,147.204214 C486.301703,73.6831442 426.443633,13.86953 352.858881,13.86953 L147.262774,13.86953 Z" id="Shape"></path>
                <path d="M339.010543,463.452188 L161.131387,463.452188 C92.3357664,463.452188 36.3584753,407.536467 36.3584753,338.780389 L36.3584753,161.057536 C36.3584753,92.3095624 92.3195458,36.3857374 161.131387,36.3857374 L339.010543,36.3857374 C407.806164,36.3857374 463.783455,92.3014587 463.783455,161.057536 L463.783455,338.780389 C463.77129,407.528363 407.798054,463.452188 339.010543,463.452188 Z M161.131387,43.2090762 C96.107056,43.2090762 43.1873479,96.0737439 43.1873479,161.057536 L43.1873479,338.780389 C43.1873479,403.764182 96.107056,456.645057 161.131387,456.645057 L339.010543,456.645057 C404.04704,456.645057 456.954582,403.780389 456.954582,338.796596 L456.954582,161.057536 C456.954582,96.0737439 404.04704,43.2090762 339.010543,43.2090762 L161.131387,43.2090762 Z" id="Shape"></path>
            </g>
        </g>
    </g>
</svg>