<?xml version="1.0" encoding="UTF-8"?>
<svg width="2000px" height="2000px" viewBox="0 0 2000 2000" version="1.1" xmlns="http://www.w3.org/2000/svg" xmlns:xlink="http://www.w3.org/1999/xlink">
    <!-- Generator: Sketch 51.3 (57544) - http://www.bohemiancoding.com/sketch -->
    <title>circle</title>
    <desc>Created with Sketch.</desc>
    <defs></defs>
    <g id="Page-1" stroke="none" stroke-width="1" fill="none" fill-rule="evenodd">
        <g id="buttons" transform="translate(-2500.000000, 0.000000)" fill="#000000" fill-rule="nonzero">
            <g id="circle" transform="translate(3250.000000, 750.000000)">
                <path d="M250.063103,499.959169 C112.268003,499.959169 0.163325909,387.858203 0.163325909,250.066815 C0.163325909,112.275427 112.264291,0.159613957 250.063103,0.159613957 C387.861915,0.159613957 499.955457,112.260579 499.955457,250.066815 C499.955457,387.873051 387.858203,499.959169 250.063103,499.959169 Z M250.063103,13.8195991 C119.799555,13.8195991 13.8233111,119.795843 13.8233111,250.066815 C13.8233111,380.337788 119.799555,486.299183 250.063103,486.299183 C380.326652,486.299183 486.295471,380.32294 486.295471,250.066815 C486.295471,119.81069 380.319228,13.8195991 250.063103,13.8195991 Z" id="Shape"></path>
                <path d="M250.063103,458.177431 C135.308092,458.177431 41.952487,364.821826 41.952487,250.066815 C41.952487,135.311804 135.308092,41.9450631 250.063103,41.9450631 C364.818114,41.9450631 458.173719,135.300668 458.173719,250.055679 C458.173719,364.81069 364.818114,458.177431 250.063103,458.177431 Z M250.063103,48.7861915 C139.075724,48.7861915 48.7824796,139.075724 48.7824796,250.066815 C48.7824796,361.057906 139.075724,451.347439 250.063103,451.347439 C361.050483,451.347439 451.343727,361.057906 451.343727,250.066815 C451.343727,139.075724 361.050483,48.7861915 250.063103,48.7861915 Z" id="Shape"></path>
            </g>
        </g>
    </g>
</svg>