<?xml version="1.0" encoding="UTF-8"?>
<svg width="1500px" height="1500px" viewBox="0 0 1500 1500" version="1.1" xmlns="http://www.w3.org/2000/svg" xmlns:xlink="http://www.w3.org/1999/xlink">
    <!-- Generator: Sketch 51.3 (57544) - http://www.bohemiancoding.com/sketch -->
    <title>oil</title>
    <desc>Created with Sketch.</desc>
    <defs></defs>
    <g id="Page-1" stroke="none" stroke-width="1" fill="none" fill-rule="evenodd">
        <g id="heaters" transform="translate(-5000.000000, 0.000000)" fill="#000000" fill-rule="nonzero">
            <g id="oil" transform="translate(5250.000000, 324.000000)">
                <path d="M134.445325,48.2725832 C131.123739,48.2725832 128.431062,50.9652605 128.431062,54.2868463 L128.431062,906.600634 C128.431062,909.924408 131.125513,912.618859 134.449287,912.618859 C137.773061,912.618859 140.467512,909.924408 140.467512,906.600634 L140.467512,54.2868463 C140.467513,52.6903907 139.832782,51.1594373 138.703174,50.0313161 C137.573567,48.9031949 136.041779,48.2704798 134.445325,48.2725832 Z" id="Shape"></path>
                <path d="M377.971474,48.2725832 C374.649888,48.2725832 371.957211,50.9652605 371.957211,54.2868463 L371.957211,906.600634 C371.957211,909.924408 374.651662,912.618859 377.975436,912.618859 C381.29921,912.618859 383.993661,909.924408 383.993661,906.600634 L383.993661,54.2868463 C383.993662,52.6903907 383.358931,51.1594373 382.229323,50.0313161 C381.099716,48.9031949 379.567928,48.2704798 377.971474,48.2725832 Z" id="Shape"></path>
                <path d="M621.489699,48.2725832 C618.168113,48.2725832 615.475436,50.9652605 615.475436,54.2868463 L615.475436,906.600634 C615.475436,909.924408 618.169887,912.618859 621.493661,912.618859 C624.817435,912.618859 627.511886,909.924408 627.511886,906.600634 L627.511886,54.2868463 C627.511887,52.6903907 626.877156,51.1594373 625.747548,50.0313161 C624.617941,48.9031949 623.086153,48.2704798 621.489699,48.2725832 Z" id="Shape"></path>
                <path d="M865,48.2725832 C861.678414,48.2725832 858.985737,50.9652605 858.985737,54.2868463 L858.985737,906.600634 C858.985737,909.924408 861.680188,912.618859 865.003962,912.618859 C868.327736,912.618859 871.022187,909.924408 871.022187,906.600634 L871.022187,54.2868463 C871.022188,52.6903907 870.387457,51.1594373 869.25785,50.0313161 C868.128242,48.9031949 866.596454,48.2704798 865,48.2725832 Z" id="Shape"></path>
                <path d="M968.359746,736.069731 L968.359746,240.031696 C986.029714,238.19325 999.453618,223.300215 999.453618,205.534865 C999.453618,187.769516 986.029714,172.87648 968.359746,171.038035 L968.359746,103.748019 C968.359746,46.6661954 922.085786,0.392234548 865.003962,0.392234548 C807.922138,0.392234548 761.648177,46.6661954 761.648177,103.748019 L761.648177,170.649762 L724.841521,170.649762 L724.841521,103.748019 C724.841521,46.6661954 678.56756,0.392234548 621.485737,0.392234548 C564.403913,0.392234548 518.129952,46.6661954 518.129952,103.748019 L518.129952,170.649762 L481.33122,170.649762 L481.33122,103.748019 C481.33122,46.6661954 435.057259,0.392234548 377.975436,0.392234548 C320.893612,0.392234548 274.619651,46.6661954 274.619651,103.748019 L274.619651,170.649762 L237.805071,170.649762 L237.805071,103.748019 C237.743921,46.6906387 191.50271,0.452972076 134.445325,0.396196513 C77.4643423,0.396196513 31.1014263,46.7591125 31.1014263,103.748019 L31.1014263,171.030111 C13.4314583,172.868556 0.00755439022,187.761592 0.00755439022,205.526941 C0.00755439022,223.292291 13.4314583,238.185327 31.1014263,240.023772 L31.1014263,736.061807 C13.4314583,737.900252 0.00755439022,752.793287 0.00755439022,770.558637 C0.00755439022,788.323987 13.4314583,803.217022 31.1014263,805.055468 L31.1014263,872.353407 C31.1669261,929.401514 77.3972187,975.631806 134.445325,975.697306 C191.442155,975.697306 237.797147,929.33439 237.797147,872.353407 L237.797147,805.44374 L274.611727,805.44374 L274.611727,872.353407 C274.611727,929.33439 320.974643,975.697306 377.96355,975.697306 C434.952456,975.697306 481.315372,929.33439 481.315372,872.353407 L481.315372,805.44374 L518.122029,805.44374 L518.122029,872.353407 C518.122029,929.33439 564.484945,975.697306 621.473851,975.697306 C678.462758,975.697306 724.825674,929.33439 724.825674,872.353407 L724.825674,805.44374 L761.63233,805.44374 L761.63233,872.353407 C761.63233,929.33439 807.995246,975.697306 864.984152,975.697306 C921.973059,975.697306 968.335975,929.33439 968.335975,872.353407 L968.335975,805.071315 C986.005943,803.23287 999.429847,788.339835 999.429847,770.574485 C999.429847,752.809135 986.005943,737.9161 968.335975,736.077655 L968.359746,736.069731 Z M987.377179,205.530903 C987.377179,216.782884 979.049128,225.736926 968.359746,227.606973 L968.359746,183.454834 C979.080824,185.324881 987.408875,194.278922 987.408875,205.530903 L987.377179,205.530903 Z M761.648177,182.686212 L761.648177,228.375594 L724.841521,228.375594 L724.841521,182.686212 L761.648177,182.686212 Z M761.648177,240.412044 L761.648177,735.657686 L724.841521,735.657686 L724.841521,240.412044 L761.648177,240.412044 Z M518.137876,182.686212 L518.137876,228.375594 L481.33122,228.375594 L481.33122,182.686212 L518.137876,182.686212 Z M518.137876,240.412044 L518.137876,735.657686 L481.33122,735.657686 L481.33122,240.412044 L518.137876,240.412044 Z M274.619651,182.686212 L274.619651,228.375594 L237.805071,228.375594 L237.805071,182.686212 L274.619651,182.686212 Z M274.619651,240.412044 L274.619651,735.657686 L237.805071,735.657686 L237.805071,240.412044 L274.619651,240.412044 Z M12.0522979,205.546751 C12.0522979,194.29477 20.3803487,185.340729 31.0697306,183.470681 L31.0697306,227.622821 C20.3803487,225.736926 12.0602219,216.782884 12.0602219,205.530903 L12.0522979,205.546751 Z M12.0522979,770.578447 C12.0522979,759.326466 20.3803487,750.372425 31.0697306,748.502377 L31.0697306,792.654517 C20.3803487,790.808241 12.0602219,781.81458 12.0602219,770.562599 L12.0522979,770.578447 Z M213.732171,872.369255 C213.732171,916.155983 178.236015,951.652139 134.449287,951.652139 C90.6625589,951.652139 55.1664025,916.155983 55.1664025,872.369255 L55.1664025,103.748019 C55.1664025,59.9612911 90.6625589,24.4651347 134.449287,24.4651347 C178.236015,24.4651347 213.732171,59.9612911 213.732171,103.748019 L213.732171,872.369255 Z M237.797147,793.423138 L237.797147,747.733756 L274.611727,747.733756 L274.611727,793.423138 L237.797147,793.423138 Z M457.290016,872.369255 C457.290016,916.158171 421.792086,951.656101 378.00317,951.656101 C334.214254,951.656101 298.716323,916.158171 298.716323,872.369255 L298.716323,103.748019 C298.716323,59.959103 334.214254,24.4611727 378.00317,24.4611727 C421.792086,24.4611727 457.290016,59.959103 457.290016,103.748019 L457.290016,872.369255 Z M481.354992,793.423138 L481.354992,747.733756 L518.161648,747.733756 L518.161648,793.423138 L481.354992,793.423138 Z M700.800317,872.369255 C700.800317,916.158171 665.302387,951.656101 621.513471,951.656101 C577.724555,951.656101 542.226624,916.158171 542.226624,872.369255 L542.226624,103.748019 C542.226624,59.959103 577.724555,24.4611727 621.513471,24.4611727 C665.302387,24.4611727 700.800317,59.959103 700.800317,103.748019 L700.800317,872.369255 Z M724.865293,793.423138 L724.865293,747.733756 L761.671949,747.733756 L761.671949,793.423138 L724.865293,793.423138 Z M944.310618,872.369255 C944.310618,916.158171 908.812688,951.656101 865.023772,951.656101 C821.234856,951.656101 785.736926,916.158171 785.736926,872.369255 L785.736926,103.748019 C785.736927,59.9591043 821.234857,24.4611761 865.023772,24.4611761 C908.812687,24.4611761 944.310616,59.9591043 944.310618,103.748019 L944.310618,872.369255 Z M968.375594,792.654517 L968.375594,748.502377 C979.096672,750.372425 987.393027,759.326466 987.393027,770.578447 C987.393027,781.830428 979.080824,790.808241 968.359746,792.638669 L968.375594,792.654517 Z" id="Shape"></path>
            </g>
        </g>
    </g>
</svg>