<?xml version="1.0" encoding="UTF-8"?>
<svg width="1500px" height="1500px" viewBox="0 0 1500 1500" version="1.1" xmlns="http://www.w3.org/2000/svg" xmlns:xlink="http://www.w3.org/1999/xlink">
    <!-- Generator: Sketch 51.3 (57544) - http://www.bohemiancoding.com/sketch -->
    <title>handle</title>
    <desc>Created with Sketch.</desc>
    <defs></defs>
    <g id="Page-1" stroke="none" stroke-width="1" fill="none" fill-rule="evenodd">
        <g id="locks" transform="translate(-2500.000000, 0.000000)" fill="#000000" fill-rule="nonzero">
            <g id="handle" transform="translate(2767.000000, 78.000000)">
                <path d="M905.35,341.55 L611.41,341.48 L611.41,112.07 C611.35485,50.2843868 561.275622,0.214107985 499.49,0.17 L112,0.17 C50.2143779,0.214107985 0.135150004,50.2843868 0.08,112.07 L0.08,1231.25 C0.135150004,1293.03561 50.2143779,1343.10589 112,1343.15 L499.49,1343.15 C561.275622,1343.10589 611.35485,1293.03561 611.41,1231.25 L611.41,464.63 L905.35,463.98 C938.598126,463.946947 965.545906,437.008113 965.59,403.76 C965.59,368.88 939.13,341.55 905.35,341.55 Z M580.07,1231.25 C580.014891,1275.72312 543.973122,1311.76041 499.5,1311.81 L112,1311.81 C67.5268775,1311.76041 31.4851089,1275.72312 31.43,1231.25 L31.43,112.07 C31.4851089,67.596884 67.5268775,31.5595888 112,31.51 L499.49,31.51 C543.963122,31.5595888 580.004891,67.596884 580.06,112.07 L580.06,341.47 L303.8,341.4 C236.8,341.58 182.38,397.04 182.38,465.04 C182.38,533.247167 237.672833,588.54 305.88,588.54 C374.087167,588.54 429.38,533.247167 429.38,465.04 L580.09,464.71 L580.07,1231.25 Z M905.35,432.64 L398,432.64 L398,465 C398,515.890278 356.745278,557.145 305.855,557.145 C254.964722,557.145 213.71,515.890278 213.71,465 C213.71,415.09 255,372.84 303.83,372.7 L905.33,372.85 C921.54,372.85 934.22,386.41 934.22,403.72 C934.225534,419.674848 921.304834,432.617926 905.35,432.64 Z" id="Shape"></path>
                <path d="M389.52,898.74 C389.561476,858.22368 360.593594,823.487685 320.728769,816.250995 C280.863945,809.014304 241.535363,831.352392 227.333556,869.298177 C213.13175,907.243962 228.12978,949.914639 262.95,970.63 L244.7,1140.25 C244.087006,1145.94976 245.924657,1151.64154 249.754944,1155.90674 C253.585232,1160.17194 259.047371,1162.60881 264.78,1162.61 L352.33,1162.61 C358.064371,1162.61165 363.529207,1160.17601 367.361715,1155.91046 C371.194222,1151.64491 373.033181,1145.95149 372.42,1140.25 L353.81,967.25 C376.183132,951.611757 389.513801,926.036733 389.52,898.74 Z" id="Shape"></path>
            </g>
        </g>
    </g>
</svg>