<?xml version="1.0" encoding="UTF-8"?>
<svg width="1500px" height="1500px" viewBox="0 0 1500 1500" version="1.1" xmlns="http://www.w3.org/2000/svg" xmlns:xlink="http://www.w3.org/1999/xlink">
    <!-- Generator: Sketch 51.3 (57544) - http://www.bohemiancoding.com/sketch -->
    <title>large</title>
    <desc>Created with Sketch.</desc>
    <defs></defs>
    <g id="Page-1" stroke="none" stroke-width="1" fill="none" fill-rule="evenodd">
        <g id="locks" transform="translate(-4646.000000, 0.000000)" fill="#000000" fill-rule="nonzero">
            <g id="large" transform="translate(4646.000000, 0.000000)">
                <path d="M931.241525,557.141132 C931.345704,469.867308 869.023371,395.033104 783.240347,379.427141 C697.457324,363.821179 612.814607,411.918963 582.233401,493.648295 C551.652195,575.377626 583.902628,667.300031 658.820748,711.942823 L619.537431,1077.30871 C618.209386,1089.60245 622.169321,1101.88119 630.427869,1111.07714 C638.686418,1120.2731 650.463547,1125.5177 662.81681,1125.50063 L851.184833,1125.50063 C863.524677,1125.50059 875.283368,1120.25242 883.530315,1111.0641 C891.777262,1101.87579 895.735694,1089.61276 894.419059,1077.33131 L854.356848,704.790307 C902.540334,671.099362 931.245585,615.973857 931.241525,557.141132 Z" id="Shape"></path>
            </g>
        </g>
    </g>
</svg>