<?xml version="1.0" encoding="UTF-8"?>
<svg width="1233px" height="1234px" viewBox="0 0 1233 1234" version="1.1" xmlns="http://www.w3.org/2000/svg" xmlns:xlink="http://www.w3.org/1999/xlink">
    <!-- Generator: Sketch 39.1 (31720) - http://www.bohemiancoding.com/sketch -->
    <title>Group</title>
    <desc>Created with Sketch.</desc>
    <defs></defs>
    <g id="Page-1" stroke="none" stroke-width="1" fill="none" fill-rule="evenodd">
        <g id="other" fill="#000000">
            <g id="Group">
                <path d="M870.15,1233.05 L363.15,1233.05 C163.15,1233.05 0.39,1070.32 0.39,870.29 L0.39,363.29 C0.39,163.29 163.13,0.53 363.15,0.53 L870.15,0.53 C1070.15,0.53 1232.91,163.26 1232.91,363.29 L1232.91,870.29 C1232.91,1070.33 1070.17,1233.05 870.15,1233.05 L870.15,1233.05 Z M363.15,34.23 C181.69,34.23 34.08,181.86 34.08,363.3 L34.08,870.3 C34.08,1051.75 181.69,1199.37 363.15,1199.37 L870.15,1199.37 C1051.61,1199.37 1199.22,1051.74 1199.22,870.3 L1199.22,363.3 C1199.22,181.85 1051.61,34.23 870.15,34.23 L363.15,34.23 Z" id="Shape"></path>
                <ellipse id="Oval" cx="323" cy="617" rx="100" ry="100"></ellipse>
                <ellipse id="Oval" cx="617" cy="617" rx="100" ry="100"></ellipse>
                <ellipse id="Oval" cx="911" cy="617" rx="100" ry="100"></ellipse>
            </g>
        </g>
    </g>
</svg>