<?xml version="1.0" encoding="UTF-8"?>
<svg width="2000px" height="2000px" viewBox="0 0 2000 2000" version="1.1" xmlns="http://www.w3.org/2000/svg" xmlns:xlink="http://www.w3.org/1999/xlink">
    <!-- Generator: Sketch 51.3 (57544) - http://www.bohemiancoding.com/sketch -->
    <title>more</title>
    <desc>Created with Sketch.</desc>
    <defs></defs>
    <g id="Page-1" stroke="none" stroke-width="1" fill="none" fill-rule="evenodd">
        <g id="others" fill="#000000" fill-rule="nonzero">
            <g id="more" transform="translate(408.000000, 408.000000)">
                <path d="M591.6,1182.9 C269.3,1182.9 4.9,923 0.5,599.8 C-1.6,441.9 57.8,292.6 167.9,179.4 C278,66.2 425.6,2.7 583.5,0.5 C681,-1.3 779.7,22.5 866.3,68 C876.5,73.4 880.4,86 875.1,96.2 C869.7,106.4 857.2,110.3 846.9,105 C766.5,62.7 676,40.7 584.1,42.3 C437.3,44.3 300.2,103.3 197.8,208.5 C95.5,313.7 40.3,452.4 42.3,599.2 C46.4,902.1 296.7,1145.3 599.2,1141.1 C902.1,1136.9 1145.2,887.1 1141.1,584.2 C1139.9,496.1 1118.5,412.3 1077.6,335 C1072.2,324.8 1076.1,312.1 1086.3,306.7 C1096.5,301.3 1109.1,305.2 1114.5,315.4 C1158.5,398.6 1181.5,488.8 1182.8,583.6 C1187.2,909.5 925.7,1178.4 599.7,1182.9 C597,1182.9 594.3,1182.9 591.6,1182.9 Z" id="Shape"></path>
                <circle id="Oval" transform="translate(366.697508, 594.395374) rotate(-0.783749) translate(-366.697508, -594.395374) " cx="366.697508" cy="594.395374" r="55.699641"></circle>
                <circle id="Oval" transform="translate(816.594554, 588.995662) rotate(-0.783749) translate(-816.594554, -588.995662) " cx="816.594554" cy="588.995662" r="55.699641"></circle>
                <circle id="Oval" transform="translate(596.895588, 591.595166) rotate(-0.783749) translate(-596.895588, -591.595166) " cx="596.895588" cy="591.595166" r="55.699641"></circle>
            </g>
        </g>
    </g>
</svg>