<?xml version="1.0" encoding="UTF-8"?>
<svg width="1500px" height="1500px" viewBox="0 0 1500 1500" version="1.1" xmlns="http://www.w3.org/2000/svg" xmlns:xlink="http://www.w3.org/1999/xlink">
    <!-- Generator: Sketch 51.3 (57544) - http://www.bohemiancoding.com/sketch -->
    <title>fan</title>
    <desc>Created with Sketch.</desc>
    <defs></defs>
    <g id="Page-1" stroke="none" stroke-width="1" fill="none" fill-rule="evenodd">
        <g id="fans" fill="#000000" fill-rule="nonzero">
            <g id="fan" transform="translate(222.000000, 119.000000)">
                <path d="M377.897813,528.072165 C377.882666,489.620842 392.633706,452.635705 419.097746,424.771982 C377.26812,407.358466 334.688859,400.873432 289.530855,407.618668 C186.580999,423.010615 118.843992,513.991235 134.156534,616.961161 C145.441037,692.88009 183.62244,753.697296 238.105902,805.417442 C247.051545,813.914037 257.976224,820.919475 269.09081,826.433755 C295.208089,839.443853 314.358761,833.058897 328.681785,807.829314 C332.110115,801.824653 334.938737,795.389658 337.907292,789.094772 C360.696192,740.85733 389.232292,696.462871 425.764498,657.41256 C429.032906,653.919848 431.96148,650.106889 435,646.504092 C434.390297,645.893618 433.860555,645.253121 433.270842,644.642647 C398.218446,616.121019 377.87616,573.296737 377.897813,528.072165 Z" id="Shape"></path>
                <path d="M802.874259,825.031372 C862.878972,777.381773 896.46161,714.002112 913.982986,641.064567 C916.863212,629.079759 917.463259,616.096217 916.693199,603.791814 C914.903058,574.688705 899.781871,561.315656 870.789594,561.515403 C863.839048,561.515403 856.898503,562.304403 849.957957,562.873681 C796.803783,567.218174 744.109644,564.68139 692.045555,552.546772 C687.385189,551.458152 682.624815,550.828949 677.98445,550 C677.754432,550.828949 677.46441,551.607962 677.234391,552.426924 C670.588327,593.62647 647.044547,630.194011 612.268143,653.330683 C577.49174,676.467354 534.631343,684.07838 494,674.332397 C499.86046,719.225491 515.541692,759.2947 544.003927,795.009428 C608.809017,876.476161 721.427862,889.65945 802.874259,825.031372 Z" id="Shape"></path>
                <path d="M398.138929,232.246712 C428.478961,276.15461 452.628986,323.116536 468.139003,374.344086 C469.529004,378.930133 471.359006,383.355969 472.959008,387.821858 C473.789009,387.591554 474.609009,387.461383 475.43901,387.251105 C514.483979,372.355878 557.962914,374.434432 595.413107,392.986587 C632.863301,411.538742 660.893739,444.88465 672.759217,485 C708.759255,457.413624 735.669283,423.729207 752.419301,381.173091 C790.619341,284.125121 745.749294,179.907696 648.989192,141.647245 C577.639117,113.460077 505.919042,116.153628 433.908967,137.541832 C422.088954,141.056466 410.558942,147.024335 400.238931,153.873367 C375.898906,170.014651 371.868902,189.830781 386.528917,214.873804 C390.028921,220.8617 394.138925,226.509146 398.138929,232.246712 Z" id="Shape"></path>
                <path d="M642,528.469958 C641.983409,465.789552 591.160383,414.988942 528.479975,415.000002 C465.799567,415.011062 414.994471,465.829604 415,528.510011 C415.005529,591.190419 465.819589,641.999998 528.499998,642 C591.191469,641.98894 642.005531,591.161428 642,528.469958 Z" id="Shape"></path>
                <path d="M1024.7222,707.674125 C1045.47498,650.176566 1056.05908,589.500469 1055.99975,528.367337 C1055.99975,237.025067 819.094032,0 527.98988,0 C236.885728,0 0,237.075083 0,528.367337 C0,651.596365 44.3223614,772.084524 124.790338,867.634785 C205.128367,963.034999 316.064218,1027.18532 437.156028,1048.292 L440.884545,1048.94221 L440.884545,1165.26905 L326.799946,1165.26905 C278.619702,1165.31867 239.574266,1204.39202 239.524678,1252.60671 L239.524678,1263 L825.83135,1263 L825.83135,1252.59671 C825.781762,1204.38202 786.736327,1165.30867 738.556083,1165.25904 L632.708206,1165.25904 L632.708206,1045.95126 L636.286782,1045.20102 C815.494391,1007.70634 962.493128,879.969539 1024.7222,707.664122 L1024.7222,707.674125 Z M738.566079,1186.04563 C769.162963,1185.99991 795.827886,1206.8877 803.130384,1236.62165 L804.509835,1242.20341 L260.846193,1242.20341 L262.225644,1236.62165 C269.528142,1206.8877 296.193066,1185.99991 326.78995,1186.04563 L461.656278,1186.04563 L461.656278,1049.38235 L466.654289,1049.97253 C486.999305,1052.46846 507.472818,1053.7711 527.969888,1053.87377 C552.100285,1053.87377 577.130324,1051.78311 606.738541,1047.30169 L611.906484,1046.52144 L611.906484,1186.06563 L738.566079,1186.04563 Z M527.98988,1033.08719 C249.900549,1033.08719 23.660584,806.675479 23.660584,528.387344 C23.660584,250.099208 249.910545,23.6774988 527.98988,23.6774988 C806.069215,23.6774988 1032.34916,250.089205 1032.34916,528.387344 C1032.34916,806.685482 806.099203,1033.08719 527.98988,1033.08719 Z" id="Shape"></path>
                <path d="M529,65 C273.69626,65 66,272.694016 66,527.994998 C66,783.29598 273.69626,991 529,991 C784.30374,991 992,783.29598 992,527.994998 C992,272.694016 784.293736,65 529,65 Z M529,970.222596 C285.160469,970.222596 86.7876326,771.841898 86.7876326,527.994998 C86.7876326,284.148098 285.160469,85.787408 529,85.787408 C772.839531,85.787408 971.212367,284.158102 971.212367,527.994998 C971.212367,771.831895 772.839531,970.252606 529,970.252606 L529,970.222596 Z" id="Shape"></path>
            </g>
        </g>
    </g>
</svg>