<?xml version="1.0" encoding="UTF-8"?>
<svg width="2000px" height="2000px" viewBox="0 0 2000 2000" version="1.1" xmlns="http://www.w3.org/2000/svg" xmlns:xlink="http://www.w3.org/1999/xlink">
    <!-- Generator: Sketch 51.3 (57544) - http://www.bohemiancoding.com/sketch -->
    <title>door</title>
    <desc>Created with Sketch.</desc>
    <defs></defs>
    <g id="Page-1" stroke="none" stroke-width="1" fill="none" fill-rule="evenodd">
        <g id="garagedoors" transform="translate(-2500.000000, -33.000000)" fill-rule="nonzero">
            <g id="door" transform="translate(2750.000000, 250.000000)">
                <polygon id="Shape" fill="#000000" points="0 0 0 1500 1500 1500 1500 0"></polygon>
                <path d="M1474.98226,1001 L25,1001 L25,80.8484593 C25.019544,36.7792296 51.2649632,1.05323177 83.6591393,1 L1416.34086,1 C1448.73504,1.05323177 1474.98046,36.7792296 1475,80.8484593 L1474.98226,1001 Z M1417.83084,408.261915 L82.1691581,408.261915 C75.5762108,408.261915 70.231571,413.715071 70.231571,420.441881 C70.231571,427.168691 75.5762108,432.621848 82.1691581,432.621848 L1417.83084,432.621848 C1424.42379,432.621848 1429.76843,427.168691 1429.76843,420.441881 C1429.76843,413.715071 1424.42379,408.261915 1417.83084,408.261915 Z M1417.83084,182.261915 L82.1691581,182.261915 C75.5762108,182.261915 70.231571,187.715071 70.231571,194.441881 C70.231571,201.168691 75.5762108,206.621848 82.1691581,206.621848 L1417.83084,206.621848 C1424.42379,206.621848 1429.76843,201.168691 1429.76843,194.441881 C1429.76843,187.715071 1424.42379,182.261915 1417.83084,182.261915 Z M1417.83084,298.624116 L82.1691581,298.624116 C75.5762108,298.624116 70.231571,304.077273 70.231571,310.804083 C70.231571,317.530893 75.5762108,322.98405 82.1691581,322.98405 L1417.83084,322.98405 C1424.42379,322.98405 1429.76843,317.530893 1429.76843,310.804083 C1429.76843,304.077273 1424.42379,298.624116 1417.83084,298.624116 Z M1417.83084,518.026399 L82.1691581,518.026399 C75.5762108,518.026399 70.231571,523.479556 70.231571,530.206366 C70.231571,536.933176 75.5762108,542.386332 82.1691581,542.386332 L1417.83084,542.386332 C1424.42379,542.386332 1429.76843,536.933176 1429.76843,530.206366 C1429.76843,523.479556 1424.42379,518.026399 1417.83084,518.026399 Z M1417.83084,627.718491 L82.1691581,627.718491 C75.5762108,627.718491 70.231571,633.171648 70.231571,639.898458 C70.231571,646.625268 75.5762108,652.078425 82.1691581,652.078425 L1417.83084,652.078425 C1424.42379,652.078425 1429.76843,646.625268 1429.76843,639.898458 C1429.76843,633.171648 1424.42379,627.718491 1417.83084,627.718491 Z M1417.83084,737.410584 L82.1691581,737.410584 C75.5762116,737.410585 70.231573,742.863741 70.231573,749.59055 C70.231573,756.317359 75.5762116,761.770516 82.1691581,761.770517 L1417.83084,761.770517 C1424.42379,761.770517 1429.76843,756.31736 1429.76843,749.59055 C1429.76843,742.863741 1424.42379,737.410584 1417.83084,737.410584 Z M1417.83084,847.120774 L82.1691581,847.120774 C75.5762108,847.120774 70.231571,852.573931 70.231571,859.300741 C70.231571,866.027551 75.5762108,871.480708 82.1691581,871.480708 L1417.83084,871.480708 C1424.42379,871.480708 1429.76843,866.027551 1429.76843,859.300741 C1429.76843,852.573931 1424.42379,847.120774 1417.83084,847.120774 Z M1417.83084,954.49632 L82.1691581,954.49632 C75.5762108,954.49632 70.231571,959.949477 70.231571,966.676287 C70.231571,973.403097 75.5762108,978.856253 82.1691581,978.856253 L1417.83084,978.856253 C1424.42379,978.856253 1429.76843,973.403097 1429.76843,966.676287 C1429.76843,959.949477 1424.42379,954.49632 1417.83084,954.49632 Z" id="Path" fill="#FFFFFF" transform="translate(750.000000, 501.000000) scale(1, -1) translate(-750.000000, -501.000000) "></path>
            </g>
        </g>
    </g>
</svg>