<?xml version="1.0" encoding="UTF-8"?>
<svg width="1500px" height="1500px" viewBox="0 0 1500 1500" version="1.1" xmlns="http://www.w3.org/2000/svg" xmlns:xlink="http://www.w3.org/1999/xlink">
    <!-- Generator: Sketch 51.3 (57544) - http://www.bohemiancoding.com/sketch -->
    <title>right</title>
    <desc>Created with Sketch.</desc>
    <defs></defs>
    <g id="Page-1" stroke="none" stroke-width="1" fill="none" fill-rule="evenodd">
        <g id="amplifiers" transform="translate(-3000.000000, 0.000000)" fill="#000000" fill-rule="nonzero">
            <g id="right" transform="translate(3050.000000, 464.000000)">
                <path d="M1139.21533,95.722699 C1073.78334,95.1997956 1011.08425,133.79599 982.20617,190.7826 C952.558531,247.404165 957.540913,319.120867 994.203351,369.674778 C959.790384,317.463361 958.882703,247.246307 989.487354,194.75864 C1019.5395,141.688872 1079.66353,109.140599 1138.91935,112.297752 C1198.38235,114.004588 1253.36614,152.018682 1277.25198,204.496483 C1302.13429,256.628971 1294.71498,321.439401 1259.66072,365.49155 L1286.37812,385.16456 C1326.51343,329.549338 1331.07157,252.45561 1299.55924,193.476046 C1269.15191,134.003178 1204.70652,94.6472938 1139.21533,95.722699 Z" id="Shape"></path>
                <path d="M1135.59133,175.616631 C1095.68667,175.616631 1059.71127,199.654619 1044.44042,236.521719 C1029.16957,273.388819 1037.61059,315.824686 1065.82744,344.041543 C1094.0443,372.258399 1136.48017,380.699418 1173.34727,365.428566 C1210.21437,350.157713 1234.25236,314.182322 1234.25236,274.27766 C1234.20883,219.806717 1190.06227,175.660156 1135.59133,175.616631 Z" id="Shape"></path>
                <path d="M1136.03632,140.098667 C1081.99783,140.082704 1033.27144,172.622421 1012.58074,222.542895 C991.890046,272.463369 1003.31029,329.932249 1041.51563,368.148878 C1079.72097,406.365507 1137.18647,417.802725 1187.11305,397.126778 C1237.03964,376.450831 1269.59375,327.734059 1269.59375,273.695566 C1269.59376,199.927445 1209.80444,140.120458 1136.03632,140.098667 Z M1136.03632,379.844967 C1093.09312,379.844966 1054.37875,353.975552 1037.94694,314.300443 C1021.51513,274.625335 1030.60213,228.95855 1060.97038,198.595943 C1091.33863,168.233336 1137.00711,159.154827 1176.67916,175.594009 C1216.35121,192.033191 1242.21343,230.752365 1242.20545,273.695566 C1242.1402,332.304112 1194.64486,379.799452 1136.03632,379.864699 L1136.03632,379.844967 Z" id="Shape"></path>
                <path d="M1311.53066,0.601832276 L88.7258633,0.601832276 C40.2442006,0.634483536 0.950198829,39.9284853 0.917547569,88.410148 L0.917547569,415.293869 C0.971995092,457.928085 31.6110378,494.377192 73.6011276,501.760395 L73.6011276,546.295983 C73.6011276,559.918229 84.6441394,570.96124 98.2663848,570.96124 L288.978154,570.96124 C302.600399,570.96124 313.643411,559.918229 313.643411,546.295983 L313.643411,503.06272 L1086.66244,503.06272 L1086.66244,546.295983 C1086.66244,559.918229 1097.70545,570.96124 1111.3277,570.96124 L1302.01973,570.96124 C1315.64198,570.96124 1326.68499,559.918229 1326.68499,546.295983 L1326.68499,501.760395 C1368.67508,494.377192 1399.31412,457.928085 1399.36857,415.293869 L1399.36857,88.3706836 C1399.31414,39.8928843 1360.00848,0.618131552 1311.53066,0.601832276 Z M1369.12896,415.293869 C1369.09091,447.08876 1343.32555,472.854123 1311.53066,472.892178 L88.7258633,472.892178 C56.930972,472.854123 31.1656096,447.08876 31.1275546,415.293869 L31.1275546,88.3706836 C31.1601738,56.5719394 56.9271252,30.8005744 88.7258633,30.7625088 L1311.53066,30.7625088 C1343.32939,30.8005744 1369.09634,56.5719394 1369.12896,88.3706836 L1369.12896,415.293869 Z" id="Shape"></path>
                <path d="M368.005638,220.458069 C350.683591,220.458069 336.641297,234.500363 336.641297,251.82241 C336.641297,269.144457 350.683591,283.186751 368.005638,283.186751 C385.327685,283.186751 399.369979,269.144457 399.369979,251.82241 C399.348236,234.509377 385.318671,220.479812 368.005638,220.458069 Z" id="Shape"></path>
                <path d="M368.005638,201.396758 C340.15087,201.396758 317.57012,223.977509 317.57012,251.832276 C317.57012,279.687044 340.15087,302.267794 368.005638,302.267794 C395.860405,302.267794 418.441156,279.687044 418.441156,251.832276 C418.441156,223.977509 395.860405,201.396758 368.005638,201.396758 Z M368.005638,289.984496 C346.934749,289.984496 329.853418,272.903165 329.853418,251.832276 C329.853418,230.761387 346.934749,213.680056 368.005638,213.680056 C389.076527,213.680056 406.157858,230.761387 406.157858,251.832276 C406.130669,272.890296 389.063663,289.952888 368.005638,289.97463 L368.005638,289.984496 Z" id="Shape"></path>
                <path d="M189.596899,220.458069 C172.28129,220.479857 158.259327,234.529781 158.272033,251.845399 C158.284738,269.161017 172.327304,283.190348 189.642927,283.186726 C206.958549,283.183103 220.995244,269.147898 221.000705,251.832276 C220.984369,234.499993 206.92919,220.458061 189.596899,220.458069 Z" id="Shape"></path>
                <path d="M189.596899,201.396758 C161.742132,201.396758 139.161381,223.977509 139.161381,251.832276 C139.161381,279.687044 161.742132,302.267794 189.596899,302.267794 C217.451667,302.267794 240.032417,279.687044 240.032417,251.832276 C240.032417,238.455945 234.71869,225.627474 225.260196,216.168979 C215.801702,206.710485 202.97323,201.396758 189.596899,201.396758 Z M189.596899,289.984496 C168.52601,289.984496 151.444679,272.903165 151.444679,251.832276 C151.444679,230.761387 168.52601,213.680056 189.596899,213.680056 C210.667788,213.680056 227.749119,230.761387 227.749119,251.832276 C227.721931,272.890296 210.654925,289.952888 189.596899,289.97463 L189.596899,289.984496 Z" id="Shape"></path>
            </g>
        </g>
    </g>
</svg>