<?xml version="1.0" encoding="UTF-8"?>
<svg width="2000px" height="2000px" viewBox="0 0 2000 2000" version="1.1" xmlns="http://www.w3.org/2000/svg" xmlns:xlink="http://www.w3.org/1999/xlink">
    <!-- Generator: Sketch 51.3 (57544) - http://www.bohemiancoding.com/sketch -->
    <title>abstract</title>
    <desc>Created with Sketch.</desc>
    <defs></defs>
    <g id="Page-1" stroke="none" stroke-width="1" fill="none" fill-rule="evenodd">
        <g id="homealarms" transform="translate(-5000.000000, 0.000000)" fill-rule="nonzero" stroke="#000000" stroke-width="36">
            <g id="abstract" transform="translate(5361.000000, 250.000000)">
                <path d="M33.9718074,1148.12534 C33.983805,1148.11171 33.9958095,1148.09808 34.0078207,1148.08445 L33.9306797,1148.17141 C33.9443903,1148.15605 33.9580996,1148.1407 33.9718074,1148.12534 Z M841.556639,134.75831 C841.603523,134.780356 841.650413,134.802399 841.69731,134.82444 L849.353811,118.534014 L841.420159,134.691278 C841.465658,134.713619 841.511151,134.735963 841.556639,134.75831 Z M908.219436,1324.59671 L910.797882,1357.17657 L930.65057,1357.17657 L930.65057,1339.17657 L927.668362,1321.42533 C920.77144,1322.58402 914.255719,1323.64778 908.219436,1324.59671 Z M371.200784,1324.48143 C365.154599,1323.53337 358.748012,1322.49231 351.72745,1321.32222 L348.768268,1339.07731 L348.768268,1357.07731 L368.620956,1357.07731 L371.200784,1324.48143 Z" id="Shape"></path>
            </g>
        </g>
    </g>
</svg>