<?xml version="1.0" encoding="UTF-8"?>
<svg width="2000px" height="2000px" viewBox="0 0 2000 2000" version="1.1" xmlns="http://www.w3.org/2000/svg" xmlns:xlink="http://www.w3.org/1999/xlink">
    <!-- Generator: Sketch 51.3 (57544) - http://www.bohemiancoding.com/sketch -->
    <title>complex</title>
    <desc>Created with Sketch.</desc>
    <defs></defs>
    <g id="Page-1" stroke="none" stroke-width="1" fill="none" fill-rule="evenodd">
        <g id="homealarms" fill="#000000" fill-rule="nonzero">
            <g id="complex" transform="translate(500.000000, 523.000000)">
                <path d="M925.527457,0.39017341 L74.4869942,0.39017341 C33.7079577,0.433963302 0.658703426,33.4767532 0.606936416,74.2557803 L0.606936416,861.828035 C0.658703426,902.607062 33.7079577,935.649852 74.4869942,935.693642 L925.527457,935.693642 C966.312127,935.649836 999.363709,902.598255 999.407514,861.813584 L999.407514,74.2413295 C999.347788,33.467946 966.30086,0.433946361 925.527457,0.39017341 Z M977.861272,861.820809 C977.83339,890.71242 954.419068,914.126742 925.527457,914.154624 L74.4869942,914.154624 C45.5953832,914.126742 22.1810611,890.71242 22.1531792,861.820809 L22.1531792,373.128613 C65.9031792,360.014451 209.848266,325.028902 500,325.028902 C790.151734,325.028902 934.104046,360.014451 977.846821,373.128613 L977.861272,861.820809 Z M977.861272,362.145954 C929.631503,348.099711 784.501445,314.458092 500.014451,314.458092 C215.527457,314.458092 70.3901734,348.08526 22.1676301,362.145954 L22.1676301,74.2557803 C22.2034751,45.3698129 45.6154689,21.9642839 74.5014451,21.9364162 L119.010116,21.9364162 L101.58237,50.7875723 C100.455383,52.4395954 100.334199,54.5793446 101.267455,56.3480487 C102.200711,58.1167528 104.035421,59.2244754 106.03524,59.226641 C108.035059,59.2288066 109.872164,58.1250602 110.809249,56.3583815 L131.604046,21.9364162 L145.231214,21.9364162 L114.356936,73.0491329 C113.27759,74.7015049 113.186205,76.8112452 114.118628,78.5507589 C115.051051,80.2902726 116.858582,81.3821458 118.832175,81.3980657 C120.805767,81.4139856 122.630677,80.3514133 123.59104,78.6271676 L157.83237,21.9436416 L171.481214,21.9436416 L132.644509,86.25 C131.565163,87.9023719 131.473777,90.0121122 132.4062,91.751626 C133.338623,93.4911397 135.146154,94.5830129 137.119747,94.5989328 C139.09334,94.6148527 140.918249,93.5522804 141.878613,91.8280347 L184.08237,21.9364162 L197.738439,21.9364162 L154.479769,93.5549133 C153.400423,95.2072852 153.309037,97.3170255 154.24146,99.0565393 C155.173884,100.796053 156.981415,101.887926 158.955007,101.903846 C160.9286,101.919766 162.753509,100.857194 163.713873,99.132948 L210.339595,21.9436416 L223.995665,21.9436416 L181.567919,92.1676301 C180.488573,93.820002 180.397187,95.9297423 181.329611,97.669256 C182.262034,99.4087698 184.069565,100.500643 186.043157,100.516563 C188.01675,100.532483 189.84166,99.4699104 190.802023,97.7456647 L236.632948,21.9364162 L925.527457,21.9364162 C954.413433,21.9642839 977.825427,45.3698129 977.861272,74.2557803 L977.861272,362.145954 Z" id="Shape"></path>
                <path d="M834.92052,121.567919 L165.122832,121.567919 C143.379573,121.567906 125.746468,139.181609 125.722543,160.924855 L125.722543,240.187861 C125.742447,261.918188 143.349162,279.531368 165.07948,279.559249 L834.877168,279.559249 C856.624415,279.55527 874.25752,261.9351 874.277457,240.187861 L874.277457,160.924855 C874.253564,139.198524 856.646852,121.591812 834.92052,121.567919 Z M863.504335,240.187861 C863.492393,255.971658 850.704308,268.766208 834.92052,268.786127 L165.122832,268.786127 C149.339044,268.766208 136.550959,255.971658 136.539017,240.187861 L136.539017,160.924855 C136.558922,145.146702 149.344679,132.360945 165.122832,132.34104 L834.92052,132.34104 C850.698673,132.360945 863.484431,145.146702 863.504335,160.924855 L863.504335,240.187861 Z" id="Shape"></path>
                <path d="M472.254335,218.403179 L472.254335,225.534682 L475.99711,229.660405 C486.319846,219.655588 491.572736,214.402697 491.75578,213.901734 L491.75578,206.394509 L484.25578,206.394509 C476.31262,214.024566 472.312139,218.027457 472.254335,218.403179 Z" id="Shape"></path>
                <path d="M507.897399,191.380058 L514.653179,191.380058 C524.975915,181.375241 530.228805,176.122351 530.41185,175.621387 C527.969653,172.875723 526.594412,171.500482 526.286127,171.495665 L519.508671,171.495665 C511.319846,179.376204 507.191715,183.504335 507.124277,183.880058 L507.124277,190.635838 C507.092389,190.846709 507.164758,191.059949 507.318406,191.207853 C507.472055,191.355758 507.687895,191.419953 507.897399,191.380058 Z" id="Shape"></path>
                <path d="M494.768786,166.618497 L494.768786,182.760116 L500.021676,188.388728 C503.778902,184.949422 505.655106,183.073218 505.650289,182.760116 L505.650298,160.989884 L500.397399,160.989884 C496.640173,164.429191 494.768786,166.315029 494.768786,166.618497 Z" id="Shape"></path>
                <path d="M515.028902,206.394509 L507.153179,206.394509 L507.153179,213.872832 C517.157996,224.195568 522.410886,229.448459 522.91185,229.631503 C525.404624,227.463873 526.654624,226.199422 526.654624,225.888728 L526.654624,218.034682 C519.279865,210.342004 515.404624,206.461946 515.028902,206.394509 Z" id="Shape"></path>
                <path d="M531.91474,193.641618 L515.780347,193.641618 C512.023121,197.080925 510.151734,198.966763 510.151734,199.270231 C513.59104,203.027457 515.467245,204.903661 515.780347,204.898844 L537.572254,204.898853 L537.572254,199.270231 C534.104046,195.520231 532.218208,193.641618 531.91474,193.641618 Z" id="Shape"></path>
                <path d="M479.768786,171.495665 L472.637283,171.495665 C469.891618,173.937861 468.516378,175.313102 468.511561,175.621387 C478.516378,185.944123 483.769268,191.197013 484.270231,191.380058 L491.770231,191.380058 L491.770231,183.526012 C484.135356,175.578035 480.134875,171.567919 479.768786,171.495665 Z" id="Shape"></path>
                <path d="M489.16185,199.263006 C485.722543,195.520231 483.836705,193.634393 483.533237,193.634393 L467.369942,193.634393 C463.374277,197.32659 461.365607,199.328035 461.365607,199.638728 L461.365607,204.140173 C461.347619,204.336769 461.417945,204.531189 461.55754,204.670784 C461.697134,204.810379 461.891555,204.880705 462.08815,204.862717 L483.475434,204.862717 C487.254335,201.459538 489.16185,199.580925 489.16185,199.263006 Z" id="Shape"></path>
                <path d="M499.277457,209.024566 C495.520231,212.150771 493.644027,214.402697 493.648844,215.780347 L493.648835,236.416185 L499.277457,236.416185 C503.020231,232.984104 504.906069,231.105491 504.906069,230.787572 L504.906069,214.653179 C501.445087,210.903179 499.573699,209.024566 499.277457,209.024566 Z" id="Shape"></path>
                <path d="M568.316474,218.403179 L568.316474,225.534682 L572.059249,229.660405 C582.381985,219.655588 587.634875,214.402697 587.817919,213.901734 L587.817919,206.394509 L580.325145,206.394509 C572.381985,214.024566 568.379094,218.027457 568.316474,218.403179 Z" id="Shape"></path>
                <path d="M575.816474,171.495665 L568.684971,171.495665 C565.939306,173.937861 564.564066,175.313102 564.559249,175.621387 C574.564066,185.944123 579.816956,191.197013 580.317919,191.380058 L587.817919,191.380058 L587.817919,183.526012 C580.192678,175.578035 576.192197,171.567919 575.816474,171.495665 Z" id="Shape"></path>
                <path d="M627.984104,193.641618 L611.842486,193.641618 C608.08526,197.080925 606.213873,198.966763 606.213873,199.270231 C609.653179,203.027457 611.529383,204.903661 611.842486,204.898844 L633.612717,204.898853 L633.612717,199.270231 C630.17341,195.520231 628.287572,193.641618 627.984104,193.641618 Z" id="Shape"></path>
                <path d="M595.339595,209.024566 C591.58237,212.150771 589.706166,214.402697 589.710983,215.780347 L589.710973,236.416185 L595.339595,236.416185 C599.08237,232.984104 600.968208,231.105491 600.968208,230.787572 L600.968208,214.653179 C597.543353,210.903179 595.643064,209.024566 595.339595,209.024566 Z" id="Shape"></path>
                <path d="M603.966763,191.380058 L610.722543,191.380058 C621.040462,181.375241 626.28131,176.122351 626.445087,175.621387 C624.00289,172.875723 622.627649,171.500482 622.319364,171.495665 L615.606936,171.495665 C607.418112,179.376204 603.289981,183.504335 603.222543,183.880058 L603.222543,190.635838 C603.193136,190.840833 603.262025,191.047702 603.408462,191.194139 C603.554899,191.340576 603.761768,191.409465 603.966763,191.380058 Z" id="Shape"></path>
                <path d="M590.830925,166.618497 L590.830925,182.760116 L596.083815,188.388728 C599.84104,184.949422 601.717245,183.073218 601.712428,182.760116 L601.712437,160.989884 L596.459538,160.989884 C592.709538,164.429191 590.830925,166.315029 590.830925,166.618497 Z" id="Shape"></path>
                <path d="M611.098266,206.394509 L603.215318,206.394509 L603.215318,213.872832 C613.220135,224.195568 618.473025,229.448459 618.973988,229.631503 C621.466763,227.463873 622.716763,226.199422 622.716763,225.888728 L622.716763,218.034682 C615.346821,210.342004 611.473988,206.461946 611.098266,206.394509 Z" id="Shape"></path>
                <path d="M585.202312,199.263006 C581.763006,195.520231 579.877168,193.634393 579.573699,193.634393 L563.439306,193.634393 C559.443642,197.32659 557.434971,199.328035 557.434971,199.638728 L557.434971,204.140173 C557.416983,204.336769 557.487309,204.531189 557.626904,204.670784 C557.766499,204.810379 557.960919,204.880705 558.157514,204.862717 L579.544798,204.862717 C583.323699,201.459538 585.202312,199.580925 585.202312,199.263006 Z" id="Shape"></path>
                <path d="M707.160405,206.394509 L699.284682,206.394509 L699.284682,213.872832 C709.289499,224.195568 714.542389,229.448459 715.043353,229.631503 C717.536127,227.463873 718.786127,226.199422 718.786127,225.888728 L718.786127,218.034682 C711.411368,210.342004 707.536127,206.461946 707.160405,206.394509 Z" id="Shape"></path>
                <path d="M724.046243,193.641618 L707.91185,193.641618 C704.154624,197.080925 702.283237,198.966763 702.283237,199.270231 C705.722543,203.027457 707.598748,204.903661 707.91185,204.898844 L729.682081,204.898853 L729.682081,199.270231 C726.235549,195.520231 724.356936,193.641618 724.046243,193.641618 Z" id="Shape"></path>
                <path d="M671.885838,171.495665 L664.739884,171.495665 C661.99422,173.937861 660.618979,175.313102 660.614162,175.621387 C670.618979,185.944123 675.871869,191.197013 676.372832,191.380058 L683.872832,191.380058 L683.872832,183.526012 C676.257225,175.578035 672.261561,171.567919 671.885838,171.495665 Z" id="Shape"></path>
                <path d="M700.028902,191.380058 L706.784682,191.380058 C717.107418,181.375241 722.360308,176.122351 722.543353,175.621387 C720.101156,172.875723 718.725915,171.500482 718.41763,171.495665 L711.66185,171.495665 C703.473025,179.376204 699.344894,183.504335 699.277457,183.880058 L699.277457,190.635838 C699.247485,190.842277 699.317252,191.050691 699.465468,191.197482 C699.613683,191.344273 699.822762,191.412023 700.028902,191.380058 Z" id="Shape"></path>
                <path d="M691.401734,209.024566 C687.644509,212.150771 685.768304,214.402697 685.773121,215.780347 L685.773112,236.416185 L691.401734,236.416185 C695.144509,232.984104 697.030347,231.105491 697.030347,230.787572 L697.030347,214.653179 C693.59104,210.903179 691.705202,209.024566 691.401734,209.024566 Z" id="Shape"></path>
                <path d="M686.900289,166.618497 L686.900289,182.760116 L692.153179,188.388728 C695.910405,184.949422 697.786609,183.073218 697.781792,182.760116 L697.781801,160.989884 L692.528902,160.989884 C688.771676,164.429191 686.900289,166.315029 686.900289,166.618497 Z" id="Shape"></path>
                <path d="M664.385838,218.403179 L664.385838,225.534682 L668.128613,229.660405 C678.451349,219.655588 683.704239,214.402697 683.887283,213.901734 L683.887283,206.394509 L676.387283,206.394509 C668.444123,214.024566 664.443642,218.027457 664.385838,218.403179 Z" id="Shape"></path>
                <path d="M681.271676,199.263006 C677.83237,195.520231 675.946532,193.634393 675.643064,193.634393 L659.501445,193.634393 C655.50578,197.32659 653.49711,199.328035 653.49711,199.638728 L653.49711,204.140173 C653.479122,204.336769 653.549448,204.531189 653.689042,204.670784 C653.828637,204.810379 654.023057,204.880705 654.219653,204.862717 L675.606936,204.862717 C679.385838,201.459538 681.271676,199.580925 681.271676,199.263006 Z" id="Shape"></path>
                <path d="M760.440751,218.403179 L760.440751,225.534682 L764.183526,229.660405 C774.506262,219.655588 779.759152,214.402697 779.942197,213.901734 L779.942197,206.394509 L772.442197,206.394509 C764.503854,214.024566 760.503372,218.027457 760.440751,218.403179 Z" id="Shape"></path>
                <path d="M803.222543,206.394509 L795.339595,206.394509 L795.339595,213.872832 C805.344412,224.195568 810.597303,229.448459 811.098266,229.631503 C813.59104,227.463873 814.84104,226.199422 814.84104,225.888728 L814.84104,218.034682 C807.466281,210.342004 803.593449,206.461946 803.222543,206.394509 Z" id="Shape"></path>
                <path d="M777.32659,199.263006 C773.887283,195.520231 772.001445,193.634393 771.697977,193.634393 L755.556358,193.634393 C751.560694,197.32659 749.552023,199.328035 749.552023,199.638728 L749.552023,204.140173 C749.534035,204.336769 749.604361,204.531189 749.743956,204.670784 C749.883551,204.810379 750.077971,204.880705 750.274566,204.862717 L771.676301,204.862717 C775.447977,201.459538 777.32659,199.580925 777.32659,199.263006 Z" id="Shape"></path>
                <path d="M787.456647,209.024566 C783.699422,212.150771 781.823218,214.402697 781.828035,215.780347 L781.828025,236.416185 L787.456647,236.416185 C791.199422,232.984104 793.08526,231.105491 793.08526,230.787572 L793.08526,214.653179 C789.645954,210.903179 787.767341,209.024566 787.456647,209.024566 Z" id="Shape"></path>
                <path d="M782.955202,166.618497 L782.955202,182.760116 L788.208092,188.388728 C791.965318,184.949422 793.841522,183.073218 793.836705,182.760116 L793.836714,160.989884 L788.583815,160.989884 C784.82659,164.429191 782.955202,166.315029 782.955202,166.618497 Z" id="Shape"></path>
                <path d="M767.940751,171.495665 L760.83815,171.495665 C758.092486,173.937861 756.717245,175.313102 756.712428,175.621387 C766.717245,185.944123 771.970135,191.197013 772.471098,191.380058 L779.971098,191.380058 L779.971098,183.526012 C772.32659,175.578035 768.316474,171.567919 767.940751,171.495665 Z" id="Shape"></path>
                <path d="M820.086705,193.641618 L803.945087,193.641618 C800.187861,197.080925 798.316474,198.966763 798.316474,199.270231 C801.75578,203.027457 803.631985,204.903661 803.945087,204.898844 L825.715318,204.898853 L825.715318,199.270231 C822.297688,195.520231 820.41185,193.641618 820.086705,193.641618 Z" id="Shape"></path>
                <path d="M796.083815,191.380058 L802.839595,191.380058 C813.162331,181.375241 818.415222,176.122351 818.598266,175.621387 C816.156069,172.875723 814.780829,171.500482 814.472543,171.495665 L807.716763,171.495665 C799.527938,179.376204 795.399807,183.504335 795.33237,183.880058 L795.33237,190.635838 C795.302398,190.842277 795.372165,191.050691 795.520381,191.197482 C795.668597,191.344273 795.877675,191.412023 796.083815,191.380058 Z" id="Shape"></path>
                <path d="M239.378613,389.804913 L152.384393,389.804913 C138.063733,389.844673 126.468899,401.452426 126.445087,415.773121 L126.445087,502.767341 C126.468953,517.099289 138.081347,528.711682 152.413295,528.735549 L239.378613,528.735549 C253.71056,528.711682 265.322954,517.099289 265.346821,502.767341 L265.346821,415.773121 C265.322954,401.441174 253.71056,389.82878 239.378613,389.804913 Z M254.552023,502.767341 C254.532161,511.139143 247.750415,517.920889 239.378613,517.940751 L152.384393,517.940751 C144.012591,517.920889 137.230845,511.139143 137.210983,502.767341 L137.210983,415.773121 C137.230845,407.401319 144.012591,400.619573 152.384393,400.599711 L239.378613,400.599711 C247.750415,400.619573 254.532161,407.401319 254.552023,415.773121 L254.552023,502.767341 Z" id="Shape"></path>
                <path d="M391.437861,389.804913 L304.443642,389.804913 C290.117338,389.83673 278.513726,401.446802 278.489884,415.773121 L278.489884,502.767341 C278.513726,517.093661 290.117338,528.703733 304.443642,528.735549 L391.437861,528.735549 C405.769809,528.711682 417.382203,517.099289 417.406069,502.767341 L417.406069,415.773121 C417.382203,401.441174 405.769809,389.82878 391.437861,389.804913 Z M406.611272,502.767341 C406.59141,511.139143 399.809664,517.920889 391.437861,517.940751 L304.443642,517.940751 C296.063598,517.940751 289.270231,511.147384 289.270231,502.767341 L289.270231,415.773121 C289.270231,407.393078 296.063598,400.599711 304.443642,400.599711 L391.437861,400.599711 C399.809664,400.619573 406.59141,407.401319 406.611272,415.773121 L406.611272,502.767341 Z" id="Shape"></path>
                <path d="M608.569364,528.735549 L695.570809,528.735549 C709.897113,528.703733 721.500725,517.093661 721.524566,502.767341 L721.524566,415.773121 C721.500725,401.446802 709.897113,389.83673 695.570809,389.804913 L608.569364,389.804913 C594.237416,389.82878 582.625023,401.441174 582.601156,415.773121 L582.601156,502.767341 C582.625023,517.099289 594.237416,528.711682 608.569364,528.735549 Z M593.395954,415.773121 C593.415816,407.401319 600.197562,400.619573 608.569364,400.599711 L695.570809,400.599711 C703.950852,400.599711 710.74422,407.393078 710.74422,415.773121 L710.74422,502.767341 C710.74422,511.147384 703.950852,517.940751 695.570809,517.940751 L608.569364,517.940751 C600.197562,517.920889 593.415816,511.139143 593.395954,502.767341 L593.395954,415.773121 Z" id="Shape"></path>
                <path d="M430.549133,415.773121 L430.549133,502.767341 C430.572975,517.093661 442.176586,528.703733 456.50289,528.735549 L543.511561,528.735549 C557.837865,528.703733 569.441476,517.093661 569.465318,502.767341 L569.465318,415.773121 C569.441476,401.446802 557.837865,389.83673 543.511561,389.804913 L456.50289,389.804913 C442.176586,389.83673 430.572975,401.446802 430.549133,415.773121 Z M558.692197,415.773121 L558.692197,502.767341 C558.692197,511.147384 551.898829,517.940751 543.518786,517.940751 L456.50289,517.940751 C448.122847,517.940751 441.32948,511.147384 441.32948,502.767341 L441.32948,415.773121 C441.32948,407.393078 448.122847,400.599711 456.50289,400.599711 L543.511561,400.599711 C547.537051,400.597794 551.398324,402.19557 554.245453,405.041345 C557.092583,407.887119 558.692197,411.747631 558.692197,415.773121 Z" id="Shape"></path>
                <path d="M760.628613,528.735549 L847.622832,528.735549 C861.95478,528.711682 873.567174,517.099289 873.59104,502.767341 L873.59104,415.773121 C873.567174,401.441174 861.95478,389.82878 847.622832,389.804913 L760.628613,389.804913 C746.296665,389.82878 734.684271,401.441174 734.660405,415.773121 L734.660405,502.767341 C734.684271,517.099289 746.296665,528.711682 760.628613,528.735549 Z M745.455202,415.773121 C745.475064,407.401319 752.25681,400.619573 760.628613,400.599711 L847.622832,400.599711 C855.994635,400.619573 862.776381,407.401319 862.796243,415.773121 L862.796243,502.767341 C862.776381,511.139143 855.994635,517.920889 847.622832,517.940751 L760.628613,517.940751 C752.25681,517.920889 745.475064,511.139143 745.455202,502.767341 L745.455202,415.773121 Z" id="Shape"></path>
                <path d="M239.378613,541.184971 L152.384393,541.184971 C138.060919,541.224745 126.464925,552.836889 126.445087,567.160405 L126.445087,654.154624 C126.468953,668.486572 138.081347,680.098966 152.413295,680.122832 L239.378613,680.122832 C253.71056,680.098966 265.322954,668.486572 265.346821,654.154624 L265.346821,567.160405 C265.326931,552.825635 253.713376,541.208849 239.378613,541.184971 Z M254.552023,654.147399 C254.532161,662.519201 247.750415,669.300947 239.378613,669.320809 L152.384393,669.320809 C144.012591,669.300947 137.230845,662.519201 137.210983,654.147399 L137.210983,567.160405 C137.230845,558.788602 144.012591,552.006856 152.384393,551.986994 L239.378613,551.986994 C247.750415,552.006856 254.532161,558.788602 254.552023,567.160405 L254.552023,654.147399 Z" id="Shape"></path>
                <path d="M391.437861,541.184971 L304.443642,541.184971 C290.117338,541.216788 278.513726,552.82686 278.489884,567.153179 L278.489884,654.147399 C278.513726,668.473718 290.117338,680.08379 304.443642,680.115607 L391.437861,680.115607 C405.769809,680.09174 417.382203,668.479347 417.406069,654.147399 L417.406069,567.160405 C417.38618,552.825635 405.772625,541.208849 391.437861,541.184971 Z M406.611272,654.147399 C406.59141,662.519201 399.809664,669.300947 391.437861,669.320809 L304.443642,669.320809 C296.063598,669.320809 289.270231,662.527442 289.270231,654.147399 L289.270231,567.160405 C289.270231,558.780361 296.063598,551.986994 304.443642,551.986994 L391.437861,551.986994 C399.809664,552.006856 406.59141,558.788602 406.611272,567.160405 L406.611272,654.147399 Z" id="Shape"></path>
                <path d="M608.569364,680.122832 L695.570809,680.122832 C709.897113,680.091016 721.500725,668.480944 721.524566,654.154624 L721.524566,567.160405 C721.5047,552.831264 709.899928,541.2168 695.570809,541.184971 L608.569364,541.184971 C594.237416,541.208838 582.625023,552.821231 582.601156,567.153179 L582.601156,654.147399 C582.621046,668.482168 594.234601,680.098955 608.569364,680.122832 Z M593.395954,567.160405 C593.415816,558.788602 600.197562,552.006856 608.569364,551.986994 L695.570809,551.986994 C703.950852,551.986994 710.74422,558.780361 710.74422,567.160405 L710.74422,654.154624 C710.74422,662.534667 703.950852,669.328035 695.570809,669.328035 L608.569364,669.328035 C600.197562,669.308173 593.415816,662.526427 593.395954,654.154624 L593.395954,567.160405 Z" id="Shape"></path>
                <path d="M543.511561,541.184971 L456.50289,541.184971 C442.176586,541.216788 430.572975,552.82686 430.549133,567.153179 L430.549133,654.147399 C430.572975,668.473718 442.176586,680.08379 456.50289,680.115607 L543.511561,680.115607 C557.837865,680.08379 569.441476,668.473718 569.465318,654.147399 L569.465318,567.160405 C569.445452,552.831264 557.84068,541.2168 543.511561,541.184971 Z M558.684971,654.147399 C558.684971,662.527442 551.891604,669.320809 543.511561,669.320809 L456.50289,669.320809 C448.122847,669.320809 441.32948,662.527442 441.32948,654.147399 L441.32948,567.160405 C441.32948,558.780361 448.122847,551.986994 456.50289,551.986994 L543.511561,551.986994 C551.891604,551.986994 558.684971,558.780361 558.684971,567.160405 L558.684971,654.147399 Z" id="Shape"></path>
                <path d="M760.628613,680.122832 L847.622832,680.122832 C861.95478,680.098966 873.567174,668.486572 873.59104,654.154624 L873.59104,567.160405 C873.571162,552.82845 861.961999,541.212825 847.630058,541.184971 L760.635838,541.184971 C746.30389,541.208838 734.691497,552.821231 734.66763,567.153179 L734.66763,654.147399 C734.687509,668.479353 746.296671,680.094978 760.628613,680.122832 Z M745.455202,567.160405 C745.475064,558.788602 752.25681,552.006856 760.628613,551.986994 L847.622832,551.986994 C855.994635,552.006856 862.776381,558.788602 862.796243,567.160405 L862.796243,654.154624 C862.776381,662.526427 855.994635,669.308173 847.622832,669.328035 L760.628613,669.328035 C752.25681,669.308173 745.475064,662.526427 745.455202,654.154624 L745.455202,567.160405 Z" id="Shape"></path>
                <path d="M239.378613,692.57948 L152.384393,692.57948 C138.063733,692.61924 126.468899,704.226993 126.445087,718.547688 L126.445087,805.541908 C126.468953,819.873855 138.081347,831.486249 152.413295,831.510116 L239.378613,831.510116 C253.71056,831.486249 265.322954,819.873855 265.346821,805.541908 L265.346821,718.547688 C265.322954,704.21574 253.71056,692.603347 239.378613,692.57948 Z M254.552023,805.541908 C254.532161,813.91371 247.750415,820.695456 239.378613,820.715318 L152.384393,820.715318 C144.012591,820.695456 137.230845,813.91371 137.210983,805.541908 L137.210983,718.547688 C137.230845,710.175886 144.012591,703.394139 152.384393,703.374277 L239.378613,703.374277 C247.750415,703.394139 254.532161,710.175886 254.552023,718.547688 L254.552023,805.541908 Z" id="Shape"></path>
                <path d="M391.437861,692.57948 L304.443642,692.57948 C290.117338,692.611296 278.513726,704.221368 278.489884,718.547688 L278.489884,805.541908 C278.513726,819.868227 290.117338,831.478299 304.443642,831.510116 L391.437861,831.510116 C405.769809,831.486249 417.382203,819.873855 417.406069,805.541908 L417.406069,718.547688 C417.382203,704.21574 405.769809,692.603347 391.437861,692.57948 Z M406.611272,805.541908 C406.59141,813.91371 399.809664,820.695456 391.437861,820.715318 L304.443642,820.715318 C296.063598,820.715318 289.270231,813.921951 289.270231,805.541908 L289.270231,718.547688 C289.270231,710.167645 296.063598,703.374277 304.443642,703.374277 L391.437861,703.374277 C399.809664,703.394139 406.59141,710.175886 406.611272,718.547688 L406.611272,805.541908 Z" id="Shape"></path>
                <path d="M608.569364,831.510116 L695.570809,831.510116 C709.897113,831.478299 721.500725,819.868227 721.524566,805.541908 L721.524566,718.547688 C721.500725,704.221368 709.897113,692.611296 695.570809,692.57948 L608.569364,692.57948 C594.237416,692.603347 582.625023,704.21574 582.601156,718.547688 L582.601156,805.541908 C582.625023,819.873855 594.237416,831.486249 608.569364,831.510116 Z M593.395954,718.547688 C593.415816,710.175886 600.197562,703.394139 608.569364,703.374277 L695.570809,703.374277 C703.950852,703.374277 710.74422,710.167645 710.74422,718.547688 L710.74422,805.541908 C710.74422,813.921951 703.950852,820.715318 695.570809,820.715318 L608.569364,820.715318 C600.197562,820.695456 593.415816,813.91371 593.395954,805.541908 L593.395954,718.547688 Z" id="Shape"></path>
                <path d="M543.511561,692.57948 L456.50289,692.57948 C442.176586,692.611296 430.572975,704.221368 430.549133,718.547688 L430.549133,805.541908 C430.572975,819.868227 442.176586,831.478299 456.50289,831.510116 L543.511561,831.510116 C557.837865,831.478299 569.441476,819.868227 569.465318,805.541908 L569.465318,718.547688 C569.441476,704.221368 557.837865,692.611296 543.511561,692.57948 Z M558.684971,805.541908 C558.684971,813.921951 551.891604,820.715318 543.511561,820.715318 L456.50289,820.715318 C448.122847,820.715318 441.32948,813.921951 441.32948,805.541908 L441.32948,718.547688 C441.32948,710.167645 448.122847,703.374277 456.50289,703.374277 L543.511561,703.374277 C551.891604,703.374277 558.684971,710.167645 558.684971,718.547688 L558.684971,805.541908 Z" id="Shape"></path>
                <path d="M760.628613,831.510116 L847.622832,831.510116 C861.95478,831.486249 873.567174,819.873855 873.59104,805.541908 L873.59104,718.547688 C873.567174,704.21574 861.95478,692.603347 847.622832,692.57948 L760.628613,692.57948 C746.296665,692.603347 734.684271,704.21574 734.660405,718.547688 L734.660405,805.541908 C734.684271,819.873855 746.296665,831.486249 760.628613,831.510116 Z M745.455202,718.547688 C745.475064,710.175886 752.25681,703.394139 760.628613,703.374277 L847.622832,703.374277 C855.994635,703.394139 862.776381,710.175886 862.796243,718.547688 L862.796243,805.541908 C862.776381,813.91371 855.994635,820.695456 847.622832,820.715318 L760.628613,820.715318 C752.25681,820.695456 745.475064,813.91371 745.455202,805.541908 L745.455202,718.547688 Z" id="Shape"></path>
                <polygon id="Shape" points="324.33526 736.618497 341.119942 736.618497 341.119942 804.523121 357.666185 804.523121 357.666185 721.99422 324.33526 724.942197"></polygon>
                <path d="M368.778902,570.606936 L352.117052,570.606936 L317.882948,625.303468 L318.605491,635.223988 L352.276012,635.223988 L352.276012,653.128613 L368.771676,653.128613 L368.771676,635.231214 L378.121387,635.231214 L378.121387,622.471098 L368.778902,622.471098 L368.778902,570.606936 Z M352.283237,622.471098 L333.294798,622.471098 L350.635838,594.934971 L351.943642,592.601156 L352.283237,592.716763 L352.283237,622.471098 Z" id="Shape"></path>
                <path d="M318.049133,431.625723 L360.447977,431.625723 C353.184994,439.957529 347.310263,449.40394 343.049133,459.602601 C338.68726,470.281829 335.902782,481.539009 334.783237,493.020231 L333.981214,501.40896 L350.527457,501.40896 L351.32948,493.020231 C352.726397,480.351638 355.040944,469.542389 358.273121,460.592486 C361.505299,451.642582 367.540944,441.986994 376.380058,431.625723 L376.380058,418.880058 L318.049133,418.880058 L318.049133,431.625723 Z" id="Shape"></path>
                <path d="M493.865607,791.488439 L508.540462,775.50578 C514.855491,768.665703 519.378613,763.138247 522.109827,758.92341 C524.815542,754.83133 526.246339,750.02848 526.221098,745.122832 C526.221098,737.757707 523.793353,731.861753 518.937861,727.434971 C514.08237,723.008189 507.401252,720.799615 498.894509,720.809249 C490.276975,720.809249 483.427264,723.38632 478.345376,728.540462 C473.33099,733.519437 470.663142,740.391246 471.004335,747.449422 L471.119942,747.789017 L487.218208,747.789017 C487.218208,743.487476 488.210501,740.040944 490.195087,737.449422 C492.179672,734.8579 495.069846,733.564547 498.865607,733.569364 C502.304913,733.569364 504.954239,734.674855 506.813584,736.885838 C508.672929,739.096821 509.609827,741.941233 509.624277,745.419075 C509.516834,748.399352 508.678143,751.307478 507.182081,753.887283 C505.563584,756.926782 502.825145,760.657514 498.966763,765.07948 L472.232659,793.706647 L472.232659,804.544798 L528.59104,804.544798 L528.59104,791.791908 L493.90896,791.791908 L493.865607,791.488439 Z" id="Shape"></path>
                <path d="M195.845376,720.809249 C187.271195,720.809249 180.481696,723.653661 175.476879,729.342486 C170.472062,735.03131 167.967245,743.314066 167.962428,754.190751 L167.962428,772.398844 C167.962428,783.318882 170.47447,791.606455 175.498555,797.261561 C180.52264,802.916667 187.343449,805.739403 195.960983,805.729769 C204.501445,805.729769 211.276493,802.907033 216.286127,797.261561 C221.295761,791.616089 223.79817,783.328516 223.793353,772.398844 L223.793353,754.190751 C223.793353,743.314066 221.271676,735.03131 216.228324,729.342486 C211.184971,723.653661 204.390655,720.809249 195.845376,720.809249 Z M207.304913,773.930636 C207.304913,780.578035 206.341522,785.41185 204.41474,788.432081 C202.641342,791.375918 199.401811,793.11623 195.968208,792.969653 C192.4953,793.127844 189.209567,791.390941 187.384393,788.432081 C185.457611,785.41185 184.49422,780.578035 184.49422,773.930636 L184.49422,752.478324 C184.49422,745.903179 185.447977,741.112717 187.384393,738.08526 C189.285388,735.249518 192.474755,733.547866 195.888728,733.547866 C199.302702,733.547866 202.492069,735.249518 204.393064,738.08526 C206.348748,741.124759 207.331407,745.912813 207.34104,752.449422 L207.304913,773.930636 Z" id="Shape"></path>
                <path d="M630.700867,799.617052 C636.20183,803.677746 642.789017,805.708092 650.462428,805.708092 C659.036609,805.708092 666.071773,803.540462 671.567919,799.205202 C677.064066,794.869942 679.814547,788.928227 679.819364,781.380058 C679.899123,777.183249 678.633083,773.071151 676.206647,769.645954 C673.79817,766.274085 670.313102,763.78131 665.751445,762.16763 C669.493436,760.5322 672.723892,757.91588 675.101156,754.595376 C677.281851,751.630186 678.470358,748.052021 678.49711,744.371387 C678.49711,736.818401 675.958574,730.999518 670.881503,726.91474 C665.804432,722.829961 658.993256,720.789981 650.447977,720.794798 C642.76975,720.794798 636.343931,722.892582 631.17052,727.08815 C625.99711,731.283719 623.521195,736.611272 623.742775,743.070809 L623.858382,743.410405 L639.906069,743.410405 C639.806782,740.672265 640.97092,738.040299 643.063584,736.271676 C645.245809,734.42803 648.033377,733.457658 650.888728,733.547688 C654.47736,733.547688 657.2158,734.547206 659.104046,736.546243 C660.992293,738.545279 661.936416,741.211464 661.936416,744.544798 C661.936416,748.208092 660.989884,751.047688 659.104046,753.128613 C657.218208,755.209538 654.306358,756.221098 650.368497,756.221098 L641.105491,756.221098 L641.105491,768.634393 L650.397399,768.634393 C654.624277,768.634393 657.83237,769.645954 660,771.654624 C662.16763,773.663295 663.258671,776.849711 663.258671,781.184971 C663.258671,784.802505 662.153179,787.668593 659.942197,789.783237 C657.731214,791.900289 654.710983,792.947977 650.903179,792.947977 C647.742403,793.067544 644.656496,791.968206 642.283237,789.877168 C640.050667,787.907871 638.806792,785.049606 638.887283,782.073699 L622.83237,782.073699 L622.716763,782.413295 C622.538536,789.821773 625.199904,795.556358 630.700867,799.617052 Z" id="Shape"></path>
                <path d="M503.099711,598.988439 C500.671426,598.991591 498.259169,599.381845 495.953757,600.144509 C493.982138,600.786111 492.124049,601.734662 490.447977,602.955202 L492.723988,583.90896 L525.202312,583.90896 L525.202312,570.606936 L479.176301,570.606936 L474.421965,616.575145 L488.981214,617.543353 C489.648706,615.610562 490.914008,613.940363 492.593931,612.774566 C494.275048,611.608863 496.705202,611.023603 499.884393,611.018786 C503.737958,611.018786 506.64499,612.463873 508.605491,615.354046 C510.565992,618.24422 511.55106,622.042389 511.560694,626.748555 C511.560694,631.165703 510.645472,634.739884 508.815029,637.471098 C506.984586,640.202312 504.140173,641.570328 500.281792,641.575145 C497.256405,641.702477 494.310929,640.584868 492.131503,638.482659 C490.050578,636.430636 489.010116,633.569364 489.010116,629.898844 L473.114162,630.700867 L473.00578,630.982659 C472.817919,638.208092 475.423892,643.913776 480.823699,648.099711 C486.223507,652.285645 492.726397,654.361753 500.33237,654.328035 C509.325626,654.328035 516.213873,651.700385 520.99711,646.445087 C525.780347,641.189788 528.171965,634.597784 528.171965,626.669075 C528.171965,617.907033 525.987476,611.069364 521.618497,606.156069 C517.249518,601.242775 511.07659,598.853565 503.099711,598.988439 Z" id="Shape"></path>
                <path d="M653.901734,654.328035 C662.090559,654.328035 668.771676,651.628131 673.945087,646.228324 C679.118497,640.828516 681.695568,633.969171 681.676301,625.650289 C681.676301,617.528902 679.590559,610.852601 675.419075,605.621387 C671.247592,600.390173 665.467245,597.76975 658.078035,597.760116 C654.807195,597.714394 651.556221,598.275414 648.489884,599.41474 C645.841098,600.391526 643.440551,601.940902 641.459538,603.952312 L641.293353,603.67052 C641.071773,597.023121 642.480732,591.818401 645.520231,588.056358 C648.422209,584.330146 652.931287,582.216599 657.651734,582.369942 C659.927726,582.341675 662.200098,582.559706 664.429191,583.020231 C666.683538,583.552149 668.907413,584.205804 671.09104,584.978324 L674.039017,572.846821 C671.473653,571.747068 668.8133,570.883663 666.09104,570.267341 C663.27112,569.676488 660.395461,569.393041 657.514451,569.421965 C647.880539,569.421965 639.932563,572.613198 633.67052,578.995665 C627.408478,585.378131 624.308767,593.969171 624.371387,604.768786 L624.371387,620.867052 C624.371387,631.324663 627.114644,639.513487 632.601156,645.433526 C638.087669,651.353565 645.187861,654.318401 653.901734,654.328035 Z M640.895954,615.780347 C642.161075,614.006537 643.891283,612.616369 645.895954,611.763006 C648.368989,610.729083 651.034648,610.236355 653.713873,610.317919 C657.027062,610.242234 660.156773,611.835591 662.044798,614.559249 C664.116089,617.391618 665.154143,621.088632 665.15896,625.650289 C665.276787,629.635557 664.20252,633.565309 662.073699,636.936416 C660.012042,640.052987 657.280829,641.611272 653.880058,641.611272 C649.954239,641.611272 646.808767,639.8579 644.443642,636.351156 C642.078516,632.844412 640.895954,627.813102 640.895954,621.257225 L640.895954,615.780347 Z" id="Shape"></path>
                <path d="M475.643064,467.030347 C473.12561,470.449095 471.798209,474.598809 471.864162,478.843931 C471.864162,486.473988 474.462909,492.34104 479.660405,496.445087 C484.8579,500.549133 491.669075,502.596339 500.093931,502.586705 C508.446532,502.586705 515.211946,500.539499 520.390173,496.445087 C525.568401,492.350674 528.16474,486.483622 528.179191,478.843931 C528.237862,474.603152 526.902634,470.460391 524.378613,467.052023 C521.712683,463.502974 518.12373,460.753776 514.00289,459.104046 C517.618587,457.494479 520.724604,454.925706 522.984104,451.676301 C525.164614,448.455968 526.295317,444.639846 526.221098,440.751445 C526.221098,433.429672 523.81262,427.75289 518.995665,423.721098 C514.178709,419.689306 507.846821,417.678227 500,417.687861 C492.138728,417.687861 485.811657,419.696532 481.018786,423.713873 C476.225915,427.731214 473.817437,433.407996 473.793353,440.74422 C473.723466,444.629783 474.853854,448.442321 477.030347,451.66185 C479.295027,454.907987 482.409842,457.467836 486.033237,459.060694 C481.906365,460.71738 478.312709,463.473849 475.643064,467.030347 Z M492.897399,433.41763 C494.602601,431.428227 496.962909,430.435934 499.978324,430.440751 C502.688808,430.320099 505.308166,431.433193 507.102601,433.468208 C508.86079,435.486513 509.737476,438.159923 509.732659,441.488439 C509.732659,444.927746 508.872832,447.65896 507.153179,449.682081 C505.38919,451.720822 502.786868,452.836864 500.093931,452.709538 C497.030347,452.709538 494.641137,451.700385 492.926301,449.682081 C491.199422,447.65896 490.346821,444.927746 490.346821,441.488439 C490.346821,438.049133 491.192197,435.397399 492.897399,433.41763 Z M491.625723,468.822254 C493.721098,466.601638 496.505299,465.488921 499.978324,465.484104 C503.12172,465.367544 506.169065,466.579139 508.374277,468.822254 C510.541908,471.054913 511.604046,474.010116 511.604046,477.702312 C511.604046,481.394509 510.541908,484.393064 508.424855,486.58237 C506.23425,488.800992 503.2091,489.992161 500.093931,489.862717 C496.58237,489.862717 493.771676,488.778902 491.647399,486.611272 C489.523121,484.443642 488.482659,481.473988 488.482659,477.702312 C488.482659,473.930636 489.515896,471.033237 491.618497,468.800578 L491.625723,468.822254 Z" id="Shape"></path>
                <path d="M648.121387,474.248555 C650.972477,474.27236 653.792459,473.655026 656.372832,472.442197 C658.954531,471.202036 661.212829,469.379072 662.969653,467.117052 L662.969653,471.192197 C662.969653,477.189306 661.601638,481.796724 658.865607,485.014451 C656.251307,488.173428 652.328676,489.953535 648.229769,489.84104 C645.503957,489.864496 642.781409,489.646886 640.093931,489.190751 C637.60604,488.731525 635.167356,488.037178 632.810694,487.117052 L630.881503,499.118497 C633.600872,500.288576 636.44068,501.156026 639.349711,501.705202 C642.272331,502.282076 645.24355,502.577262 648.222543,502.586705 C657.331407,502.586705 664.82659,499.713391 670.708092,493.966763 C676.589595,488.220135 679.527938,480.356455 679.523121,470.375723 L679.523121,450.867052 C679.523121,440.366089 676.895472,432.2158 671.640173,426.416185 C666.384875,420.61657 659.547206,417.726397 651.127168,417.745665 C643.078035,417.745665 636.445087,420.47447 631.228324,425.932081 C626.011561,431.389692 623.405588,438.239403 623.410405,446.481214 C623.410405,455.026493 625.609345,461.801541 630.007225,466.806358 C634.405106,471.811175 640.44316,474.291908 648.121387,474.248555 Z M643.063584,435.086705 C645.15896,431.984586 647.868497,430.433526 651.192197,430.433526 C654.694791,430.36823 657.971778,432.156427 659.812139,435.137283 C661.926782,438.273121 662.981696,442.86368 662.976879,448.90896 L662.976879,456.50289 C661.689403,458.240085 660.001362,459.640589 658.056358,460.58526 C655.82619,461.644742 653.378784,462.166888 650.910405,462.109827 C647.616692,462.230716 644.511147,460.575896 642.774566,457.774566 C640.847784,454.884393 639.884393,451.095857 639.884393,446.40896 C639.903661,441.958092 640.963391,438.184008 643.063584,435.086705 Z" id="Shape"></path>
                <path d="M218.973988,418.880058 L208.598266,418.880058 L204.400289,442.456647 L193.518786,442.456647 L197.651734,418.880058 L187.283237,418.880058 L183.150289,442.456647 L168.302023,442.456647 L168.302023,452.095376 L181.452312,452.095376 L178.562139,468.59104 L164.017341,468.59104 L164.017341,478.229769 L176.885838,478.229769 L172.803468,501.40896 L183.229769,501.40896 L187.24711,478.229769 L198.135838,478.229769 L194.053468,501.40896 L204.479769,501.40896 L208.562139,478.229769 L222.962428,478.229769 L222.962428,468.59104 L210.260116,468.59104 L213.150289,452.095376 L227.319364,452.095376 L227.319364,442.456647 L214.833815,442.456647 L218.973988,418.880058 Z M199.812139,468.59104 L188.973988,468.59104 L191.806358,452.095376 L202.695087,452.095376 L199.812139,468.59104 Z" id="Shape"></path>
                <polygon id="Shape" points="216.726879 600.07948 200.245665 606.885838 201.315029 586.878613 190.722543 586.878613 191.741329 606.539017 174.906069 599.573699 171.669075 609.602601 188.786127 614.653179 176.943642 630.065029 185.621387 636.069364 195.426301 620.144509 205.281792 636.589595 213.901734 630.346821 202.572254 615.325145 219.906069 610.281792"></polygon>
                <path d="M783.395954,785.404624 C788.764451,785.404624 793.135838,783.677746 796.495665,780.209538 C799.855491,776.741329 801.553468,772.348266 801.553468,767.037572 L801.553468,759.241329 C801.553468,753.942678 799.867534,749.559249 796.495665,746.09104 C793.123796,742.622832 788.754817,740.883911 783.388728,740.874277 C778.056358,740.874277 773.721098,742.613198 770.382948,746.09104 C767.044798,749.568882 765.385356,753.952312 765.404624,759.241329 L765.404624,767.037572 C765.404624,772.336224 767.071291,776.726879 770.404624,780.209538 C773.737958,783.692197 778.068401,785.423892 783.395954,785.404624 Z M774.053468,759.205202 C774.053468,755.809249 774.877168,753.027457 776.495665,750.874277 C778.108432,748.724349 780.6826,747.51441 783.367052,747.644509 C786.077957,747.528328 788.67508,748.741937 790.325145,750.895954 C792.015896,753.063584 792.861272,755.830925 792.861272,759.205202 L792.861272,767.066474 C792.861272,770.50578 792.027938,773.30684 790.361272,775.469653 C788.716776,777.625014 786.11844,778.83505 783.410405,778.706647 C780.725404,778.831224 778.152689,777.619261 776.539017,775.469653 C774.898844,773.302023 774.067919,770.50578 774.067919,767.066474 L774.053468,759.205202 Z" id="Shape"></path>
                <polygon id="Shape" points="817.001445 766.726879 821.806358 766.726879 833.446532 784.804913 844.031792 784.804913 828.302023 761.669075 842.861272 741.510116 832.254335 741.510116 820.780347 759.205202 817.001445 759.205202 817.001445 741.510116 808.309249 741.510116 808.309249 784.804913 817.001445 784.804913"></polygon>
                <path d="M762.283237,497.984104 C769.523456,500.272333 776.923297,502.020859 784.421965,503.215318 L782.976879,503.215318 C783.887283,503.367052 784.790462,503.511561 785.700867,503.641618 C786.611272,503.771676 787.463873,503.865607 788.352601,503.966763 C791.176461,511.179963 798.494217,515.596105 806.192197,514.732659 C812.969653,514.010116 818.836705,509.328035 820.108382,503.952312 C820.939306,503.851156 821.777457,503.764451 822.608382,503.648844 C823.439306,503.533237 824.429191,503.374277 825.33237,503.222543 L823.887283,503.222543 C831.385962,502.028137 838.785806,500.279609 846.026012,497.991329 C850.426301,496.611272 852.196532,491.864162 849.147399,488.446532 C843.24422,481.842486 841.380058,474.183526 841.75578,465.592486 C841.99422,460.15896 841.91474,454.703757 841.75578,449.25578 C841.336705,433.157514 833.90896,421.488439 819.41474,414.371387 C818.692197,414.031792 818.020231,413.699422 817.333815,413.352601 C817.171182,413.227851 817.021142,413.087491 816.885838,412.933526 C816.885838,405.209538 807.442197,405.758671 804.393064,405.751445 L803.836705,405.751445 C800.787572,405.751445 791.343931,405.209538 791.343931,412.933526 C791.208594,413.087458 791.058557,413.227815 790.895954,413.352601 C790.17341,413.699422 789.508671,414.031792 788.815029,414.371387 C774.328035,421.488439 766.900289,433.157514 766.473988,449.25578 C766.32948,454.696532 766.257225,460.15896 766.473988,465.592486 C766.849711,474.176301 764.985549,481.83526 759.08237,488.446532 C756.07659,491.856936 757.846821,496.604046 762.283237,497.984104 Z" id="Shape"></path>
                <path d="M783.128613,636.387283 C794.985549,647.65896 808.186416,656.690751 824.49422,660.231214 C828.90896,661.199422 833.359827,661.864162 837.890173,660.693642 C843.393035,659.220809 848.345537,656.171956 852.138728,651.921965 C855.787572,648.00578 855.874277,643.345376 852.080925,639.537572 C847.263969,634.720617 842.447013,629.903661 837.630058,625.086705 C833.67052,621.141618 828.901734,621.17052 824.934971,625.137283 C822.731214,627.348266 820.556358,629.58815 818.316474,631.763006 C817.991329,632.073699 817.203757,632.369942 816.91474,632.196532 C812.723988,629.674855 808.403179,627.312139 804.465318,624.436416 C795.223988,617.67341 788.41763,608.815029 783.08526,598.742775 C782.507225,597.651734 782.565029,597.023121 783.446532,596.177746 C785.968208,593.75 788.504335,591.315029 790.845376,588.713873 C793.485191,585.729204 793.438369,581.231093 790.736994,578.302023 C785.438343,572.820328 780.03131,567.42052 774.515896,562.102601 C772.312139,559.934971 769.573699,559.465318 766.625723,560.484104 C763.157514,561.676301 761.004335,564.49422 758.887283,567.160405 C754.739884,572.369942 753.359827,578.562139 753.367052,585.122832 C753.367052,594.92052 756.813584,603.627168 762.037572,611.719653 C767.919075,620.895954 775.245665,628.894509 783.128613,636.387283 Z" id="Shape"></path>
            </g>
        </g>
    </g>
</svg>