<?xml version="1.0" encoding="UTF-8"?>
<svg width="2000px" height="2000px" viewBox="0 0 2000 2000" version="1.1" xmlns="http://www.w3.org/2000/svg" xmlns:xlink="http://www.w3.org/1999/xlink">
    <!-- Generator: Sketch 51.3 (57544) - http://www.bohemiancoding.com/sketch -->
    <title>less</title>
    <desc>Created with Sketch.</desc>
    <defs></defs>
    <g id="Page-1" stroke="none" stroke-width="1" fill="none" fill-rule="evenodd">
        <g id="homealarms" transform="translate(-2500.000000, 0.000000)" fill="#000000" fill-rule="nonzero">
            <g id="less" transform="translate(3000.000000, 532.000000)">
                <path d="M925.527457,0.39017341 L74.4869942,0.39017341 C33.7079577,0.433963302 0.658703426,33.4767532 0.606936416,74.2557803 L0.606936416,861.828035 C0.658703426,902.607062 33.7079577,935.649852 74.4869942,935.693642 L925.527457,935.693642 C966.312127,935.649836 999.363709,902.598255 999.407514,861.813584 L999.407514,74.2413295 C999.347788,33.467946 966.30086,0.433946361 925.527457,0.39017341 Z M977.861272,861.820809 C977.83339,890.71242 954.419068,914.126742 925.527457,914.154624 L74.4869942,914.154624 C45.5953832,914.126742 22.1810611,890.71242 22.1531792,861.820809 L22.1531792,373.128613 C65.9031792,360.014451 209.848266,325.028902 500,325.028902 C790.151734,325.028902 934.104046,360.014451 977.846821,373.128613 L977.861272,861.820809 Z M977.861272,362.145954 C929.631503,348.099711 784.501445,314.458092 500.014451,314.458092 C215.527457,314.458092 70.3901734,348.08526 22.1676301,362.145954 L22.1676301,74.2557803 C22.2034751,45.3698129 45.6154689,21.9642839 74.5014451,21.9364162 L119.010116,21.9364162 L101.58237,50.7875723 C100.455383,52.4395954 100.334199,54.5793446 101.267455,56.3480487 C102.200711,58.1167528 104.035421,59.2244754 106.03524,59.226641 C108.035059,59.2288066 109.872164,58.1250602 110.809249,56.3583815 L131.604046,21.9364162 L145.231214,21.9364162 L114.356936,73.0491329 C113.27759,74.7015049 113.186205,76.8112452 114.118628,78.5507589 C115.051051,80.2902726 116.858582,81.3821458 118.832175,81.3980657 C120.805767,81.4139856 122.630677,80.3514133 123.59104,78.6271676 L157.83237,21.9436416 L171.481214,21.9436416 L132.644509,86.25 C131.565163,87.9023719 131.473777,90.0121122 132.4062,91.751626 C133.338623,93.4911397 135.146154,94.5830129 137.119747,94.5989328 C139.09334,94.6148527 140.918249,93.5522804 141.878613,91.8280347 L184.08237,21.9364162 L197.738439,21.9364162 L154.479769,93.5549133 C153.400423,95.2072852 153.309037,97.3170255 154.24146,99.0565393 C155.173884,100.796053 156.981415,101.887926 158.955007,101.903846 C160.9286,101.919766 162.753509,100.857194 163.713873,99.132948 L210.339595,21.9436416 L223.995665,21.9436416 L181.567919,92.1676301 C180.488573,93.820002 180.397187,95.9297423 181.329611,97.669256 C182.262034,99.4087698 184.069565,100.500643 186.043157,100.516563 C188.01675,100.532483 189.84166,99.4699104 190.802023,97.7456647 L236.632948,21.9364162 L925.527457,21.9364162 C954.413433,21.9642839 977.825427,45.3698129 977.861272,74.2557803 L977.861272,362.145954 Z" id="Shape"></path>
                <path d="M834.92052,121.567919 L165.122832,121.567919 C143.379573,121.567906 125.746468,139.181609 125.722543,160.924855 L125.722543,240.187861 C125.742447,261.918188 143.349162,279.531368 165.07948,279.559249 L834.877168,279.559249 C856.624415,279.55527 874.25752,261.9351 874.277457,240.187861 L874.277457,160.924855 C874.253564,139.198524 856.646852,121.591812 834.92052,121.567919 Z M863.504335,240.187861 C863.492393,255.971658 850.704308,268.766208 834.92052,268.786127 L165.122832,268.786127 C149.339044,268.766208 136.550959,255.971658 136.539017,240.187861 L136.539017,160.924855 C136.558922,145.146702 149.344679,132.360945 165.122832,132.34104 L834.92052,132.34104 C850.698673,132.360945 863.484431,145.146702 863.504335,160.924855 L863.504335,240.187861 Z" id="Shape"></path>
                <g id="buttons" transform="translate(277.456647, 405.346821)">
                    <path d="M178.656069,139.284682 L265.657514,139.284682 C279.983818,139.252866 291.58743,127.642793 291.611272,113.316474 L291.611272,26.3222543 C291.58743,11.9959348 279.983818,0.385862714 265.657514,0.354046243 L178.656069,0.354046243 C164.324122,0.377912983 152.711728,11.9903066 152.687861,26.3222543 L152.687861,113.316474 C152.711728,127.648422 164.324122,139.260815 178.656069,139.284682 Z M163.482659,26.3222543 C163.502521,17.9504521 170.284267,11.1687059 178.656069,11.1488439 L265.657514,11.1488439 C274.037558,11.1488439 280.830925,17.9422112 280.830925,26.3222543 L280.830925,113.316474 C280.830925,121.696517 274.037558,128.489884 265.657514,128.489884 L178.656069,128.489884 C170.284267,128.470022 163.502521,121.688276 163.482659,113.316474 L163.482659,26.3222543 Z" id="Shape"></path>
                    <path d="M0.63583815,26.3222543 L0.63583815,113.316474 C0.659680053,127.642793 12.2632914,139.252866 26.5895954,139.284682 L113.598266,139.284682 C127.92457,139.252866 139.528181,127.642793 139.552023,113.316474 L139.552023,26.3222543 C139.528181,11.9959348 127.92457,0.385862714 113.598266,0.354046243 L26.5895954,0.354046243 C12.2632914,0.385862714 0.659680053,11.9959348 0.63583815,26.3222543 Z M128.778902,26.3222543 L128.778902,113.316474 C128.778902,121.696517 121.985534,128.489884 113.605491,128.489884 L26.5895954,128.489884 C18.2095522,128.489884 11.416185,121.696517 11.416185,113.316474 L11.416185,26.3222543 C11.416185,17.9422112 18.2095522,11.1488439 26.5895954,11.1488439 L113.598266,11.1488439 C117.623756,11.146927 121.485029,12.7447033 124.332158,15.5904776 C127.179288,18.4362518 128.778902,22.2967635 128.778902,26.3222543 Z" id="Shape"></path>
                    <path d="M330.715318,139.284682 L417.709538,139.284682 C432.041485,139.260815 443.653879,127.648422 443.677746,113.316474 L443.677746,26.3222543 C443.653879,11.9903066 432.041485,0.377912983 417.709538,0.354046243 L330.715318,0.354046243 C316.38337,0.377912983 304.770977,11.9903066 304.74711,26.3222543 L304.74711,113.316474 C304.770977,127.648422 316.38337,139.260815 330.715318,139.284682 Z M315.541908,26.3222543 C315.56177,17.9504521 322.343516,11.1687059 330.715318,11.1488439 L417.709538,11.1488439 C426.08134,11.1687059 432.863086,17.9504521 432.882948,26.3222543 L432.882948,113.316474 C432.863086,121.688276 426.08134,128.470022 417.709538,128.489884 L330.715318,128.489884 C322.343516,128.470022 315.56177,121.688276 315.541908,113.316474 L315.541908,26.3222543 Z" id="Shape"></path>
                    <path d="M178.656069,290.671965 L265.657514,290.671965 C279.983818,290.640149 291.58743,279.030077 291.611272,264.703757 L291.611272,177.709538 C291.591405,163.380397 279.986634,151.765933 265.657514,151.734104 L178.656069,151.734104 C164.324122,151.757971 152.711728,163.370364 152.687861,177.702312 L152.687861,264.696532 C152.707751,279.031301 164.321306,290.648088 178.656069,290.671965 Z M163.482659,177.709538 C163.502521,169.337735 170.284267,162.555989 178.656069,162.536127 L265.657514,162.536127 C274.037558,162.536127 280.830925,169.329494 280.830925,177.709538 L280.830925,264.703757 C280.830925,273.0838 274.037558,279.877168 265.657514,279.877168 L178.656069,279.877168 C170.284267,279.857306 163.502521,273.075559 163.482659,264.703757 L163.482659,177.709538 Z" id="Shape"></path>
                    <path d="M113.598266,151.734104 L26.5895954,151.734104 C12.2632914,151.765921 0.659680053,163.375993 0.63583815,177.702312 L0.63583815,264.696532 C0.659680053,279.022851 12.2632914,290.632923 26.5895954,290.66474 L113.598266,290.66474 C127.92457,290.632923 139.528181,279.022851 139.552023,264.696532 L139.552023,177.709538 C139.532157,163.380397 127.927385,151.765933 113.598266,151.734104 Z M128.771676,264.696532 C128.771676,273.076575 121.978309,279.869942 113.598266,279.869942 L26.5895954,279.869942 C18.2095522,279.869942 11.416185,273.076575 11.416185,264.696532 L11.416185,177.709538 C11.416185,169.329494 18.2095522,162.536127 26.5895954,162.536127 L113.598266,162.536127 C121.978309,162.536127 128.771676,169.329494 128.771676,177.709538 L128.771676,264.696532 Z" id="Shape"></path>
                    <path d="M330.715318,290.671965 L417.709538,290.671965 C432.041485,290.648099 443.653879,279.035705 443.677746,264.703757 L443.677746,177.709538 C443.657867,163.377583 432.048704,151.761958 417.716763,151.734104 L330.722543,151.734104 C316.390596,151.757971 304.778202,163.370364 304.754335,177.702312 L304.754335,264.696532 C304.774214,279.028486 316.383377,290.644111 330.715318,290.671965 Z M315.541908,177.709538 C315.56177,169.337735 322.343516,162.555989 330.715318,162.536127 L417.709538,162.536127 C426.08134,162.555989 432.863086,169.337735 432.882948,177.709538 L432.882948,264.703757 C432.863086,273.075559 426.08134,279.857306 417.709538,279.877168 L330.715318,279.877168 C322.343516,279.857306 315.56177,273.075559 315.541908,264.703757 L315.541908,177.709538 Z" id="Shape"></path>
                    <path d="M178.656069,442.059249 L265.657514,442.059249 C279.983818,442.027432 291.58743,430.41736 291.611272,416.09104 L291.611272,329.096821 C291.58743,314.770501 279.983818,303.160429 265.657514,303.128613 L178.656069,303.128613 C164.324122,303.152479 152.711728,314.764873 152.687861,329.096821 L152.687861,416.09104 C152.711728,430.422988 164.324122,442.035382 178.656069,442.059249 Z M163.482659,329.096821 C163.502521,320.725019 170.284267,313.943272 178.656069,313.92341 L265.657514,313.92341 C274.037558,313.92341 280.830925,320.716778 280.830925,329.096821 L280.830925,416.09104 C280.830925,424.471084 274.037558,431.264451 265.657514,431.264451 L178.656069,431.264451 C170.284267,431.244589 163.502521,424.462843 163.482659,416.09104 L163.482659,329.096821 Z" id="Shape"></path>
                    <path d="M113.598266,303.128613 L26.5895954,303.128613 C12.2632914,303.160429 0.659680053,314.770501 0.63583815,329.096821 L0.63583815,416.09104 C0.659680053,430.41736 12.2632914,442.027432 26.5895954,442.059249 L113.598266,442.059249 C127.92457,442.027432 139.528181,430.41736 139.552023,416.09104 L139.552023,329.096821 C139.528181,314.770501 127.92457,303.160429 113.598266,303.128613 Z M128.771676,416.09104 C128.771676,424.471084 121.978309,431.264451 113.598266,431.264451 L26.5895954,431.264451 C18.2095522,431.264451 11.416185,424.471084 11.416185,416.09104 L11.416185,329.096821 C11.416185,320.716778 18.2095522,313.92341 26.5895954,313.92341 L113.598266,313.92341 C121.978309,313.92341 128.771676,320.716778 128.771676,329.096821 L128.771676,416.09104 Z" id="Shape"></path>
                    <path d="M330.715318,442.059249 L417.709538,442.059249 C432.041485,442.035382 443.653879,430.422988 443.677746,416.09104 L443.677746,329.096821 C443.653879,314.764873 432.041485,303.152479 417.709538,303.128613 L330.715318,303.128613 C316.38337,303.152479 304.770977,314.764873 304.74711,329.096821 L304.74711,416.09104 C304.770977,430.422988 316.38337,442.035382 330.715318,442.059249 Z M315.541908,329.096821 C315.56177,320.725019 322.343516,313.943272 330.715318,313.92341 L417.709538,313.92341 C426.08134,313.943272 432.863086,320.725019 432.882948,329.096821 L432.882948,416.09104 C432.863086,424.462843 426.08134,431.244589 417.709538,431.264451 L330.715318,431.264451 C322.343516,431.244589 315.56177,424.462843 315.541908,416.09104 L315.541908,329.096821 Z" id="Shape"></path>
                </g>
            </g>
        </g>
    </g>
</svg>