<?xml version="1.0" encoding="UTF-8"?>
<svg width="2000px" height="2000px" viewBox="0 0 2000 2000" version="1.1" xmlns="http://www.w3.org/2000/svg" xmlns:xlink="http://www.w3.org/1999/xlink">
    <!-- Generator: Sketch 51.3 (57544) - http://www.bohemiancoding.com/sketch -->
    <title>standard</title>
    <desc>Created with Sketch.</desc>
    <defs></defs>
    <g id="Page-1" stroke="none" stroke-width="1" fill="none" fill-rule="evenodd">
        <g id="curtain" transform="translate(0.000000, -0.905204)" fill="#000000" fill-rule="nonzero">
            <path d="M1978.36742,253.66498 L1968.15649,253.66498 L1968.15649,251.565409 C1968.14045,240.803491 1959.42045,232.080974 1948.65362,232.056892 L1929.69046,232.056892 C1918.91793,232.072951 1910.18907,240.797811 1910.173,251.565409 L1910.173,253.66498 L1806.60501,253.66498 C1805.13335,237.50258 1791.62509,225.098343 1775.38874,225 L1247.10447,225 C1230.8708,225.105134 1217.36641,237.505815 1215.8882,253.66498 L784.111795,253.66498 C782.640682,237.508105 769.140857,225.105818 752.910115,225 L224.640429,225 C208.404085,225.098343 194.895826,237.50258 193.424162,253.66498 L89.8561718,253.66498 L89.8561718,251.565409 C89.8401053,240.797811 81.111245,232.072951 70.3387111,232.056892 L51.375558,232.056892 C40.5973279,232.06492 31.8595941,240.792127 31.8435102,251.565409 L31.8435102,253.66498 L21.6325816,253.66498 C9.69425982,253.67301 0.0160866829,263.340225 0,275.273067 L0,326.712563 C0.016070926,338.647773 9.69189982,348.319167 21.6325816,348.335231 L31.8435102,348.335231 L31.8435102,350.434802 C31.8595941,361.208084 40.5973279,369.935291 51.375558,369.943319 L70.3387111,369.943319 C81.111245,369.927259 89.8401053,361.202399 89.8561718,350.434802 L89.8561718,348.335231 L192.723984,348.335231 L192.723984,1744.22935 C192.764223,1761.81034 207.051361,1776.03219 224.640429,1775.99995 L752.895528,1775.99995 C770.482213,1775.99995 784.739038,1761.74965 784.739038,1744.17103 L784.739038,348.349811 L1215.26096,348.349811 L1215.26096,1744.24393 C1215.30919,1761.79075 1229.54955,1775.99198 1247.10447,1775.99995 L1775.35957,1775.99995 C1792.94292,1775.9919 1807.19503,1761.74632 1807.20308,1744.17103 L1807.20308,348.349811 L1910.07089,348.349811 L1910.07089,350.449383 C1910.08696,361.21698 1918.81582,369.94184 1929.58835,369.957899 L1948.55151,369.957899 C1959.32404,369.94184 1968.0529,361.21698 1968.06897,350.449383 L1968.06897,348.349811 L1978.2799,348.349811 C1984.03253,348.365301 1989.55507,346.092974 1993.62964,342.033943 C1997.70422,337.974912 1999.99615,332.462577 2000,326.712563 L2000,275.258487 C1999.97588,263.33134 1990.30006,253.672993 1978.36742,253.66498 Z M31.8289232,331.757366 L21.6179946,331.757366 C18.8362476,331.74933 16.5854539,329.493047 16.5854655,326.712563 L16.5854655,275.258487 C16.601468,272.489391 18.8475943,270.250802 21.6179946,270.242845 L31.8289232,270.242845 L31.8289232,331.757366 Z M73.3290545,253.66498 L73.3290545,350.434802 C73.3290545,352.045304 72.0228863,353.350873 70.4116463,353.350873 L51.4484932,353.350873 C49.8372531,353.350873 48.531085,352.045304 48.531085,350.434802 L48.531085,251.565409 C48.531085,249.954907 49.8372531,248.649337 51.4484932,248.649337 L70.4116463,248.649337 C72.0228863,248.649337 73.3290545,249.954907 73.3290545,251.565409 L73.3290545,253.66498 Z M192.796919,331.757366 L89.9145199,331.757366 L89.9145199,270.242845 L192.782332,270.242845 L192.796919,331.757366 Z M308.58885,329.570313 C308.499,330.324922 308.297442,331.061992 307.990781,331.757366 L232.138168,331.757366 C231.828494,331.062057 231.622096,330.32526 231.525513,329.570313 L231.525513,272.415318 C231.621685,271.660287 231.828099,270.923431 232.138168,270.228264 L307.990781,270.228264 C308.297851,270.923493 308.499427,271.660626 308.58885,272.415318 L308.58885,329.570313 Z M335.326896,872.017876 C335.097178,878.724967 329.590954,884.043477 322.876856,884.043477 C316.162759,884.043477 310.656535,878.724967 310.426817,872.017876 L310.426817,469.672953 C310.656535,462.965862 316.162759,457.647353 322.876856,457.647353 C329.590954,457.647353 335.097178,462.965862 335.326896,469.672953 L335.326896,872.017876 Z M419.494121,329.628634 C419.399415,330.383961 419.192942,331.121029 418.881466,331.815688 L343.028853,331.815688 C342.717377,331.121029 342.510904,330.383961 342.416197,329.628634 L342.416197,272.473639 C342.510477,271.718226 342.716968,270.981097 343.028853,270.286586 L418.881466,270.286586 C419.193351,270.981097 419.399841,271.718226 419.494121,272.473639 L419.494121,329.628634 Z M446.815649,930.3393 C446.585931,937.046391 441.079707,942.3649 434.36561,942.3649 C427.651512,942.3649 422.145288,937.046391 421.91557,930.3393 L421.91557,527.921475 C422.145288,521.214384 427.651512,515.895875 434.36561,515.895875 C441.079707,515.895875 446.585931,521.214384 446.815649,527.921475 L446.815649,930.3393 Z M530.399393,329.628634 C530.307458,330.382835 530.105982,331.119604 529.801325,331.815688 L453.948712,331.815688 C453.642051,331.120313 453.440493,330.383243 453.350643,329.628634 L453.350643,272.473639 C453.440066,271.718947 453.641642,270.981814 453.948712,270.286586 L529.801325,270.286586 C530.106376,270.982529 530.307869,271.719358 530.399393,272.473639 L530.399393,329.628634 Z M558.377338,891.934642 C558.14762,898.641734 552.641396,903.960243 545.927298,903.960243 C539.213201,903.960243 533.706977,898.641734 533.477259,891.934642 L533.477259,489.6043 C533.706977,482.897208 539.213201,477.578699 545.927298,477.578699 C552.641396,477.578699 558.14762,482.897208 558.377338,489.6043 L558.377338,891.934642 Z M641.319252,329.628634 C641.229402,330.383243 641.027844,331.120313 640.721183,331.815688 L564.868571,331.815688 C564.563913,331.119604 564.362437,330.382835 564.270502,329.628634 L564.270502,272.473639 C564.362027,271.719358 564.563519,270.982529 564.868571,270.286586 L640.721183,270.286586 C641.028254,270.981814 641.229829,271.718947 641.319252,272.473639 L641.319252,329.628634 Z M669.953613,930.3393 C669.723895,937.046391 664.217671,942.3649 657.503574,942.3649 C650.789476,942.3649 645.283252,937.046391 645.053534,930.3393 L645.053534,527.921475 C645.283252,521.214384 650.789476,515.895875 657.503574,515.895875 C664.217671,515.895875 669.723895,521.214384 669.953613,527.921475 L669.953613,930.3393 Z M752.239111,329.628634 C752.144405,330.383961 751.937931,331.121029 751.626455,331.815688 L675.773843,331.815688 C675.479208,331.118068 675.287573,330.381351 675.204948,329.628634 L675.204948,272.473639 C675.30112,271.718608 675.507534,270.981753 675.817604,270.286586 L751.670216,270.286586 C751.982101,270.981097 752.188592,271.718226 752.282872,272.473639 L752.239111,329.628634 Z M1215.26096,331.815688 L784.739038,331.815688 L784.739038,270.242845 L1215.26096,270.242845 L1215.26096,331.815688 Z M1324.83881,329.628634 C1324.74223,330.383582 1324.53583,331.120378 1324.22616,331.815688 L1248.37354,331.815688 C1248.06688,331.120313 1247.86533,330.383243 1247.77548,329.628634 L1247.77548,272.473639 C1247.8649,271.718947 1248.06647,270.981814 1248.37354,270.286586 L1324.22616,270.286586 C1324.53623,270.981753 1324.74264,271.718608 1324.83881,272.473639 L1324.83881,329.628634 Z M1354.96105,930.3393 C1354.73133,937.046391 1349.22511,942.3649 1342.51101,942.3649 C1335.79692,942.3649 1330.29069,937.046391 1330.06097,930.3393 L1330.06097,527.921475 C1329.90522,523.373957 1332.24353,519.103639 1336.15969,516.783747 C1340.07585,514.463855 1344.94617,514.463855 1348.86233,516.783747 C1352.77849,519.103639 1355.11681,523.373957 1354.96105,527.921475 L1354.96105,930.3393 Z M1435.74408,329.628634 C1435.65424,330.383243 1435.45268,331.120313 1435.14602,331.815688 L1359.33716,331.815688 C1359.03251,331.119604 1358.83103,330.382835 1358.7391,329.628634 L1358.7391,272.473639 C1358.83062,271.719358 1359.03211,270.982529 1359.33716,270.286586 L1435.18978,270.286586 C1435.49685,270.981814 1435.69842,271.718947 1435.78785,272.473639 L1435.74408,329.628634 Z M1466.52274,891.934642 C1466.29302,898.641734 1460.7868,903.960243 1454.0727,903.960243 C1447.3586,903.960243 1441.85238,898.641734 1441.62266,891.934642 L1441.62266,489.6043 C1441.46691,485.056782 1443.80522,480.786464 1447.72138,478.466572 C1451.63754,476.146679 1456.50786,476.146679 1460.42402,478.466572 C1464.34018,480.786464 1466.67849,485.056782 1466.52274,489.6043 L1466.52274,891.934642 Z M1546.64936,329.628634 C1546.55465,330.383961 1546.34818,331.121029 1546.0367,331.815688 L1470.18409,331.815688 C1469.87441,331.120378 1469.66802,330.383582 1469.57143,329.628634 L1469.57143,272.473639 C1469.6676,271.718608 1469.87402,270.981753 1470.18409,270.286586 L1546.0367,270.286586 C1546.34859,270.981097 1546.55508,271.718226 1546.64936,272.473639 L1546.64936,329.628634 Z M1578.14278,930.3393 C1577.91306,937.046391 1572.40684,942.3649 1565.69274,942.3649 C1558.97864,942.3649 1553.47242,937.046391 1553.2427,930.3393 L1553.2427,527.921475 C1553.08695,523.373957 1555.42526,519.103639 1559.34142,516.783747 C1563.25758,514.463855 1568.1279,514.463855 1572.04406,516.783747 C1575.96022,519.103639 1578.29853,523.373957 1578.14278,527.921475 L1578.14278,930.3393 Z M1657.62756,329.628634 C1657.53098,330.383582 1657.32458,331.120378 1657.01491,331.815688 L1581.1623,331.815688 C1580.85082,331.121029 1580.64435,330.383961 1580.54964,329.628634 L1580.54964,272.473639 C1580.64392,271.718226 1580.85041,270.981097 1581.1623,270.286586 L1657.01491,270.286586 C1657.32498,270.981753 1657.53139,271.718608 1657.62756,272.473639 L1657.62756,329.628634 Z M1689.71905,872.017876 C1689.87481,876.565394 1687.5365,880.835712 1683.62034,883.155604 C1679.70418,885.475496 1674.83385,885.475496 1670.91769,883.155604 C1667.00153,880.835712 1664.66322,876.565394 1664.81897,872.017876 L1664.81897,469.672953 C1664.66322,465.125435 1667.00153,460.855117 1670.91769,458.535225 C1674.83385,456.215333 1679.70418,456.215333 1683.62034,458.535225 C1687.5365,460.855117 1689.87481,465.125435 1689.71905,469.672953 L1689.71905,872.017876 Z M1768.48907,329.628634 C1768.39714,330.382835 1768.19566,331.119604 1767.89101,331.815688 L1692.03839,331.815688 C1691.73173,331.120313 1691.53017,330.383243 1691.44032,329.628634 L1691.44032,272.473639 C1691.52975,271.718947 1691.73132,270.981814 1692.03839,270.286586 L1767.89101,270.286586 C1768.19606,270.982529 1768.39755,271.719358 1768.48907,272.473639 L1768.48907,329.628634 Z M1910.08548,331.815688 L1807.15932,331.815688 L1807.15932,270.242845 L1910.02713,270.242845 L1910.08548,331.815688 Z M1951.57102,253.66498 L1951.57102,350.434802 C1951.57102,352.045304 1950.26486,353.350873 1948.65362,353.350873 L1929.69046,353.350873 C1928.07922,353.350873 1926.77305,352.045304 1926.77305,350.434802 L1926.77305,251.565409 C1926.77305,249.954907 1928.07922,248.649337 1929.69046,248.649337 L1948.65362,248.649337 C1950.26486,248.649337 1951.57102,249.954907 1951.57102,251.565409 L1951.57102,253.66498 Z M1983.41453,326.712563 C1983.40652,329.487355 1981.15807,331.734778 1978.38201,331.742786 L1968.17108,331.742786 L1968.17108,270.242845 L1978.38201,270.242845 C1981.15241,270.250802 1983.39853,272.489391 1983.41453,275.258487 L1983.41453,326.712563 Z" id="Shape"></path>
            <rect id="Rectangle-path" x="656" y="344" width="699" height="33"></rect>
            <rect id="Rectangle-path" x="684" y="393" width="645" height="22"></rect>
            <rect id="Rectangle-path" x="684" y="1507" width="645" height="35"></rect>
            <rect id="Rectangle-path" x="739" y="1471" width="645" height="22"></rect>
        </g>
    </g>
</svg>