<?xml version="1.0" encoding="UTF-8"?>
<svg width="844px" height="756px" viewBox="0 0 844 756" version="1.1" xmlns="http://www.w3.org/2000/svg" xmlns:xlink="http://www.w3.org/1999/xlink">
    <!-- Generator: Sketch 51.3 (57544) - http://www.bohemiancoding.com/sketch -->
    <title>deleted</title>
    <desc>Created with Sketch.</desc>
    <defs></defs>
    <g id="Page-1" stroke="none" stroke-width="1" fill="none" fill-rule="evenodd">
        <g id="deleted" transform="translate(50.000000, 50.000000)" fill="#E64A4A" fill-rule="nonzero" stroke="#E64A4A" stroke-width="50">
            <path d="M527.6439,567.791452 L610.822645,483.768253 L610.9117,483.678747 C611.080206,483.510241 611.080206,483.279736 610.9117,483.11123 L455.881932,328.081462 L611.123011,172.840383 C611.291517,172.671877 611.291517,172.441371 611.167707,172.31745 L527.232575,88.8050518 C527.064069,88.6365458 526.833564,88.6365458 526.665058,88.8050518 L371.63529,243.83482 L216.394211,88.5937409 C216.225705,88.4252349 215.995199,88.4252349 215.871277,88.5490441 L132.358879,172.484176 C132.190374,172.652682 132.190374,172.883188 132.358879,173.051694 L287.599958,328.292773 L132.358879,483.533852 C132.190374,483.702358 132.190374,483.932863 132.358879,484.101369 L216.038004,567.780494 C216.20651,567.949 216.437016,567.949 216.605522,567.780494 L371.846601,412.539415 L527.087679,567.780494 C527.25245,567.945264 527.476501,567.948917 527.6439,567.791452 Z M756.442057,282.32575 C772.870834,310.466413 772.869887,345.350583 756.444473,373.670109 L603.361816,636.09748 C587.109614,663.877406 557.288197,681 525.066667,681 L218.933333,681 C186.711803,681 156.890386,663.877406 140.622194,636.070109 L-12.4392154,373.679117 C-28.8708341,345.537609 -28.8708341,310.65105 -12.4444725,282.329891 L140.638184,19.9025202 C156.890386,-7.87740609 186.711803,-25 218.933333,-25 L525.066667,-25 C557.288197,-25 587.109614,-7.87740609 603.377806,19.929891 L756.442057,282.32575 Z" id="Shape"></path>
        </g>
    </g>
</svg>