<?xml version="1.0" encoding="UTF-8"?>
<svg width="772px" height="742px" viewBox="0 0 772 742" version="1.1" xmlns="http://www.w3.org/2000/svg" xmlns:xlink="http://www.w3.org/1999/xlink">
    <!-- Generator: Sketch 51.3 (57544) - http://www.bohemiancoding.com/sketch -->
    <title>Shape</title>
    <desc>Created with Sketch.</desc>
    <defs></defs>
    <g id="Page-1" stroke="none" stroke-width="1" fill="none" fill-rule="evenodd">
        <g id="unavailable" fill="#E64A4A" fill-rule="nonzero">
            <path d="M763.6,639.4 L447.9,37.5 C421.9,-12.1 350.9,-12.1 324.8,37.5 L9,639.4 C-15.3,685.7 18.3,741.2 70.5,741.2 L386.2,741.2 L701.9,741.2 C754.3,741.1 787.9,685.6 763.6,639.4 Z M352.2,248.8 C352.2,229.3 368,213.4 387.6,213.4 C407.1,213.4 423,229.2 423,248.8 L423,451.7 C423,471.2 407.2,487.1 387.6,487.1 C368.1,487.1 352.2,471.3 352.2,451.7 L352.2,248.8 Z M386.3,638.2 C358.1,638.2 335.3,615.4 335.3,587.2 C335.3,559 358.1,536.2 386.3,536.2 C414.5,536.2 437.3,559 437.3,587.2 C437.3,615.4 414.5,638.2 386.3,638.2 Z" id="Shape"></path>
        </g>
    </g>
</svg>