<?xml version="1.0" encoding="UTF-8"?>
<svg width="772px" height="742px" viewBox="0 0 772 742" version="1.1" xmlns="http://www.w3.org/2000/svg" xmlns:xlink="http://www.w3.org/1999/xlink">
    <!-- Generator: Sketch 51.3 (57544) - http://www.bohemiancoding.com/sketch -->
    <title>unavailable</title>
    <desc>Created with Sketch.</desc>
    <defs></defs>
    <g id="Page-1" stroke="none" stroke-width="1" fill="none" fill-rule="evenodd">
        <g id="unavailable" transform="translate(0.000000, -15.000000)" fill="#000000" fill-rule="nonzero">
            <path d="M763.6,654.4 L447.9,52.5 C421.9,2.9 350.9,2.9 324.8,52.5 L9,654.4 C-15.3,700.7 18.3,756.2 70.5,756.2 L386.2,756.2 L701.9,756.2 C754.3,756.1 787.9,700.6 763.6,654.4 Z M352.2,263.8 C352.2,244.3 368,228.4 387.6,228.4 C407.1,228.4 423,244.2 423,263.8 L423,466.7 C423,486.2 407.2,502.1 387.6,502.1 C368.1,502.1 352.2,486.3 352.2,466.7 L352.2,263.8 Z M386.3,653.2 C358.1,653.2 335.3,630.4 335.3,602.2 C335.3,574 358.1,551.2 386.3,551.2 C414.5,551.2 437.3,574 437.3,602.2 C437.3,630.4 414.5,653.2 386.3,653.2 Z" id="Shape"></path>
        </g>
    </g>
</svg>