<?xml version="1.0" encoding="UTF-8"?>
<svg width="2000px" height="2000px" viewBox="0 0 2000 2000" version="1.1" xmlns="http://www.w3.org/2000/svg" xmlns:xlink="http://www.w3.org/1999/xlink">
    <!-- Generator: Sketch 51.3 (57544) - http://www.bohemiancoding.com/sketch -->
    <title>standard</title>
    <desc>Created with Sketch.</desc>
    <defs></defs>
    <g id="Page-1" stroke="none" stroke-width="1" fill="none" fill-rule="evenodd">
        <g id="relays" fill="#000000" fill-rule="nonzero">
            <g id="standard" transform="translate(340.000000, 482.000000)">
                <path d="M1319,547.28 L1006,547.28 L1006,323.51 C1005.93383,267.024706 960.145319,221.25857 903.66,221.22 L415.66,221.22 C359.194206,221.286126 313.436126,267.044206 313.37,323.51 L313.37,547.28 L0.37,547.28 L0.37,587.74 L313.37,587.74 L313.37,811.53 C313.436147,867.992547 359.197441,913.744894 415.66,913.8 L639.43,913.8 L639.43,1034.53 L679.89,1034.53 L679.89,913.8 L903.66,913.8 C960.138184,913.772466 1005.9283,868.018145 1006,811.54 L1006,587.74 L1319,587.74 L1319,547.28 Z M979,811.54 C978.93938,853.108093 945.248114,886.78594 903.68,886.83 L415.68,886.83 C374.111886,886.78594 340.42062,853.108093 340.36,811.54 L340.36,323.54 C340.415089,281.964752 374.104752,248.275089 415.68,248.22 L903.68,248.22 C945.243557,248.275048 978.928394,281.946469 979,323.51 L979,811.54 Z" id="Shape"></path>
                <path d="M1053.73,307 L1073.38,307 C1066.7,223.43 999.12,157 915.11,151.9 L914.7,171.52 C988.07,176.37 1047.13,234.17 1053.73,307 Z" id="Shape"></path>
                <path d="M1205.3,307 L1224.95,307 C1224.95,138 1087.46,0.51 918.46,0.51 L918.27,0.51 L917.86,20.18 C918.06,20.18 918.25,20.18 918.45,20.18 C1076.62,20.19 1205.3,148.87 1205.3,307 Z" id="Shape"></path>
                <path d="M1156.24,307 L1175.89,307 C1175.89,165 1060.4,49.57 918.46,49.57 C918.05,49.57 917.66,49.63 917.25,49.63 L916.84,69.3 C917.39,69.3 917.91,69.22 918.46,69.22 C1049.57,69.25 1156.24,175.92 1156.24,307 Z" id="Shape"></path>
                <path d="M1105.87,307 L1125.52,307 C1122,193.55 1030,102.14 916.2,99.86 L915.79,119.49 C1018.92,121.55 1102.41,204.25 1105.87,307 Z" id="Shape"></path>
            </g>
        </g>
        <g id="images" transform="translate(-5325.000000, -41118.000000)"></g>
    </g>
</svg>