<?xml version="1.0" encoding="UTF-8"?>
<svg width="1750px" height="1750px" viewBox="0 0 1750 1750" version="1.1" xmlns="http://www.w3.org/2000/svg" xmlns:xlink="http://www.w3.org/1999/xlink">
    <!-- Generator: Sketch 51.3 (57544) - http://www.bohemiancoding.com/sketch -->
    <title>standard</title>
    <desc>Created with Sketch.</desc>
    <defs></defs>
    <g id="Page-1" stroke="none" stroke-width="1" fill="none" fill-rule="evenodd">
        <g id="vacuumcleaners" fill="#000000" fill-rule="nonzero">
            <g id="standard" transform="translate(203.000000, 203.000000)">
                <path d="M1270.6,1121.94 C1268.27,1120.94 1235.6,1107.68 1189.86,1101.94 C1194.66,1096.16 1199.27,1090.22 1203.86,1084.27 C1234.78,1079.38 1256.86,1080.17 1257.27,1080.17 C1264.10391,1080.28136 1269.79046,1074.94421 1270.11209,1068.11696 C1270.43372,1061.28972 1265.27411,1055.4416 1258.46,1054.91 C1247.17767,1054.57689 1235.88555,1054.95095 1224.65,1056.03 C1303.05344,943.561226 1345.00964,809.719583 1344.84,672.62 C1344.84,301.37 1043.89,0.43 672.64,0.42 C301.39,0.41 0.45,301.42 0.44,672.62 C0.270358748,809.719583 42.22656,943.561226 120.63,1056.03 C109.394342,1054.95269 98.1021241,1054.58196 86.82,1054.92 C80.005888,1055.4516 74.8462773,1061.29972 75.1679091,1068.12696 C75.489541,1074.95421 81.1760904,1080.29136 88.01,1080.18 C88.48,1080.18 110.51,1079.39 141.42,1084.28 C146.03,1090.22 150.64,1096.17 155.42,1101.95 C109.66,1107.65 77.01,1120.95 74.68,1121.95 C70.461011,1123.66019 67.4863368,1127.50545 66.8908518,1132.01876 C66.2953669,1136.53208 68.1709243,1141.01727 71.8019761,1143.76319 C75.4330279,1146.50911 80.2594869,1147.0922 84.44,1145.29 C85.04,1145.04 124.14,1129.15 175.9,1125.54 C177.55,1127.34 179.29,1129.06 180.95,1130.84 C125.29,1153.58 88.43,1187 86.21,1189.04 C81.1023512,1193.78192 80.7923692,1201.76185 85.5167798,1206.8857 C90.2411904,1212.00955 98.2200077,1212.34684 103.36,1207.64 C103.89,1207.14 143.05,1171.81 200.14,1150.69 L200.56,1151.09 C148.51,1193.87 121.49,1245.23 119.99,1248.14 C117.781032,1252.17023 117.931698,1257.08147 120.383557,1260.96871 C122.835415,1264.85596 127.202691,1267.10759 131.791378,1266.85023 C136.380065,1266.59288 140.46818,1263.86703 142.47,1259.73 C142.81,1259.08 167.86,1211.4 215.4,1171.73 C180.29,1230.28 172.4,1288.85 171.95,1292.12 C171.065166,1299.04798 175.962403,1305.38216 182.89,1306.27 L184.51,1306.37 C190.854067,1306.36402 196.212515,1301.65987 197.04,1295.37 C197.13,1294.65 204.36,1241.26 235.47,1187.72 C222.47,1254.72 235.08,1312.5 235.81,1315.72 C237.112259,1321.47914 242.225469,1325.57137 248.13,1325.58 C249.068463,1325.57767 250.003916,1325.47374 250.92,1325.27 C257.734187,1323.73874 262.018107,1316.97489 260.49,1310.16 C260.34,1309.47 249.8,1260.35 258.82,1202.23 L261.29,1204.17 C273.17,1267.32 302.17,1313.35 303.88,1316.02 C307.711649,1321.74976 315.425242,1323.35724 321.226653,1319.63496 C327.028064,1315.91269 328.781565,1308.23097 325.17,1302.36 C324.85,1301.86 305.8,1271.5 292.99,1227.36 C301.61,1233.27333 310.376667,1238.98 319.29,1244.48 C343.83,1274.3 366.16,1291.61 367.95,1292.97 C371.938428,1296.02031 377.356467,1296.41371 381.743693,1293.97153 C386.13092,1291.52936 388.651188,1286.71707 388.16,1281.72 C568.453714,1365.90471 776.776286,1365.90471 957.07,1281.72 C956.588324,1286.71362 959.110198,1291.51834 963.49362,1293.95839 C967.877043,1296.39845 973.289491,1296.01041 977.28,1292.97 C979.07,1291.6 1001.4,1274.29 1025.94,1244.48 C1034.84667,1238.96667 1043.61333,1233.26 1052.24,1227.36 C1039.44,1271.47 1020.38,1301.82 1020.06,1302.36 C1016.29342,1308.25288 1018.01712,1316.08342 1023.91,1319.85 C1029.80288,1323.61658 1037.63342,1321.89288 1041.4,1316 C1043.11,1313.33 1072.11,1267.3 1083.99,1204.15 L1086.46,1202.21 C1095.46,1260.33 1084.95,1309.45 1084.79,1310.14 C1083.26189,1316.95489 1087.54581,1323.71874 1094.36,1325.25 C1095.27601,1325.4542 1096.21151,1325.55815 1097.15,1325.56 C1103.05453,1325.55137 1108.16774,1321.45914 1109.47,1315.7 C1110.19,1312.48 1122.76,1254.8 1109.83,1187.81 C1140.83,1241.27 1148.15,1294.63 1148.24,1295.36 C1149.07162,1301.64766 1154.42759,1306.34963 1160.77,1306.36 L1162.4,1306.26 C1169.32355,1305.36716 1174.2151,1299.03454 1173.33,1292.11 C1172.91,1288.83 1164.99,1230.33 1129.93,1171.81 C1177.33,1211.45 1202.47,1259.09 1202.8,1259.73 C1206.06814,1265.81125 1213.60851,1268.14909 1219.74365,1264.98327 C1225.87878,1261.81745 1228.34261,1254.31731 1225.28,1248.13 C1223.78,1245.22 1196.76,1193.86 1144.71,1151.08 L1145.13,1150.68 C1202.22,1171.8 1241.37,1207.13 1241.9,1207.63 C1247.03999,1212.33684 1255.01881,1211.99955 1259.74322,1206.8757 C1264.46763,1201.75185 1264.15765,1193.77192 1259.05,1189.03 C1256.83,1187.03 1219.97,1153.58 1164.31,1130.83 C1165.98,1129.04 1167.72,1127.33 1169.37,1125.52 C1221.13,1129.13 1260.22,1145.03 1260.82,1145.28 C1267.24459,1147.88424 1274.5684,1144.83252 1277.24286,1138.43684 C1279.91732,1132.04115 1276.946,1124.68435 1270.58,1121.94 L1270.6,1121.94 Z M227.15,227.15 C341.24,113.1 498.61,42.63 672.66,42.62 C846.71,42.61 1004.09,113.11 1118.17,227.16 C1232.25,341.21 1302.69,498.62 1302.7,672.67 C1302.71,846.72 1232.21,1004.09 1118.17,1118.18 C1041.36557,1195.01149 945.982556,1250.65588 841.3,1279.7 L841.3,1105 L824.51,1110.82 C726.147325,1144.91436 619.172675,1144.91436 520.81,1110.82 L504,1105 L504,1279.7 C399.316405,1250.65302 303.933292,1195.00512 227.13,1118.17 C113.1,1004.08 42.63,846.71 42.62,672.66 C42.61,498.61 113.1,341.24 227.15,227.15 Z M529.31,1286.15 L529.31,1140.19 C622.71857,1168.88957 722.59143,1168.88957 816,1140.19 L816,1286.13 C721.71413,1308.22784 623.59587,1308.22784 529.31,1286.13 L529.31,1286.15 Z" id="Shape"></path>
                <path d="M360.84,335.09 C536.907982,172.458104 808.402018,172.458104 984.47,335.09 C991.310047,341.410898 1001.9791,340.990046 1008.3,334.149999 C1014.6209,327.309953 1014.20005,316.640899 1007.36,310.32 C818.368014,135.747033 526.941986,135.747033 337.95,310.32 C331.109954,316.640899 330.689101,327.309953 337.01,334.15 C343.330899,340.990046 353.999953,341.410899 360.84,335.09 Z" id="Shape"></path>
                <path d="M672.66,1043.67 C877.57,1043.67 1043.66,877.57 1043.66,672.67 C1043.66,467.77 877.56,301.67 672.66,301.67 C467.76,301.67 301.66,467.77 301.66,672.67 C301.66,877.57 467.75,1043.65 672.66,1043.67 Z M672.66,504.02 C765.66,504.02 841.3,579.67 841.3,672.66 C841.3,765.65 765.65,841.3 672.66,841.3 C579.67,841.3 504,765.65 504,672.66 C504,579.67 579.67,504 672.66,504 L672.66,504.02 Z" id="Shape"></path>
                <path d="M672.66,816 C751.7,816 816,751.7 816,672.66 C816,593.62 751.7,529.32 672.66,529.32 C593.62,529.32 529.32,593.62 529.32,672.66 C529.32,751.7 593.62,816 672.66,816 Z" id="Shape"></path>
            </g>
        </g>
    </g>
</svg>